<?xml version="1.0" encoding="UTF-8"?>
<svg enable-background="new 0 0 276 198" version="1.0" viewBox="0 0 276 198" xml:space="preserve" xmlns="http://www.w3.org/2000/svg">
<style type="text/css">
	.st0{fill:#EE2922;}
</style>
<path class="st0" d="M45.1,83.3H27V66.7h56v16.5H64.9v48H45.1V83.3z"/>
<path class="st0" d="M86.1,66.7h54.4v16.5H106v8h34.5v15.4H106v8h34.5v16.5H86.1V66.7z"/>
<path class="st0" d="m163.7 114.7h7.8c12.4 0 14.2-10 14.2-16.1 0-4.1-1.3-15.3-15.6-15.3h-6.3v31.4zm-19.9-48h32.6c21.5 0 29.1 15.9 29.1 32.2 0 19.8-10.5 32.3-33 32.3h-28.7v-64.5z"/>
<path class="st0" d="M234.1,106.4L228,96.3l-5.9,10.1h-14.6L221.3,86L208,66.6h14.6l5.4,9.6l5.5-9.6h14.6L234.8,86l13.8,20.3H234.1z  "/>
</svg>
