<svg id="Livello_1" data-name="Livello 1" xmlns="http://www.w3.org/2000/svg" viewBox="0 0 1080 1080">
<defs>
<style>
.rect1ciao{
  width:40px;
}
.rect2ciao{
  width:470px;
}
</style>
</defs>
<polygon fill="#67cfee" points="235.91 664.07 100 664.07 100 800.03 235.91 664.07"/>
<path fill="#67cfee" d="M405.91,449.92C405.91,356.06,329.85,280,236,280H100.11V619.88H236c93.83,0,169.89-76.1,169.89-170"/>
<path fill="#1d1d1b" d="M567,353.75q6.56-5.61,6.56-16T567,321.68Q560.38,316,547.47,316H524.18v43.4h23.29q12.91,0,19.48-5.61m18-64.15q14.82,6.67,22.87,19.06t8,29.11q0,16.73-8,29t-22.87,19q-14.82,6.67-34.93,6.67H524.18v38.74H482.26V282.94H550q20.12,0,34.93,6.66"/>
<rect class="rect1ciao" fill="#1d1d1b" x="623.48" y="282.94" width="41.92" height="148.2"/>
<path fill="#1d1d1b" d="M714.62,424.26a73.59,73.59,0,0,1-29.11-27.42Q674.92,379.26,674.92,357t10.59-39.8a73.5,73.5,0,0,1,29.11-27.41Q733.15,280,756.43,280q20.34,0,36.63,7.2a70.52,70.52,0,0,1,27.1,20.75l-26.68,24.13q-14.4-17.35-34.93-17.36a43.12,43.12,0,0,0-21.49,5.3,36.7,36.7,0,0,0-14.61,14.92,49.75,49.75,0,0,0,0,44.25,36.79,36.79,0,0,0,14.61,14.93,43.11,43.11,0,0,0,21.49,5.29q20.54,0,34.93-17.36l26.68,24.13a70.32,70.32,0,0,1-27.1,20.75q-16.3,7.2-36.63,7.2-23.28,0-41.81-9.84"/>
<path fill="#1d1d1b" d="M918,394.09a38.26,38.26,0,0,0,14.4-14.93,48.91,48.91,0,0,0,0-44.25A38.26,38.26,0,0,0,918,320a41.69,41.69,0,0,0-40.65,0,38.12,38.12,0,0,0-14.4,14.93,48.91,48.91,0,0,0,0,44.25,38.12,38.12,0,0,0,14.4,14.93,41.69,41.69,0,0,0,40.65,0m-62.56,30.06A74.72,74.72,0,0,1,826,396.63q-10.69-17.58-10.69-39.6T826,317.44a74.79,74.79,0,0,1,29.43-27.52Q874.15,280,897.65,280t42.23,9.95a74.86,74.86,0,0,1,29.43,27.52Q980,335,980,357t-10.69,39.6a74.79,74.79,0,0,1-29.43,27.52q-18.74,10-42.23,10t-42.24-10"/>
<rect class="rect2ciao" fill="#67cfee" x="482" y="563.26" width="467" height="8.34" />
<path d="M530.43,538.4c0,9.18-7.28,14.49-21.25,14.49H481.71V499.78h26c13.28,0,20.11,5.54,20.11,13.81a12.77,12.77,0,0,1-7.06,11.68C526.64,527.17,530.43,531.72,530.43,538.4ZM493.93,509v12.53h12.22c6,0,9.26-2.13,9.26-6.3s-3.27-6.23-9.26-6.23Zm24.13,28.08c0-4.48-3.41-6.6-9.79-6.6H493.93v13.13h14.34C514.65,543.64,518.06,541.66,518.06,537.11Z"/>
<path d="M574.75,541.51H550.09l-4.71,11.38H532.79l23.67-53.11H568.6l23.75,53.11h-12.9Zm-3.87-9.33-8.42-20.34L554,532.18Z"/>
<path d="M593.72,547.66l4.18-9.26a31.24,31.24,0,0,0,17.53,5.54c7.28,0,10.24-2.43,10.24-5.69,0-9.94-30.88-3.11-30.88-22.84,0-9,7.28-16.54,22.38-16.54,6.68,0,13.51,1.59,18.44,4.7l-3.79,9.33a30.11,30.11,0,0,0-14.73-4.17c-7.28,0-10.09,2.73-10.09,6.07,0,9.79,30.89,3,30.89,22.54,0,8.88-7.36,16.46-22.54,16.46C606.93,553.8,598.43,551.3,593.72,547.66Z"/>
<path d="M646.31,499.78H658.6v53.11H646.31Z"/>
<path d="M671.2,499.78h12.29v43.1h26.64v10H671.2Z"/>
<path d="M717,499.78h12.29v53.11H717Z"/>
<path d="M738.59,526.34c0-16,12.29-27.47,28.83-27.47,9.18,0,16.85,3.34,21.86,9.41l-7.9,7.28A17.06,17.06,0,0,0,768,509.34c-9.94,0-17,7-17,17s7.06,17,17,17A16.91,16.91,0,0,0,781.38,537l7.9,7.28c-5,6.15-12.68,9.48-21.93,9.48C750.88,553.8,738.59,542.35,738.59,526.34Z"/>
<path d="M831.47,541.51H806.81l-4.71,11.38H789.51l23.67-53.11h12.14l23.75,53.11h-12.9Zm-3.87-9.33-8.42-20.34-8.43,20.34Z"/>
<path d="M863,509.79H846v-10h46.28v10h-17v43.1H863Z"/>
<path d="M931.19,541.51H906.52l-4.7,11.38h-12.6l23.68-53.11H925l23.75,53.11h-12.9Zm-3.87-9.33-8.43-20.34-8.42,20.34Z"/>
</svg>