<svg xmlns:dc="http://purl.org/dc/elements/1.1/" xmlns:cc="http://creativecommons.org/ns#" xmlns:rdf="http://www.w3.org/1999/02/22-rdf-syntax-ns#" xmlns:svg="http://www.w3.org/2000/svg" xmlns="http://www.w3.org/2000/svg" xml:space="preserve" id="svg2" version="1.1" viewBox="48.22 502.5 708.82 159.75"><metadata id="metadata8"><rdf:rdf><cc:work rdf:about=""><dc:format>image/svg+xml</dc:format><dc:type rdf:resource="http://purl.org/dc/dcmitype/StillImage"></dc:type></cc:work></rdf:rdf></metadata><defs id="defs6"><clipPath id="clipPath20" clipPathUnits="userSpaceOnUse"><path id="path18" d="M 0,498.9067 H 595 V 302.6365 H 0 Z"></path></clipPath><clipPath id="clipPath26" clipPathUnits="userSpaceOnUse"><path id="path24" d="M 0,343.0933 H 595 V 498.9067 H 0 Z"></path></clipPath><clipPath id="clipPath58" clipPathUnits="userSpaceOnUse"><path id="path56" d="m 82.51186,236.9828 h 399.6993 V 371.909 H 82.51186 Z"></path></clipPath><clipPath id="clipPath72" clipPathUnits="userSpaceOnUse"><path id="path70" d="M 238.2768,251.3031 H 415.595 V 386.2293 H 238.2768 Z"></path></clipPath></defs><g transform="matrix(1.3333333,0,0,-1.3333333,0,1122.6667)" id="g10"><g id="g12"></g><g id="g14"><g clip-path="url(#clipPath20)" id="g16"><g clip-path="url(#clipPath26)" id="g22"><path id="path28" style="fill:#231f20;fill-opacity:1;fill-rule:nonzero;stroke:none" d="m 492.1882,423.3545 c 3.4529,-0.2317 3.7952,0.0316 4.3569,3.4458 0.3985,2.4102 0.8443,4.8221 1.0497,7.2516 0.1036,1.227 0.1492,3.1772 -0.5284,3.6003 -1.4359,0.8952 -2.224,-0.9128 -3.0245,-1.8432 -2.6787,-3.1088 -5.3048,-6.2685 -7.8185,-9.5089 -0.4687,-0.6004 -0.6811,-1.8432 -0.3686,-2.4734 0.2861,-0.581 1.4306,-1.0128 2.2012,-1.0199 1.378,-0.0123 2.756,0.3458 4.1322,0.5477 m -49.9777,-0.6003 c -0.6197,-0.7882 -1.1235,-1.7203 -1.8853,-2.3365 -2.2469,-1.8168 -4.6395,-3.4563 -6.8917,-5.2661 -1.2919,-1.0375 -2.5646,-2.1609 -3.5915,-3.4494 -1.1656,-1.4622 -2.0485,-3.1368 -3.9812,-3.7863 -0.2721,-0.0913 -0.5635,-0.4529 -0.639,-0.7443 -0.6705,-2.5805 -2.7103,-3.7302 -4.8484,-4.8449 -0.5634,-0.2932 -1.1901,-0.8215 -1.399,-1.3868 -1.3675,-3.6986 -3.588,-6.7494 -6.6512,-9.207 -0.2159,-0.172 -0.5547,-0.3546 -0.5828,-0.567 -0.3984,-2.9578 -2.9824,-3.3791 -5.0537,-3.9672 -2.4857,-0.7056 -4.5395,1.0234 -6.5669,2.2259 -0.46,0.2738 -0.8268,1.0357 -0.8795,1.6044 -0.258,2.7999 -0.8356,5.4891 0.1211,8.4311 1.1516,3.5442 1.4798,7.3709 2.0012,11.0976 0.1544,1.1059 2.5892,12.3071 2.368,13.4375 -0.0211,0.1106 -2.7402,-3.7126 -3.0017,-3.9496 -0.8689,-0.7899 -2.8438,-4.4236 -4.0269,-5.2925 -1.887,-1.3832 -3.107,-3.0509 -4.2445,-4.6255 -1.8028,-2.4944 -3.4265,-5.1169 -5.275,-7.5727 -2.2574,-2.9965 -4.6992,-5.8542 -7.011,-8.8103 -3.2352,-4.1392 -7.6166,-5.4803 -12.6529,-5.3311 -0.9005,0.0263 -1.808,-0.0492 -2.7085,-0.1018 -1.9222,-0.1124 -3.581,0.4529 -4.9994,1.7799 -1.7343,1.6167 -3.495,3.2054 -5.2819,4.7659 -0.402,0.3511 -1.1147,0.8742 -1.4149,0.7355 -1.8273,-0.8443 -3.2123,0.009 -4.7079,0.8496 -0.4722,0.2651 -1.2955,0.2037 -1.8397,-0.0123 -2.2732,-0.9022 -4.7079,-1.2796 -6.8355,-2.7331 -1.5605,-1.0655 -3.6284,-1.3832 -5.4628,-2.0556 -2.3311,-0.8566 -4.5991,-1.9853 -7.0004,-2.5154 -1.7712,-0.3897 -3.7109,-0.0299 -5.5769,0.0351 -0.6179,0.0228 -1.2973,0.3774 -1.8414,0.2159 -4.1884,-1.2376 -7.8536,0.5143 -11.4399,2.138 -1.0761,0.4863 -1.9222,2.0135 -2.375,3.2458 -2.5032,6.8284 -1.622,13.5744 1.2814,20.0132 1.0673,2.3645 3.1667,4.2498 4.6886,6.4282 4.0515,5.7998 7.9836,11.6839 12.0806,17.4503 3.2773,4.6114 6.7179,9.1017 10.0988,13.6377 0.502,0.674 1.1006,1.2796 1.5886,1.9642 1.5325,2.1539 2.7384,4.5395 4.8431,5.8929 2.9491,1.8958 5.4927,-4.1901 8.4259,-5.3715 0.7197,-0.2896 2.2873,-2.3715 2.3171,-3.3704 0.0597,-1.9309 0.811,-1.6834 0.5951,-3.6196 -0.0263,-0.244 -0.251,-0.4809 -0.423,-0.6933 -3.4353,-4.2253 -7.6325,-7.7852 -10.3586,-12.6511 -2.0415,-3.6425 -5.0871,-6.5617 -8.2872,-9.2948 -1.292,-1.1024 -2.1275,-2.7244 -3.3089,-3.9813 -3.2054,-3.4124 -5.2521,-7.5622 -7.4587,-11.5996 -0.509,-0.9321 -0.5564,-2.1696 -0.6214,-3.279 -0.0719,-1.1972 2.4909,-2.5471 4.0936,-2.3119 5.8419,0.8601 11.2591,3.0281 16.2303,6.0421 2.6103,1.5851 4.6237,4.1637 6.8847,6.3159 0.9619,0.9145 1.9485,1.8238 2.7893,2.8454 4.0391,4.9204 8.0432,9.8724 12.0349,14.8313 0.567,0.7039 1.0322,1.4956 1.4974,2.275 1.0181,1.7063 1.5079,3.8039 3.7302,4.5798 0.4441,0.1545 0.718,0.8338 1.0374,1.2902 1.8362,2.6156 3.7285,5.1942 5.4733,7.8695 1.213,1.8642 2.2206,3.8618 3.3125,5.805 0.9689,1.7186 2.3978,2.1153 3.6406,0.5635 1.6413,-2.0485 2.9737,-4.3797 4.1919,-6.7161 0.7267,-1.3938 0.9075,-3.0614 1.4798,-4.55 0.5073,-1.3183 0.4073,-2.2925 -0.588,-3.43 -1.464,-1.6747 -2.5173,-3.7109 -3.9778,-5.3908 -4.1076,-4.722 -6.5897,-10.4499 -9.788,-15.723 -2.4049,-3.9637 -5.8209,-8.131 -7.7237,-12.3861 -0.5284,-1.1831 -1.1042,-2.3996 -1.2639,-3.7126 -0.1457,-1.2042 1.0216,-2.7191 2.5295,-3.4757 1.0901,-0.5477 3.5389,0.7513 4.3428,1.8958 0.4354,0.6214 1.2885,0.5249 1.5448,1.2446 1.4991,4.2182 3.8636,7.8325 6.7881,11.2573 2.7559,3.2282 4.8729,7.0093 7.2392,10.5675 3.4915,5.2556 6.9355,10.5446 10.4516,15.7827 0.8566,1.2761 1.9818,2.3697 2.8595,3.6319 1.7028,2.4575 3.2528,5.0204 4.9906,7.4498 1.0111,1.4149 2.2065,2.7156 3.4476,3.9391 0.3932,0.3897 1.1954,0.4003 1.8256,0.5109 0.9602,0.1685 2.0643,0.0263 2.8718,0.4564 1.9116,1.0198 5.3294,1.2867 6.8197,0.086 1.9344,-1.5588 2.7788,-3.7004 2.4628,-6.1527 -0.3739,-2.8929 -1.1322,-5.6804 -0.8882,-8.712 0.1474,-1.8379 -1.0497,-3.8162 -1.7817,-5.6769 -0.962,-2.4417 -2.3698,-4.6939 -1.1604,-7.5728 0.3704,-0.8776 -0.4125,-2.2381 -0.6582,-3.3791 -0.1668,-0.7653 -1.5518,-7.1023 -1.708,-7.8711 0.9707,0.2176 3.3493,4.4639 4.2656,4.8185 0.3616,0.1404 1.4798,1.88 1.8168,2.2118 0.7689,0.7513 1.2007,1.6237 1.9748,2.3698 1.7958,1.7308 3.0228,3.5459 4.5675,5.4803 2.0784,2.605 3.9321,5.3241 6.4072,7.664 3.0263,2.8596 5.5102,6.2931 8.2275,9.4791 0.137,0.1615 0.223,0.3932 0.3897,0.4915 1.9748,1.1533 3.6899,2.5787 5.0099,4.4763 0.1843,0.2651 0.7636,0.2282 1.1164,0.4143 0.6671,0.3545 1.5114,0.6179 1.9152,1.1813 1.5535,2.1662 4.2112,2.6788 6.3756,1.1726 1.8888,-1.3165 3.8794,-2.4909 5.7664,-3.8092 1.1867,-0.825 1.5869,-1.9397 1.2902,-3.4791 -0.502,-2.5928 -0.488,-5.3031 -1.1515,-7.8431 -0.6952,-2.6472 -1.9397,-5.1503 -2.9385,-7.7202 -0.1721,-0.4371 -0.3143,-0.8865 -0.4722,-1.3289 -0.3616,-1.0181 -0.7531,-2.0274 -1.0796,-3.0579 -0.4231,-1.3393 -0.8075,-2.6927 -1.1849,-4.0444 -0.072,-0.258 0.0263,-0.5652 -0.0597,-0.8145 -0.5793,-1.6816 -1.1884,-3.3545 -1.7835,-5.0292 -0.0456,-0.1299 -0.3545,-1.9555 -0.8566,-2.5435 -0.1351,-0.1598 -2.1977,-4.873 -1.9959,-4.9871 0.5073,-0.2861 3.4178,3.1264 3.7671,3.3721 1.7449,1.2305 3.4406,2.5559 5.0134,4.0006 2.4277,2.2258 4.7624,4.5517 7.083,6.8881 0.4617,0.4634 0.7952,1.1252 1.0006,1.7571 0.739,2.268 1.9678,4.1199 3.9689,5.4997 0.474,0.3282 0.6197,1.1427 0.904,1.7396 0.3511,0.7355 0.553,1.5939 1.062,2.1907 1.7273,2.0327 3.5793,3.9584 5.3575,5.949 2.6506,2.9631 5.1591,6.0649 7.9624,8.8753 1.8555,1.8624 4.0129,3.4827 6.2299,4.908 2.3874,1.5343 5.2293,1.5553 7.9432,1.2604 1.9221,-0.2089 3.7811,-0.9619 5.6769,-1.4377 0.962,-0.2404 1.2288,-0.602 1.1761,-1.7466 -0.0737,-1.6167 0.5863,-3.2492 0.7109,-4.8922 0.3318,-4.3674 0.5407,-8.7436 0.8075,-13.1146 0.0983,-1.6009 0.1492,-3.2106 0.3493,-4.8009 0.3687,-2.9561 0.8549,-5.8999 1.2411,-8.8542 0.151,-1.1621 0.6355,-1.6589 1.8818,-1.7484 5.6348,-0.409 11.2573,-0.9953 16.8921,-1.385 3.839,-0.2651 7.7027,-0.1861 11.5364,-0.481 5.4804,-0.4213 10.9484,-0.997 16.4112,-1.6079 1.7238,-0.1949 3.4353,-0.6425 5.1082,-1.1252 0.5827,-0.1703 1.0356,-0.7987 1.5465,-1.2165 -0.4898,-0.3581 -0.9497,-0.969 -1.4781,-1.0374 -3.8162,-0.4986 -7.643,-0.9357 -11.4732,-1.3025 -8.777,-0.8391 -17.6557,-0.2107 -26.3765,-2.0293 -4.2323,-0.8829 -8.5733,-1.22 -12.8512,-1.894 -3.7162,-0.5863 -5.1837,-2.512 -5.2048,-6.3054 -0.005,-1.0164 -0.3879,-2.0398 -0.6582,-3.0438 -1.3517,-5.0503 -2.7806,-10.0813 -4.0673,-15.1473 -0.732,-2.8753 -1.1813,-5.8209 -1.8747,-8.7085 -1.1849,-4.9379 -2.3048,-9.9004 -3.7548,-14.7628 -1.0655,-3.581 -2.5769,-7.0356 -3.983,-10.5078 -0.3282,-0.8127 -1.0655,-1.4499 -1.5517,-2.2083 -0.4442,-0.6951 -0.7882,-1.4534 -1.2025,-2.1679 -0.1685,-0.2861 -0.3932,-0.7478 -0.6161,-0.7618 -1.3306,-0.0878 -1.9713,-0.8725 -2.6349,-1.9432 -0.6073,-0.976 -1.1971,-0.1475 -1.5236,0.4844 -0.9918,1.9222 -0.295,3.8549 0.1421,5.7314 0.9673,4.1515 2.2996,8.2328 3.0597,12.4176 1.5114,8.3416 2.2223,16.771 2.0555,25.2706 -0.0772,3.9163 0.2318,7.8378 0.2458,11.7576 0.007,1.952 -0.2229,3.9075 -0.4037,5.856 -0.1422,1.5167 -1.4658,1.4166 -2.4225,1.4271 -4.0444,0.0369 -8.0923,-0.0772 -12.1367,-0.0965 -2.4927,-0.0105 -4.9889,0.1141 -7.4798,0.0597 -2.0239,-0.0474 -3.5371,-0.9216 -4.5096,-2.8596 -0.8654,-1.7237 -2.1889,-2.9789 -3.8952,-4.1637 -3.4792,-2.4207 -6.5283,-5.4681 -9.6757,-8.3452 -2.1222,-1.9379 -3.9443,-4.2427 -6.2176,-5.9648 -1.2954,-0.9795 -3.2,-1.3657 -4.8835,-1.5675 -1.9291,-0.2282 -3.9443,-0.1335 -5.863,0.1825 -0.811,0.1317 -1.8344,1.0515 -2.1293,1.8467 -0.8864,2.3908 -0.409,4.7957 0.3915,7.1936 1.6869,5.0432 3.3072,10.111 4.8168,15.2104 0.3897,1.3096 0.0807,2.8174 0.4178,4.1515 0.6969,2.7683 1.6114,5.4821 2.4382,8.217 -0.0825,0.0562 -0.165,0.1124 -0.2475,0.1668"></path><path id="path30" style="fill:#231f20;fill-opacity:1;fill-rule:nonzero;stroke:none" d="m 183.1316,424.5022 c 0.0421,0.003 0.086,0.005 0.1281,0.009 -0.1474,1.5324 -0.2387,3.0719 -0.4844,4.5886 -0.0615,0.3897 -0.4055,2.8858 -0.5653,2.8209 -1.4763,-0.5969 -3.6793,-2.8016 -4.6009,-3.9163 -2.1328,-2.5822 -5.6155,-5.4189 -6.774,-8.8279 -0.3704,-1.0866 0.4546,-0.7425 1.2568,-0.8443 2.3874,-0.3019 4.8748,-0.8724 7.1831,-0.4915 3.2457,0.5371 3.6266,1.4043 3.8513,4.7711 0.0422,0.6285 0.005,1.2604 0.005,1.8906 M 72.38404,446.7535 c -2.52601,0 -5.05377,0.0474 -7.57802,-0.0105 -4.17432,-0.0948 -8.21874,0.5266 -12.21927,1.7308 -4.44816,1.3394 -9.11399,1.1849 -13.67976,1.7133 -0.92509,0.1088 -1.82209,0.4599 -2.73138,0.6986 0.64598,0.7373 1.20244,1.5869 1.9555,2.1907 2.53303,2.0363 5.70326,1.6045 8.63827,2.0837 2.39085,0.3914 4.83786,0.5652 7.16375,1.1901 4.17959,1.1182 8.38726,1.3306 12.67392,1.2148 1.84667,-0.0474 3.71089,0.6021 5.55932,0.5599 8.08181,-0.1843 16.1057,0.4599 24.08922,1.5781 3.93561,0.5512 7.81151,1.5167 11.72251,2.2557 3.9022,0.739 7.8167,1.4113 11.7172,2.1591 0.7285,0.1387 1.4254,0.4705 2.1188,0.7566 1.2393,0.5108 2.2065,0.1896 2.8437,-0.9602 1.4113,-2.5471 0.9409,-5.0064 -1.1884,-7.0567 -4.0374,-3.8864 -8.0362,-7.815 -12.0472,-11.7277 -0.2511,-0.2458 -0.5916,-0.4863 -0.6811,-0.7917 -1.0708,-3.6003 -4.3868,-5.2872 -6.6179,-7.8975 -1.8045,-2.1135 -3.3721,-4.4447 -4.88696,-6.7811 -0.94616,-1.457 -0.38794,-2.4786 1.28316,-2.1363 2.2224,0.4529 4.4113,1.3095 6.4616,2.3066 4.722,2.2925 9.3914,4.6992 14.001,7.2111 2.519,1.3728 4.794,3.1913 7.3147,4.5605 5.3259,2.8929 9.9338,6.7267 14.6294,10.4955 3.4617,2.7806 7.2603,5.1451 10.9414,7.65 1.8958,1.2902 6.0965,0.8654 7.7044,-0.725 0.2721,-0.2685 0.6319,-0.7443 0.5565,-1.0181 -0.8023,-2.9438 1.141,-4.629 2.9929,-6.1684 1.0567,-0.8777 0.7706,-0.9181 -0.065,-1.6659 -1.6957,-1.5184 -3.0596,-3.4037 -4.7448,-4.9362 -1.0374,-0.9461 -2.4136,-1.5219 -3.6424,-2.2574 -0.4722,-0.2844 -0.9672,-0.5336 -1.4289,-0.8338 -2.6752,-1.7378 -5.3838,-3.4283 -7.9993,-5.2486 -2.1188,-1.4763 -4.1024,-3.1422 -6.1842,-4.6729 -2.6946,-1.9818 -5.4611,-3.8706 -8.131,-5.884 -1.3727,-1.0357 -2.6665,-2.1995 -3.8566,-3.4388 -0.2879,-0.2985 -0.1527,-1.1726 0.014,-1.7115 0.8848,-2.8631 1.8239,-5.7086 2.7841,-8.547 0.2194,-0.6443 0.5459,-1.2674 0.9145,-1.8432 1.0375,-1.6114 2.1873,-1.4938 3.8795,-0.6793 3.9004,1.873 6.6511,5.059 9.774,7.8325 0.1562,0.1369 0.3423,0.2897 0.409,0.474 1.2323,3.4142 4.2919,4.7079 7.0549,6.5581 3.3984,2.275 6.3176,5.2662 9.444,7.9502 3.0035,2.5786 6.1368,5.0239 8.9788,7.7693 3.5125,3.3932 6.7881,7.0321 10.1584,10.5745 0.237,0.2493 0.467,0.5459 0.5846,0.8636 0.5354,1.4518 0.6741,2.8929 2.9736,3.0737 1.2639,0.0983 2.4593,1.8502 3.567,2.9719 1.9239,1.9467 3.3651,2.11 5.0169,-0.0597 1.0041,-1.3183 1.7483,-3.0491 1.9748,-4.6798 0.1878,-1.3692 0.6495,-2.0521 1.8203,-2.4067 1.2341,-0.3739 1.5904,-1.0637 1.371,-2.3733 -0.2651,-1.5728 -0.1475,-3.2036 -0.316,-4.7957 -0.8039,-7.5569 -2.0994,-15.0858 -1.4183,-22.72 0.0772,-0.8689 0.9075,-1.7484 1.5588,-2.4681 0.7249,-0.8004 1.7641,-1.3236 2.461,-2.1416 2.2943,-2.6962 2.4172,-4.894 0.0737,-7.3831 -0.9918,-1.0533 -2.6015,-1.622 -4.0286,-2.1346 -1.1287,-0.4037 -1.4148,-0.8935 -1.4728,-2.0907 -0.0842,-1.6974 -0.8022,-3.358 -0.9444,-5.0572 -0.1948,-2.3066 -0.0649,-4.6378 -0.1421,-6.9566 -0.0808,-2.361 -0.1914,-4.7238 -0.388,-7.076 -0.1141,-1.3569 -2.0222,-2.4172 -3.1948,-1.6132 -1.3446,0.918 -2.6559,2.0924 -3.516,3.4493 -0.9795,1.5465 -1.9222,2.8806 -3.7531,3.43 -1.6413,0.4933 -2.1661,1.7344 -2.2872,3.3827 -0.1896,2.5751 -0.6092,5.131 -0.883,7.6991 -0.2054,1.9397 -1.3043,2.6384 -3.1492,2.4979 -3.4932,-0.2633 -6.9899,-0.5038 -10.4867,-0.7372 -3.6389,-0.244 -7.3217,-0.1984 -10.9062,-0.7706 -3.7565,-0.6004 -7.4218,-1.7712 -11.1169,-2.7314 -0.3686,-0.0948 -0.6811,-0.4371 -0.9988,-0.6916 -1.7168,-1.3745 -3.4967,-2.684 -5.117,-4.1656 -0.9303,-0.8531 -1.9169,-1.8818 -2.3118,-3.0263 -0.5056,-1.4622 -0.5056,-3.1176 -0.6004,-4.6974 -0.1351,-2.2329 -2.5014,-4.5482 -4.7641,-4.7448 -0.9303,-0.0825 -1.8835,-0.4476 -2.7261,-0.8795 -2.1153,-1.0866 -3.8952,-0.6354 -4.8923,1.5026 -0.8338,1.787 -2.375,3.2774 -2.0959,5.5699 0.079,0.6477 -0.955,1.3587 -1.1849,2.1275 -0.4318,1.4447 -0.5284,2.9895 -0.9813,4.4254 -0.6723,2.1328 -1.571,4.1936 -2.3048,6.3106 -0.732,2.1135 -1.4429,4.2375 -2.0415,6.3914 -0.5881,2.1152 -1.5869,4.2182 -3.6109,4.8168 -1.9186,0.5687 -3.8934,-0.2353 -5.7418,-1.6238 -2.3768,-1.7817 -5.1837,-3.0508 -7.92387,-4.2796 -5.28548,-2.3698 -10.64819,-4.5693 -15.98809,-6.818 -2.48739,-1.0462 -3.12986,-3.3615 -4.11814,-5.5487 -1.76417,-3.9023 -3.59153,-7.4324 -4.478,-11.9964 -0.04916,-0.2528 -0.7636,-1.4815 -0.79871,-1.7554 -0.38794,-3.0263 -0.19836,-3.6477 -1.89582,-1.8958 -2.7349,2.8227 -6.03327,7.7922 -4.81328,12.0104 1.10063,3.8039 1.46926,7.7448 2.94204,11.5311 2.21705,5.6963 4.50257,11.289 7.7044,16.52 1.26213,2.0609 1.81508,4.5465 2.98241,6.6775 1.94322,3.5494 4.16028,6.9479 6.18951,10.4516 1.38324,2.3944 2.71734,4.8221 3.92329,7.3077 0.66178,1.3622 0.04564,2.3119 -1.49032,2.5313 -1.52368,0.2194 -3.04736,0.5512 -4.57455,0.5828 -3.92681,0.0842 -7.85537,0.0281 -11.78393,0.0281 z"></path><path id="path32" style="fill:#231f20;fill-opacity:1;fill-rule:nonzero;stroke:none" d="m 202.4451,441.5075 c 0.0439,0.3476 0.086,0.6952 0.1299,1.0427 0.1633,1.3447 -0.1668,3.2791 0.5916,3.9093 1.5991,1.3306 3.6863,2.4997 5.7155,2.8069 5.8841,0.8917 11.8313,1.3709 17.7646,1.9046 1.1708,0.1053 2.3855,-0.2651 3.5792,-0.4213 0.1984,-0.0264 0.4266,-0.1879 0.5828,-0.1317 5.6787,2.0942 11.5961,0.7496 17.3871,1.1744 6.0368,0.4441 12.1017,0.5055 18.1525,0.746 5.5839,0.2229 11.1731,0.3704 16.7464,0.725 2.8368,0.1808 5.6419,0.7759 8.468,1.1287 3.5284,0.4406 7.055,0.9953 10.5991,1.1901 3.7934,0.2072 7.5078,0.481 11.2327,1.4658 2.4225,0.6407 5.124,0.2598 7.6992,0.2738 0.2545,0.002 0.5125,-0.4353 0.7636,-0.674 1.0023,-0.962 2.0573,-1.8765 2.9806,-2.9087 0.3897,-0.4336 0.6636,-1.1006 0.7162,-1.6852 0.2826,-3.0983 -0.3809,-5.4926 -3.3545,-7.485 -3.567,-2.3891 -7.2884,-4.3235 -11.1573,-6.0754 -0.481,-0.2159 -0.8619,-0.6705 -1.2621,-1.0444 -0.7057,-0.6653 -1.3429,-1.4131 -2.0907,-2.0258 -4.6307,-3.7916 -9.2913,-7.5481 -13.929,-11.3345 -2.6366,-2.1521 -5.2486,-4.3393 -7.8712,-6.509 -0.0544,-0.0439 -0.1492,-0.0614 -0.1738,-0.1141 -1.4446,-3.2124 -8.963,-6.0403 -11.2432,-8.0836 -1.4939,-1.3393 1.3569,-0.8145 3.1614,-1.8958 1.7642,-1.062 4.8449,-1.8326 6.8408,-2.3978 3.2948,-0.9322 6.6564,-1.6396 10.0022,-2.3962 2.3013,-0.5213 3.7846,-1.3709 4.4938,-4.1163 0.8268,-3.2036 0.5512,-6.2106 -0.0966,-9.2 -0.2106,-0.969 -1.9344,-2.0609 -3.1052,-2.2522 -1.4131,-0.2317 -3.1229,0.1229 -4.4412,0.7653 -4.4674,2.1732 -9.0947,3.3599 -14.0396,4.0761 -6.0719,0.8776 -11.9998,2.7436 -17.9962,4.1637 -3.7531,0.8883 -7.5184,1.7326 -11.2732,2.6173 -1.636,0.3845 -3.2913,0.7285 -4.8799,1.2622 -2.2943,0.7706 -2.8754,2.1187 -2.598,4.5517 0.3212,2.8349 1.7255,4.5552 4.2234,6.0034 5.756,3.3335 11.2802,7.0619 16.9308,10.578 4.4394,2.763 8.9103,5.4751 13.3954,8.1608 2.8209,1.6869 5.0748,3.595 7.9133,5.2521 0.8478,0.4933 1.9853,0.5196 2.5295,1.2639 0.6547,0.897 4.6939,3.6776 4.4218,4.5272 -0.2405,0.7513 -4.6096,0.1492 -5.6155,0.1579 -2.7244,0.0264 -5.461,-0.2615 -8.1766,-0.5599 -5.7033,-0.6232 -11.4083,-1.2639 -17.094,-2.0345 -3.4669,-0.4687 -6.925,-1.0849 -10.3427,-1.8344 -2.4962,-0.5477 -3.5898,-2.7279 -4.6782,-4.7729 -0.3247,-0.6126 -0.409,-1.3499 -0.7355,-1.9608 -3.2703,-6.1158 -6.4984,-12.2544 -9.8793,-18.3105 -3.6547,-6.5493 -7.4657,-13.0127 -11.1924,-19.5234 -1.1129,-1.9485 -1.8431,-4.234 -3.3229,-5.8332 -2.9315,-3.1632 -4.9485,-6.616 -5.7384,-10.8799 -0.1755,-0.9461 -1.2323,-1.8572 -2.0907,-2.5172 -1.22,-0.9391 -2.9613,-0.4582 -3.2492,0.9339 -0.7355,3.5529 -1.7659,7.1514 -1.7326,10.7254 0.0334,3.7074 1.1972,7.3375 3.5547,10.5165 1.3306,1.7941 2.0345,4.0532 3,6.1123 0.9777,2.0837 1.8045,4.2516 2.9245,6.2545 2.4171,4.3182 5.0555,8.5154 7.4481,12.8494 0.9286,1.6852 3.9426,5.7138 4.6746,7.5113 1.0427,2.5647 2.1714,3.7899 3.581,6.0052 0.7372,1.1568 0.7372,1.2639 0.5266,1.5799 -0.5266,0.7899 -2.361,0.3791 -3.3721,0.6214 -6.1913,1.485 -12.2562,-0.1018 -18.328,-0.969 -5.4891,-0.7811 -7.873,2.5102 -7.6711,7.09"></path></g></g></g><g id="g52"></g></g></svg>