<svg xmlns:dc="http://purl.org/dc/elements/1.1/" xmlns:cc="http://creativecommons.org/ns#" xmlns:rdf="http://www.w3.org/1999/02/22-rdf-syntax-ns#" xmlns:svg="http://www.w3.org/2000/svg" xmlns="http://www.w3.org/2000/svg" xml:space="preserve" id="svg2" version="1.1" viewBox="95.43 376.23 647.33 204.75"><metadata id="metadata8"><rdf:rdf><cc:work rdf:about=""><dc:format>image/svg+xml</dc:format><dc:type rdf:resource="http://purl.org/dc/dcmitype/StillImage"></dc:type></cc:work></rdf:rdf></metadata><defs id="defs6"><clipPath id="clipPath18" clipPathUnits="userSpaceOnUse"><path id="path16" d="M 0,0 H 595.28 V 841.89 H 0 Z"></path></clipPath><clipPath id="clipPath130" clipPathUnits="userSpaceOnUse"><path id="path128" d="M 65.6154,569.735 H 147.244 V 488.084 H 65.6154 Z"></path></clipPath><clipPath id="clipPath134" clipPathUnits="userSpaceOnUse"><path id="path132" d="M 65.6152,569.735 H 147.244 V 488.084 H 65.6152 Z"></path></clipPath><clipPath id="clipPath138" clipPathUnits="userSpaceOnUse"><path id="path136" d="M 65.6152,569.735 H 147.244 V 488.084 H 65.6152 Z"></path></clipPath><clipPath id="clipPath142" clipPathUnits="userSpaceOnUse"><path id="path140" d="M 65.6152,569.735 H 147.244 V 488.084 H 65.6152 Z"></path></clipPath><clipPath id="clipPath146" clipPathUnits="userSpaceOnUse"><path id="path144" d="m 87.277,546.041 c 0.945,-16.552 7.623,-29.617 14.571,-38.887 v 0 c -0.549,1.661 -0.855,3.431 -0.855,5.274 v 0 c 0,9.311 7.574,16.886 16.886,16.886 v 0 c 2.776,0 5.39,-0.686 7.703,-1.877 v 0 c -3.303,6.305 -7.194,12.375 -11.26,17.673 v 0 c -6.841,2.607 -13.989,4.489 -21.374,5.555 v 0 c -1.973,-1.385 -3.871,-2.92 -5.671,-4.624"></path></clipPath><clipPath id="clipPath150" clipPathUnits="userSpaceOnUse"><path id="path148" d="M -24278,24995 H 8488 V -7771 h -32766 z"></path></clipPath><clipPath id="clipPath154" clipPathUnits="userSpaceOnUse"><path id="path152" d="M -24278,24995 H 8488 V -7771 h -32766 z"></path></clipPath><mask id="mask156" height="1" width="1" y="0" x="0" maskUnits="userSpaceOnUse"><g id="g168"><g id="g166" clip-path="url(#clipPath150)"><g id="g164"><g id="g158"></g><g id="g162"><g id="g160" clip-path="url(#clipPath154)"></g></g></g></g></g></mask><linearGradient id="linearGradient174" spreadMethod="pad" gradientTransform="matrix(-27.657421,-25.199606,-25.199606,27.657421,124.83838,545.68262)" gradientUnits="userSpaceOnUse" y2="0" x2="1" y1="0" x1="0"><stop id="stop170" offset="0" style="stop-opacity:1;stop-color:#918f90"></stop><stop id="stop172" offset="1" style="stop-opacity:1;stop-color:#231f20"></stop></linearGradient><mask id="mask176" height="1" width="1" y="0" x="0" maskUnits="userSpaceOnUse"><g id="g218"><g id="g216" clip-path="url(#clipPath130)"><g id="g214"><g id="g178"></g><g id="g212"><g id="g210" clip-path="url(#clipPath134)"><g id="g208"><g id="g180"></g><g id="g206"><g id="g204" clip-path="url(#clipPath138)"><g id="g202"><g id="g182"></g><g id="g200"><g id="g198" clip-path="url(#clipPath142)"><g id="g196"><g id="g194" clip-path="url(#clipPath146)"><g id="g192"><g id="g184"></g><g id="g190" mask="url(#mask156)"><g id="g188"><path id="path186" style="fill:url(#linearGradient174);stroke:none" d="m 87.277,546.041 c 0.945,-16.552 7.623,-29.617 14.571,-38.887 v 0 c -0.549,1.661 -0.855,3.431 -0.855,5.274 v 0 c 0,9.311 7.574,16.886 16.886,16.886 v 0 c 2.776,0 5.39,-0.686 7.703,-1.877 v 0 c -3.303,6.305 -7.194,12.375 -11.26,17.673 v 0 c -6.841,2.607 -13.989,4.489 -21.374,5.555 v 0 c -1.973,-1.385 -3.871,-2.92 -5.671,-4.624"></path></g></g></g></g></g></g></g></g></g></g></g></g></g></g></g></g></mask><clipPath id="clipPath226" clipPathUnits="userSpaceOnUse"><path id="path224" d="M 87.2757,550.666 H 125.582 V 507.154 H 87.2757 Z"></path></clipPath><clipPath id="clipPath230" clipPathUnits="userSpaceOnUse"><path id="path228" d="m 87.276,507.154 h 38.306 v 43.512 H 87.276 Z"></path></clipPath><clipPath id="clipPath250" clipPathUnits="userSpaceOnUse"><path id="path248" d="M 87.1474,537.973 H 241.616 V 383.234 H 87.1474 Z"></path></clipPath><clipPath id="clipPath254" clipPathUnits="userSpaceOnUse"><path id="path252" d="M 87.1475,537.973 H 241.616 V 383.234 H 87.1475 Z"></path></clipPath><clipPath id="clipPath258" clipPathUnits="userSpaceOnUse"><path id="path256" d="M 87.1475,537.973 H 241.616 V 383.234 H 87.1475 Z"></path></clipPath><clipPath id="clipPath262" clipPathUnits="userSpaceOnUse"><path id="path260" d="M 87.1475,537.973 H 241.616 V 383.234 H 87.1475 Z"></path></clipPath><clipPath id="clipPath266" clipPathUnits="userSpaceOnUse"><path id="path264" d="m 162.503,491.18 c 2.538,-25.146 -5.13,-51.006 -21.155,-72.072 v 0 l 12.939,-12.94 c 11.981,6.981 23.341,17.126 33.128,29.246 v 0 c -0.752,30.894 -12.178,58.861 -30.37,79.625 v 0 c 2.805,-7.781 4.641,-15.751 5.458,-23.859"></path></clipPath><clipPath id="clipPath270" clipPathUnits="userSpaceOnUse"><path id="path268" d="M -24278,24995 H 8488 V -7771 h -32766 z"></path></clipPath><clipPath id="clipPath274" clipPathUnits="userSpaceOnUse"><path id="path272" d="M -24278,24995 H 8488 V -7771 h -32766 z"></path></clipPath><mask id="mask276" height="1" width="1" y="0" x="0" maskUnits="userSpaceOnUse"><g id="g288"><g id="g286" clip-path="url(#clipPath270)"><g id="g284"><g id="g278"></g><g id="g282"><g id="g280" clip-path="url(#clipPath274)"></g></g></g></g></g></mask><linearGradient id="linearGradient294" spreadMethod="pad" gradientTransform="matrix(-27.656786,-25.199024,-25.199024,27.656786,185.13037,479.50879)" gradientUnits="userSpaceOnUse" y2="0" x2="1" y1="0" x1="0"><stop id="stop290" offset="0" style="stop-opacity:1;stop-color:#918f90"></stop><stop id="stop292" offset="1" style="stop-opacity:1;stop-color:#231f20"></stop></linearGradient><mask id="mask296" height="1" width="1" y="0" x="0" maskUnits="userSpaceOnUse"><g id="g338"><g id="g336" clip-path="url(#clipPath250)"><g id="g334"><g id="g298"></g><g id="g332"><g id="g330" clip-path="url(#clipPath254)"><g id="g328"><g id="g300"></g><g id="g326"><g id="g324" clip-path="url(#clipPath258)"><g id="g322"><g id="g302"></g><g id="g320"><g id="g318" clip-path="url(#clipPath262)"><g id="g316"><g id="g314" clip-path="url(#clipPath266)"><g id="g312"><g id="g304"></g><g id="g310" mask="url(#mask276)"><g id="g308"><path id="path306" style="fill:url(#linearGradient294);stroke:none" d="m 162.503,491.18 c 2.538,-25.146 -5.13,-51.006 -21.155,-72.072 v 0 l 12.939,-12.94 c 11.981,6.981 23.341,17.126 33.128,29.246 v 0 c -0.752,30.894 -12.178,58.861 -30.37,79.625 v 0 c 2.805,-7.781 4.641,-15.751 5.458,-23.859"></path></g></g></g></g></g></g></g></g></g></g></g></g></g></g></g></g></mask><clipPath id="clipPath346" clipPathUnits="userSpaceOnUse"><path id="path344" d="m 141.347,515.039 h 46.068 V 406.168 h -46.068 z"></path></clipPath><clipPath id="clipPath350" clipPathUnits="userSpaceOnUse"><path id="path348" d="m 141.347,406.169 h 46.068 v 108.87 h -46.068 z"></path></clipPath><clipPath id="clipPath370" clipPathUnits="userSpaceOnUse"><path id="path368" d="M 28.8749,581.415 H 202.718 V 407.54 H 28.8749 Z"></path></clipPath><clipPath id="clipPath374" clipPathUnits="userSpaceOnUse"><path id="path372" d="M 28.875,581.416 H 202.718 V 407.54 H 28.875 Z"></path></clipPath><clipPath id="clipPath378" clipPathUnits="userSpaceOnUse"><path id="path376" d="M 28.875,581.416 H 202.718 V 407.54 H 28.875 Z"></path></clipPath><clipPath id="clipPath382" clipPathUnits="userSpaceOnUse"><path id="path380" d="m 74.084,449.073 h 82.463 v 90.81 H 74.084 Z"></path></clipPath><clipPath id="clipPath386" clipPathUnits="userSpaceOnUse"><path id="path384" d="M 28.875,581.416 H 202.718 V 407.54 H 28.875 Z"></path></clipPath><clipPath id="clipPath390" clipPathUnits="userSpaceOnUse"><path id="path388" d="m 133.198,526.669 c 8.857,-18.411 11.85,-36.183 8.424,-50.049 v 0 l -0.716,-2.901 -2.946,0.493 c -18.323,3.054 -51.185,27.672 -56.516,65.289 v 0 c -3.266,-4.384 -5.714,-9.182 -7.36,-14.187 v 0 c 5.62,-37.681 41.49,-69.587 76.621,-76.241 v 0 c 4.925,13.259 6.804,27.328 5.378,41.46 v 0 c -1.282,12.699 -5.239,25.072 -11.709,36.882 v 0 c -5.753,4.798 -11.952,8.988 -18.516,12.468 v 0 c 2.665,-4.21 5.149,-8.661 7.34,-13.214"></path></clipPath><clipPath id="clipPath394" clipPathUnits="userSpaceOnUse"><path id="path392" d="M -24278,24995 H 8488 V -7771 h -32766 z"></path></clipPath><clipPath id="clipPath398" clipPathUnits="userSpaceOnUse"><path id="path396" d="M -24278,24995 H 8488 V -7771 h -32766 z"></path></clipPath><mask id="mask400" height="1" width="1" y="0" x="0" maskUnits="userSpaceOnUse"><g id="g412"><g id="g410" clip-path="url(#clipPath394)"><g id="g408"><g id="g402"></g><g id="g406"><g id="g404" clip-path="url(#clipPath398)"></g></g></g></g></g></mask><linearGradient id="linearGradient418" spreadMethod="pad" gradientTransform="matrix(-27.656553,-25.198812,-25.198812,27.656553,146.22803,522.20508)" gradientUnits="userSpaceOnUse" y2="0" x2="1" y1="0" x1="0"><stop id="stop414" offset="0" style="stop-opacity:1;stop-color:#918f90"></stop><stop id="stop416" offset="1" style="stop-opacity:1;stop-color:#231f20"></stop></linearGradient><mask id="mask420" height="1" width="1" y="0" x="0" maskUnits="userSpaceOnUse"><g id="g466"><g id="g464" clip-path="url(#clipPath370)"><g id="g462"><g id="g422"></g><g id="g460"><g id="g458" clip-path="url(#clipPath374)"><g id="g456"><g id="g424"></g><g id="g454"><g id="g452" clip-path="url(#clipPath378)"><g id="g450"><g id="g448" clip-path="url(#clipPath382)"><g id="g446"><g id="g426"></g><g id="g444"><g id="g442" clip-path="url(#clipPath386)"><g id="g440"><g id="g438" clip-path="url(#clipPath390)"><g id="g436"><g id="g428"></g><g id="g434" mask="url(#mask400)"><g id="g432"><path id="path430" style="fill:url(#linearGradient418);stroke:none" d="m 133.198,526.669 c 8.857,-18.411 11.85,-36.183 8.424,-50.049 v 0 l -0.716,-2.901 -2.946,0.493 c -18.323,3.054 -51.185,27.672 -56.516,65.289 v 0 c -3.266,-4.384 -5.714,-9.182 -7.36,-14.187 v 0 c 5.62,-37.681 41.49,-69.587 76.621,-76.241 v 0 c 4.925,13.259 6.804,27.328 5.378,41.46 v 0 c -1.282,12.699 -5.239,25.072 -11.709,36.882 v 0 c -5.753,4.798 -11.952,8.988 -18.516,12.468 v 0 c 2.665,-4.21 5.149,-8.661 7.34,-13.214"></path></g></g></g></g></g></g></g></g></g></g></g></g></g></g></g></g></g></g></mask><clipPath id="clipPath474" clipPathUnits="userSpaceOnUse"><path id="path472" d="m 74.0843,539.883 h 82.4627 v -90.81 H 74.0843 Z"></path></clipPath><clipPath id="clipPath478" clipPathUnits="userSpaceOnUse"><path id="path476" d="m 74.084,449.073 h 82.462 v 90.81 H 74.084 Z"></path></clipPath><clipPath id="clipPath498" clipPathUnits="userSpaceOnUse"><path id="path496" d="M 97.0575,533.249 H 138.7 V 491.606 H 97.0575 Z"></path></clipPath><clipPath id="clipPath502" clipPathUnits="userSpaceOnUse"><path id="path500" d="M 97.0576,533.249 H 138.701 V 491.606 H 97.0576 Z"></path></clipPath><clipPath id="clipPath506" clipPathUnits="userSpaceOnUse"><path id="path504" d="M 97.0576,533.249 H 138.701 V 491.606 H 97.0576 Z"></path></clipPath><clipPath id="clipPath510" clipPathUnits="userSpaceOnUse"><path id="path508" d="M 97.0576,533.249 H 138.701 V 491.606 H 97.0576 Z"></path></clipPath><clipPath id="clipPath514" clipPathUnits="userSpaceOnUse"><path id="path512" d="m 107.446,512.428 c 0,-5.763 4.672,-10.434 10.433,-10.434 v 0 c 5.763,0 10.433,4.671 10.433,10.434 v 0 c 0,5.762 -4.67,10.432 -10.433,10.432 v 0 c -5.761,0 -10.433,-4.67 -10.433,-10.432"></path></clipPath><clipPath id="clipPath518" clipPathUnits="userSpaceOnUse"><path id="path516" d="M -24278,24995 H 8488 V -7771 h -32766 z"></path></clipPath><clipPath id="clipPath522" clipPathUnits="userSpaceOnUse"><path id="path520" d="M -24278,24995 H 8488 V -7771 h -32766 z"></path></clipPath><mask id="mask524" height="1" width="1" y="0" x="0" maskUnits="userSpaceOnUse"><g id="g536"><g id="g534" clip-path="url(#clipPath518)"><g id="g532"><g id="g526"></g><g id="g530"><g id="g528" clip-path="url(#clipPath522)"></g></g></g></g></g></mask><linearGradient id="linearGradient542" spreadMethod="pad" gradientTransform="matrix(-27.657038,-25.199255,-25.199255,27.657038,138.23682,530.97656)" gradientUnits="userSpaceOnUse" y2="0" x2="1" y1="0" x1="0"><stop id="stop538" offset="0" style="stop-opacity:1;stop-color:#918f90"></stop><stop id="stop540" offset="1" style="stop-opacity:1;stop-color:#231f20"></stop></linearGradient><mask id="mask544" height="1" width="1" y="0" x="0" maskUnits="userSpaceOnUse"><g id="g586"><g id="g584" clip-path="url(#clipPath498)"><g id="g582"><g id="g546"></g><g id="g580"><g id="g578" clip-path="url(#clipPath502)"><g id="g576"><g id="g548"></g><g id="g574"><g id="g572" clip-path="url(#clipPath506)"><g id="g570"><g id="g550"></g><g id="g568"><g id="g566" clip-path="url(#clipPath510)"><g id="g564"><g id="g562" clip-path="url(#clipPath514)"><g id="g560"><g id="g552"></g><g id="g558" mask="url(#mask524)"><g id="g556"><path id="path554" style="fill:url(#linearGradient542);stroke:none" d="m 107.446,512.428 c 0,-5.763 4.672,-10.434 10.433,-10.434 v 0 c 5.763,0 10.433,4.671 10.433,10.434 v 0 c 0,5.762 -4.67,10.432 -10.433,10.432 v 0 c -5.761,0 -10.433,-4.67 -10.433,-10.432"></path></g></g></g></g></g></g></g></g></g></g></g></g></g></g></g></g></mask><clipPath id="clipPath594" clipPathUnits="userSpaceOnUse"><path id="path592" d="m 107.445,522.862 h 20.868 v -20.868 h -20.868 z"></path></clipPath><clipPath id="clipPath598" clipPathUnits="userSpaceOnUse"><path id="path596" d="m 107.446,501.994 h 20.866 v 20.868 h -20.866 z"></path></clipPath></defs><g transform="matrix(1.3333333,0,0,-1.3333333,0,1122.52)" id="g10"><g id="g12"><g clip-path="url(#clipPath18)" id="g14"><g transform="translate(273.623,521.5874)" id="g20"><path id="path22" style="fill:#231f20;fill-opacity:1;fill-rule:nonzero;stroke:none" d="m 0,0 h 13.679 c 1.107,0 1.911,-0.125 2.414,-0.377 0.503,-0.251 0.838,-0.645 1.006,-1.182 0.168,-0.537 0.252,-1.25 0.252,-2.137 0,-0.889 -0.084,-1.602 -0.252,-2.138 C 16.931,-6.37 16.646,-6.739 16.244,-6.94 15.607,-7.275 14.735,-7.442 13.629,-7.442 H -4.476 c -2.347,0 -3.722,0.635 -4.124,1.911 -0.201,0.535 -0.302,1.39 -0.302,2.564 v 27.963 c 0,0.771 0.025,1.349 0.075,1.734 0.051,0.385 0.21,0.831 0.478,1.333 0.469,0.906 1.777,1.359 3.923,1.359 2.346,0 3.739,-0.621 4.174,-1.861 C -0.084,26.99 0,26.118 0,24.945 Z"></path></g><g transform="translate(313.957,536.3237)" id="g24"><path id="path26" style="fill:#231f20;fill-opacity:1;fill-rule:nonzero;stroke:none" d="m 0,0 -3.319,-6.891 h 6.688 z m 4.074,12.07 13.578,-28.063 c 0.57,-1.141 0.856,-1.995 0.856,-2.565 0,-1.208 -0.974,-2.297 -2.918,-3.269 -1.14,-0.569 -2.036,-0.855 -2.69,-0.855 -0.654,0 -1.191,0.151 -1.609,0.453 -0.42,0.301 -0.722,0.62 -0.905,0.955 -0.186,0.335 -0.447,0.837 -0.782,1.508 L 6.99,-14.333 H -6.94 l -2.616,-5.433 c -0.336,-0.671 -0.595,-1.156 -0.779,-1.458 -0.186,-0.301 -0.486,-0.612 -0.905,-0.93 -0.42,-0.319 -0.956,-0.478 -1.61,-0.478 -0.654,0 -1.551,0.285 -2.691,0.856 -1.944,0.937 -2.916,2.01 -2.916,3.218 0,0.57 0.284,1.424 0.854,2.565 l 13.58,28.113 c 0.369,0.772 0.929,1.391 1.684,1.861 0.755,0.469 1.551,0.705 2.39,0.705 1.809,0 3.15,-0.873 4.023,-2.616"></path></g><g transform="translate(282.9268,487.2505)" id="g28"><path id="path30" style="fill:#231f20;fill-opacity:1;fill-rule:nonzero;stroke:none" d="M 0,0 C 0.972,0.737 1.458,1.844 1.458,3.319 1.458,4.795 0.972,5.91 0,6.664 -0.973,7.418 -1.979,7.796 -3.017,7.796 h -6.287 v -8.902 h 6.337 C -1.961,-1.106 -0.973,-0.737 0,0 M 9.002,9.254 C 9.874,7.477 10.31,5.499 10.31,3.319 10.31,1.14 9.874,-0.83 9.002,-2.59 8.13,-4.351 7.007,-5.751 5.633,-6.789 2.85,-8.936 -0.034,-10.008 -3.017,-10.008 h -6.287 v -5.683 c 0,-0.772 -0.025,-1.35 -0.075,-1.735 -0.051,-0.386 -0.21,-0.83 -0.478,-1.333 -0.47,-0.905 -1.778,-1.357 -3.923,-1.357 -2.347,0 -3.721,0.619 -4.124,1.86 -0.201,0.569 -0.302,1.442 -0.302,2.615 v 27.912 c 0,0.772 0.025,1.35 0.076,1.736 0.05,0.385 0.209,0.83 0.478,1.332 0.469,0.906 1.777,1.358 3.923,1.358 h 10.762 c 2.95,0 5.817,-1.073 8.6,-3.218 1.374,-1.04 2.497,-2.448 3.369,-4.225"></path></g><g transform="translate(307.167,485.4399)" id="g32"><path id="path34" style="fill:#231f20;fill-opacity:1;fill-rule:nonzero;stroke:none" d="m 0,0 c 0,-2.984 0.964,-5.406 2.893,-7.268 1.926,-1.86 4.081,-2.791 6.461,-2.791 2.38,0 4.527,0.906 6.438,2.716 1.911,1.811 2.867,4.241 2.867,7.293 0,3.051 -0.965,5.498 -2.892,7.343 -1.928,1.844 -4.082,2.766 -6.462,2.766 C 6.923,10.059 4.778,9.128 2.867,7.268 0.956,5.406 0,2.984 0,0 m 9.153,18.96 c 4.962,0 9.271,-1.794 12.925,-5.381 3.654,-3.588 5.483,-8.039 5.483,-13.352 0,-5.315 -1.745,-9.841 -5.231,-13.58 -3.487,-3.738 -7.779,-5.607 -12.875,-5.607 -5.097,0 -9.43,1.844 -13.001,5.532 -3.57,3.688 -5.355,8.08 -5.355,13.177 0,2.782 0.503,5.389 1.508,7.82 1.006,2.431 2.347,4.467 4.024,6.111 1.676,1.642 3.603,2.933 5.783,3.872 2.179,0.938 4.426,1.408 6.739,1.408"></path></g><g transform="translate(339.9072,503.9985)" id="g36"><path id="path38" style="fill:#231f20;fill-opacity:1;fill-rule:nonzero;stroke:none" d="m 0,0 h 27.963 c 1.072,0 1.86,-0.126 2.363,-0.378 0.503,-0.251 0.838,-0.645 1.006,-1.182 0.167,-0.537 0.252,-1.241 0.252,-2.112 0,-0.872 -0.085,-1.567 -0.252,-2.087 -0.168,-0.52 -0.453,-0.881 -0.855,-1.082 -0.603,-0.302 -1.458,-0.452 -2.565,-0.452 H 18.307 V -32.59 c 0,-0.771 -0.026,-1.341 -0.076,-1.71 -0.05,-0.369 -0.201,-0.797 -0.453,-1.282 -0.251,-0.486 -0.696,-0.83 -1.333,-1.031 -0.636,-0.201 -1.475,-0.302 -2.514,-0.302 -1.039,0 -1.869,0.101 -2.489,0.302 -0.621,0.201 -1.056,0.545 -1.308,1.031 -0.251,0.485 -0.403,0.922 -0.452,1.308 -0.051,0.384 -0.076,0.962 -0.076,1.735 V -7.293 H -0.05 c -1.074,0 -1.861,0.126 -2.364,0.377 -0.503,0.252 -0.839,0.645 -1.006,1.183 -0.168,0.535 -0.251,1.239 -0.251,2.111 0,0.872 0.083,1.567 0.251,2.088 0.167,0.519 0.453,0.88 0.856,1.081 C -1.961,-0.151 -1.106,0 0,0"></path></g><g transform="translate(385.6729,475.9849)" id="g40"><path id="path42" style="fill:#231f20;fill-opacity:1;fill-rule:nonzero;stroke:none" d="m 0,0 h 15.49 c 0.771,0 1.35,-0.024 1.736,-0.075 0.384,-0.05 0.829,-0.209 1.332,-0.478 0.905,-0.469 1.358,-1.778 1.358,-3.923 0,-2.347 -0.621,-3.721 -1.861,-4.124 -0.571,-0.201 -1.442,-0.301 -2.616,-0.301 H -4.476 c -2.347,0 -3.721,0.636 -4.124,1.911 -0.201,0.535 -0.301,1.39 -0.301,2.564 v 27.963 c 0,1.71 0.318,2.875 0.955,3.495 0.636,0.62 1.843,0.931 3.621,0.931 H 15.49 c 0.771,0 1.35,-0.026 1.736,-0.075 0.384,-0.051 0.829,-0.21 1.332,-0.478 0.905,-0.471 1.358,-1.778 1.358,-3.923 0,-2.347 -0.621,-3.721 -1.861,-4.124 -0.571,-0.202 -1.442,-0.302 -2.616,-0.302 H 0 v -5.08 h 9.958 c 0.771,0 1.35,-0.024 1.735,-0.075 0.385,-0.05 0.829,-0.21 1.332,-0.477 0.906,-0.47 1.359,-1.779 1.359,-3.923 0,-2.348 -0.638,-3.722 -1.911,-4.124 C 11.902,5.181 11.03,5.08 9.857,5.08 H 0 Z"></path></g><g transform="translate(435.1846,502.4136)" id="g44"><path id="path46" style="fill:#231f20;fill-opacity:1;fill-rule:nonzero;stroke:none" d="M 0,0 C 0.318,0.587 0.797,0.98 1.434,1.182 2.07,1.384 2.867,1.484 3.822,1.484 4.778,1.484 5.549,1.399 6.136,1.232 6.722,1.064 7.158,0.863 7.443,0.629 7.728,0.395 7.937,0.042 8.072,-0.427 8.273,-0.964 8.374,-1.819 8.374,-2.992 v -27.912 c 0,-0.805 -0.025,-1.392 -0.075,-1.76 -0.051,-0.37 -0.21,-0.806 -0.479,-1.308 -0.469,-0.905 -1.777,-1.358 -3.923,-1.358 -1.306,0 -2.212,0.101 -2.714,0.302 -0.504,0.201 -0.923,0.519 -1.258,0.956 -7.544,10.057 -12.507,16.629 -14.887,19.714 v -16.546 c 0,-0.805 -0.025,-1.392 -0.075,-1.76 -0.051,-0.37 -0.21,-0.806 -0.479,-1.308 -0.469,-0.905 -1.777,-1.358 -3.921,-1.358 -2.081,0 -3.354,0.453 -3.823,1.358 -0.268,0.502 -0.427,0.955 -0.477,1.358 -0.051,0.402 -0.076,0.988 -0.076,1.76 v 28.063 c 0,1.273 0.159,2.204 0.478,2.791 0.318,0.587 0.795,0.98 1.433,1.182 0.636,0.202 1.459,0.302 2.465,0.302 1.005,0 1.801,-0.092 2.388,-0.277 0.586,-0.185 0.997,-0.395 1.233,-0.629 0.132,-0.1 0.518,-0.536 1.156,-1.307 7.073,-9.624 11.802,-15.977 14.182,-19.061 v 16.999 c 0,1.273 0.159,2.204 0.478,2.791"></path></g><g transform="translate(474.7891,475.6831)" id="g48"><path id="path50" style="fill:#231f20;fill-opacity:1;fill-rule:nonzero;stroke:none" d="M 0,0 C 1.308,0 2.255,-0.159 2.842,-0.478 3.429,-0.797 3.831,-1.257 4.049,-1.86 4.267,-2.464 4.376,-3.236 4.376,-4.174 4.376,-5.113 4.291,-5.867 4.124,-6.437 3.956,-7.008 3.755,-7.442 3.521,-7.745 3.286,-8.047 2.934,-8.265 2.465,-8.398 1.928,-8.6 1.073,-8.7 -0.101,-8.7 h -20.92 c -0.773,0 -1.509,0.201 -2.213,0.603 -1.476,0.838 -2.213,2.162 -2.213,3.973 0,0.872 0.201,1.576 0.603,2.112 L -9.253,19.564 H -20.82 c -0.805,0 -1.401,0.025 -1.786,0.076 -0.386,0.049 -0.847,0.192 -1.383,0.426 -0.973,0.47 -1.458,1.728 -1.458,3.773 0,2.145 0.452,3.453 1.357,3.923 0.503,0.267 0.947,0.427 1.333,0.477 0.385,0.051 0.981,0.075 1.785,0.075 h 20.218 c 0.771,0 1.509,-0.201 2.213,-0.603 0.704,-0.401 1.248,-0.939 1.635,-1.609 0.385,-0.671 0.578,-1.458 0.578,-2.364 0,-0.905 -0.201,-1.627 -0.604,-2.162 L -12.521,0 Z"></path></g><g transform="translate(502.1475,489.2622)" id="g52"><path id="path54" style="fill:#231f20;fill-opacity:1;fill-rule:nonzero;stroke:none" d="M 0,0 -3.318,-6.89 H 3.37 Z m 4.074,12.07 13.578,-28.063 c 0.571,-1.14 0.856,-1.995 0.856,-2.565 0,-1.207 -0.973,-2.296 -2.917,-3.268 -1.141,-0.57 -2.037,-0.856 -2.691,-0.856 -0.654,0 -1.19,0.151 -1.609,0.453 -0.42,0.302 -0.722,0.62 -0.905,0.956 -0.185,0.335 -0.446,0.837 -0.78,1.508 l -2.615,5.432 H -6.94 l -2.615,-5.432 c -0.336,-0.671 -0.596,-1.157 -0.78,-1.459 -0.185,-0.301 -0.486,-0.611 -0.905,-0.929 -0.42,-0.319 -0.955,-0.479 -1.61,-0.479 -0.653,0 -1.55,0.286 -2.69,0.856 -1.944,0.938 -2.917,2.011 -2.917,3.218 0,0.57 0.284,1.425 0.855,2.565 l 13.579,28.114 c 0.369,0.771 0.93,1.391 1.684,1.86 0.755,0.47 1.551,0.705 2.39,0.705 1.81,0 3.151,-0.873 4.023,-2.616"></path></g><g transform="translate(285.0391,431.6655)" id="g56"><path id="path58" style="fill:#231f20;fill-opacity:1;fill-rule:nonzero;stroke:none" d="m 0,0 c 1.944,1.793 2.917,4.049 2.917,6.764 0,2.716 -0.947,4.987 -2.842,6.815 -1.894,1.826 -4.116,2.74 -6.663,2.74 h -4.828 v -19.01 h 4.878 c 2.414,0 4.593,0.897 6.538,2.691 m -15.842,25.271 9.304,-0.049 c 4.861,0 9.136,-1.753 12.825,-5.256 3.688,-3.504 5.532,-7.813 5.532,-12.925 0,-5.113 -1.802,-9.498 -5.406,-13.152 -3.605,-3.655 -7.972,-5.482 -13.101,-5.482 h -9.204 c -2.045,0 -3.319,0.419 -3.822,1.257 -0.403,0.704 -0.604,1.777 -0.604,3.22 v 27.962 c 0,0.804 0.025,1.391 0.075,1.759 0.051,0.37 0.21,0.806 0.478,1.309 0.47,0.904 1.777,1.357 3.923,1.357"></path></g><g transform="translate(311.543,428.9243)" id="g60"><path id="path62" style="fill:#231f20;fill-opacity:1;fill-rule:nonzero;stroke:none" d="m 0,0 h 15.49 c 0.771,0 1.349,-0.025 1.736,-0.075 0.384,-0.051 0.829,-0.21 1.332,-0.478 0.905,-0.47 1.358,-1.778 1.358,-3.923 0,-2.347 -0.621,-3.721 -1.861,-4.124 -0.571,-0.201 -1.443,-0.301 -2.616,-0.301 H -4.476 c -2.347,0 -3.721,0.636 -4.124,1.911 -0.201,0.536 -0.301,1.39 -0.301,2.564 v 27.963 c 0,1.71 0.318,2.874 0.955,3.495 0.636,0.62 1.843,0.931 3.621,0.931 H 15.49 c 0.771,0 1.349,-0.026 1.736,-0.076 0.384,-0.05 0.829,-0.209 1.332,-0.478 0.905,-0.47 1.358,-1.777 1.358,-3.923 0,-2.346 -0.621,-3.721 -1.861,-4.124 -0.571,-0.201 -1.443,-0.301 -2.616,-0.301 H 0 v -5.08 h 9.958 c 0.771,0 1.35,-0.025 1.735,-0.075 0.385,-0.051 0.829,-0.21 1.332,-0.478 0.906,-0.47 1.359,-1.778 1.359,-3.923 0,-2.347 -0.638,-3.722 -1.911,-4.124 C 11.902,5.18 11.03,5.08 9.857,5.08 H 0 Z"></path></g><g transform="translate(346.1436,427.4663)" id="g64"><path id="path66" style="fill:#231f20;fill-opacity:1;fill-rule:nonzero;stroke:none" d="m 0,0 h 13.68 c 1.106,0 1.911,-0.126 2.414,-0.378 0.503,-0.251 0.837,-0.645 1.006,-1.182 0.167,-0.537 0.251,-1.249 0.251,-2.137 0,-0.889 -0.084,-1.602 -0.251,-2.137 -0.169,-0.537 -0.454,-0.905 -0.856,-1.106 -0.637,-0.336 -1.509,-0.503 -2.615,-0.503 H -4.476 c -2.347,0 -3.721,0.636 -4.124,1.911 -0.201,0.536 -0.301,1.39 -0.301,2.564 v 27.963 c 0,0.771 0.024,1.349 0.075,1.735 0.05,0.385 0.209,0.83 0.477,1.332 0.469,0.906 1.778,1.359 3.923,1.359 2.347,0 3.739,-0.621 4.174,-1.861 C -0.084,26.989 0,26.117 0,24.944 Z"></path></g><g transform="translate(378.1787,427.4663)" id="g68"><path id="path70" style="fill:#231f20;fill-opacity:1;fill-rule:nonzero;stroke:none" d="m 0,0 h 13.68 c 1.106,0 1.911,-0.126 2.414,-0.378 0.503,-0.251 0.838,-0.645 1.006,-1.182 0.167,-0.537 0.251,-1.249 0.251,-2.137 0,-0.889 -0.084,-1.602 -0.251,-2.137 C 16.932,-6.371 16.646,-6.739 16.244,-6.94 15.607,-7.276 14.735,-7.443 13.63,-7.443 H -4.476 c -2.347,0 -3.721,0.636 -4.124,1.911 -0.201,0.536 -0.301,1.39 -0.301,2.564 v 27.963 c 0,0.771 0.025,1.349 0.075,1.735 0.051,0.385 0.209,0.83 0.478,1.332 0.469,0.906 1.777,1.359 3.923,1.359 2.346,0 3.738,-0.621 4.174,-1.861 C -0.084,26.989 0,26.117 0,24.944 Z"></path></g><g transform="translate(409.1084,455.8306)" id="g72"><path id="path74" style="fill:#231f20;fill-opacity:1;fill-rule:nonzero;stroke:none" d="m 0,0 c 0.569,-0.57 0.854,-1.542 0.854,-2.917 v -0.805 c 0,-0.839 -0.033,-1.459 -0.1,-1.86 -0.234,-2.951 -1.106,-5.482 -2.614,-7.595 -1.509,-2.112 -3.42,-3.168 -5.734,-3.168 -0.235,0 -0.445,0.176 -0.629,0.528 -0.185,0.352 -0.276,0.813 -0.276,1.383 0,0.57 0.075,1.014 0.226,1.332 0.151,0.319 0.318,0.504 0.502,0.554 0.185,0.051 0.328,0.083 0.428,0.101 0.101,0.016 0.285,0.1 0.553,0.251 0.269,0.151 0.504,0.36 0.705,0.629 0.535,0.704 0.838,1.794 0.905,3.269 -1.14,0.167 -1.987,0.536 -2.54,1.107 -0.553,0.569 -0.83,1.776 -0.83,3.621 0,1.34 0.167,2.338 0.503,2.992 0.335,0.653 0.847,1.089 1.534,1.307 0.687,0.218 1.751,0.328 3.194,0.328 C -1.878,1.057 -0.771,0.704 0,0"></path></g><g transform="translate(432.9473,442.2017)" id="g76"><path id="path78" style="fill:#231f20;fill-opacity:1;fill-rule:nonzero;stroke:none" d="m 0,0 -3.319,-6.89 h 6.688 z m 4.073,12.07 13.579,-28.063 c 0.57,-1.141 0.855,-1.995 0.855,-2.565 0,-1.207 -0.973,-2.297 -2.917,-3.269 -1.14,-0.569 -2.036,-0.855 -2.691,-0.855 -0.653,0 -1.19,0.151 -1.609,0.453 -0.419,0.301 -0.721,0.62 -0.905,0.956 -0.185,0.334 -0.446,0.836 -0.78,1.508 L 6.99,-14.333 H -6.94 l -2.616,-5.432 c -0.336,-0.672 -0.595,-1.157 -0.78,-1.459 -0.185,-0.301 -0.486,-0.612 -0.905,-0.93 -0.419,-0.319 -0.955,-0.478 -1.609,-0.478 -0.654,0 -1.551,0.285 -2.691,0.856 -1.944,0.937 -2.916,2.011 -2.916,3.218 0,0.57 0.283,1.424 0.854,2.565 l 13.58,28.113 c 0.368,0.772 0.929,1.391 1.684,1.861 0.754,0.469 1.55,0.705 2.389,0.705 1.81,0 3.151,-0.873 4.023,-2.616"></path></g><g transform="translate(465.6367,439.0835)" id="g80"><path id="path82" style="fill:#231f20;fill-opacity:1;fill-rule:nonzero;stroke:none" d="m 0,0 h 6.437 c 0.972,0 1.945,0.368 2.917,1.106 0.972,0.738 1.459,1.843 1.459,3.32 0,1.474 -0.487,2.59 -1.459,3.345 -0.972,0.753 -1.978,1.13 -3.017,1.13 H 0 Z m 19.312,-12.824 c 0.502,-1.208 0.754,-2.079 0.754,-2.615 0,-1.275 -1.039,-2.348 -3.118,-3.219 -1.073,-0.47 -1.935,-0.704 -2.59,-0.704 -0.653,0 -1.19,0.159 -1.609,0.477 -0.419,0.319 -0.729,0.646 -0.931,0.981 -0.335,0.636 -1.642,3.671 -3.922,9.103 l -1.559,-0.1 H 0 v -5.684 c 0,-0.771 -0.025,-1.351 -0.075,-1.735 -0.051,-0.386 -0.21,-0.829 -0.479,-1.332 -0.469,-0.906 -1.777,-1.359 -3.922,-1.359 -2.347,0 -3.721,0.62 -4.124,1.862 -0.201,0.569 -0.301,1.44 -0.301,2.615 v 27.912 c 0,0.77 0.024,1.349 0.075,1.735 0.05,0.385 0.209,0.829 0.477,1.332 0.469,0.906 1.778,1.359 3.923,1.359 H 6.437 c 2.951,0 5.817,-1.075 8.6,-3.219 1.341,-1.04 2.447,-2.448 3.318,-4.225 0.874,-1.778 1.309,-3.756 1.309,-5.934 0,-3.79 -1.257,-6.907 -3.771,-9.355 0.736,-1.777 1.877,-4.409 3.419,-7.895"></path></g><g transform="translate(491.3867,456.937)" id="g84"><path id="path86" style="fill:#231f20;fill-opacity:1;fill-rule:nonzero;stroke:none" d="m 0,0 h 27.963 c 1.072,0 1.86,-0.125 2.363,-0.377 0.503,-0.251 0.838,-0.645 1.006,-1.183 0.168,-0.536 0.252,-1.24 0.252,-2.112 0,-0.872 -0.084,-1.567 -0.252,-2.087 -0.168,-0.519 -0.452,-0.88 -0.855,-1.081 -0.603,-0.302 -1.458,-0.453 -2.565,-0.453 h -9.605 v -25.296 c 0,-0.772 -0.026,-1.342 -0.077,-1.71 -0.049,-0.37 -0.2,-0.797 -0.452,-1.283 -0.251,-0.485 -0.696,-0.829 -1.333,-1.03 -0.636,-0.201 -1.475,-0.302 -2.514,-0.302 -1.039,0 -1.869,0.101 -2.489,0.302 -0.621,0.201 -1.056,0.545 -1.308,1.03 -0.251,0.486 -0.404,0.923 -0.452,1.309 -0.051,0.384 -0.077,0.962 -0.077,1.734 V -7.293 H -0.05 c -1.074,0 -1.861,0.126 -2.364,0.378 -0.503,0.252 -0.839,0.645 -1.006,1.182 -0.168,0.536 -0.251,1.24 -0.251,2.112 0,0.871 0.083,1.567 0.251,2.087 0.167,0.519 0.453,0.881 0.856,1.082 C -1.961,-0.15 -1.106,0 0,0"></path></g><g transform="translate(537.1523,428.9243)" id="g88"><path id="path90" style="fill:#231f20;fill-opacity:1;fill-rule:nonzero;stroke:none" d="m 0,0 h 15.49 c 0.771,0 1.349,-0.025 1.735,-0.075 0.385,-0.051 0.83,-0.21 1.333,-0.478 0.905,-0.47 1.358,-1.778 1.358,-3.923 0,-2.347 -0.621,-3.721 -1.861,-4.124 -0.571,-0.201 -1.443,-0.301 -2.617,-0.301 H -4.477 c -2.346,0 -3.72,0.636 -4.125,1.911 -0.2,0.536 -0.3,1.39 -0.3,2.564 v 27.963 c 0,1.71 0.318,2.874 0.956,3.495 0.635,0.62 1.842,0.931 3.621,0.931 H 15.49 c 0.771,0 1.349,-0.026 1.735,-0.076 0.385,-0.05 0.83,-0.209 1.333,-0.478 0.905,-0.47 1.358,-1.777 1.358,-3.923 0,-2.346 -0.621,-3.721 -1.861,-4.124 -0.571,-0.201 -1.443,-0.301 -2.617,-0.301 H 0 v -5.08 h 9.958 c 0.771,0 1.349,-0.025 1.735,-0.075 0.385,-0.051 0.828,-0.21 1.332,-0.478 0.906,-0.47 1.358,-1.778 1.358,-3.923 0,-2.347 -0.637,-3.722 -1.91,-4.124 C 11.9,5.18 11.03,5.08 9.857,5.08 H 0 Z"></path></g><g transform="translate(101.8472,507.1538)" id="g92"><path id="path94" style="fill:#231f20;fill-opacity:1;fill-rule:nonzero;stroke:none" d="m 0,0 c -0.548,1.662 -0.854,3.432 -0.854,5.274 0,9.312 7.574,16.887 16.886,16.887 2.775,0 5.39,-0.685 7.702,-1.878 C 17.663,31.878 9.604,42.697 2.106,49.334 -3.93,47.059 -9.61,43.575 -14.571,38.888 -13.627,22.336 -6.946,9.273 0,0"></path></g><g transform="translate(210.8604,526.8296)" id="g96"><path id="path98" style="fill:#231f20;fill-opacity:1;fill-rule:nonzero;stroke:none" d="m 0,0 c 1.08,-18.817 -6.108,-35.248 -20.792,-47.52 l -5.907,-4.935 0.622,7.671 c 1.296,16.028 -7.662,37.006 -22.822,53.441 -6.498,7.046 -17.666,17.032 -33.298,23.645 19.789,-20.452 31.381,-43.582 33.84,-67.95 2.538,-25.147 -5.13,-51.007 -21.156,-72.073 l 12.94,-12.939 c 29.404,17.129 55.072,53.319 62.915,90.987 4.741,22.768 2.175,43.198 -7.167,59.382 -2.899,1.083 -5.874,1.889 -8.893,2.416 C -4.132,22.088 -0.628,10.931 0,0"></path></g><g transform="translate(128.3125,512.4282)" id="g100"><path id="path102" style="fill:#231f20;fill-opacity:1;fill-rule:nonzero;stroke:none" d="m 0,0 c 0,5.763 -4.671,10.434 -10.434,10.434 -5.762,0 -10.433,-4.671 -10.433,-10.434 0,-5.763 4.671,-10.434 10.433,-10.434 C -4.671,-10.434 0,-5.763 0,0"></path></g><g transform="translate(148.2119,442.9956)" id="g104"><path id="path106" style="fill:#231f20;fill-opacity:1;fill-rule:nonzero;stroke:none" d="m 0,0 c -20.795,4.243 -41.33,16.256 -56.83,33.371 -9.052,9.996 -15.717,20.999 -19.797,32.423 0.211,-12.533 5.086,-25.002 14.649,-34.565 l 50.514,-50.516 C -6.864,-13.174 -3.027,-6.712 0,0"></path></g><g transform="translate(166.7046,539.8628)" id="g108"><path id="path110" style="fill:#231f20;fill-opacity:1;fill-rule:nonzero;stroke:none" d="m 0,0 c 3.169,-3.437 6.06,-7.04 8.68,-10.736 2.474,6.049 8.397,10.329 15.326,10.329 5.216,0 9.872,-2.424 12.916,-6.2 C 35.341,2.586 31.687,11.713 26.52,19.84 14.409,20.021 2.25,15.837 -7.403,7.283 -4.85,4.997 -2.376,2.573 0,0"></path></g><g transform="translate(227.8882,545.0503)" id="g112"><path id="path114" style="fill:#231f20;fill-opacity:1;fill-rule:nonzero;stroke:none" d="m 0,0 c -2.55,2.551 -5.311,4.761 -8.218,6.646 6.777,-16.022 8.179,-35.063 3.85,-55.855 -3.012,-14.469 -8.563,-28.741 -15.916,-41.902 L 0,-70.825 C 19.559,-51.267 19.561,-19.558 0,0"></path></g><g transform="translate(150.7051,449.0737)" id="g116"><path id="path118" style="fill:#231f20;fill-opacity:1;fill-rule:nonzero;stroke:none" d="m 0,0 c 4.925,13.259 6.804,27.328 5.378,41.46 -2.512,24.876 -15.261,48.492 -37.124,69.108 -2.625,-0.139 -5.239,-0.493 -7.82,-1.045 8.045,-7.988 16.123,-19.591 22.059,-31.927 8.857,-18.411 11.85,-36.184 8.424,-50.049 l -0.716,-2.901 -2.946,0.493 c -18.324,3.054 -51.184,27.672 -56.516,65.289 -3.266,-4.385 -5.715,-9.183 -7.36,-14.188 C -71.001,38.563 -35.131,6.654 0,0"></path></g><g transform="translate(200.8511,522.8618)" id="g120"><path id="path122" style="fill:#231f20;fill-opacity:1;fill-rule:nonzero;stroke:none" d="m 0,0 c 0,5.6 -4.54,10.14 -10.141,10.14 -5.6,0 -10.14,-4.54 -10.14,-10.14 0,-5.601 4.54,-10.142 10.14,-10.142 C -4.54,-10.142 0,-5.601 0,0"></path></g><g id="g124"><g id="g126"></g><g mask="url(#mask176)" id="g220"><g id="g222"></g><g id="g242"><g id="g240" clip-path="url(#clipPath226)"><g id="g238"><g id="g236" clip-path="url(#clipPath230)"><g id="g234" transform="translate(101.8477,507.1538)"><path id="path232" style="fill:#231f20;fill-opacity:1;fill-rule:nonzero;stroke:none" d="m 0,0 c -0.548,1.662 -0.855,3.432 -0.855,5.274 0,9.312 7.575,16.887 16.886,16.887 2.776,0 5.39,-0.685 7.703,-1.878 -3.302,6.306 -7.193,12.375 -11.261,17.674 -6.841,2.608 -13.988,4.488 -21.372,5.555 -1.974,-1.385 -3.872,-2.922 -5.673,-4.624 C -13.627,22.336 -6.947,9.272 0,0"></path></g></g></g></g></g></g></g><g id="g244"><g id="g246"></g><g mask="url(#mask296)" id="g340"><g id="g342"></g><g id="g362"><g id="g360" clip-path="url(#clipPath346)"><g id="g358"><g id="g356" clip-path="url(#clipPath350)"><g id="g354" transform="translate(162.5034,491.1812)"><path id="path352" style="fill:#231f20;fill-opacity:1;fill-rule:nonzero;stroke:none" d="m 0,0 c 2.538,-25.146 -5.13,-51.007 -21.156,-72.072 l 12.94,-12.941 c 11.981,6.98 23.341,17.126 33.128,29.246 C 24.159,-24.873 12.733,3.096 -5.459,23.858 -2.653,16.077 -0.818,8.107 0,0"></path></g></g></g></g></g></g></g><g id="g364"><g id="g366"></g><g mask="url(#mask420)" id="g468"><g id="g470"></g><g id="g490"><g id="g488" clip-path="url(#clipPath474)"><g id="g486"><g id="g484" clip-path="url(#clipPath478)"><g id="g482" transform="translate(141.6226,476.6206)"><path id="path480" style="fill:#231f20;fill-opacity:1;fill-rule:nonzero;stroke:none" d="m 0,0 -0.717,-2.9 -2.946,0.492 c -18.323,3.054 -51.184,27.672 -56.516,65.289 -3.265,-4.385 -5.714,-9.183 -7.359,-14.188 5.619,-37.677 41.49,-69.587 76.621,-76.24 4.924,13.259 6.803,27.328 5.377,41.46 -1.281,12.699 -5.239,25.072 -11.708,36.882 -5.754,4.799 -11.951,8.987 -18.518,12.468 2.665,-4.21 5.15,-8.66 7.341,-13.214 C 0.432,31.638 3.425,13.865 0,0"></path></g></g></g></g></g></g></g><g id="g492"><g id="g494"></g><g mask="url(#mask544)" id="g588"><g id="g590"></g><g id="g610"><g id="g608" clip-path="url(#clipPath594)"><g id="g606"><g id="g604" clip-path="url(#clipPath598)"><g id="g602" transform="translate(117.8789,501.9946)"><path id="path600" style="fill:#231f20;fill-opacity:1;fill-rule:nonzero;stroke:none" d="m 0,0 c 5.763,0 10.434,4.671 10.434,10.434 0,5.762 -4.671,10.433 -10.434,10.433 -5.762,0 -10.434,-4.671 -10.434,-10.433 C -10.434,4.671 -5.762,0 0,0"></path></g></g></g></g></g></g></g></g></g></g></svg>