<?xml version="1.0" encoding="UTF-8" standalone="no"?>
<svg
   xmlns:dc="http://purl.org/dc/elements/1.1/"
   xmlns:cc="http://creativecommons.org/ns#"
   xmlns:rdf="http://www.w3.org/1999/02/22-rdf-syntax-ns#"
   xmlns:svg="http://www.w3.org/2000/svg"
   xmlns="http://www.w3.org/2000/svg"
   viewBox="0 0 1122.52 532.36798"
   height="532.36798"
   width="1122.52"
   xml:space="preserve"
   id="svg2"
   version="1.1"><metadata
     id="metadata8"><rdf:RDF><cc:Work
         rdf:about=""><dc:format>image/svg+xml</dc:format><dc:type
           rdf:resource="http://purl.org/dc/dcmitype/StillImage" /></cc:Work></rdf:RDF></metadata><defs
     id="defs6"><clipPath
       id="clipPath18"
       clipPathUnits="userSpaceOnUse"><path
         id="path16"
         d="M 0,399.276 H 841.89 V 0 H 0 Z" /></clipPath></defs><g
     transform="matrix(1.3333333,0,0,-1.3333333,0,532.368)"
     id="g10"><g
       id="g12"><g
         clip-path="url(#clipPath18)"
         id="g14"><g
           transform="translate(368.0723,218.4735)"
           id="g20"><path
             id="path22"
             style="fill:#ffffff;fill-opacity:1;fill-rule:nonzero;stroke:none"
             d="M 0,0 C 1.198,-0.333 2.396,-0.596 3.595,-0.785 4.792,-0.977 6.014,-1.071 7.26,-1.071 V 4.141 L 0,3.285 Z" /></g><g
           transform="translate(377.2022,217.4023)"
           id="g24"><path
             id="path26"
             style="fill:#ffffff;fill-opacity:1;fill-rule:nonzero;stroke:none"
             d="m 0,0 c 1.102,0 2.168,0.059 3.199,0.179 1.029,0.117 2.096,0.225 3.198,0.32 V 7.142 L 0,5.499 Z" /></g><g
           transform="translate(366.4192,223.6869)"
           id="g28"><path
             id="path30"
             style="fill:#ffffff;fill-opacity:1;fill-rule:nonzero;stroke:none"
             d="M 0,0 V 3.356 L -6.614,0 Z" /></g><g
           transform="translate(368.0723,223.6869)"
           id="g32"><path
             id="path34"
             style="fill:#ffffff;fill-opacity:1;fill-rule:nonzero;stroke:none"
             d="M 0,0 7.26,0.856 V 7.998 L 0,4.142 Z" /></g><g
           transform="translate(381.9824,255.4656)"
           id="g36"><path
             id="path38"
             style="fill:#ffffff;fill-opacity:1;fill-rule:nonzero;stroke:none"
             d="m 0,0 c -0.984,-2.667 -2.385,-5.047 -4.205,-7.141 l 5.534,0.428 c 4.171,4.237 7.477,8.427 9.921,12.569 2.445,4.143 3.666,8.356 3.666,12.64 0,2.429 -0.73,4.357 -2.192,5.785 -1.463,1.429 -3.511,2.142 -6.146,2.142 -2.875,0 -5.752,-0.607 -8.627,-1.82 -2.875,-1.215 -5.619,-2.964 -8.231,-5.25 -2.612,-2.285 -5.02,-5.059 -7.224,-8.319 -2.205,-3.262 -4.074,-6.916 -5.607,-10.963 l 3.379,-4.355 c 0.478,2.141 1.269,4.403 2.372,6.784 1.101,2.38 2.384,4.558 3.846,6.534 1.46,1.975 3.055,3.618 4.78,4.928 1.725,1.308 3.45,1.963 5.176,1.963 1.869,0 3.223,-0.81 4.061,-2.427 C 1.341,11.878 1.713,9.891 1.617,7.534 1.521,5.178 0.982,2.665 0,0" /></g><g
           transform="translate(338.7145,251.3628)"
           id="g40"><path
             id="path42"
             style="fill:#f4f01f;fill-opacity:1;fill-rule:nonzero;stroke:none"
             d="m 0,0 c -0.499,0.475 -0.749,1.084 -0.749,1.828 0,0.62 0.166,1.187 0.499,1.704 0.333,0.516 0.769,0.95 1.31,1.302 0.54,0.35 1.112,0.619 1.715,0.805 0.603,0.186 1.196,0.279 1.778,0.279 1.039,0 1.923,-0.248 2.651,-0.744 C 7.931,4.678 8.296,3.872 8.296,2.757 8.296,2.262 8.066,1.797 7.609,1.364 7.152,0.929 6.58,0.558 5.894,0.248 5.208,-0.062 4.48,-0.3 3.711,-0.464 2.941,-0.63 2.245,-0.712 1.622,-0.712 1.039,-0.712 0.498,-0.475 0,0 m -20.89,-30.783 c 1.772,-0.785 3.63,-1.346 5.57,-1.677 1.942,-0.334 3.894,-0.394 5.86,-0.179 1.964,0.214 3.809,0.75 5.535,1.606 l 50.177,25.28 c 0.814,0.382 1.712,0.726 2.695,1.037 0.981,0.308 1.905,0.582 2.768,0.821 -2.78,0 -5.596,-0.204 -8.447,-0.607 -2.851,-0.406 -5.643,-0.607 -8.374,-0.607 -6.279,0 -10.424,1.214 -12.436,3.642 l -8.052,9.783 c -0.959,1.239 -2.313,2.297 -4.062,3.178 -1.75,0.881 -3.798,1.321 -6.146,1.321 -2.157,0 -4.098,-0.356 -5.823,-1.071 C -3.35,11.031 -4.751,10.053 -5.83,8.816 -6.909,7.577 -7.652,6.126 -8.059,4.46 -8.466,2.793 -8.454,1.033 -8.023,-0.825 c 0.91,-0.857 1.701,-1.583 2.372,-2.178 0.671,-0.595 1.307,-1.239 1.906,-1.927 0.598,-0.691 1.197,-1.525 1.797,-2.5 0.598,-0.977 1.257,-2.275 1.977,-3.893 l -1.654,-0.571 c -0.911,2.286 -2.181,4.415 -3.809,6.392 -1.631,1.975 -3.595,3.439 -5.896,4.392 l -67.644,21.424 53.483,-48.062 c 1.294,-1.238 2.827,-2.249 4.601,-3.035" /></g><g
           transform="translate(380.1852,234.4699)"
           id="g44"><path
             id="path46"
             style="fill:#ffffff;fill-opacity:1;fill-rule:nonzero;stroke:none"
             d="m 0,0 c -0.743,-0.382 -1.414,-0.75 -2.013,-1.106 -0.599,-0.358 -0.922,-0.584 -0.97,-0.679 v -7.856 l 6.398,1.643 V 1.785 C 3.223,1.69 2.791,1.464 2.121,1.106 1.449,0.75 0.743,0.381 0,0" /></g><g
           transform="translate(371.1276,259.4649)"
           id="g48"><path
             id="path50"
             style="fill:#ffffff;fill-opacity:1;fill-rule:nonzero;stroke:none"
             d="m 0,0 c -0.887,-0.667 -1.725,-1.535 -2.516,-2.606 -0.79,-1.072 -1.486,-2.25 -2.084,-3.536 -0.6,-1.285 -1.043,-2.524 -1.331,-3.713 0.335,-0.239 0.791,-0.453 1.367,-0.643 0.574,-0.19 1.185,-0.346 1.833,-0.465 0.646,-0.118 1.293,-0.202 1.941,-0.249 0.647,-0.048 1.233,-0.048 1.761,0 1.964,3.857 2.994,6.856 3.091,8.998 C 4.157,-0.071 3.677,1 2.624,1 1.761,1 0.887,0.666 0,0" /></g><g
           transform="translate(363.1124,220.2944)"
           id="g52"><path
             id="path54"
             style="fill:#ffffff;fill-opacity:1;fill-rule:nonzero;stroke:none"
             d="M 0,0 C 1.054,-0.5 2.157,-0.917 3.306,-1.25 V 1.464 L -3.091,1.75 C -2.085,1.083 -1.055,0.499 0,0" /></g><g
           transform="translate(588.9781,342.2337)"
           id="g56"><path
             id="path58"
             style="fill:#f79118;fill-opacity:1;fill-rule:nonzero;stroke:none"
             d="m 0,0 c -9.824,-7.998 -20.871,-15.044 -33.138,-21.138 -12.27,-6.095 -25.592,-11.023 -39.97,-14.783 -14.377,-3.762 -29.701,-6.261 -45.971,-7.499 -16.271,-1.238 -33.295,-0.953 -51.075,0.857 l 2.013,5.143 -8.483,-4.643 4.314,8.498 -10.783,-6.855 7.62,11.283 c -3.211,-1.953 -6.626,-3.963 -10.245,-6.035 -3.618,-2.07 -7.296,-4.284 -11.034,-6.641 -3.738,-2.356 -7.452,-4.904 -11.142,-7.641 -3.691,-2.739 -7.189,-5.714 -10.495,-8.927 -3.308,-3.214 -6.339,-6.724 -9.094,-10.533 -2.757,-3.81 -5.068,-7.975 -6.937,-12.498 l 2.659,-3.213 c 1.582,3.713 3.486,7.176 5.715,10.39 2.229,3.214 4.697,5.999 7.405,8.356 2.707,2.356 5.595,4.213 8.663,5.57 3.065,1.356 6.253,2.035 9.56,2.035 3.451,0 6.074,-0.892 7.871,-2.678 1.798,-1.785 2.697,-4.202 2.697,-7.249 0,-2.428 -0.373,-4.76 -1.115,-6.998 -0.744,-2.238 -1.714,-4.391 -2.911,-6.464 -1.198,-2.07 -2.588,-4.058 -4.17,-5.962 -1.581,-1.905 -3.187,-3.739 -4.816,-5.499 3.163,0.143 6.229,0 9.202,-0.429 2.97,-0.428 5.607,-1.297 7.907,-2.606 2.301,-1.31 4.144,-3.154 5.535,-5.534 1.39,-2.382 2.084,-5.452 2.084,-9.213 l -0.143,-1.928 c 2.204,-1.429 4.601,-2.642 7.188,-3.642 2.588,-1 5.26,-1.821 8.016,-2.464 2.755,-0.643 5.535,-1.119 8.339,-1.429 2.803,-0.309 5.546,-0.464 8.23,-0.464 3.739,0 7.416,0.203 11.035,0.608 3.618,0.403 7.056,0.974 10.316,1.713 3.258,0.738 6.277,1.618 9.058,2.642 2.778,1.024 5.223,2.155 7.333,3.393 -1.824,0.19 -3.608,0.524 -5.357,1 -1.749,0.475 -3.403,1.023 -4.96,1.642 -1.557,0.619 -2.983,1.274 -4.277,1.963 -1.294,0.691 -2.397,1.323 -3.307,1.894 4.697,0.523 9.274,1.059 13.731,1.606 4.456,0.547 8.673,1.238 12.651,2.072 3.977,0.831 7.667,1.856 11.07,3.071 3.403,1.213 6.423,2.772 9.058,4.677 -1.437,0 -2.947,0.142 -4.528,0.428 -1.582,0.286 -3.164,0.654 -4.745,1.107 -1.582,0.452 -3.116,0.965 -4.6,1.535 -1.487,0.571 -2.853,1.143 -4.098,1.715 3.738,0.332 7.415,0.761 11.034,1.285 3.618,0.523 7.164,1.273 10.64,2.249 3.474,0.976 6.876,2.226 10.208,3.75 3.33,1.523 6.553,3.475 9.668,5.856 -1.342,0 -2.803,0.118 -4.385,0.357 -1.581,0.238 -3.175,0.536 -4.781,0.893 -1.605,0.356 -3.174,0.772 -4.708,1.249 -1.534,0.475 -2.947,0.975 -4.242,1.5 2.971,0.761 6.207,1.571 9.705,2.428 3.498,0.857 6.985,1.867 10.46,3.035 3.474,1.166 6.853,2.536 10.136,4.107 3.282,1.571 6.193,3.427 8.734,5.57 -1.725,-0.24 -3.486,-0.369 -5.284,-0.393 -1.797,-0.025 -3.666,0.036 -5.606,0.179 -1.942,0.143 -3.99,0.344 -6.148,0.607 -2.155,0.26 -4.504,0.535 -7.044,0.821 6.182,1.666 12.065,3.701 17.648,6.106 5.582,2.403 10.783,5.224 15.6,8.462 4.816,3.237 9.224,6.915 13.227,11.034 4.001,4.117 7.487,8.748 10.459,13.89 -0.959,-0.857 -2.469,-1.846 -4.529,-2.964 -2.061,-1.12 -4.29,-2.214 -6.685,-3.285 -2.397,-1.071 -4.793,-2.025 -7.189,-2.856 -2.396,-0.834 -4.385,-1.37 -5.966,-1.608 5.99,4.286 11.369,8.796 16.138,13.534 C -6.266,-9.225 -2.588,-4.57 0,0" /></g><g
           transform="translate(385.253,218.4735)"
           id="g60"><path
             id="path62"
             style="fill:#ffffff;fill-opacity:1;fill-rule:nonzero;stroke:none"
             d="M 0,0 C 1.102,0.238 2.193,0.536 3.271,0.893 4.35,1.25 5.391,1.69 6.398,2.214 V 8.998 L 0,6.642 Z" /></g><g
           transform="translate(402.2185,227.6143)"
           id="g64"><path
             id="path66"
             style="fill:#f4f01f;fill-opacity:1;fill-rule:nonzero;stroke:none"
             d="m 0,0 c -0.862,-1.667 -2.013,-3.154 -3.451,-4.463 -1.437,-1.31 -3.08,-2.44 -4.923,-3.392 -1.847,-0.953 -3.764,-1.75 -5.752,-2.393 -1.989,-0.642 -3.965,-1.119 -5.931,-1.428 -1.965,-0.31 -3.785,-0.464 -5.463,-0.464 -4.073,0 -7.883,0.606 -11.429,1.821 -3.547,1.214 -6.829,3.178 -9.849,5.892 l 27.677,14.782 c 2.06,1 3.941,1.785 5.642,2.357 1.701,0.571 3.223,0.904 4.565,1 3.354,0.19 5.895,-0.464 7.62,-1.965 C 0.432,10.248 1.294,8.188 1.294,5.57 1.294,3.523 0.863,1.666 0,0 m 3.235,14.283 c -1.15,1.38 -2.6,2.464 -4.349,3.25 -1.75,0.784 -3.799,1.178 -6.146,1.178 -1.007,0 -2.265,-0.215 -3.774,-0.643 -1.51,-0.429 -3.199,-1.024 -5.068,-1.785 L -66.638,-8.712 c -2.109,-1.001 -4.242,-1.643 -6.398,-1.929 -2.157,-0.285 -4.255,-0.261 -6.29,0.071 -2.038,0.334 -3.978,0.94 -5.823,1.822 -1.845,0.88 -3.486,2.011 -4.924,3.392 l -55.64,50.632 c -0.193,0.048 -0.48,0.144 -0.863,0.286 -0.384,0.143 -0.79,0.286 -1.222,0.429 -0.431,0.142 -0.838,0.261 -1.222,0.356 -0.383,0.096 -0.647,0.143 -0.791,0.143 -0.527,0 -0.97,-0.191 -1.33,-0.57 -0.359,-0.383 -0.539,-0.811 -0.539,-1.286 0,-0.714 0.288,-1.358 0.863,-1.929 l 51.039,-46.204 c 2.588,-2.381 4.84,-4.369 6.757,-5.964 1.916,-1.595 3.739,-2.88 5.464,-3.856 1.725,-0.976 3.497,-1.678 5.319,-2.107 1.821,-0.428 3.929,-0.642 6.326,-0.642 1.821,0 3.691,0.273 5.608,0.821 1.916,0.547 3.809,1.225 5.679,2.035 2.3,1 4.516,2.118 6.649,3.357 2.132,1.237 4.181,2.331 6.146,3.285 1.628,-1.905 3.582,-3.548 5.858,-4.927 2.276,-1.382 4.71,-2.536 7.297,-3.464 2.588,-0.929 5.224,-1.619 7.908,-2.072 2.683,-0.453 5.222,-0.678 7.619,-0.678 3.355,0 6.805,0.5 10.352,1.501 3.546,0.999 6.757,2.415 9.634,4.248 2.874,1.833 5.234,4.059 7.079,6.678 1.846,2.617 2.768,5.545 2.768,8.783 0,2.143 -0.287,4.13 -0.863,5.964 -0.574,1.831 -1.436,3.439 -2.587,4.82" /></g><g
           transform="translate(393.5919,221.7578)"
           id="g68"><path
             id="path70"
             style="fill:#ffffff;fill-opacity:1;fill-rule:nonzero;stroke:none"
             d="m 0,0 c 2.589,1.523 4.576,3.238 5.966,5.142 1.391,1.903 2.085,3.69 2.085,5.357 L 0,6.5 Z" /></g><g
           transform="translate(385.253,237.0412)"
           id="g72"><path
             id="path74"
             style="fill:#ffffff;fill-opacity:1;fill-rule:nonzero;stroke:none"
             d="m 0,0 v -9.999 l 6.398,2.357 V 2.214 C 5.296,2.023 4.206,1.725 3.128,1.321 2.049,0.916 1.007,0.475 0,0" /></g><g
           transform="translate(399.163,238.2912)"
           id="g76"><path
             id="path78"
             style="fill:#ffffff;fill-opacity:1;fill-rule:nonzero;stroke:none"
             d="m 0,0 c -0.695,0.499 -1.522,0.868 -2.48,1.106 -0.96,0.238 -1.989,0.286 -3.091,0.143 v -9.354 l 7.836,3.927 c 0,0.857 -0.204,1.642 -0.612,2.356 C 1.246,-1.107 0.695,-0.5 0,0" /></g><g
           transform="translate(393.5919,221.7578)"
           id="g80"><path
             id="path82"
             style="fill:#151312;fill-opacity:1;fill-rule:nonzero;stroke:none"
             d="m 0,0 c 2.589,1.523 4.576,3.238 5.966,5.142 1.391,1.903 2.085,3.69 2.085,5.357 L 0,6.5 Z m 7.836,12.355 c 0,0.858 -0.205,1.643 -0.611,2.357 -0.407,0.714 -0.959,1.321 -1.653,1.821 -0.696,0.5 -1.523,0.869 -2.48,1.107 C 2.132,17.878 1.102,17.925 0,17.783 V 8.427 Z M -8.338,-3.285 c 1.101,0.238 2.192,0.536 3.27,0.893 1.078,0.357 2.12,0.797 3.128,1.322 V 5.714 L -8.338,3.357 Z M -1.94,7.642 v 9.855 C -3.044,17.307 -4.133,17.008 -5.211,16.605 -6.29,16.199 -7.332,15.758 -8.338,15.283 V 5.285 Z M -16.39,-4.355 c 1.102,0 2.167,0.058 3.199,0.178 1.03,0.118 2.096,0.225 3.199,0.321 V 2.786 L -16.39,1.143 Z m 6.398,18.853 c -0.192,-0.096 -0.623,-0.321 -1.293,-0.679 -0.672,-0.356 -1.379,-0.726 -2.121,-1.106 -0.744,-0.382 -1.415,-0.75 -2.013,-1.108 -0.6,-0.356 -0.924,-0.583 -0.971,-0.678 V 3.072 l 6.398,1.642 z M -25.52,-3.285 c 1.198,-0.333 2.396,-0.595 3.596,-0.785 1.197,-0.191 2.419,-0.285 3.665,-0.285 V 0.857 L -25.52,0 Z m 0,5.214 7.261,0.857 V 9.927 L -25.52,6.072 Z m 4.027,24.566 c 1.964,3.857 2.994,6.856 3.09,8.999 0.096,2.142 -0.384,3.213 -1.437,3.213 -0.863,0 -1.738,-0.334 -2.625,-1 -0.886,-0.666 -1.724,-1.535 -2.515,-2.606 -0.791,-1.072 -1.487,-2.25 -2.085,-3.535 -0.6,-1.286 -1.042,-2.524 -1.33,-3.714 0.335,-0.239 0.79,-0.453 1.366,-0.642 0.576,-0.191 1.187,-0.347 1.833,-0.465 0.647,-0.119 1.294,-0.203 1.941,-0.25 0.647,-0.047 1.233,-0.047 1.762,0 M -33.57,0.286 c 1.006,-0.667 2.036,-1.249 3.091,-1.75 1.053,-0.5 2.156,-0.916 3.306,-1.25 V 0 Z m 6.397,4.999 -6.613,-3.356 h 6.613 z m 16.893,21.71 c 4.17,4.237 7.477,8.427 9.921,12.569 2.444,4.142 3.666,8.355 3.666,12.64 0,2.428 -0.732,4.357 -2.193,5.784 -1.462,1.428 -3.51,2.144 -6.145,2.144 -2.877,0 -5.752,-0.608 -8.627,-1.822 -2.876,-1.214 -5.619,-2.964 -8.231,-5.248 -2.612,-2.286 -5.021,-5.06 -7.225,-8.32 -2.205,-3.262 -4.074,-6.916 -5.607,-10.963 l 3.379,-4.356 c 0.478,2.143 1.268,4.403 2.372,6.785 1.102,2.38 2.384,4.558 3.845,6.534 1.462,1.975 3.056,3.618 4.781,4.927 1.726,1.309 3.451,1.964 5.176,1.964 1.869,0 3.223,-0.81 4.062,-2.428 0.839,-1.619 1.21,-3.606 1.114,-5.962 -0.096,-2.357 -0.636,-4.869 -1.617,-7.535 -0.983,-2.667 -2.385,-5.047 -4.205,-7.141 z m 9.992,-7.428 c 3.355,0.191 5.895,-0.463 7.621,-1.963 1.724,-1.5 2.588,-3.56 2.588,-6.177 C 9.921,9.379 9.489,7.523 8.626,5.856 7.764,4.19 6.614,2.702 5.176,1.393 3.738,0.083 2.096,-1.047 0.252,-2 -1.594,-2.952 -3.511,-3.748 -5.5,-4.392 -7.488,-5.034 -9.465,-5.51 -11.429,-5.82 c -1.967,-0.31 -3.787,-0.464 -5.464,-0.464 -4.074,0 -7.884,0.607 -11.43,1.822 -3.547,1.213 -6.829,3.177 -9.848,5.891 l 27.676,14.782 c 2.06,1.001 3.941,1.786 5.643,2.358 1.701,0.57 3.222,0.903 4.564,0.998 m 168.501,73.415 c 5.991,4.284 11.37,8.795 16.139,13.532 4.769,4.737 8.447,9.391 11.035,13.962 -9.825,-7.998 -20.873,-15.045 -33.14,-21.139 C 149.978,93.243 136.656,88.315 122.279,84.554 107.901,80.793 92.577,78.294 76.308,77.055 60.037,75.818 43.012,76.103 25.232,77.913 l 2.013,5.142 -8.482,-4.642 4.313,8.499 -10.783,-6.857 7.62,11.284 C 16.701,89.386 13.286,87.376 9.669,85.305 6.049,83.234 2.373,81.019 -1.365,78.663 c -3.739,-2.357 -7.454,-4.904 -11.143,-7.641 -3.691,-2.739 -7.188,-5.714 -10.495,-8.927 -3.307,-3.214 -6.339,-6.726 -9.094,-10.534 -2.756,-3.809 -5.068,-7.974 -6.937,-12.497 l 2.66,-3.214 c 1.581,3.714 3.486,7.177 5.715,10.391 2.228,3.213 4.696,5.999 7.404,8.356 2.707,2.357 5.595,4.213 8.662,5.57 3.067,1.357 6.255,2.035 9.562,2.035 3.45,0 6.074,-0.892 7.871,-2.678 1.797,-1.785 2.695,-4.202 2.695,-7.249 0,-2.428 -0.372,-4.761 -1.114,-6.998 -0.744,-2.238 -1.714,-4.392 -2.912,-6.463 -1.197,-2.071 -2.587,-4.06 -4.169,-5.963 -1.581,-1.904 -3.188,-3.738 -4.817,-5.498 3.164,0.142 6.231,0 9.203,-0.429 2.971,-0.429 5.607,-1.298 7.907,-2.607 2.301,-1.31 4.145,-3.155 5.536,-5.534 1.388,-2.381 2.084,-5.452 2.084,-9.212 L 17.11,7.642 C 19.313,6.214 21.71,4.999 24.297,4 c 2.589,-0.999 5.26,-1.822 8.016,-2.464 2.756,-0.642 5.535,-1.119 8.339,-1.429 2.804,-0.31 5.546,-0.463 8.231,-0.463 3.738,0 7.415,0.202 11.034,0.607 3.619,0.403 7.056,0.975 10.315,1.714 3.259,0.737 6.279,1.617 9.059,2.641 2.778,1.024 5.223,2.154 7.331,3.393 -1.821,0.19 -3.606,0.523 -5.354,0.999 -1.75,0.476 -3.404,1.024 -4.96,1.643 -1.559,0.618 -2.984,1.273 -4.278,1.964 -1.294,0.69 -2.396,1.321 -3.306,1.893 4.696,0.523 9.273,1.059 13.73,1.606 4.457,0.548 8.673,1.238 12.652,2.071 3.977,0.833 7.667,1.858 11.07,3.071 3.403,1.214 6.422,2.773 9.058,4.678 -1.438,0 -2.948,0.142 -4.53,0.429 -1.58,0.285 -3.162,0.653 -4.743,1.107 -1.582,0.451 -3.116,0.963 -4.602,1.535 -1.485,0.571 -2.851,1.142 -4.097,1.714 3.739,0.332 7.416,0.76 11.035,1.285 3.618,0.524 7.164,1.274 10.639,2.25 3.474,0.975 6.876,2.225 10.208,3.749 3.33,1.523 6.553,3.475 9.669,5.855 -1.343,0 -2.804,0.119 -4.386,0.357 -1.581,0.238 -3.175,0.537 -4.78,0.893 -1.606,0.358 -3.176,0.773 -4.709,1.25 -1.534,0.476 -2.947,0.975 -4.24,1.5 2.97,0.761 6.205,1.572 9.704,2.427 3.498,0.858 6.984,1.869 10.459,3.037 3.474,1.165 6.852,2.534 10.137,4.105 3.281,1.571 6.192,3.428 8.733,5.571 -1.725,-0.239 -3.486,-0.37 -5.283,-0.393 -1.797,-0.024 -3.666,0.035 -5.607,0.179 -1.942,0.142 -3.99,0.344 -6.146,0.607 -2.157,0.261 -4.506,0.535 -7.046,0.821 6.182,1.666 12.064,3.701 17.648,6.106 5.583,2.403 10.784,5.224 15.6,8.462 4.816,3.237 9.225,6.915 13.226,11.034 4.002,4.117 7.488,8.748 10.46,13.889 -0.96,-0.856 -2.468,-1.845 -4.529,-2.962 -2.06,-1.121 -4.289,-2.216 -6.685,-3.286 -2.397,-1.071 -4.793,-2.024 -7.188,-2.857 -2.397,-0.832 -4.385,-1.369 -5.968,-1.606 M -53.256,28.892 c -0.583,0 -1.122,0.238 -1.621,0.713 -0.5,0.474 -0.75,1.085 -0.75,1.828 0,0.619 0.166,1.187 0.5,1.703 0.332,0.518 0.769,0.95 1.31,1.303 0.539,0.35 1.112,0.619 1.715,0.805 0.602,0.186 1.195,0.279 1.777,0.279 1.04,0 1.924,-0.249 2.652,-0.744 0.726,-0.495 1.091,-1.301 1.091,-2.417 0,-0.495 -0.229,-0.96 -0.686,-1.394 -0.458,-0.433 -1.029,-0.805 -1.715,-1.116 -0.687,-0.309 -1.414,-0.547 -2.183,-0.712 -0.77,-0.165 -1.467,-0.248 -2.09,-0.248 M -62.9,28.781 c 0.909,-0.857 1.701,-1.584 2.372,-2.179 0.671,-0.596 1.305,-1.238 1.905,-1.928 0.599,-0.691 1.197,-1.523 1.797,-2.5 0.599,-0.976 1.259,-2.273 1.977,-3.891 l -1.653,-0.571 c -0.912,2.284 -2.182,4.415 -3.81,6.391 -1.63,1.976 -3.595,3.439 -5.895,4.392 l -67.645,21.424 53.483,-48.061 c 1.294,-1.239 2.828,-2.25 4.602,-3.036 1.772,-0.786 3.629,-1.345 5.57,-1.678 1.941,-0.334 3.893,-0.393 5.859,-0.179 1.965,0.214 3.81,0.75 5.536,1.608 l 50.176,25.28 c 0.815,0.38 1.713,0.724 2.695,1.035 0.982,0.31 1.906,0.583 2.769,0.822 -2.78,0 -5.597,-0.204 -8.447,-0.607 -2.852,-0.405 -5.644,-0.608 -8.375,-0.608 -6.279,0 -10.424,1.215 -12.436,3.642 l -8.051,9.785 c -0.96,1.237 -2.314,2.296 -4.062,3.177 -1.751,0.881 -3.799,1.322 -6.146,1.322 -2.158,0 -4.098,-0.358 -5.823,-1.072 -1.725,-0.714 -3.127,-1.691 -4.205,-2.928 -1.079,-1.238 -1.823,-2.69 -2.229,-4.356 -0.408,-1.667 -0.395,-3.428 0.036,-5.284 m 48.379,-40.635 c 3.354,0 6.805,0.5 10.352,1.499 3.547,1 6.758,2.416 9.633,4.25 2.875,1.831 5.235,4.058 7.08,6.677 1.845,2.618 2.768,5.546 2.768,8.783 0,2.143 -0.287,4.13 -0.863,5.964 -0.574,1.832 -1.437,3.439 -2.588,4.82 -1.15,1.381 -2.6,2.464 -4.349,3.249 -1.749,0.787 -3.799,1.179 -6.147,1.179 -1.006,0 -2.263,-0.214 -3.773,-0.643 C -3.917,23.495 -5.607,22.9 -7.477,22.139 L -58.012,-2.856 c -2.109,-1 -4.241,-1.642 -6.398,-1.929 -2.157,-0.285 -4.253,-0.262 -6.29,0.073 -2.038,0.332 -3.978,0.939 -5.822,1.821 -1.846,0.88 -3.488,2.01 -4.924,3.391 l -55.641,50.633 c -0.192,0.047 -0.479,0.142 -0.862,0.286 -0.384,0.142 -0.791,0.285 -1.222,0.428 -0.432,0.143 -0.839,0.261 -1.223,0.357 -0.383,0.095 -0.646,0.143 -0.79,0.143 -0.527,0 -0.971,-0.191 -1.33,-0.571 -0.36,-0.382 -0.539,-0.811 -0.539,-1.285 0,-0.715 0.288,-1.358 0.863,-1.928 L -91.151,2.357 c 2.588,-2.381 4.839,-4.368 6.757,-5.963 1.917,-1.595 3.739,-2.881 5.463,-3.856 1.725,-0.977 3.498,-1.679 5.32,-2.107 1.821,-0.429 3.929,-0.642 6.326,-0.642 1.821,0 3.69,0.273 5.607,0.821 1.916,0.547 3.81,1.225 5.679,2.035 2.301,1 4.517,2.118 6.649,3.357 2.132,1.237 4.181,2.331 6.147,3.284 1.628,-1.904 3.582,-3.547 5.859,-4.928 2.275,-1.381 4.708,-2.534 7.296,-3.463 2.588,-0.928 5.223,-1.618 7.907,-2.071 2.683,-0.452 5.223,-0.678 7.62,-0.678 m 214.005,138.328 c -0.719,-2.856 -1.881,-5.665 -3.487,-8.426 -1.605,-2.761 -3.439,-5.381 -5.498,-7.856 -2.062,-2.476 -4.218,-4.761 -6.47,-6.855 -2.254,-2.096 -4.41,-3.929 -6.47,-5.5 1.151,0.429 2.599,1.072 4.349,1.928 1.749,0.858 3.558,1.833 5.427,2.929 1.87,1.094 3.703,2.249 5.5,3.463 1.797,1.214 3.317,2.393 4.565,3.535 -1.248,-3.333 -2.876,-6.618 -4.888,-9.854 -2.013,-3.238 -4.326,-6.345 -6.937,-9.321 -2.613,-2.975 -5.476,-5.773 -8.591,-8.39 -3.116,-2.619 -6.387,-5.012 -9.812,-7.177 -3.427,-2.167 -6.974,-4.06 -10.64,-5.678 -3.666,-1.619 -7.344,-2.881 -11.034,-3.785 1.726,-0.143 3.509,-0.25 5.356,-0.321 1.844,-0.072 3.701,-0.084 5.57,-0.036 1.869,0.047 3.714,0.202 5.536,0.464 1.821,0.261 3.569,0.679 5.247,1.25 -2.252,-2.427 -4.888,-4.631 -7.907,-6.606 -3.019,-1.975 -6.242,-3.761 -9.669,-5.356 -3.427,-1.595 -6.973,-2.976 -10.639,-4.142 -3.666,-1.167 -7.296,-2.131 -10.891,-2.892 1.006,-0.191 2.193,-0.405 3.559,-0.643 1.366,-0.239 2.803,-0.453 4.312,-0.642 1.511,-0.191 2.985,-0.334 4.422,-0.429 1.437,-0.097 2.732,-0.071 3.882,0.071 -2.205,-2.381 -4.817,-4.523 -7.836,-6.427 -3.019,-1.905 -6.242,-3.547 -9.668,-4.928 -3.428,-1.381 -6.926,-2.511 -10.495,-3.391 -3.571,-0.881 -7.035,-1.512 -10.389,-1.893 0.959,-0.286 2.096,-0.561 3.415,-0.821 1.318,-0.262 2.66,-0.477 4.027,-0.643 1.364,-0.168 2.706,-0.298 4.024,-0.393 1.318,-0.096 2.48,-0.119 3.487,-0.071 -2.732,-2.524 -5.966,-4.631 -9.705,-6.32 -3.738,-1.691 -7.656,-3.084 -11.753,-4.178 -4.098,-1.096 -8.22,-1.928 -12.364,-2.499 -4.147,-0.571 -7.992,-0.977 -11.538,-1.215 0.909,-0.428 2.096,-0.881 3.558,-1.356 1.461,-0.476 2.984,-0.918 4.565,-1.322 1.581,-0.404 3.091,-0.739 4.529,-1 C 89.57,9.487 90.721,9.355 91.583,9.355 89.522,7.26 86.803,5.487 83.424,4.035 80.045,2.583 76.379,1.404 72.426,0.5 68.473,-0.404 64.434,-1.059 60.312,-1.464 56.191,-1.868 52.356,-2.07 48.81,-2.07 c -2.827,0 -5.739,0.177 -8.733,0.535 -2.996,0.357 -5.907,0.881 -8.734,1.571 -2.829,0.69 -5.512,1.523 -8.051,2.5 -2.542,0.975 -4.77,2.107 -6.686,3.392 -0.719,-3.142 -2.109,-5.916 -4.17,-8.32 -2.061,-2.404 -4.517,-4.427 -7.368,-6.07 -2.852,-1.643 -5.979,-2.881 -9.381,-3.714 -3.403,-0.833 -6.805,-1.249 -10.208,-1.249 -2.875,0 -5.596,0.202 -8.159,0.606 -2.564,0.404 -5.021,1.023 -7.368,1.858 -2.348,0.833 -4.626,1.916 -6.829,3.249 -2.206,1.333 -4.409,2.927 -6.614,4.785 -1.917,-0.905 -3.81,-1.881 -5.68,-2.928 -1.867,-1.047 -3.785,-2.025 -5.75,-2.928 -2.012,-0.953 -4.002,-1.714 -5.966,-2.285 -1.966,-0.572 -4.098,-0.857 -6.398,-0.857 -2.061,0 -3.966,0.154 -5.715,0.464 -1.75,0.309 -3.558,0.928 -5.428,1.856 -1.869,0.929 -3.93,2.261 -6.182,4 -2.253,1.737 -4.913,4.01 -7.979,6.82 l -50.68,46.276 c -0.431,0.38 -0.791,0.832 -1.078,1.357 -0.287,0.522 -0.431,1.071 -0.431,1.643 0,1.142 0.479,2.058 1.438,2.749 0.958,0.689 1.988,0.868 3.091,0.535 l 75.408,-23.923 c -0.336,2.046 -0.205,3.951 0.395,5.712 0.599,1.761 1.546,3.286 2.84,4.571 1.294,1.286 2.886,2.297 4.78,3.036 1.893,0.737 3.941,1.106 6.147,1.106 2.06,0 3.988,-0.357 5.787,-1.071 1.797,-0.714 3.245,-1.667 4.348,-2.857 1.821,4.475 4.086,8.616 6.794,12.427 2.707,3.808 5.762,7.378 9.165,10.712 3.403,3.332 7.069,6.438 10.999,9.319 3.929,2.88 8.026,5.653 12.292,8.319 4.265,2.667 8.627,5.237 13.083,7.713 4.457,2.475 8.889,4.951 13.3,7.427 l -7.405,-10.997 8.699,5.713 -3.811,-8.713 7.476,4.071 -2.371,-6.57 c 11.932,-1.191 23.625,-1.632 35.08,-1.321 11.453,0.309 22.547,1.285 33.283,2.928 10.736,1.642 21.05,3.88 30.947,6.713 9.896,2.832 19.217,6.177 27.963,10.033 8.746,3.857 16.858,8.177 24.334,12.962 7.476,4.785 14.209,9.914 20.2,15.389" /></g><g
           transform="translate(535.8765,116.9651)"
           id="g84"><path
             id="path86"
             style="fill:#040606;fill-opacity:1;fill-rule:nonzero;stroke:none"
             d="m 0,0 c -9.431,0 -14.486,5.889 -14.486,13.63 0,10.517 8.622,21.538 21.44,21.538 9.095,0 14.402,-5.973 14.402,-13.798 C 21.356,11.022 12.986,0 0,0 m 8.545,52.416 c -30.039,0 -49.093,-18.173 -49.093,-40.048 0,-17.416 16.373,-29.868 38.872,-29.868 29.202,0 48.843,17.837 48.843,40.805 0,16.782 -15.094,29.111 -38.622,29.111" /></g><g
           transform="translate(316.5537,136.4801)"
           id="g88"><path
             id="path90"
             style="fill:#040606;fill-opacity:1;fill-rule:nonzero;stroke:none"
             d="m 0,0 h -14.681 l 5.129,14.521 H 3.227 c 5.002,0 7.906,-2.017 7.906,-6.373 C 11.133,2.743 5.728,0 0,0 m 34.366,10.568 c 0,14.601 -12.262,19.926 -28.316,19.926 h -33.396 l -22.993,-65.102 h 23.435 l 6.81,19.281 h 10.171 l 6.777,-19.281 h 24.363 l -7.341,20.652 v 1.613 c 13.149,3.147 20.49,12.827 20.49,22.911" /></g><g
           transform="translate(236.5157,126.0736)"
           id="g92"><path
             id="path94"
             style="fill:#040606;fill-opacity:1;fill-rule:nonzero;stroke:none"
             d="M 0,0 H -18.928 L -3.497,21.62 H 0 Z m -13.178,40.9 -47.757,-65.101 h 25.411 l 7.422,10.164 H 0 V -24.201 H 22.507 V 40.9 Z" /></g><g
           transform="translate(369.1777,166.9739)"
           id="g96"><path
             id="path98"
             style="fill:#040606;fill-opacity:1;fill-rule:nonzero;stroke:none"
             d="M 0,0 -22.993,-65.102 H 0.442 L 23.435,0 Z" /></g><g
           transform="translate(148.2352,166.9739)"
           id="g100"><path
             id="path102"
             style="fill:#040606;fill-opacity:1;fill-rule:nonzero;stroke:none"
             d="M 0,0 -25.25,-34.447 V 0 h -43.123 -10e-4 l 10e-4,-0.002 -23.529,-65.1 h 23.972 l 16.675,45.821 h 3.498 v -45.821 h 25.411 l 33.457,45.821 h 3.497 L -1.575,-65.102 H 21.86 L 44.853,0 Z" /></g><g
           transform="translate(475.0962,166.9739)"
           id="g104"><path
             id="path106"
             style="fill:#040606;fill-opacity:1;fill-rule:nonzero;stroke:none"
             d="M 0,0 -14.773,-41.827 H -18.27 L -33.043,0 H -66.97 l -22.993,-65.102 h 23.436 l 14.772,41.827 h 3.497 l 14.773,-41.827 H 0.442 L 23.435,0 Z" /></g><g
           transform="translate(729.0958,167.1825)"
           id="g108"><path
             id="path110"
             style="fill:#040606;fill-opacity:1;fill-rule:nonzero;stroke:none"
             d="m 0,0 h -15.664 l -12.457,-35.999 c -3.573,-10.901 -7.97,-17.404 -17.863,-17.404 -8.977,0 -13.007,5.496 -8.427,17.495 L -41.953,0 H -57.342 L -69.8,-35.999 c -6.687,-16.946 3.939,-30.412 22.534,-30.412 18.961,0 28.122,10.077 34.717,30.503 z" /></g><g
           transform="translate(638.5942,150.0531)"
           id="g112"><path
             id="path114"
             style="fill:#040606;fill-opacity:1;fill-rule:nonzero;stroke:none"
             d="m 0,0 c -0.458,-5.587 -6.687,-7.969 -12.274,-8.152 h -11.909 l 4.672,13.556 H -6.595 C -3.756,5.404 0.458,4.122 0,0 m -2.931,-26.015 c -1.1,-7.236 -9.069,-10.167 -16.763,-10.35 h -14.382 l 6.229,17.679 h 17.313 c 4.214,0 8.152,-2.199 7.603,-7.329 M 15.481,2.473 C 16.671,12.641 6.237,16.946 -3.473,17.129 H -30.32 l -22.625,-65.128 h 36.182 c 12.916,0 26.931,7.969 28.58,22.351 0.641,6.137 -1.283,10.625 -5.771,13.374 4.763,3.389 8.793,8.519 9.435,14.747" /></g><g
           transform="translate(763.5304,140.0977)"
           id="g116"><path
             id="path118"
             style="fill:#040606;fill-opacity:1;fill-rule:nonzero;stroke:none"
             d="m 0,0 -9.108,3.438 c -3.945,1.447 -5.903,3.89 -4.87,7.419 1.221,3.619 5.192,6.605 12.791,6.605 5.7,0 10.152,-2.896 9.7,-8.053 l 13.122,2.017 c 0.073,10.82 -7.393,17.265 -21.281,17.435 -13.933,0 -25.089,-5.7 -28.153,-16.918 -2.792,-10.224 2.872,-17.643 11.651,-20.719 l 7.724,-2.714 c 5.007,-1.719 7.132,-3.718 5.817,-7.962 -1.207,-3.899 -5.463,-6.604 -13.786,-6.604 -7.057,0 -11.245,2.804 -10.755,8.414 l -13.883,-2.134 c -0.285,-12.929 10.067,-19.128 22.518,-19.128 15.2,0 26.577,6.337 30.081,18.276 C 14.251,-11.487 9.628,-3.71 0,0" /></g><path
           id="path120"
           style="fill:#2c973f;fill-opacity:1;fill-rule:nonzero;stroke:none"
           d="M 369.368,51.903 H 266.215 V 69.73 h 103.153 z" /><path
           id="path122"
           style="fill:#eb1d26;fill-opacity:1;fill-rule:nonzero;stroke:none"
           d="M 575.675,51.903 H 472.522 V 69.73 h 103.153 z" /><path
           id="path124"
           style="fill:#ffffff;fill-opacity:1;fill-rule:nonzero;stroke:none"
           d="M 472.522,51.903 H 369.369 V 69.73 h 103.153 z" /><path
           id="path126"
           style="fill:#00ad45;fill-opacity:1;fill-rule:nonzero;stroke:none"
           d="M 369.368,51.903 H 266.215 V 69.73 h 103.153 z" /><path
           id="path128"
           style="fill:#d73626;fill-opacity:1;fill-rule:nonzero;stroke:none"
           d="M 575.675,51.903 H 472.522 V 69.73 h 103.153 z" /><path
           id="path130"
           style="fill:#ffffff;fill-opacity:1;fill-rule:nonzero;stroke:none"
           d="M 472.522,51.903 H 369.369 V 69.73 h 103.153 z" /><path
           id="path132"
           style="fill:#040606;fill-opacity:1;fill-rule:nonzero;stroke:none"
           d="m 267.075,52.764 h 307.74 V 68.87 h -307.74 z m 309.46,-1.721 H 265.355 V 70.59 h 311.18 z" /></g></g></g></svg>