<?xml version="1.0" encoding="UTF-8"?>
<svg id="Livello_2" data-name="Livello 2" xmlns="http://www.w3.org/2000/svg" xmlns:xlink="http://www.w3.org/1999/xlink" viewBox="0 0 326.53 137.64">
  <defs>
    <style>
      .cls-1 {
        fill: #060707;
      }

      .cls-1, .cls-2, .cls-3, .cls-4, .cls-5, .cls-6, .cls-7, .cls-8, .cls-9, .cls-10 {
        stroke-width: 0px;
      }

      .cls-2 {
        fill: url(#Sfumatura_senza_nome_2);
      }

      .cls-3 {
        fill: url(#Sfumatura_senza_nome_2-9);
      }

      .cls-4 {
        fill: url(#Sfumatura_senza_nome_2-8);
      }

      .cls-5 {
        fill: url(#Sfumatura_senza_nome_2-7);
      }

      .cls-6 {
        fill: url(#Sfumatura_senza_nome_2-4);
      }

      .cls-7 {
        fill: url(#Sfumatura_senza_nome_2-5);
      }

      .cls-8 {
        fill: url(#Sfumatura_senza_nome_2-6);
      }

      .cls-9 {
        fill: url(#Sfumatura_senza_nome_2-3);
      }

      .cls-10 {
        fill: url(#Sfumatura_senza_nome_2-2);
      }
    </style>
    <linearGradient id="Sfumatura_senza_nome_2" data-name="Sfumatura senza nome 2" x1="11.58" y1="111.71" x2="426.98" y2="157.34" gradientUnits="userSpaceOnUse">
      <stop offset="0" stop-color="#4082c0"/>
      <stop offset=".6" stop-color="#3faa42"/>
    </linearGradient>
    <linearGradient id="Sfumatura_senza_nome_2-2" data-name="Sfumatura senza nome 2" x1="12.07" y1="107.22" x2="427.48" y2="152.85" xlink:href="#Sfumatura_senza_nome_2"/>
    <linearGradient id="Sfumatura_senza_nome_2-3" data-name="Sfumatura senza nome 2" x1="12.56" y1="102.77" x2="427.96" y2="148.4" xlink:href="#Sfumatura_senza_nome_2"/>
    <linearGradient id="Sfumatura_senza_nome_2-4" data-name="Sfumatura senza nome 2" x1="13.02" y1="98.59" x2="428.42" y2="144.22" xlink:href="#Sfumatura_senza_nome_2"/>
    <linearGradient id="Sfumatura_senza_nome_2-5" data-name="Sfumatura senza nome 2" x1="13.44" y1="94.77" x2="428.84" y2="140.4" xlink:href="#Sfumatura_senza_nome_2"/>
    <linearGradient id="Sfumatura_senza_nome_2-6" data-name="Sfumatura senza nome 2" x1="13.9" y1="90.52" x2="429.3" y2="136.15" xlink:href="#Sfumatura_senza_nome_2"/>
    <linearGradient id="Sfumatura_senza_nome_2-7" data-name="Sfumatura senza nome 2" x1="14.3" y1="86.91" x2="429.71" y2="132.54" xlink:href="#Sfumatura_senza_nome_2"/>
    <linearGradient id="Sfumatura_senza_nome_2-8" data-name="Sfumatura senza nome 2" x1="14.76" y1="82.71" x2="430.17" y2="128.34" xlink:href="#Sfumatura_senza_nome_2"/>
    <linearGradient id="Sfumatura_senza_nome_2-9" data-name="Sfumatura senza nome 2" x1="15.16" y1="79.06" x2="430.57" y2="124.69" xlink:href="#Sfumatura_senza_nome_2"/>
  </defs>
  <g id="Layer_1" data-name="Layer 1">
    <g>
      <g>
        <path class="cls-2" d="M25.11,93.1h-11.38v15.61h10.17v5.63h-10.17v22.6h-6.6v-49.47h17.98v5.63Z"/>
        <path class="cls-10" d="M67.18,125.26c0,8.26-3.7,12.39-11.11,12.39-8.13,0-12.19-4.1-12.19-12.31v-37.78h6.6v34.99c0,3.75.32,6.35.97,7.79.65,1.44,2.06,2.16,4.23,2.16s3.53-.76,4.08-2.27c.54-1.51.82-4.2.82-8.06v-34.6h6.6v37.71Z"/>
        <path class="cls-9" d="M105.57,93.1h-7.57v43.84h-6.68v-43.84h-7.53v-5.63h21.78v5.63Z"/>
        <path class="cls-6" d="M146.68,125.26c0,8.26-3.7,12.39-11.11,12.39-8.13,0-12.19-4.1-12.19-12.31v-37.78h6.6v34.99c0,3.75.32,6.35.97,7.79.65,1.44,2.06,2.16,4.23,2.16s3.53-.76,4.08-2.27c.54-1.51.82-4.2.82-8.06v-34.6h6.6v37.71Z"/>
        <path class="cls-7" d="M188.99,136.94h-6.93l-7.75-23.22h-.58v23.22h-6.68v-49.47h9.24c7.53,0,11.3,4.22,11.3,12.66,0,3.83-.56,6.72-1.67,8.66s-2.92,3.4-5.44,4.39l8.5,23.76ZM173.73,109.18c2.59-.05,4.46-.67,5.61-1.84,1.15-1.18,1.73-3.32,1.73-6.43s-.52-5.1-1.57-6.37c-1.05-1.27-2.84-1.9-5.38-1.9h-.39v16.54Z"/>
        <path class="cls-8" d="M208.03,87.47h6.68v49.47h-6.68v-49.47Z"/>
        <path class="cls-5" d="M252.24,93.84c-2.17-1.17-4.13-1.75-5.86-1.75s-3.22.62-4.45,1.86-1.84,2.74-1.84,4.5c0,1.24.37,2.57,1.1,3.98s2.38,3.67,4.95,6.77c2.57,3.1,4.53,5.79,5.89,8.07,1.36,2.28,2.04,4.9,2.04,7.85,0,3.68-1.11,6.67-3.32,8.96-2.21,2.29-5.11,3.44-8.68,3.44-1.97,0-4.38-.58-7.22-1.75v-5.94c.08.03.16.07.23.12.39.29,1.2.72,2.45,1.3,1.24.58,2.46.87,3.65.87,1.94,0,3.54-.65,4.79-1.94s1.88-2.95,1.88-4.97c0-1.4-.32-2.69-.96-3.88-.64-1.19-1.8-2.81-3.48-4.86l-4.46-5.48c-1.73-2.13-3.01-4.07-3.84-5.83-.83-1.76-1.24-3.86-1.24-6.3,0-3.6,1.05-6.53,3.15-8.78s4.82-3.38,8.15-3.38c2.33,0,4.69.58,7.07,1.75v5.4Z"/>
        <path class="cls-4" d="M290.48,93.1h-7.57v43.84h-6.68v-43.84h-7.53v-5.63h21.78v5.63Z"/>
        <path class="cls-3" d="M326.03,136.94h-17.9v-49.47h17.59v5.63h-10.99v15.69h10.17v5.63h-10.17v17.05h11.3v5.48Z"/>
      </g>
      <g>
        <path class="cls-1" d="M18,0C11.59,0,6.99,2.45,4.19,7.35,1.4,12.25,0,23.03,0,39.69c0,12.13.61,20.6,1.83,25.42,1.22,4.82,3.08,8.3,5.58,10.45,2.5,2.15,6.1,3.22,10.8,3.22s8.17-1.16,10.83-3.49c2.66-2.33,4.53-5.96,5.61-10.9,1.08-4.94,1.62-13.79,1.62-26.56,0-14.25-1.21-24.12-3.63-29.6C30.22,2.74,25.34,0,18,0Z"/>
        <polygon class="cls-1" points="56.56 78.3 65.3 78.3 65.3 43.22 78.78 43.22 78.78 34.48 65.3 34.48 65.3 10.25 80.38 10.25 80.38 1.51 56.56 1.51 56.56 78.3"/>
        <polygon class="cls-1" points="98.51 78.3 107.26 78.3 107.26 43.22 120.73 43.22 120.73 34.48 107.26 34.48 107.26 10.25 122.33 10.25 122.33 1.51 98.51 1.51 98.51 78.3"/>
        <rect class="cls-1" x="141.85" y="1.51" width="8.85" height="76.8"/>
        <path class="cls-1" d="M178.07,8.75c-3.86,5.71-5.79,16.81-5.79,33.3,0,15.2,1.93,25.2,5.79,29.98,3.86,4.79,8.43,7.18,13.71,7.18,2.64,0,5.28-.74,7.92-2.23v-9.1c-2.5,1.25-4.61,1.87-6.33,1.87-2.92,0-5.33-1.2-7.25-3.59-1.92-2.39-3.15-5.61-3.68-9.65s-.8-9.64-.8-16.8c0-12.03,1.22-20.08,3.65-24.17,2.43-4.08,5.37-6.12,8.79-6.12,1.75,0,3.62.46,5.61,1.39V1.39c-3.02-.8-5.55-1.21-7.61-1.21-5.49,0-10.16,2.86-14.02,8.57Z"/>
        <rect class="cls-1" x="220.25" y="1.51" width="8.85" height="76.8"/>
        <polygon class="cls-1" points="274.19 54.25 273.98 54.21 257.22 1.51 250.17 1.51 250.17 78.3 250.17 78.3 250.17 78.31 275.01 78.3 275.01 78.3 281.96 78.3 281.96 1.51 274.19 1.51 274.19 54.25"/>
        <polygon class="cls-1" points="311.56 69.8 311.56 43.34 325.04 43.34 325.04 34.6 311.56 34.6 311.56 10.25 326.12 10.25 326.12 1.51 302.82 1.51 302.82 78.3 326.53 78.3 326.53 69.8 311.56 69.8"/>
      </g>
    </g>
  </g>
</svg>