<?xml version="1.0" encoding="UTF-8" standalone="no"?>
<svg
   xmlns:dc="http://purl.org/dc/elements/1.1/"
   xmlns:cc="http://creativecommons.org/ns#"
   xmlns:rdf="http://www.w3.org/1999/02/22-rdf-syntax-ns#"
   xmlns:svg="http://www.w3.org/2000/svg"
   xmlns="http://www.w3.org/2000/svg"
   viewBox="0 0 328.81866 215.43333"
   height="215.43333"
   width="328.81866"
   xml:space="preserve"
   id="svg2"
   version="1.1"><metadata
     id="metadata8"><rdf:RDF><cc:Work
         rdf:about=""><dc:format>image/svg+xml</dc:format><dc:type
           rdf:resource="http://purl.org/dc/dcmitype/StillImage" /></cc:Work></rdf:RDF></metadata><defs
     id="defs6"><clipPath
       id="clipPath18"
       clipPathUnits="userSpaceOnUse"><path
         id="path16"
         d="M 0,0 H 246.614 V 161.575 H 0 Z" /></clipPath><clipPath
       id="clipPath64"
       clipPathUnits="userSpaceOnUse"><path
         id="path62"
         d="M 0,0 H 246.614 V 161.575 H 0 Z" /></clipPath><clipPath
       id="clipPath100"
       clipPathUnits="userSpaceOnUse"><path
         id="path98"
         d="M 0,0 H 246.614 V 161.575 H 0 Z" /></clipPath><clipPath
       id="clipPath168"
       clipPathUnits="userSpaceOnUse"><path
         id="path166"
         d="M 0,0 H 246.614 V 161.575 H 0 Z" /></clipPath><clipPath
       id="clipPath188"
       clipPathUnits="userSpaceOnUse"><path
         id="path186"
         d="M 0,0 H 246.614 V 161.575 H 0 Z" /></clipPath><clipPath
       id="clipPath220"
       clipPathUnits="userSpaceOnUse"><path
         id="path218"
         d="M 0,0 H 246.614 V 161.575 H 0 Z" /></clipPath><clipPath
       id="clipPath288"
       clipPathUnits="userSpaceOnUse"><path
         id="path286"
         d="M 0,0 H 246.614 V 161.575 H 0 Z" /></clipPath><clipPath
       id="clipPath308"
       clipPathUnits="userSpaceOnUse"><path
         id="path306"
         d="M 0,0 H 246.614 V 161.575 H 0 Z" /></clipPath><clipPath
       id="clipPath348"
       clipPathUnits="userSpaceOnUse"><path
         id="path346"
         d="M 0,0 H 246.614 V 161.575 H 0 Z" /></clipPath></defs><g
     transform="matrix(1.3333333,0,0,-1.3333333,0,215.43333)"
     id="g10"><g
       id="g12"><g
         clip-path="url(#clipPath18)"
         id="g14"><g
           transform="translate(63.5298,81.1925)"
           id="g20"><path
             id="path22"
             style="fill:#9e1c21;fill-opacity:1;fill-rule:nonzero;stroke:none"
             d="m 0,0 h -15.312 v -5.636 h 2.344 v -28.63 h -2.344 v -5.636 h 12.768 v 5.636 h -2.294 v 9.676 h 4.824 c 3.415,0 6.324,1.189 8.728,3.567 2.403,2.377 3.606,5.278 3.606,8.703 0,3.425 -1.198,6.335 -3.592,8.729 C 6.334,-1.197 3.424,0 0,0 m 4.189,-17.856 c 0,-1.563 -0.557,-2.902 -1.671,-4.015 -1.114,-1.115 -2.452,-1.671 -4.015,-1.671 h -3.341 v 17.906 h 4.488 c 1.264,0 2.336,-0.442 3.218,-1.322 0.88,-0.882 1.321,-1.954 1.321,-3.217 z" /></g><g
           transform="translate(83.5298,78.1)"
           id="g24"><path
             id="path26"
             style="fill:#9e1c21;fill-opacity:1;fill-rule:nonzero;stroke:none"
             d="m 0,0 c -2.461,-2.461 -3.691,-5.437 -3.691,-8.928 v -15.961 c 0,-3.525 1.23,-6.518 3.691,-8.978 2.46,-2.461 5.436,-3.691 8.928,-3.691 3.491,0 6.467,1.23 8.928,3.691 2.46,2.46 3.691,5.453 3.691,8.978 v 15.961 c 0,3.491 -1.231,6.467 -3.691,8.928 C 15.395,2.461 12.419,3.691 8.928,3.691 5.436,3.691 2.46,2.461 0,0 m 13.417,-7.232 v -19.403 c 0,-1.264 -0.437,-2.336 -1.308,-3.217 -0.871,-0.881 -1.932,-1.322 -3.181,-1.322 -1.25,0 -2.311,0.441 -3.182,1.322 -0.872,0.881 -1.307,1.953 -1.307,3.217 v 19.403 c 0,1.263 0.435,2.335 1.307,3.217 0.871,0.881 1.932,1.322 3.182,1.322 1.249,0 2.31,-0.441 3.181,-1.322 0.871,-0.882 1.308,-1.954 1.308,-3.217" /></g><g
           transform="translate(133.0583,44.3327)"
           id="g28"><path
             id="path30"
             style="fill:#9e1c21;fill-opacity:1;fill-rule:nonzero;stroke:none"
             d="m 0,0 c 2.028,2.028 3.042,4.489 3.042,7.382 v 19.053 c 0,2.893 -1.014,5.354 -3.042,7.382 -2.029,2.028 -4.473,3.043 -7.332,3.043 H -24.49 v -5.637 h 2.344 V 2.594 h -2.344 v -5.636 h 17.158 c 2.859,0 5.303,1.014 7.332,3.042 m -14.016,2.594 v 28.629 h 4.489 c 1.216,0 2.26,-0.441 3.131,-1.321 0.872,-0.882 1.309,-1.954 1.309,-3.218 V 7.133 C -5.087,5.869 -5.524,4.796 -6.396,3.916 -7.267,3.034 -8.311,2.594 -9.527,2.594 Z" /></g><g
           transform="translate(156.6998,75.556)"
           id="g32"><path
             id="path34"
             style="fill:#9e1c21;fill-opacity:1;fill-rule:nonzero;stroke:none"
             d="m 0,0 h 2.294 v -24.34 c 0,-1.264 -0.436,-2.336 -1.307,-3.217 -0.871,-0.881 -1.932,-1.322 -3.181,-1.322 -1.217,0 -2.261,0.441 -3.133,1.322 -0.871,0.881 -1.307,1.953 -1.307,3.217 V 0 h 2.295 V 5.636 H -17.108 V 0 h 2.344 v -23.592 c 0,-3.16 0.854,-5.844 2.561,-8.055 1.708,-2.212 3.755,-3.317 6.142,-3.317 1.989,0 3.755,0.773 5.297,2.319 1.541,1.547 2.561,3.533 3.058,5.961 v -7.582 h 10.474 v 5.636 H 10.424 V 0 h 2.344 V 5.636 H 0 Z" /></g><g
           transform="translate(194.5066,60.7927)"
           id="g36"><path
             id="path38"
             style="fill:#9e1c21;fill-opacity:1;fill-rule:nonzero;stroke:none"
             d="m 0,0 c -1.43,1.297 -4.19,3.025 -8.28,5.187 -1.596,0.83 -2.611,1.463 -3.042,1.895 -0.898,0.831 -1.347,1.962 -1.347,3.392 0,1.263 0.449,2.336 1.347,3.217 0.898,0.881 1.961,1.322 3.192,1.322 1.263,0 2.335,-0.449 3.217,-1.347 0.881,-0.898 1.322,-1.963 1.322,-3.192 V 6.833 H 2.045 V 20.4 h -5.636 v -7.582 c -0.467,2.228 -1.414,4.106 -2.844,5.636 -1.595,1.763 -3.458,2.644 -5.586,2.644 -2.361,0 -4.398,-1.065 -6.11,-3.192 -1.713,-2.129 -2.569,-4.673 -2.569,-7.631 0,-5.088 2.235,-8.746 6.705,-10.973 3.801,-1.863 6.019,-3.011 6.654,-3.442 2.067,-1.464 3.101,-3.192 3.101,-5.188 0,-1.263 -0.441,-2.336 -1.322,-3.216 -0.881,-0.882 -1.953,-1.322 -3.217,-1.322 -1.264,0 -2.336,0.44 -3.217,1.322 -0.881,0.88 -1.321,1.953 -1.321,3.216 v 3.343 h -8.131 v -1.597 c 0,-3.525 1.23,-6.517 3.691,-8.978 2.461,-2.461 5.454,-3.69 8.978,-3.69 3.392,0 6.351,1.196 8.879,3.59 2.526,2.395 3.79,5.204 3.79,8.43 C 3.89,-5.072 2.594,-2.328 0,0" /></g><g
           transform="translate(82.43,29.9014)"
           id="g40"><path
             id="path42"
             style="fill:#9e1c21;fill-opacity:1;fill-rule:nonzero;stroke:none"
             d="m 0,0 c -0.066,-0.2 -0.106,-0.326 -0.133,-0.479 h -0.02 c -0.02,0.153 -0.06,0.279 -0.127,0.472 l -1.297,3.308 h -1.318 v -4.725 h 0.806 v 3.441 c 0,0.212 -0.007,0.399 -0.034,0.552 h 0.027 C -2.07,2.442 -2.003,2.21 -1.944,2.05 l 1.372,-3.474 H 0.26 L 1.631,2.043 C 1.704,2.216 1.777,2.462 1.797,2.569 H 1.823 C 1.804,2.409 1.797,2.21 1.797,2.017 V -1.424 H 2.629 V 3.301 H 1.298 Z" /></g><g
           transform="translate(87.8792,33.2025)"
           id="g44"><path
             id="path46"
             style="fill:#9e1c21;fill-opacity:1;fill-rule:nonzero;stroke:none"
             d="m 0,0 -2.083,-4.725 h 0.952 l 0.466,1.144 H 1.684 L 2.15,-4.725 H 3.095 L 1.019,0 Z m -0.399,-2.915 0.586,1.437 c 0.153,0.313 0.239,0.513 0.312,0.792 h 0.014 c 0.073,-0.279 0.166,-0.479 0.313,-0.792 l 0.585,-1.437 z" /></g><g
           transform="translate(95.3723,30.1342)"
           id="g48"><path
             id="path50"
             style="fill:#9e1c21;fill-opacity:1;fill-rule:nonzero;stroke:none"
             d="m 0,0 c 0,-0.233 0,-0.426 0.007,-0.612 h -0.013 c -0.073,0.18 -0.18,0.359 -0.313,0.552 l -2.296,3.128 h -1.039 v -4.725 h 0.826 v 3.095 c 0,0.233 0,0.426 -0.007,0.605 h 0.02 c 0.067,-0.166 0.18,-0.346 0.306,-0.539 l 2.35,-3.161 H 0.826 V 3.068 H 0 Z" /></g><g
           transform="translate(99.578,30.3539)"
           id="g52"><path
             id="path54"
             style="fill:#9e1c21;fill-opacity:1;fill-rule:nonzero;stroke:none"
             d="M 0,0 H 1.591 V -0.066 C 1.584,-0.612 1.124,-1.304 0.067,-1.304 c -1.065,0 -1.665,0.732 -1.665,1.783 0,1.085 0.62,1.797 1.651,1.797 0.832,0 1.278,-0.452 1.405,-0.938 l 0.931,0.16 C 2.196,2.27 1.437,2.982 0.079,2.982 c -1.616,0 -2.608,-1.032 -2.608,-2.509 0,-1.465 0.918,-2.483 2.409,-2.483 0.892,0 1.517,0.366 1.803,0.905 L 1.75,-1.877 H 2.422 V 0.672 L 0,0.672 Z" /></g></g></g><path
       id="path56"
       style="fill:#9e1c21;fill-opacity:1;fill-rule:nonzero;stroke:none"
       d="m 103.044,28.477 h 0.913 v 4.726 h -0.913 z" /><g
       id="g58"><g
         clip-path="url(#clipPath64)"
         id="g60"><g
           transform="translate(107.4229,33.3355)"
           id="g66"><path
             id="path68"
             style="fill:#9e1c21;fill-opacity:1;fill-rule:nonzero;stroke:none"
             d="m 0,0 c -1.577,0 -2.616,-0.972 -2.616,-2.496 0,-1.511 1.039,-2.495 2.616,-2.495 1.571,0 2.609,0.971 2.609,2.495 C 2.609,-0.972 1.571,0 0,0 m 0,-4.273 c -1.025,0 -1.671,0.699 -1.671,1.777 0,1.085 0.646,1.777 1.671,1.777 1.018,0 1.664,-0.692 1.664,-1.777 0,-1.085 -0.646,-1.777 -1.664,-1.777" /></g><g
           transform="translate(115.2014,33.2025)"
           id="g70"><path
             id="path72"
             style="fill:#9e1c21;fill-opacity:1;fill-rule:nonzero;stroke:none"
             d="m 0,0 h -2.176 v -4.725 h 2.17 c 1.51,0 2.535,0.965 2.535,2.409 C 2.529,-0.878 1.524,0 0,0 m -0.053,-4.033 h -1.211 v 3.341 h 1.191 c 1.025,0 1.65,-0.626 1.65,-1.631 0,-1.005 -0.599,-1.71 -1.63,-1.71" /></g><g
           transform="translate(122.062,30.3939)"
           id="g74"><path
             id="path76"
             style="fill:#9e1c21;fill-opacity:1;fill-rule:nonzero;stroke:none"
             d="m 0,0 c 0,-0.759 -0.485,-1.298 -1.331,-1.298 -0.852,0 -1.331,0.539 -1.331,1.298 v 2.809 h -0.912 v -2.862 c 0,-1.185 0.812,-1.997 2.243,-1.997 1.431,0 2.243,0.812 2.243,1.99 V 2.809 H 0 Z" /></g><g
           transform="translate(127.7579,30.1342)"
           id="g78"><path
             id="path80"
             style="fill:#9e1c21;fill-opacity:1;fill-rule:nonzero;stroke:none"
             d="m 0,0 c 0,-0.233 0,-0.426 0.007,-0.612 h -0.013 c -0.073,0.18 -0.18,0.359 -0.313,0.552 l -2.296,3.128 h -1.039 v -4.725 h 0.826 v 3.095 c 0,0.233 0,0.426 -0.007,0.605 h 0.02 c 0.067,-0.166 0.18,-0.346 0.306,-0.539 l 2.35,-3.161 H 0.826 V 3.068 H 0 Z" /></g><g
           transform="translate(134.6588,30.8396)"
           id="g82"><path
             id="path84"
             style="fill:#9e1c21;fill-opacity:1;fill-rule:nonzero;stroke:none"
             d="m 0,0 c 0,1.524 -1.038,2.496 -2.609,2.496 -1.577,0 -2.615,-0.972 -2.615,-2.496 0,-1.511 1.038,-2.496 2.615,-2.496 0.127,0 0.253,0.007 0.373,0.02 0.286,-0.572 0.839,-0.892 1.564,-0.892 0.199,0 0.32,0.021 0.486,0.04 v 0.739 c -0.147,-0.026 -0.26,-0.04 -0.433,-0.04 -0.246,0 -0.599,0.04 -0.885,0.32 C -0.572,-1.956 0,-1.131 0,0 m -2.609,-1.777 c -1.025,0 -1.67,0.699 -1.67,1.777 0,1.085 0.645,1.777 1.67,1.777 1.018,0 1.664,-0.692 1.664,-1.777 0,-1.085 -0.646,-1.777 -1.664,-1.777" /></g><g
           transform="translate(138.99,30.3939)"
           id="g86"><path
             id="path88"
             style="fill:#9e1c21;fill-opacity:1;fill-rule:nonzero;stroke:none"
             d="m 0,0 c 0,-0.759 -0.485,-1.298 -1.331,-1.298 -0.852,0 -1.331,0.539 -1.331,1.298 v 2.809 h -0.912 v -2.862 c 0,-1.185 0.812,-1.997 2.243,-1.997 1.431,0 2.243,0.812 2.243,1.99 V 2.809 H 0 Z" /></g></g></g><g
       transform="translate(141.9441,30.5537)"
       id="g90"><path
         id="path92"
         style="fill:#9e1c21;fill-opacity:1;fill-rule:nonzero;stroke:none"
         d="M 0,0 H 2.689 V 0.679 H 0 V 1.95 h 2.802 v 0.699 h -3.714 v -4.726 h 3.761 v 0.699 l -2.849,0 z" /></g><g
       id="g94"><g
         clip-path="url(#clipPath100)"
         id="g96"><g
           transform="translate(150.4752,31.1926)"
           id="g102"><path
             id="path104"
             style="fill:#9e1c21;fill-opacity:1;fill-rule:nonzero;stroke:none"
             d="M 0,0 -0.985,0.146 C -1.598,0.24 -1.83,0.419 -1.83,0.812 c 0,0.412 0.412,0.645 1.091,0.645 0.799,0 1.292,-0.319 1.511,-0.885 l 0.712,0.38 c -0.313,0.805 -1.091,1.191 -2.183,1.191 -1.271,0 -2.023,-0.533 -2.023,-1.398 0,-0.805 0.506,-1.211 1.404,-1.351 l 1.012,-0.14 c 0.612,-0.093 0.892,-0.259 0.892,-0.698 0,-0.493 -0.459,-0.699 -1.172,-0.699 -0.891,0 -1.417,0.412 -1.65,1.011 l -0.765,-0.346 c 0.285,-0.845 1.091,-1.371 2.389,-1.371 1.384,0 2.109,0.599 2.109,1.491 C 1.497,-0.526 0.979,-0.153 0,0" /></g><g
           transform="translate(155.0731,33.3355)"
           id="g106"><path
             id="path108"
             style="fill:#9e1c21;fill-opacity:1;fill-rule:nonzero;stroke:none"
             d="m 0,0 c -1.577,0 -2.616,-0.972 -2.616,-2.496 0,-1.511 1.039,-2.495 2.616,-2.495 1.571,0 2.609,0.971 2.609,2.495 C 2.609,-0.972 1.571,0 0,0 m 0,-4.273 c -1.025,0 -1.671,0.699 -1.671,1.777 0,1.085 0.646,1.777 1.671,1.777 1.018,0 1.664,-0.692 1.664,-1.777 0,-1.085 -0.646,-1.777 -1.664,-1.777" /></g><g
           transform="translate(162.1863,30.1342)"
           id="g110"><path
             id="path112"
             style="fill:#9e1c21;fill-opacity:1;fill-rule:nonzero;stroke:none"
             d="m 0,0 c 0,-0.233 0,-0.426 0.007,-0.612 h -0.013 c -0.073,0.18 -0.18,0.359 -0.313,0.552 l -2.296,3.128 h -1.039 v -4.725 h 0.826 v 3.095 c 0,0.233 0,0.426 -0.007,0.605 h 0.02 c 0.067,-0.166 0.18,-0.346 0.306,-0.539 l 2.35,-3.161 H 0.826 V 3.068 H 0 Z" /></g><g
           transform="translate(166.4784,33.3355)"
           id="g114"><path
             id="path116"
             style="fill:#9e1c21;fill-opacity:1;fill-rule:nonzero;stroke:none"
             d="m 0,0 c -1.577,0 -2.616,-0.972 -2.616,-2.496 0,-1.511 1.039,-2.495 2.616,-2.495 1.571,0 2.609,0.971 2.609,2.495 C 2.609,-0.972 1.571,0 0,0 m 0,-4.273 c -1.025,0 -1.671,0.699 -1.671,1.777 0,1.085 0.646,1.777 1.671,1.777 1.018,0 1.664,-0.692 1.664,-1.777 0,-1.085 -0.646,-1.777 -1.664,-1.777" /></g><g
           transform="translate(116.5264,92.9981)"
           id="g118"><path
             id="path120"
             style="fill:#9e1c21;fill-opacity:1;fill-rule:nonzero;stroke:none"
             d="M 0,0 -0.012,0.01 C -0.024,-0.01 -0.04,-0.037 -0.066,-0.081 Z" /></g><g
           transform="translate(120.1382,98.0458)"
           id="g122"><path
             id="path124"
             style="fill:#9e1c21;fill-opacity:1;fill-rule:nonzero;stroke:none"
             d="M 0,0 C -0.017,0.022 -0.016,0.041 -0.015,0.059 -0.029,0.044 -0.033,0.027 0,0" /></g><g
           transform="translate(114.9656,92.856)"
           id="g126"><path
             id="path128"
             style="fill:#9e1c21;fill-opacity:1;fill-rule:nonzero;stroke:none"
             d="M 0,0 0.102,0.001 C 0.066,0.017 0.022,0.02 0,0" /></g><g
           transform="translate(115.2095,91.7462)"
           id="g130"><path
             id="path132"
             style="fill:#9e1c21;fill-opacity:1;fill-rule:nonzero;stroke:none"
             d="M 0,0 C -0.005,-0.018 -0.016,-0.039 0.017,-0.056 0.016,-0.041 0.008,-0.02 0,0" /></g><g
           transform="translate(134.9143,115.1929)"
           id="g134"><path
             id="path136"
             style="fill:#9e1c21;fill-opacity:1;fill-rule:nonzero;stroke:none"
             d="M 0,0 -0.004,-0.174 C 0.03,-0.146 0.01,-0.069 0,0" /></g><g
           transform="translate(115.101,93.7096)"
           id="g138"><path
             id="path140"
             style="fill:#9e1c21;fill-opacity:1;fill-rule:nonzero;stroke:none"
             d="M 0,0 C -0.061,0.08 0.075,0.117 -0.003,0.155 -0.011,0.105 -0.1,0.073 0,0" /></g><g
           transform="translate(134.367,115.625)"
           id="g142"><path
             id="path144"
             style="fill:#9e1c21;fill-opacity:1;fill-rule:nonzero;stroke:none"
             d="M 0,0 C 0.014,-0.009 0.026,-0.017 0.039,-0.025 0.035,-0.01 0.036,0.002 0.041,0.01 Z" /></g><g
           transform="translate(128.4598,107.914)"
           id="g146"><path
             id="path148"
             style="fill:#9e1c21;fill-opacity:1;fill-rule:nonzero;stroke:none"
             d="M 0,0 -0.001,-0.001 C 0.001,-0.008 0.002,-0.012 0.004,-0.02 Z" /></g><g
           transform="translate(128.7451,108.009)"
           id="g150"><path
             id="path152"
             style="fill:#9e1c21;fill-opacity:1;fill-rule:nonzero;stroke:none"
             d="M 0,0 C -0.006,-0.02 -0.012,-0.04 -0.017,-0.062 0.009,-0.046 0.009,-0.024 0,0" /></g><g
           transform="translate(119.9853,97.904)"
           id="g154"><path
             id="path156"
             style="fill:#9e1c21;fill-opacity:1;fill-rule:nonzero;stroke:none"
             d="M 0,0 C -0.01,-0.001 -0.019,-0.006 -0.029,-0.009 -0.013,-0.022 0.001,-0.029 0,0" /></g></g></g><g
       transform="translate(119.0772,100.8927)"
       id="g158"><path
         id="path160"
         style="fill:#9e1c21;fill-opacity:1;fill-rule:nonzero;stroke:none"
         d="M 0,0 -0.002,0.002 Z" /></g><g
       id="g162"><g
         clip-path="url(#clipPath168)"
         id="g164"><g
           transform="translate(119.1095,100.738)"
           id="g170"><path
             id="path172"
             style="fill:#9e1c21;fill-opacity:1;fill-rule:nonzero;stroke:none"
             d="M 0,0 C 0.035,0.018 0.008,0.095 -0.033,0.154 -0.051,0.125 -0.053,0.087 0,0" /></g></g></g><g
       transform="translate(117.9,99.2961)"
       id="g174"><path
         id="path176"
         style="fill:#9e1c21;fill-opacity:1;fill-rule:nonzero;stroke:none"
         d="M 0,0 0.008,-0.005 0.002,0 Z" /></g><g
       transform="translate(119.6658,102.0996)"
       id="g178"><path
         id="path180"
         style="fill:#9e1c21;fill-opacity:1;fill-rule:nonzero;stroke:none"
         d="M 0,0 0.004,-0.003 V 0 Z" /></g><g
       id="g182"><g
         clip-path="url(#clipPath188)"
         id="g184"><g
           transform="translate(117.8515,99.2589)"
           id="g190"><path
             id="path192"
             style="fill:#9e1c21;fill-opacity:1;fill-rule:nonzero;stroke:none"
             d="M 0,0 0.048,0.037 C 0.022,0.053 -0.006,0.074 -0.021,0.114 Z" /></g><g
           transform="translate(119.6662,102.0998)"
           id="g194"><path
             id="path196"
             style="fill:#9e1c21;fill-opacity:1;fill-rule:nonzero;stroke:none"
             d="M 0,0 C -0.022,0.017 -0.05,0.036 -0.095,0.045 -0.097,-0.01 -0.043,0.002 0,0" /></g><g
           transform="translate(115.5905,94.3477)"
           id="g198"><path
             id="path200"
             style="fill:#9e1c21;fill-opacity:1;fill-rule:nonzero;stroke:none"
             d="M 0,0 0.039,0.046 C 0.03,0.05 0.025,0.054 0.015,0.059 Z" /></g><g
           transform="translate(115.2545,94.0685)"
           id="g202"><path
             id="path204"
             style="fill:#9e1c21;fill-opacity:1;fill-rule:nonzero;stroke:none"
             d="M 0,0 C 0.013,0.019 0.027,0.047 0.047,0.059 0.001,0.049 -0.01,0.029 0,0" /></g><g
           transform="translate(116.7832,96.3394)"
           id="g206"><path
             id="path208"
             style="fill:#9e1c21;fill-opacity:1;fill-rule:nonzero;stroke:none"
             d="M 0,0 C -0.001,0.003 0.001,0.004 0.001,0.007 -0.03,0.076 -0.022,0.039 0,0" /></g></g></g><g
       transform="translate(115.4871,94.6854)"
       id="g210"><path
         id="path212"
         style="fill:#9e1c21;fill-opacity:1;fill-rule:nonzero;stroke:none"
         d="M 0,0 0.008,0.004 -0.019,0.038 Z" /></g><g
       id="g214"><g
         clip-path="url(#clipPath220)"
         id="g216"><g
           transform="translate(115.0975,93.8643)"
           id="g222"><path
             id="path224"
             style="fill:#9e1c21;fill-opacity:1;fill-rule:nonzero;stroke:none"
             d="M 0,0 C 0.002,0.011 0.001,0.023 -0.01,0.038 -0.019,0.031 -0.027,0.024 -0.039,0.015 -0.021,0.01 -0.01,0.005 0,0" /></g><g
           transform="translate(116.1729,95.6736)"
           id="g226"><path
             id="path228"
             style="fill:#9e1c21;fill-opacity:1;fill-rule:nonzero;stroke:none"
             d="M 0,0 C 0.037,-0.039 0.065,-0.061 0.089,-0.074 0.096,-0.056 0.082,-0.034 0,0" /></g><g
           transform="translate(179.339,130.3871)"
           id="g230"><path
             id="path232"
             style="fill:#9e1c21;fill-opacity:1;fill-rule:nonzero;stroke:none"
             d="m 0,0 v 3.417 l -0.033,0.299 h -0.299 c -4.371,0 -7.948,-1.451 -10.631,-4.311 -2.717,-2.851 -4.094,-6.77 -4.094,-11.647 v -0.678 c -0.101,-3.018 -1.157,-5.426 -3.229,-7.361 -2.159,-1.994 -5.181,-3.006 -8.979,-3.006 h -13.122 v -3.747 h 13.122 c 4.879,0 8.798,1.376 11.656,4.095 0.354,0.354 0.755,0.756 1.079,1.15 2.138,2.522 3.223,5.711 3.223,9.477 v 0.07 c 0,3.797 1.01,6.817 3.002,8.976 C -6.241,-1.068 -3.633,0 -0.299,0 Z" /></g><g
           transform="translate(82.4277,108.6019)"
           id="g234"><path
             id="path236"
             style="fill:#9e1c21;fill-opacity:1;fill-rule:nonzero;stroke:none"
             d="m 0,0 c 0.326,-0.398 0.728,-0.8 1.088,-1.159 2.852,-2.714 6.771,-4.09 11.65,-4.09 H 25.86 v 3.747 H 12.738 C 8.939,-1.502 5.918,-0.49 3.76,1.503 1.687,3.439 0.631,5.847 0.53,8.855 v 0.688 c 0,4.877 -1.378,8.796 -4.093,11.646 -2.684,2.861 -6.262,4.312 -10.665,4.312 h -0.299 v -3.417 l 0.033,-0.299 h 0.299 c 3.3,0 5.908,-1.068 7.972,-3.264 C -4.23,16.36 -3.22,13.34 -3.22,9.543 V 9.473 C -3.22,5.707 -2.136,2.518 0,0" /></g><g
           transform="translate(134.6967,95.7451)"
           id="g238"><path
             id="path240"
             style="fill:#9e1c21;fill-opacity:1;fill-rule:nonzero;stroke:none"
             d="M 0,0 -0.012,-0.009 C 0.004,-0.025 0.025,-0.048 0.06,-0.085 Z" /></g><g
           transform="translate(130.6065,100.3608)"
           id="g242"><path
             id="path244"
             style="fill:#9e1c21;fill-opacity:1;fill-rule:nonzero;stroke:none"
             d="M 0,0 C -0.025,-0.012 -0.043,-0.008 -0.06,-0.003 -0.048,-0.02 -0.033,-0.027 0,0" /></g><g
           transform="translate(134.4417,94.2269)"
           id="g246"><path
             id="path248"
             style="fill:#9e1c21;fill-opacity:1;fill-rule:nonzero;stroke:none"
             d="M 0,0 0.025,0.096 C 0.001,0.066 -0.014,0.026 0,0" /></g><g
           transform="translate(135.6174,94.189)"
           id="g250"><path
             id="path252"
             style="fill:#9e1c21;fill-opacity:1;fill-rule:nonzero;stroke:none"
             d="M 0,0 C -0.015,0.002 -0.036,-0.001 -0.057,-0.004 -0.041,-0.013 -0.023,-0.027 0,0" /></g><g
           transform="translate(114.423,115.9325)"
           id="g254"><path
             id="path256"
             style="fill:#9e1c21;fill-opacity:1;fill-rule:nonzero;stroke:none"
             d="M 0,0 0.167,-0.009 C 0.142,0.025 0.067,0.008 0,0" /></g><g
           transform="translate(133.6692,94.5735)"
           id="g258"><path
             id="path260"
             style="fill:#9e1c21;fill-opacity:1;fill-rule:nonzero;stroke:none"
             d="M 0,0 C -0.09,-0.037 -0.091,0.101 -0.146,0.036 -0.102,0.016 -0.094,-0.077 0,0" /></g><g
           transform="translate(113.979,115.4135)"
           id="g262"><path
             id="path264"
             style="fill:#9e1c21;fill-opacity:1;fill-rule:nonzero;stroke:none"
             d="M 0,0 C 0.01,0.014 0.017,0.025 0.026,0.037 0.011,0.034 -0.001,0.035 -0.008,0.041 Z" /></g><g
           transform="translate(121.4948,109.5436)"
           id="g266"><path
             id="path268"
             style="fill:#9e1c21;fill-opacity:1;fill-rule:nonzero;stroke:none"
             d="M 0,0 0.001,-0.001 C 0.008,0 0.012,0.001 0.019,0.003 Z" /></g><g
           transform="translate(121.4055,109.8298)"
           id="g270"><path
             id="path272"
             style="fill:#9e1c21;fill-opacity:1;fill-rule:nonzero;stroke:none"
             d="M 0,0 C 0.02,-0.006 0.039,-0.013 0.06,-0.019 0.045,0.008 0.024,0.008 0,0" /></g><g
           transform="translate(130.7202,100.1869)"
           id="g274"><path
             id="path276"
             style="fill:#9e1c21;fill-opacity:1;fill-rule:nonzero;stroke:none"
             d="M 0,0 C -0.001,-0.01 0.003,-0.02 0.004,-0.03 0.019,-0.017 0.028,-0.005 0,0" /></g></g></g><g
       transform="translate(127.6875,99.8226)"
       id="g278"><path
         id="path280"
         style="fill:#9e1c21;fill-opacity:1;fill-rule:nonzero;stroke:none"
         d="M 0,0 0.002,0.001 Z" /></g><g
       id="g282"><g
         clip-path="url(#clipPath288)"
         id="g284"><g
           transform="translate(127.8407,99.8304)"
           id="g290"><path
             id="path292"
             style="fill:#9e1c21;fill-opacity:1;fill-rule:nonzero;stroke:none"
             d="M 0,0 C -0.011,0.037 -0.089,0.023 -0.151,-0.007 -0.127,-0.03 -0.092,-0.038 0,0" /></g></g></g><g
       transform="translate(129.0033,98.4366)"
       id="g294"><path
         id="path296"
         style="fill:#9e1c21;fill-opacity:1;fill-rule:nonzero;stroke:none"
         d="M 0,0 V -0.002 L 0.007,0.005 Z" /></g><g
       transform="translate(126.6147,100.548)"
       id="g298"><path
         id="path300"
         style="fill:#9e1c21;fill-opacity:1;fill-rule:nonzero;stroke:none"
         d="M 0,0 0.003,0.002 0.001,0.003 Z" /></g><g
       id="g302"><g
         clip-path="url(#clipPath308)"
         id="g304"><g
           transform="translate(113.8734,115.5019)"
           id="g310"><path
             id="path312"
             style="fill:#9e1c21;fill-opacity:1;fill-rule:nonzero;stroke:none"
             d="M 0,0 0.177,0.128 C 0.189,0.065 0.174,0.012 0.132,-0.052 0.23,-0.035 0.474,0.135 0.459,-0.044 L 0.427,-0.027 C 0.5,-0.097 0.362,-0.166 0.349,-0.206 L 0.336,-0.188 0.311,-0.325 c 0.012,0.097 -0.193,0.061 -0.146,0.027 0.036,-0.131 0.019,0.059 0.1,0.008 C 0.311,-0.325 0.213,-0.39 0.16,-0.433 L 0.235,-0.504 C 0.156,-0.569 0.194,-0.45 0.143,-0.55 L 0.309,-0.575 C 0.133,-0.764 0.494,-0.597 0.354,-0.802 0.246,-0.773 0.295,-0.866 0.223,-0.911 L 0.387,-1.07 C 0.375,-1.11 0.288,-1.079 0.321,-1.095 0.297,-1.175 0.414,-1.106 0.428,-1.124 0.39,-1.186 0.545,-1.248 0.415,-1.358 0.436,-1.549 0.619,-1.26 0.644,-1.432 0.581,-1.516 0.549,-1.364 0.513,-1.484 l 0.13,-0.084 C 0.597,-1.592 0.5,-1.66 0.478,-1.603 0.652,-1.993 0.405,-2.525 0.761,-2.702 0.707,-2.825 0.675,-2.731 0.59,-2.759 0.894,-2.844 0.655,-3.22 0.824,-3.377 L 0.9,-3.31 C 0.893,-3.76 1.296,-3.908 1.452,-4.26 l 0.021,0.081 c 0.105,0.032 0.168,-0.019 0.242,-0.03 -0.03,-0.042 -0.185,-0.12 -0.082,-0.165 0.011,0.04 0.008,0.098 0.052,0.123 0.026,-0.406 0.53,-0.831 0.797,-1.283 0.539,-0.436 0.926,-1.105 1.448,-1.538 -0.078,0.067 0.129,0.213 0.144,0.118 -0.15,-0.451 0.31,-0.21 0.261,-0.567 C 4.709,-7.702 4.701,-8.21 5.19,-8.235 L 5.111,-8.326 c 0.001,-0.077 0.07,-0.028 0.119,-0.06 L 5.205,-8.409 c 0.066,-0.127 0.268,-0.155 0.283,-0.25 l 0.098,0.093 C 5.652,-8.615 5.543,-8.67 5.656,-8.673 L 5.607,-8.72 5.765,-8.696 C 5.593,-8.858 5.914,-8.868 5.885,-8.989 5.989,-9.032 6.202,-9.097 6.282,-9.241 6.218,-9.349 6.358,-9.483 6.403,-9.613 6.596,-9.759 6.87,-9.97 7.06,-10.214 l 0.103,0.114 0.064,-0.048 c -0.024,-0.023 -0.029,-0.043 -0.048,-0.047 -0.077,-0.168 0.169,-0.089 0.14,-0.212 0.067,0.128 -0.025,0.055 -0.055,0.089 0.003,0.098 0.151,0.161 0.162,0.045 l -0.025,-0.023 0.066,0.011 c -0.122,-0.22 -0.252,-0.433 -0.402,-0.589 0.091,-0.186 0.018,-0.295 -0.028,-0.427 l -0.202,0.138 -0.004,-0.136 c -0.085,0.009 0.015,0.096 -0.106,0.089 l 0.096,-0.127 C 6.746,-11.29 6.607,-11.53 6.578,-11.274 L 6.321,-11.62 c -0.063,-0.072 0.129,-0.167 0.019,-0.215 -0.07,0.026 -0.017,0.06 -0.092,0.105 -0.333,-0.146 0.163,-0.575 -0.099,-0.744 l -0.012,0.039 c 0.023,-0.079 -0.04,-0.15 -0.013,-0.171 0.221,-0.116 -0.076,0.121 0.094,0.107 0.162,-0.129 0.024,-0.156 0.155,-0.244 -0.101,-0.011 -0.03,-0.113 -0.055,-0.167 -0.165,-0.005 -0.177,-0.177 -0.354,-0.143 0.024,-0.079 0.156,-0.242 0.1,-0.332 -0.177,0.033 -0.115,0.104 -0.227,0.056 l 0.088,-0.083 C 5.86,-13.47 5.84,-13.44 5.796,-13.405 c -0.059,-0.07 0.09,-0.156 -0.041,-0.204 l -0.058,0.119 c -0.013,-0.094 -0.05,-0.11 -0.129,-0.199 -0.055,0.041 -0.023,0.077 0.014,0.093 -0.184,0.051 -0.002,-0.132 -0.038,-0.149 0.049,-0.022 0.116,0.03 0.19,-0.07 -0.053,-0.034 0.06,-0.193 -0.081,-0.145 l -0.057,0.117 c 0.004,-0.151 0.084,-0.138 -0.037,-0.224 -0.003,0.011 -0.03,0.025 -0.049,0.042 0.072,-0.157 -0.105,-0.175 -0.184,-0.279 l -0.013,0.039 c 0.005,-0.067 0.078,-0.152 0.056,-0.171 0.097,0.023 0.115,-0.014 0.214,-0.073 -0.217,0.029 0.11,-0.255 -0.073,-0.324 -0.056,0.041 -0.105,0.12 -0.02,0.116 -0.139,0.16 -0.279,0.263 -0.305,0.399 0.006,-0.078 -0.009,-0.154 -0.071,-0.093 l 0.146,-0.122 c -0.016,-0.034 -0.041,-0.052 -0.056,-0.076 0.091,-0.08 0.203,-0.047 0.222,-0.162 -0.001,-0.116 -0.189,0.065 -0.126,0.005 -0.009,-0.154 0.139,-0.16 0.018,-0.232 -0.005,0.02 -0.019,0.059 0.001,0.058 -0.113,-0.035 -0.092,-0.208 -0.297,-0.104 -0.035,0.04 -0.091,0.08 -0.056,0.098 l 0.029,-0.02 c -0.084,0.176 -0.009,-0.096 -0.163,0.044 0.106,-0.062 0.013,-0.155 -0.037,-0.191 l 0.127,-0.062 c 0.245,-0.391 -0.226,0.161 -0.284,-0.03 0.014,-0.154 0.057,0.017 0.099,-0.099 -0.064,-0.056 -0.185,-0.014 -0.199,-0.148 -0.064,0.002 -0.164,-0.015 -0.299,0.065 0.014,-0.096 -0.179,-0.15 -0.074,-0.267 0.179,0.034 -0.07,0.193 0.181,0.207 l 0.105,-0.117 c -0.061,-0.081 -0.066,-0.231 -0.15,-0.26 0.033,-0.004 0.069,-0.02 0.092,-0.045 -0.029,-0.151 0.078,-0.268 -0.036,-0.36 -0.129,0.059 -0.064,0.115 -0.042,0.171 -0.144,-0.016 -0.058,-0.074 -0.172,-0.168 -0.108,0.059 0.057,0.075 -0.036,0.152 l -0.051,-0.15 -0.021,0.013 c 0.161,-0.127 -0.079,-0.09 -0.078,-0.202 -0.123,-0.189 0.093,-0.361 0.166,-0.549 -0.065,0 -0.115,0.019 -0.151,0.057 0.107,-10e-4 0.041,0.028 0.006,0.072 -0.023,-0.074 -0.261,-0.035 -0.308,0.043 -0.015,-0.132 0.115,-0.019 0.13,-0.114 l -0.101,-0.132 c 0.101,-0.037 0.151,0 0.174,-0.113 -0.014,-0.075 -0.051,-0.094 -0.107,-0.169 -0.037,0.038 -0.153,0.057 -0.109,0.113 -0.058,-0.018 -0.101,-0.075 -0.028,-0.15 0.134,0.04 -0.007,-0.191 0.172,-0.208 L 3.67,-17.604 c 0.012,0.02 -0.046,0.057 -0.012,0.077 -0.15,0.055 -10e-4,-0.097 -0.005,-0.135 -0.044,-0.016 -0.101,-0.091 -0.158,-0.067 0.022,-0.05 -0.046,-0.102 -0.123,-0.074 0.004,-0.058 0.087,-0.055 0.125,-0.093 l -0.09,-0.137 c -0.081,0.037 -0.298,0.147 -0.315,0.185 0.041,-0.096 0.214,-0.149 0.162,-0.227 -0.121,0.132 -0.174,-0.043 -0.312,0.126 -0.134,0.015 -0.204,-0.123 -0.207,-0.219 0.093,-0.112 0.111,0.043 0.229,-0.031 -0.072,-0.232 0.254,-0.432 0.112,-0.55 l 0.056,0.02 c 0.015,-0.133 0.007,-0.114 0.078,-0.225 -0.134,0.109 -0.462,0.116 -0.516,-0.058 0.068,-0.054 0.192,0.008 0.297,-0.083 L 2.957,-19.21 c -0.016,-10e-4 -0.035,0.024 -0.047,0.048 0.003,-0.122 -0.291,-0.065 -0.129,-0.188 l -0.273,0.026 0.115,-0.014 c 0.067,-0.054 0.033,-0.17 0.051,-0.207 0.024,-0.15 -0.062,-0.154 -0.19,-0.16 0.072,-0.015 0.239,-0.045 0.217,-0.141 -0.245,0.132 -0.187,-0.126 -0.313,-0.056 -0.016,-0.035 -0.125,-0.054 -0.025,-0.112 l -0.15,0.087 c 0.209,-0.121 0.131,-0.238 0.118,-0.352 -0.279,0.173 -0.034,-0.115 -0.322,-0.019 0.188,-0.12 -0.014,-0.207 0.145,-0.311 -0.03,-0.077 -0.21,0.025 -0.284,0.039 l 0.056,-0.072 c -0.114,0.012 -0.203,-0.117 -0.304,-0.17 l 0.138,-0.166 -0.093,0.012 c 0.039,-0.035 0.034,-0.113 0.118,-0.106 l -0.029,-0.036 c 0.19,-0.1 0.024,-0.085 0.066,-0.21 -0.039,-0.004 -0.083,0.024 -0.1,0.055 -0.022,-0.041 -0.112,0.027 -0.187,0.036 0.063,0.005 0.273,-0.322 0.413,-0.253 0.083,-0.031 0.109,-0.125 0.055,-0.149 l -0.185,0.061 0.159,-0.139 c -0.005,-0.076 -0.129,-0.049 -0.173,-0.091 0.015,0.058 -0.276,0.282 -0.337,0.143 0.012,0.083 -0.068,0.166 -0.086,0.222 -0.02,-0.026 -0.044,-0.032 -0.096,0.049 0.002,-0.134 0.089,-0.088 0.06,-0.205 -0.152,0.081 -0.216,0.076 -0.313,0.009 l 0.147,0.014 c 0.017,-0.013 0.028,-0.024 0.035,-0.034 0.029,0.018 0.057,0.014 0.119,-0.01 -0.011,-0.02 0.134,-0.218 0.031,-0.189 0.292,-0.012 0.099,-0.278 0.277,-0.281 0.039,-0.034 0.013,-0.112 -0.068,-0.082 -0.075,0.146 -0.209,0.019 -0.31,0.086 0.029,-0.055 0.148,0.014 0.186,-0.059 -0.015,-0.058 -0.129,-0.05 -0.192,-0.056 l -0.019,0.036 -0.109,-0.048 c 0.071,-0.051 0.17,0.015 0.174,-0.079 -0.042,-0.004 -0.037,-0.099 -0.098,-0.067 -0.09,0.087 -0.245,0.129 -0.24,0.206 -0.014,-0.059 -0.078,-0.237 0.101,-0.238 L 1.03,-22.442 c 0.086,0.008 0.257,0.063 0.217,-0.075 l -0.03,0.016 0.076,-0.144 H 1.194 c 0.04,-0.018 0.07,-0.049 0.051,-0.081 -0.051,0.014 -0.084,-0.008 -0.145,0.024 -0.037,-0.099 0.045,-0.129 0.085,-0.163 -0.014,-0.058 -0.057,-0.062 -0.137,0.006 -0.056,-0.063 -0.095,-0.2 -0.202,-0.211 0.024,-0.131 0.043,0.004 0.121,-0.102 -0.313,0.043 -0.259,-0.274 -0.299,-0.449 0.259,-0.066 0.006,-0.056 0.211,-0.185 -0.06,0.069 -0.258,-0.066 -0.259,0.104 l -0.016,-0.096 c -0.159,10e-4 -0.032,0.185 -0.255,0.18 -0.037,-0.1 0.197,-0.281 0.054,-0.354 -0.152,0.115 0.015,-0.112 -0.159,0 -0.05,0.051 -0.016,0.074 -0.015,0.112 l -0.042,-0.004 c -0.149,-0.188 0.172,-0.152 0.237,-0.314 -0.039,-0.137 -0.182,-0.04 -0.266,-0.012 -0.043,-0.005 -0.047,-0.081 -0.018,-0.135 -0.068,0.125 0.175,0.097 0.266,0.013 -0.221,0.031 -0.106,-0.182 -0.045,-0.25 0.291,0.09 0.07,0.121 0.371,0.193 -0.051,0.051 -0.227,0.125 -0.106,0.195 0.055,-0.102 0.099,-0.039 0.136,-0.033 -0.11,0.025 -0.008,0.089 -0.035,0.139 0.095,-0.008 0.202,-0.165 0.292,-0.08 l -0.227,0.126 c 0.055,0.024 0.165,-0.096 0.15,0.016 0.1,-0.102 0.197,-0.073 0.179,-0.206 0.267,0.048 -0.007,0.262 -0.041,0.409 0.009,-0.018 0.04,-0.033 0.051,-0.051 -0.051,0.051 -0.028,0.091 -0.026,0.13 0.087,0.046 0.079,-0.105 0.152,-0.117 l 0.049,0.118 c 0.009,-0.001 0.013,-0.002 0.018,-0.005 -0.018,0.046 -0.025,0.084 0.038,0.068 0.059,-0.069 0.131,-0.119 0.181,-0.17 l -0.105,0.196 c 0.071,-0.049 0.181,0.038 0.196,-0.074 l 0.052,0.193 0.165,-0.058 c -0.007,0.055 -0.037,0.071 -0.081,0.029 0.065,0.044 -0.148,0.4 0.147,0.222 -0.063,0.2 0.013,0.227 0.014,0.434 0.083,-0.2 0.255,0.061 0.256,-0.109 0.107,0.048 -0.055,0.146 -0.051,0.222 0.096,0.028 0.237,-0.073 0.264,-0.165 l -0.036,0.11 0.031,-0.017 -0.058,0.109 c 0.118,0.029 0.165,-0.062 0.22,0 l -0.131,0.082 0.105,0.01 c -0.073,0.012 -0.08,0.068 -0.067,0.126 l 0.031,-0.016 0.003,0.076 c 0.055,-0.104 0.058,0.043 0.143,-0.034 0.033,0.051 0.032,0.053 0.053,0.163 l -0.103,0.029 c -0.021,0.168 0.144,-0.063 0.2,0.036 l -0.111,0.047 c 0.254,0.058 0.017,0.304 0.187,0.355 -0.006,-0.076 0.129,-0.123 0.098,-0.106 0.006,0.114 0.108,0.254 0.023,0.418 0.174,-0.044 0.225,-0.059 0.344,0.005 0.027,0.077 0.02,0.094 -0.059,0.164 0.098,0.037 0.079,0.212 0.195,0.156 -0.082,0.063 0.052,0.053 -0.004,0.13 l 0.051,-0.016 -0.111,0.05 c 0.308,-0.005 -0.023,0.276 0.254,0.289 l 0.017,-0.037 -0.013,0.074 c 0.051,-0.017 0.069,-0.053 0.129,-0.088 l 0.152,0.229 -0.107,-0.004 c 0.017,0.056 -0.068,0.145 0.03,0.167 0.107,-0.181 0.049,0.077 0.182,0.025 l 0.013,-0.073 c 0.029,0.075 0.029,0.075 -0.082,0.127 0.013,0.111 0.238,-0.048 0.17,0.098 l -0.038,-0.057 c -0.072,0.016 -0.136,0.107 -0.111,0.145 0.021,10e-4 0.085,0.003 0.081,-0.035 -0.001,0.094 0.113,0.172 0.088,0.226 0.055,0.021 0.123,-0.033 0.14,-0.07 -0.009,0.204 0.059,0.058 0.05,0.262 l 0.06,-0.036 -0.043,0.093 0.169,0.004 -0.093,0.016 c 0.016,0.056 -0.009,0.111 0.059,0.151 l 0.075,-0.074 c 0.029,0.169 0.24,0.08 0.189,0.284 0.022,0 0.038,-0.037 0.047,-0.055 -0.071,0.204 0.21,0.004 0.109,0.226 0.026,-0.025 0.07,-0.033 0.093,-0.052 l -0.026,0.09 0.117,-0.073 -0.151,0.148 0.143,-0.036 -0.046,0.055 c 0.263,-0.072 0.138,0.114 0.355,0.097 l -0.159,0.074 c -0.198,0.394 0.438,0.377 0.456,0.7 l 0.115,-0.076 -0.074,0.184 c 0.128,-0.003 0.08,-0.093 0.151,-0.113 0.004,0.146 -0.145,0.15 -0.099,0.295 0.12,0.016 0.073,-0.075 0.095,-0.13 0.017,0.151 0.063,0.364 0.182,0.406 -0.015,0.011 -0.032,0.03 -0.042,0.03 -0.003,0.11 0.117,0.18 0.164,0.271 0.053,-0.036 0.048,-0.063 0.045,-0.091 0.027,0.026 0.091,0.045 0.053,0.105 l 0.08,-0.095 c 0.063,0.053 0.052,0.238 0.18,0.177 -0.05,0.021 -0.135,0.08 -0.093,0.133 0.197,-0.082 0.024,0.203 0.178,0.232 0.035,-0.038 0.001,-0.11 0.016,-0.093 0.076,0.015 0.019,0.11 -0.01,0.186 l 0.064,-0.059 0.038,0.277 c 0.196,-0.084 0.102,0.218 0.221,0.119 0.055,0.071 -0.118,-0.013 -0.077,0.096 0.09,-0.023 0.019,0.111 0.132,0.031 l 0.007,-0.019 0.034,0.073 0.085,-0.117 c 0.012,0.074 -0.073,0.191 -0.156,0.251 0.097,0.013 0.096,0.125 0.214,0.081 l 0.015,-0.038 c 0.053,0.184 0.47,0.044 0.357,0.294 0.021,-10e-4 0.049,-0.022 0.035,-0.04 l 0.068,0.09 0.07,-0.08 c 0,0 -0.023,0.241 -0.023,0.241 l 0.055,-0.042 c 0.096,0.083 0.181,0.258 0.258,0.397 l 0.013,-0.038 c 0.015,0.2 0.153,0.095 0.166,0.241 0.012,-0.014 0.015,-0.022 0.016,-0.028 l 0.065,0.093 0.04,-0.059 c -0.071,0.154 0.3,0.079 0.167,0.111 -0.025,0.076 -0.041,0.189 -0.102,0.25 0.068,0.104 0.091,-0.028 0.183,-10e-4 0.059,0.068 -0.028,0.151 0.095,0.211 l 0.054,-0.043 c 0.023,0.053 0.005,0.111 0.043,0.18 l 0.013,-0.038 c -0.04,0.19 0.259,0.008 0.077,0.269 0.077,0.01 0.103,0.119 0.211,0.032 0.023,0.182 0.065,0.308 0.115,0.47 0.196,-0.117 0.009,0.036 0.169,0.035 l -0.1,0.068 c 0.119,0.19 0.501,0.217 0.615,0.439 0.223,-0.139 0.441,-0.287 0.584,-0.461 0.186,0.072 0.282,-0.01 0.402,-0.068 l -0.155,-0.183 0.13,-0.016 c -0.019,-0.082 -0.09,0.023 -0.097,-0.095 l 0.13,0.08 c -0.052,-0.067 0.16,-0.226 -0.087,-0.23 l 0.298,-0.282 c 0.061,-0.067 0.175,0.109 0.207,-0.003 -0.033,-0.065 -0.059,-0.01 -0.112,-0.078 0.098,-0.335 0.571,0.099 0.701,-0.172 l -0.039,-0.007 c 0.078,0.014 0.138,-0.054 0.163,-0.03 0.138,0.2 -0.126,-0.061 -0.091,0.101 0.144,0.143 0.152,0.007 0.253,0.123 -0.002,-0.098 0.105,-0.041 0.155,-0.071 -0.016,-0.159 0.148,-0.189 0.093,-0.355 0.079,0.014 0.254,0.123 0.334,0.059 -0.054,-0.166 -0.116,-0.099 -0.083,-0.211 l 0.092,0.075 c 0.047,-0.069 0.016,-0.084 -0.025,-0.123 0.061,-0.063 0.164,0.068 0.193,-0.062 l -0.123,-0.042 c 0.09,-0.022 0.101,-0.06 0.177,-0.145 -0.048,-0.047 -0.079,-0.013 -0.09,0.024 -0.073,-0.169 0.129,-0.017 0.14,-0.053 0.028,0.043 -0.013,0.114 0.094,0.173 0.027,-0.054 0.196,0.035 0.131,-0.094 l -0.122,-0.041 c 0.148,-0.014 0.146,0.064 0.214,-0.061 -0.012,-10e-4 -0.029,-0.025 -0.048,-0.041 0.164,0.052 0.153,-0.123 0.237,-0.217 0.058,0.01 0.121,0.04 0.133,0.02 -0.007,0.098 0.031,0.11 0.103,0.198 -0.062,-0.208 0.26,0.066 0.295,-0.124 -0.048,-0.047 -0.131,-0.082 -0.114,-10e-4 -0.174,-0.109 -0.294,-0.229 -0.426,-0.233 0.074,-0.006 0.143,-0.033 0.076,-0.084 l 0.139,0.123 c 0.03,-0.021 0.043,-0.048 0.063,-0.066 0.09,0.075 0.077,0.189 0.19,0.189 0.109,-0.019 -0.093,-0.173 -0.026,-0.121 0.144,-0.033 0.174,0.109 0.223,-0.019 -0.02,-0.003 -0.059,-0.01 -0.055,0.01 0.014,-0.115 0.182,-0.123 0.049,-0.305 -0.043,-0.028 -0.091,-0.075 -0.102,-0.038 l 0.024,0.024 c -0.181,-0.053 0.089,-0.023 -0.07,-0.15 0.077,0.093 0.149,-0.012 0.175,-0.066 l 0.08,0.113 c 0.414,0.173 -0.191,-0.192 -0.02,-0.279 0.148,-0.011 -0.007,0.058 0.111,0.08 0.042,-0.071 -0.019,-0.18 0.106,-0.216 -0.013,-0.061 -0.014,-0.16 -0.114,-0.276 0.094,-0.002 0.111,-0.195 0.241,-0.113 -10e-4,0.177 -0.197,-0.036 -0.165,0.206 l 0.13,0.082 c 0.066,-0.071 0.208,-0.101 0.221,-0.186 0.01,0.031 0.031,0.063 0.06,0.081 0.139,-0.053 0.269,0.03 0.337,-0.094 -0.079,-0.113 -0.121,-0.043 -0.171,-0.012 -0.01,-0.14 0.061,-0.068 0.13,-0.192 -0.075,-0.093 -0.062,0.067 -0.152,-0.009 l 0.135,-0.073 -0.016,-0.018 c 0.15,0.132 0.071,-0.09 0.179,-0.108 0.158,-0.147 0.364,0.028 0.56,0.065 -0.013,-0.061 -0.04,-0.105 -0.084,-0.133 0.02,0.101 -0.019,0.043 -0.068,0.017 0.067,-0.034 -0.015,-0.252 -0.099,-0.284 0.124,-0.036 0.04,0.106 0.134,0.104 l 0.108,-0.117 c 0.056,0.088 0.029,0.142 0.143,0.144 0.07,-0.026 0.081,-0.063 0.143,-0.13 -0.044,-0.028 -0.084,-0.133 -0.13,-0.083 0.006,-0.058 0.054,-0.108 0.14,-0.052 -0.01,0.135 0.179,-0.045 0.232,0.122 l 0.01,-0.135 c -0.015,0.017 -0.063,-0.032 -0.074,0.005 -0.083,-0.133 0.089,-0.022 0.125,-0.034 0.005,-0.046 0.063,-0.117 0.029,-0.167 0.052,0.011 0.085,-0.066 0.043,-0.134 0.055,-0.009 0.07,0.073 0.114,0.101 l 0.109,-0.117 c -0.052,-0.069 -0.202,-0.254 -0.242,-0.262 0.098,0.018 0.186,0.173 0.248,0.106 -0.15,-0.088 0.002,-0.176 -0.186,-0.272 -0.044,-0.125 0.069,-0.222 0.159,-0.244 0.126,0.064 -0.015,0.115 0.08,0.212 0.202,-0.118 0.462,0.149 0.543,-0.012 l -0.007,0.057 c 0.129,-0.014 0.109,-0.018 0.231,0.026 -0.134,-0.105 -0.213,-0.415 -0.061,-0.504 0.067,0.053 0.036,0.184 0.145,0.264 l 0.102,-0.058 c -0.003,-0.016 -0.031,-0.028 -0.056,-0.034 0.115,-0.025 -0.004,-0.29 0.149,-0.164 l -0.086,-0.252 0.039,0.105 c 0.066,0.053 0.169,-0.006 0.208,0.002 0.149,-0.01 0.132,-0.092 0.109,-0.214 0.031,0.065 0.098,0.216 0.184,0.174 -0.182,-0.202 0.077,-0.205 -0.018,-0.308 0.03,-0.022 0.023,-0.13 0.101,-0.048 l -0.117,-0.123 c 0.163,0.171 0.257,0.072 0.363,0.034 -0.23,-0.224 0.102,-0.057 -0.057,-0.307 0.159,0.151 0.196,-0.059 0.332,0.068 0.067,-0.045 -0.073,-0.192 -0.104,-0.258 l 0.083,0.037 c -0.038,-0.104 0.065,-0.216 0.087,-0.328 l 0.189,0.089 -0.034,-0.086 c 0.042,0.028 0.113,0.004 0.128,0.086 l 0.026,-0.039 c 0.142,0.156 0.086,0.002 0.213,0.01 -0.007,-0.039 -0.044,-0.074 -0.077,-0.082 0.032,-0.031 -0.053,-0.099 -0.081,-0.169 0.011,0.062 0.37,0.177 0.341,0.329 0.05,0.07 0.144,0.07 0.153,0.013 l -0.103,-0.16 0.17,0.115 c 0.07,-0.025 0.013,-0.135 0.041,-0.188 -0.05,0.028 -0.334,-0.191 -0.218,-0.285 -0.076,0.033 -0.173,-0.021 -0.23,-0.024 0.018,-0.026 0.018,-0.05 -0.07,-0.079 0.126,-0.032 0.105,0.062 0.207,0.005 -0.115,-0.124 -0.126,-0.186 -0.088,-0.296 l 0.024,0.143 c 0.017,0.013 0.03,0.021 0.041,0.025 -0.01,0.033 0.001,0.058 0.039,0.111 0.016,-0.016 0.238,0.071 0.186,-0.019 0.084,0.274 0.286,0.022 0.333,0.19 0.042,0.029 0.109,-0.016 0.061,-0.086 -0.157,-0.033 -0.071,-0.193 -0.16,-0.272 0.059,0.013 0.025,0.144 0.103,0.161 0.051,-0.028 0.015,-0.135 0.005,-0.196 l -0.039,-0.009 0.018,-0.115 c 0.066,0.054 0.028,0.164 0.119,0.145 -0.007,-0.041 0.084,-0.061 0.038,-0.111 -0.105,-0.063 -0.184,-0.199 -0.255,-0.175 0.052,-0.029 0.205,-0.134 0.25,0.035 l 0.05,-0.049 c 0.013,0.083 0.003,0.259 0.124,0.187 l -0.023,-0.025 0.156,0.035 -0.024,-0.094 c 0.027,0.034 0.063,0.054 0.089,0.029 -0.026,-0.045 -0.013,-0.082 -0.059,-0.132 0.085,-0.061 0.134,0.01 0.176,0.039 0.052,-0.028 0.046,-0.069 -0.039,-0.128 0.047,-0.068 0.168,-0.141 0.153,-0.244 0.131,-0.01 0.006,0.041 0.127,0.09 -0.116,-0.288 0.203,-0.314 0.366,-0.395 0.121,0.232 0.056,-0.008 0.226,0.157 -0.08,-0.04 0.009,-0.262 -0.158,-0.222 l 0.093,-0.038 c -0.035,-0.153 -0.192,0.014 -0.232,-0.201 0.095,-0.062 0.319,0.12 0.369,-0.035 -0.144,-0.12 0.12,-0.012 -0.025,-0.155 -0.062,-0.037 -0.081,0.002 -0.12,0.014 l -0.002,-0.043 c 0.178,-0.196 0.185,0.13 0.369,0.154 0.143,-0.071 0.036,-0.196 -0.005,-0.273 0.012,-0.049 0.098,-0.073 0.211,-0.075 -0.225,-0.008 -0.149,0.222 -0.054,0.296 -0.021,-0.109 0.032,-0.151 0.146,-0.17 0.032,-0.006 0.035,0 0.092,-0.009 0.058,-0.01 0.114,-0.012 0.163,-0.009 l 0.07,0.007 c -0.004,0.003 0.045,10e-4 0.096,0.006 0.048,0.005 0.097,0.015 0.145,0.03 0.198,0.063 0.311,0.198 0.354,0.27 -0.075,-0.089 -0.209,-0.181 -0.344,-0.211 -0.135,-0.034 -0.268,-0.009 -0.254,-0.003 -0.041,0.018 -0.078,0.037 -0.111,0.055 -0.077,0.04 -0.085,0.061 -0.1,0.076 -0.031,0.032 -0.055,0.047 -0.077,0.062 -0.032,0.025 -0.07,0.054 -0.09,0.209 -0.058,-0.039 -0.163,-0.195 -0.219,-0.061 0.114,0.031 0.056,0.088 0.058,0.124 -0.045,-0.101 -0.092,0.012 -0.147,-0.003 0.026,0.089 0.203,0.159 0.137,0.262 l -0.169,-0.189 c -0.014,0.058 0.126,0.137 0.014,0.147 0.12,0.073 0.112,0.171 0.237,0.126 0.011,0.264 -0.254,0.049 -0.405,0.051 0.019,0.005 0.041,0.031 0.061,0.037 -0.061,-0.037 -0.095,-0.005 -0.132,0.005 -0.025,0.094 0.12,0.051 0.147,0.118 l -0.102,0.074 c 0.003,0.008 0.006,0.012 0.009,0.016 -0.047,-0.006 -0.086,-0.004 -0.055,0.052 0.08,0.04 0.143,0.096 0.204,0.131 l -0.212,-0.054 c 0.063,0.056 0.007,0.18 0.117,0.169 l -0.171,0.095 0.096,0.142 c -0.055,0.006 -0.077,-0.019 -0.048,-0.07 -0.026,0.071 -0.416,-0.042 -0.174,0.193 -0.206,-0.01 -0.213,0.068 -0.408,0.122 0.209,0.028 0.005,0.257 0.166,0.215 -0.018,0.114 -0.151,-0.015 -0.223,0.008 -0.001,0.098 0.129,0.206 0.222,0.208 l -0.113,-0.006 0.024,0.025 -0.117,-0.026 c 0.002,0.118 0.099,0.14 0.055,0.209 l -0.111,-0.104 0.018,0.101 c -0.031,-0.065 -0.086,-0.058 -0.136,-0.03 l 0.023,0.025 -0.071,0.023 c 0.111,0.025 -0.026,0.066 0.068,0.127 -0.04,0.045 -0.042,0.044 -0.141,0.093 l -0.053,-0.09 c -0.164,0.023 0.096,0.119 0.017,0.2 l -0.072,-0.094 c 0.009,0.257 -0.281,0.095 -0.287,0.271 0.07,-0.024 0.147,0.091 0.124,0.066 -0.106,0.036 -0.211,0.171 -0.386,0.133 0.084,0.155 0.111,0.2 0.08,0.331 -0.066,0.045 -0.086,0.04 -0.171,-0.017 -0.014,0.101 -0.188,0.123 -0.108,0.219 -0.079,-0.062 -0.039,0.061 -0.126,0.027 l 0.027,0.044 -0.074,-0.093 c 0.074,0.29 -0.272,0.042 -0.222,0.306 l 0.039,0.008 -0.074,0.004 c 0.027,0.046 0.066,0.054 0.113,0.102 l -0.187,0.197 -0.019,-0.102 c -0.051,0.029 -0.156,-0.031 -0.156,0.067 0.199,0.06 -0.062,0.065 0.017,0.179 l 0.074,-0.004 c -0.067,0.045 -0.066,0.045 -0.141,-0.049 -0.104,0.038 0.099,0.216 -0.058,0.185 l 0.047,-0.05 c -0.031,-0.065 -0.132,-0.105 -0.164,-0.072 0.004,0.02 0.016,0.081 0.051,0.069 -0.09,0.021 -0.14,0.148 -0.198,0.136 -0.008,0.057 0.06,0.11 0.098,0.118 -0.198,0.038 -0.043,0.069 -0.241,0.109 l 0.048,0.048 -0.098,-0.02 0.032,0.163 -0.036,-0.085 c -0.05,0.029 -0.108,0.018 -0.131,0.092 l 0.086,0.055 c -0.155,0.067 -0.025,0.25 -0.232,0.248 0.005,0.021 0.043,0.029 0.063,0.032 -0.21,-0.022 0.041,0.204 -0.193,0.158 0.029,0.019 0.046,0.06 0.069,0.078 l -0.092,-0.005 0.095,0.097 -0.173,-0.112 0.064,0.13 -0.062,-0.031 c 0.123,0.238 -0.081,0.16 -0.019,0.367 l -0.104,-0.137 c -0.414,-0.101 -0.269,0.514 -0.591,0.589 l 0.094,0.096 -0.195,-0.037 c 0.026,0.122 0.107,0.059 0.139,0.124 -0.144,0.031 -0.174,-0.112 -0.309,-0.04 0.006,0.119 0.086,0.056 0.145,0.067 -0.147,0.045 -0.348,0.129 -0.369,0.251 -0.014,-0.012 -0.034,-0.025 -0.036,-0.034 -0.109,0.018 -0.158,0.145 -0.239,0.208 0.044,0.044 0.07,0.035 0.097,0.027 -0.022,0.031 -0.029,0.096 -0.095,0.071 l 0.107,0.06 c -0.042,0.07 -0.224,0.094 -0.144,0.207 -0.029,-0.045 -0.1,-0.117 -0.146,-0.066 0.113,0.177 -0.194,0.061 -0.198,0.216 0.043,0.027 0.108,-0.019 0.093,-0.002 -0.003,0.077 -0.104,0.039 -0.182,0.025 l 0.067,0.051 -0.263,0.088 c 0.112,0.177 -0.196,0.14 -0.082,0.238 -0.061,0.067 -0.006,-0.118 -0.106,-0.058 0.036,0.084 -0.104,0.04 -0.009,0.135 l 0.02,0.004 -0.066,0.046 0.127,0.063 c -0.07,0.026 -0.197,-0.037 -0.268,-0.109 0.003,0.099 -0.106,0.118 -0.046,0.226 l 0.04,0.007 c -0.17,0.086 0.026,0.474 -0.233,0.406 0.005,0.021 0.029,0.045 0.044,0.029 l -0.077,0.083 0.088,0.055 -0.241,0.015 0.048,0.047 c -0.072,0.105 -0.237,0.211 -0.367,0.304 l 0.039,0.007 c -0.197,0.043 -0.078,0.162 -0.221,0.194 0.015,0.01 0.023,0.012 0.029,0.012 l -0.085,0.076 0.063,0.031 c -0.161,-0.049 -0.046,0.303 -0.093,0.178 -0.078,-0.014 -0.192,-0.015 -0.258,-0.066 -0.096,0.08 0.037,0.085 0.02,0.179 -0.061,0.067 -0.152,-0.007 -0.2,0.12 l 0.049,0.048 c -0.05,0.03 -0.109,0.02 -0.174,0.066 l 0.039,0.008 c -0.191,-0.015 0.019,0.256 -0.257,0.11 -0.003,0.077 -0.107,0.117 -0.01,0.213 -0.178,0.046 -0.297,0.103 -0.451,0.173 0.134,0.18 -0.035,0.014 -0.018,0.173 l -0.076,-0.092 c -0.176,0.144 -0.163,0.538 -0.378,0.674 l 0.077,0.092 -0.126,-0.061 c -0.157,0.226 -0.377,0.499 -0.531,0.648 -0.041,0.002 -0.095,-0.002 -0.149,0.001 0.034,0.049 0.116,0.071 0.179,0.033 -0.197,0.248 0.266,0.136 0.088,0.322 l 0.167,-0.034 c -0.05,0.048 -0.154,0.163 -0.128,0.233 0.1,-0.002 0.179,-0.094 0.246,-0.127 l -0.162,0.203 c 0.461,0.092 0.661,0.578 1.108,0.726 0.084,0.171 0.154,0.422 0.326,0.554 l 0.008,-0.039 0.195,0.108 -0.19,-0.033 c 0.009,0.054 -0.003,0.115 0.031,0.145 0.238,0.099 0.543,0.238 0.644,0.539 -0.087,0.341 0.273,-0.09 0.239,0.19 0.009,-0.031 0.036,-0.064 0.048,-0.094 0.06,0.208 0.09,0.323 0.104,0.579 0.195,-0.219 0.085,0.094 0.183,-0.025 l -0.074,0.094 c 0.083,-0.02 0.173,0.034 0.224,-0.036 l -0.046,0.164 0.093,-0.079 c 0.086,0.073 0.187,0.315 0.406,0.185 0.066,0.327 0.419,0.602 0.7,0.818 -0.035,0.105 0.031,0.184 0.081,0.248 l 0.164,-0.042 c 0.026,0.089 -0.043,0.28 0.077,0.268 0.012,-0.012 0.018,-0.023 0.02,-0.033 0.038,0.08 0.148,0.081 0.108,0.232 0.07,0.059 0.187,0.066 0.262,-0.049 -0.164,0.178 0.161,0.112 0.161,0.112 0,0 0.915,0.728 1.865,1.642 0.941,0.92 1.871,2.058 1.837,2.932 -0.053,0.114 -0.029,0.244 -0.156,0.319 0.029,0.09 0.201,-0.038 0.131,0.06 -0.136,-0.019 -0.186,0.25 -0.368,0.282 l 0.032,0.07 C 20.628,0.32 20.672,0.111 20.579,0.236 L 20.717,0.06 c -0.064,-0.016 -0.118,-0.003 -0.185,0.038 0.021,-0.101 0.203,-0.344 0.02,-0.337 l 0.016,0.034 c -0.07,-0.078 -0.144,0.061 -0.185,0.073 l 0.018,0.014 -0.141,0.021 c 0.099,-0.008 0.055,0.2 0.022,0.15 -0.133,-0.04 0.061,-0.017 0.012,-0.101 -0.034,-0.049 -0.104,0.049 -0.15,0.101 l -0.069,-0.078 c -0.069,0.078 0.054,0.044 -0.05,0.092 l -0.02,-0.17 c -0.198,0.174 -0.017,-0.191 -0.23,-0.052 0.026,0.11 -0.067,0.058 -0.114,0.13 l -0.157,-0.171 c -0.041,0.011 -0.012,0.101 -0.029,0.067 -0.081,0.022 -0.007,-0.096 -0.026,-0.111 -0.064,0.038 -0.123,-0.121 -0.238,0.009 -0.194,-0.024 0.104,-0.205 -0.07,-0.235 -0.087,0.063 0.067,0.099 -0.055,0.133 l -0.083,-0.134 c -0.026,0.047 -0.097,0.145 -0.04,0.168 -0.393,-0.183 -0.938,0.066 -1.113,-0.297 -0.126,0.054 -0.03,0.087 -0.06,0.173 -0.082,-0.309 -0.469,-0.066 -0.627,-0.238 l 0.069,-0.077 c -0.458,0.007 -0.607,-0.401 -0.966,-0.558 l 0.082,-0.022 c 0.033,-0.106 -0.019,-0.17 -0.03,-0.245 -0.042,0.031 -0.122,0.189 -0.17,0.085 0.043,-0.011 0.102,-0.008 0.128,-0.054 -0.42,-0.019 -0.845,-0.54 -1.304,-0.817 -0.441,-0.555 -1.124,-0.953 -1.568,-1.488 0.069,0.081 0.219,-0.131 0.121,-0.146 -0.463,0.15 -0.214,-0.317 -0.583,-0.268 -0.185,-0.38 -0.71,-0.375 -0.724,-0.887 l -0.093,0.079 c -0.079,-0.002 -0.028,-0.072 -0.06,-0.124 l -0.024,0.025 c -0.128,-0.072 -0.153,-0.281 -0.25,-0.3 l 0.097,-0.098 c -0.049,-0.069 -0.107,0.041 -0.107,-0.075 l -0.049,0.049 0.028,-0.162 c -0.17,0.172 -0.174,-0.159 -0.299,-0.133 -0.042,-0.109 -0.104,-0.329 -0.25,-0.416 -0.111,0.062 -0.247,-0.085 -0.379,-0.137 -0.147,-0.203 -0.358,-0.49 -0.605,-0.693 l 0.12,-0.101 -0.048,-0.068 c -0.024,0.024 -0.045,0.028 -0.05,0.049 -0.176,0.072 -0.088,-0.176 -0.215,-0.152 0.134,-0.063 0.055,0.028 0.09,0.06 0.102,0 0.17,-0.148 0.051,-0.164 l -0.025,0.025 0.02,-0.101 C 10.073,-7.498 9.992,-7.502 9.896,-7.427 9.734,-7.641 9.763,-7.912 9.55,-8.093 9.456,-7.657 8.996,-7.441 8.86,-7.005 8.692,-6.916 8.446,-6.839 8.318,-6.665 l 0.04,0.007 -0.103,0.197 0.029,-0.19 C 8.23,-6.639 8.171,-6.649 8.141,-6.615 8.048,-6.377 7.916,-6.069 7.623,-5.96 7.288,-6.036 7.714,-5.691 7.441,-5.716 7.47,-5.708 7.502,-5.683 7.532,-5.672 7.329,-5.606 7.22,-5.569 6.964,-5.555 7.181,-5.367 6.872,-5.472 6.99,-5.377 L 6.896,-5.449 c 0.02,0.081 -0.033,0.169 0.036,0.219 L 6.77,-5.274 6.848,-5.184 C 6.775,-5.099 6.536,-5 6.665,-4.786 6.341,-4.719 6.069,-4.372 5.858,-4.093 5.754,-4.128 5.676,-4.061 5.613,-4.012 l 0.042,0.16 c -0.088,0.026 -0.276,-0.039 -0.264,0.078 0.013,0.011 0.023,0.018 0.032,0.02 -0.078,0.037 -0.079,0.146 -0.226,0.108 -0.058,0.068 -0.065,0.184 0.048,0.257 -0.175,-0.16 -0.109,0.159 -0.109,0.159 0,0 -0.708,0.918 -1.606,1.832 C 2.628,-0.484 1.557,0.428 0.717,0.421 0.605,0.373 0.48,0.401 0.401,0.28 0.316,0.311 0.448,0.474 0.349,0.409 0.362,0.276 0.099,0.237 0.059,0.062 L -0.008,0.095 C -0.08,0.051 0.125,0.086 0,0" /></g><g
           transform="translate(127.4212,99.99)"
           id="g314"><path
             id="path316"
             style="fill:#9e1c21;fill-opacity:1;fill-rule:nonzero;stroke:none"
             d="M 0,0 C -0.001,0 -0.001,0.001 -0.001,0.001 -0.013,-0.001 -0.027,-0.008 -0.039,-0.007 Z" /></g><g
           transform="translate(129.0299,98.3825)"
           id="g318"><path
             id="path320"
             style="fill:#9e1c21;fill-opacity:1;fill-rule:nonzero;stroke:none"
             d="M 0,0 -0.026,0.053 C -0.047,0.03 -0.072,0.006 -0.113,-0.001 Z" /></g><g
           transform="translate(126.6149,100.5478)"
           id="g322"><path
             id="path324"
             style="fill:#9e1c21;fill-opacity:1;fill-rule:nonzero;stroke:none"
             d="M 0,0 C -0.019,-0.019 -0.041,-0.044 -0.056,-0.085 -0.003,-0.095 -0.008,-0.041 0,0" /></g><g
           transform="translate(133.1954,95.2048)"
           id="g326"><path
             id="path328"
             style="fill:#9e1c21;fill-opacity:1;fill-rule:nonzero;stroke:none"
             d="M 0,0 -0.033,0.048 C -0.039,0.042 -0.044,0.037 -0.051,0.029 Z" /></g><g
           transform="translate(133.3716,94.8119)"
           id="g330"><path
             id="path332"
             style="fill:#9e1c21;fill-opacity:1;fill-rule:nonzero;stroke:none"
             d="M 0,0 C -0.014,0.018 -0.037,0.038 -0.043,0.06 -0.046,0.013 -0.03,-0.002 0,0" /></g><g
           transform="translate(131.5803,96.7849)"
           id="g334"><path
             id="path336"
             style="fill:#9e1c21;fill-opacity:1;fill-rule:nonzero;stroke:none"
             d="M 0,0 -0.006,0.002 C -0.078,-0.012 -0.041,-0.012 0,0" /></g></g></g><g
       transform="translate(132.8157,95.1858)"
       id="g338"><path
         id="path340"
         style="fill:#9e1c21;fill-opacity:1;fill-rule:nonzero;stroke:none"
         d="M 0,0 0.039,0.008 0.037,0.017 Z" /></g><g
       id="g342"><g
         clip-path="url(#clipPath348)"
         id="g344"><g
           transform="translate(133.5233,94.61)"
           id="g350"><path
             id="path352"
             style="fill:#9e1c21;fill-opacity:1;fill-rule:nonzero;stroke:none"
             d="m 0,0 c -0.011,0.005 -0.022,0.007 -0.038,0 0.004,-0.01 0.009,-0.02 0.015,-0.033 C -0.015,-0.018 -0.007,-0.008 0,0" /></g><g
           transform="translate(132.0745,96.0605)"
           id="g354"><path
             id="path356"
             style="fill:#9e1c21;fill-opacity:1;fill-rule:nonzero;stroke:none"
             d="M 0,0 C 0.046,0.027 0.073,0.049 0.09,0.067 0.075,0.079 0.051,0.07 0,0" /></g></g></g></g></svg>