<?xml version="1.0" encoding="UTF-8"?>
<svg version="1.1" viewBox="0 0 328.82 215.43" xml:space="preserve" xmlns="http://www.w3.org/2000/svg" xmlns:cc="http://creativecommons.org/ns#" xmlns:dc="http://purl.org/dc/elements/1.1/" xmlns:rdf="http://www.w3.org/1999/02/22-rdf-syntax-ns#">
<defs>
<clipPath id="g">
<path d="m0 0h246.61v161.58h-246.61z"/>
</clipPath><clipPath id="a">
<path d="m0 0h246.61v161.58h-246.61z"/>
</clipPath><clipPath id="i"><path d="m0 0h246.61v161.58h-246.61z"/></clipPath><clipPath id="h"><path d="m0 0h246.61v161.58h-246.61z"/></clipPath><clipPath id="f"><path d="m0 0h246.61v161.58h-246.61z"/></clipPath><clipPath id="e"><path d="m0 0h246.61v161.58h-246.61z"/></clipPath><clipPath id="d"><path d="m0 0h246.61v161.58h-246.61z"/></clipPath><clipPath id="c"><path d="m0 0h246.61v161.58h-246.61z"/></clipPath><clipPath id="b"><path d="m0 0h246.61v161.58h-246.61z"/></clipPath></defs><g transform="matrix(1.3333 0 0 -1.3333 0 215.43)"><g clip-path="url(#g)"><g transform="translate(63.53 81.192)"><path d="m0 0h-15.312v-5.636h2.344v-28.63h-2.344v-5.636h12.768v5.636h-2.294v9.676h4.824c3.415 0 6.324 1.189 8.728 3.567 2.403 2.377 3.606 5.278 3.606 8.703s-1.198 6.335-3.592 8.729-5.304 3.591-8.728 3.591m4.189-17.856c0-1.563-0.557-2.902-1.671-4.015-1.114-1.115-2.452-1.671-4.015-1.671h-3.341v17.906h4.488c1.264 0 2.336-0.442 3.218-1.322 0.88-0.882 1.321-1.954 1.321-3.217z" fill="#9e1c21"/></g><g transform="translate(83.53 78.1)"><path d="m0 0c-2.461-2.461-3.691-5.437-3.691-8.928v-15.961c0-3.525 1.23-6.518 3.691-8.978 2.46-2.461 5.436-3.691 8.928-3.691 3.491 0 6.467 1.23 8.928 3.691 2.46 2.46 3.691 5.453 3.691 8.978v15.961c0 3.491-1.231 6.467-3.691 8.928-2.461 2.461-5.437 3.691-8.928 3.691-3.492 0-6.468-1.23-8.928-3.691m13.417-7.232v-19.403c0-1.264-0.437-2.336-1.308-3.217s-1.932-1.322-3.181-1.322c-1.25 0-2.311 0.441-3.182 1.322-0.872 0.881-1.307 1.953-1.307 3.217v19.403c0 1.263 0.435 2.335 1.307 3.217 0.871 0.881 1.932 1.322 3.182 1.322 1.249 0 2.31-0.441 3.181-1.322 0.871-0.882 1.308-1.954 1.308-3.217" fill="#9e1c21"/></g><g transform="translate(133.06 44.333)"><path d="m0 0c2.028 2.028 3.042 4.489 3.042 7.382v19.053c0 2.893-1.014 5.354-3.042 7.382-2.029 2.028-4.473 3.043-7.332 3.043h-17.158v-5.637h2.344v-28.629h-2.344v-5.636h17.158c2.859 0 5.303 1.014 7.332 3.042m-14.016 2.594v28.629h4.489c1.216 0 2.26-0.441 3.131-1.321 0.872-0.882 1.309-1.954 1.309-3.218v-19.551c0-1.264-0.437-2.337-1.309-3.217-0.871-0.882-1.915-1.322-3.131-1.322z" fill="#9e1c21"/></g><g transform="translate(156.7 75.556)"><path d="m0 0h2.294v-24.34c0-1.264-0.436-2.336-1.307-3.217s-1.932-1.322-3.181-1.322c-1.217 0-2.261 0.441-3.133 1.322-0.871 0.881-1.307 1.953-1.307 3.217v24.34h2.295v5.636h-12.769v-5.636h2.344v-23.592c0-3.16 0.854-5.844 2.561-8.055 1.708-2.212 3.755-3.317 6.142-3.317 1.989 0 3.755 0.773 5.297 2.319 1.541 1.547 2.561 3.533 3.058 5.961v-7.582h10.474v5.636h-2.344v28.63h2.344v5.636h-12.768z" fill="#9e1c21"/></g><g transform="translate(194.51 60.793)"><path d="m0 0c-1.43 1.297-4.19 3.025-8.28 5.187-1.596 0.83-2.611 1.463-3.042 1.895-0.898 0.831-1.347 1.962-1.347 3.392 0 1.263 0.449 2.336 1.347 3.217s1.961 1.322 3.192 1.322c1.263 0 2.335-0.449 3.217-1.347 0.881-0.898 1.322-1.963 1.322-3.192v-3.641h5.636v13.567h-5.636v-7.582c-0.467 2.228-1.414 4.106-2.844 5.636-1.595 1.763-3.458 2.644-5.586 2.644-2.361 0-4.398-1.065-6.11-3.192-1.713-2.129-2.569-4.673-2.569-7.631 0-5.088 2.235-8.746 6.705-10.973 3.801-1.863 6.019-3.011 6.654-3.442 2.067-1.464 3.101-3.192 3.101-5.188 0-1.263-0.441-2.336-1.322-3.216-0.881-0.882-1.953-1.322-3.217-1.322s-2.336 0.44-3.217 1.322c-0.881 0.88-1.321 1.953-1.321 3.216v3.343h-8.131v-1.597c0-3.525 1.23-6.517 3.691-8.978s5.454-3.69 8.978-3.69c3.392 0 6.351 1.196 8.879 3.59 2.526 2.395 3.79 5.204 3.79 8.43 0 3.158-1.296 5.902-3.89 8.23" fill="#9e1c21"/></g><g transform="translate(82.43 29.901)"><path d="m0 0c-0.066-0.2-0.106-0.326-0.133-0.479h-0.02c-0.02 0.153-0.06 0.279-0.127 0.472l-1.297 3.308h-1.318v-4.725h0.806v3.441c0 0.212-7e-3 0.399-0.034 0.552h0.027c0.026-0.127 0.093-0.359 0.152-0.519l1.372-3.474h0.832l1.371 3.467c0.073 0.173 0.146 0.419 0.166 0.526h0.026c-0.019-0.16-0.026-0.359-0.026-0.552v-3.441h0.832v4.725h-1.331z" fill="#9e1c21"/></g><g transform="translate(87.879 33.202)"><path d="m0 0-2.083-4.725h0.952l0.466 1.144h2.349l0.466-1.144h0.945l-2.076 4.725zm-0.399-2.915 0.586 1.437c0.153 0.313 0.239 0.513 0.312 0.792h0.014c0.073-0.279 0.166-0.479 0.313-0.792l0.585-1.437z" fill="#9e1c21"/></g><g transform="translate(95.372 30.134)"><path d="m0 0c0-0.233 0-0.426 7e-3 -0.612h-0.013c-0.073 0.18-0.18 0.359-0.313 0.552l-2.296 3.128h-1.039v-4.725h0.826v3.095c0 0.233 0 0.426-7e-3 0.605h0.02c0.067-0.166 0.18-0.346 0.306-0.539l2.35-3.161h0.985v4.725h-0.826z" fill="#9e1c21"/></g><g transform="translate(99.578 30.354)"><path d="m0 0h1.591v-0.066c-7e-3 -0.546-0.467-1.238-1.524-1.238-1.065 0-1.665 0.732-1.665 1.783 0 1.085 0.62 1.797 1.651 1.797 0.832 0 1.278-0.452 1.405-0.938l0.931 0.16c-0.193 0.772-0.952 1.484-2.31 1.484-1.616 0-2.608-1.032-2.608-2.509 0-1.465 0.918-2.483 2.409-2.483 0.892 0 1.517 0.366 1.803 0.905l0.067-0.772h0.672v2.549h-2.422z" fill="#9e1c21"/></g></g><path d="m103.04 28.477h0.913v4.726h-0.913z" fill="#9e1c21"/><g clip-path="url(#a)"><g transform="translate(107.42 33.336)"><path d="m0 0c-1.577 0-2.616-0.972-2.616-2.496 0-1.511 1.039-2.495 2.616-2.495 1.571 0 2.609 0.971 2.609 2.495s-1.038 2.496-2.609 2.496m0-4.273c-1.025 0-1.671 0.699-1.671 1.777 0 1.085 0.646 1.777 1.671 1.777 1.018 0 1.664-0.692 1.664-1.777s-0.646-1.777-1.664-1.777" fill="#9e1c21"/></g><g transform="translate(115.2 33.202)"><path d="m0 0h-2.176v-4.725h2.17c1.51 0 2.535 0.965 2.535 2.409 0 1.438-1.005 2.316-2.529 2.316m-0.053-4.033h-1.211v3.341h1.191c1.025 0 1.65-0.626 1.65-1.631s-0.599-1.71-1.63-1.71" fill="#9e1c21"/></g><g transform="translate(122.06 30.394)"><path d="m0 0c0-0.759-0.485-1.298-1.331-1.298-0.852 0-1.331 0.539-1.331 1.298v2.809h-0.912v-2.862c0-1.185 0.812-1.997 2.243-1.997s2.243 0.812 2.243 1.99v2.869h-0.912z" fill="#9e1c21"/></g><g transform="translate(127.76 30.134)"><path d="m0 0c0-0.233 0-0.426 7e-3 -0.612h-0.013c-0.073 0.18-0.18 0.359-0.313 0.552l-2.296 3.128h-1.039v-4.725h0.826v3.095c0 0.233 0 0.426-7e-3 0.605h0.02c0.067-0.166 0.18-0.346 0.306-0.539l2.35-3.161h0.985v4.725h-0.826z" fill="#9e1c21"/></g><g transform="translate(134.66 30.84)"><path d="m0 0c0 1.524-1.038 2.496-2.609 2.496-1.577 0-2.615-0.972-2.615-2.496 0-1.511 1.038-2.496 2.615-2.496 0.127 0 0.253 7e-3 0.373 0.02 0.286-0.572 0.839-0.892 1.564-0.892 0.199 0 0.32 0.021 0.486 0.04v0.739c-0.147-0.026-0.26-0.04-0.433-0.04-0.246 0-0.599 0.04-0.885 0.32 0.932 0.353 1.504 1.178 1.504 2.309m-2.609-1.777c-1.025 0-1.67 0.699-1.67 1.777 0 1.085 0.645 1.777 1.67 1.777 1.018 0 1.664-0.692 1.664-1.777s-0.646-1.777-1.664-1.777" fill="#9e1c21"/></g><g transform="translate(138.99 30.394)"><path d="m0 0c0-0.759-0.485-1.298-1.331-1.298-0.852 0-1.331 0.539-1.331 1.298v2.809h-0.912v-2.862c0-1.185 0.812-1.997 2.243-1.997s2.243 0.812 2.243 1.99v2.869h-0.912z" fill="#9e1c21"/></g></g><g transform="translate(141.94 30.554)"><path d="m0 0h2.689v0.679h-2.689v1.271h2.802v0.699h-3.714v-4.726h3.761v0.699h-2.849z" fill="#9e1c21"/></g><g clip-path="url(#i)"><g transform="translate(150.48 31.193)"><path d="m0 0-0.985 0.146c-0.613 0.094-0.845 0.273-0.845 0.666 0 0.412 0.412 0.645 1.091 0.645 0.799 0 1.292-0.319 1.511-0.885l0.712 0.38c-0.313 0.805-1.091 1.191-2.183 1.191-1.271 0-2.023-0.533-2.023-1.398 0-0.805 0.506-1.211 1.404-1.351l1.012-0.14c0.612-0.093 0.892-0.259 0.892-0.698 0-0.493-0.459-0.699-1.172-0.699-0.891 0-1.417 0.412-1.65 1.011l-0.765-0.346c0.285-0.845 1.091-1.371 2.389-1.371 1.384 0 2.109 0.599 2.109 1.491 0 0.832-0.518 1.205-1.497 1.358" fill="#9e1c21"/></g><g transform="translate(155.07 33.336)"><path d="m0 0c-1.577 0-2.616-0.972-2.616-2.496 0-1.511 1.039-2.495 2.616-2.495 1.571 0 2.609 0.971 2.609 2.495s-1.038 2.496-2.609 2.496m0-4.273c-1.025 0-1.671 0.699-1.671 1.777 0 1.085 0.646 1.777 1.671 1.777 1.018 0 1.664-0.692 1.664-1.777s-0.646-1.777-1.664-1.777" fill="#9e1c21"/></g><g transform="translate(162.19 30.134)"><path d="m0 0c0-0.233 0-0.426 7e-3 -0.612h-0.013c-0.073 0.18-0.18 0.359-0.313 0.552l-2.296 3.128h-1.039v-4.725h0.826v3.095c0 0.233 0 0.426-7e-3 0.605h0.02c0.067-0.166 0.18-0.346 0.306-0.539l2.35-3.161h0.985v4.725h-0.826z" fill="#9e1c21"/></g><g transform="translate(166.48 33.336)"><path d="m0 0c-1.577 0-2.616-0.972-2.616-2.496 0-1.511 1.039-2.495 2.616-2.495 1.571 0 2.609 0.971 2.609 2.495s-1.038 2.496-2.609 2.496m0-4.273c-1.025 0-1.671 0.699-1.671 1.777 0 1.085 0.646 1.777 1.671 1.777 1.018 0 1.664-0.692 1.664-1.777s-0.646-1.777-1.664-1.777" fill="#9e1c21"/></g><g transform="translate(116.53 92.998)"><path d="m0 0-0.012 0.01c-0.012-0.02-0.028-0.047-0.054-0.091z" fill="#9e1c21"/></g><g transform="translate(120.14 98.046)"><path d="M 0,0 C -0.017,0.022 -0.016,0.041 -0.015,0.059 -0.029,0.044 -0.033,0.027 0,0" fill="#9e1c21"/></g><g transform="translate(114.97 92.856)"><path d="M 0,0 0.102,0.001 C 0.066,0.017 0.022,0.02 0,0" fill="#9e1c21"/></g><g transform="translate(115.21 91.746)"><path d="m0 0c-5e-3 -0.018-0.016-0.039 0.017-0.056-1e-3 0.015-9e-3 0.036-0.017 0.056" fill="#9e1c21"/></g><g transform="translate(134.91 115.19)"><path d="M 0,0 -0.004,-0.174 C 0.03,-0.146 0.01,-0.069 0,0" fill="#9e1c21"/></g><g transform="translate(115.1 93.71)"><path d="M 0,0 C -0.061,0.08 0.075,0.117 -0.003,0.155 -0.011,0.105 -0.1,0.073 0,0" fill="#9e1c21"/></g><g transform="translate(134.37 115.62)"><path d="m0 0c0.014-9e-3 0.026-0.017 0.039-0.025-4e-3 0.015-3e-3 0.027 2e-3 0.035z" fill="#9e1c21"/></g><g transform="translate(128.46 107.91)"><path d="m0 0-1e-3 -1e-3c2e-3 -7e-3 3e-3 -0.011 5e-3 -0.019z" fill="#9e1c21"/></g><g transform="translate(128.75 108.01)"><path d="m0 0c-6e-3 -0.02-0.012-0.04-0.017-0.062 0.026 0.016 0.026 0.038 0.017 0.062" fill="#9e1c21"/></g><g transform="translate(119.99 97.904)"><path d="m0 0c-0.01-1e-3 -0.019-6e-3 -0.029-9e-3 0.016-0.013 0.03-0.02 0.029 9e-3" fill="#9e1c21"/></g></g><g transform="translate(119.08 100.89)"><path d="m0 0-2e-3 2e-3z" fill="#9e1c21"/></g><g clip-path="url(#h)"><g transform="translate(119.11 100.74)"><path d="m0 0c0.035 0.018 8e-3 0.095-0.033 0.154-0.018-0.029-0.02-0.067 0.033-0.154" fill="#9e1c21"/></g></g><g transform="translate(117.9 99.296)"><path d="m0 0 8e-3 -5e-3 -6e-3 5e-3z" fill="#9e1c21"/></g><g transform="translate(119.67 102.1)"><path d="m0 0 4e-3 -3e-3v3e-3z" fill="#9e1c21"/></g><g clip-path="url(#f)"><g transform="translate(117.85 99.259)"><path d="m0 0 0.048 0.037c-0.026 0.016-0.054 0.037-0.069 0.077z" fill="#9e1c21"/></g><g transform="translate(119.67 102.1)"><path d="M 0,0 C -0.022,0.017 -0.05,0.036 -0.095,0.045 -0.097,-0.01 -0.043,0.002 0,0" fill="#9e1c21"/></g><g transform="translate(115.59 94.348)"><path d="m0 0 0.039 0.046c-9e-3 4e-3 -0.014 8e-3 -0.024 0.013z" fill="#9e1c21"/></g><g transform="translate(115.25 94.068)"><path d="M 0,0 C 0.013,0.019 0.027,0.047 0.047,0.059 0.001,0.049 -0.01,0.029 0,0" fill="#9e1c21"/></g><g transform="translate(116.78 96.339)"><path d="m0 0c-1e-3 3e-3 1e-3 4e-3 1e-3 7e-3 -0.031 0.069-0.023 0.032-1e-3 -7e-3" fill="#9e1c21"/></g></g><g transform="translate(115.49 94.685)"><path d="m0 0 8e-3 4e-3 -0.027 0.034z" fill="#9e1c21"/></g><g clip-path="url(#e)"><g transform="translate(115.1 93.864)"><path d="m0 0c2e-3 0.011 1e-3 0.023-0.01 0.038-9e-3 -7e-3 -0.017-0.014-0.029-0.023 0.018-5e-3 0.029-0.01 0.039-0.015" fill="#9e1c21"/></g><g transform="translate(116.17 95.674)"><path d="m0 0c0.037-0.039 0.065-0.061 0.089-0.074 7e-3 0.018-7e-3 0.04-0.089 0.074" fill="#9e1c21"/></g><g transform="translate(179.34 130.39)"><path d="m0 0v3.417l-0.033 0.299h-0.299c-4.371 0-7.948-1.451-10.631-4.311-2.717-2.851-4.094-6.77-4.094-11.647v-0.678c-0.101-3.018-1.157-5.426-3.229-7.361-2.159-1.994-5.181-3.006-8.979-3.006h-13.122v-3.747h13.122c4.879 0 8.798 1.376 11.656 4.095 0.354 0.354 0.755 0.756 1.079 1.15 2.138 2.522 3.223 5.711 3.223 9.477v0.07c0 3.797 1.01 6.817 3.002 8.976 2.064 2.198 4.672 3.266 8.006 3.266z" fill="#9e1c21"/></g><g transform="translate(82.428 108.6)"><path d="m0 0c0.326-0.398 0.728-0.8 1.088-1.159 2.852-2.714 6.771-4.09 11.65-4.09h13.122v3.747h-13.122c-3.799 0-6.82 1.012-8.978 3.005-2.073 1.936-3.129 4.344-3.23 7.352v0.688c0 4.877-1.378 8.796-4.093 11.646-2.684 2.861-6.262 4.312-10.665 4.312h-0.299v-3.417l0.033-0.299h0.299c3.3 0 5.908-1.068 7.972-3.264 1.993-2.161 3.003-5.181 3.003-8.978v-0.07c0-3.766 1.084-6.955 3.22-9.473" fill="#9e1c21"/></g><g transform="translate(134.7 95.745)"><path d="m0 0-0.012-9e-3c0.016-0.016 0.037-0.039 0.072-0.076z" fill="#9e1c21"/></g><g transform="translate(130.61 100.36)"><path d="m0 0c-0.025-0.012-0.043-8e-3 -0.06-3e-3 0.012-0.017 0.027-0.024 0.06 3e-3" fill="#9e1c21"/></g><g transform="translate(134.44 94.227)"><path d="M 0,0 0.025,0.096 C 0.001,0.066 -0.014,0.026 0,0" fill="#9e1c21"/></g><g transform="translate(135.62 94.189)"><path d="m0 0c-0.015 2e-3 -0.036-1e-3 -0.057-4e-3 0.016-9e-3 0.034-0.023 0.057 4e-3" fill="#9e1c21"/></g><g transform="translate(114.42 115.93)"><path d="M 0,0 0.167,-0.009 C 0.142,0.025 0.067,0.008 0,0" fill="#9e1c21"/></g><g transform="translate(133.67 94.574)"><path d="m0 0c-0.09-0.037-0.091 0.101-0.146 0.036 0.044-0.02 0.052-0.113 0.146-0.036" fill="#9e1c21"/></g><g transform="translate(113.98 115.41)"><path d="m0 0c0.01 0.014 0.017 0.025 0.026 0.037-0.015-3e-3 -0.027-2e-3 -0.034 4e-3z" fill="#9e1c21"/></g><g transform="translate(121.49 109.54)"><path d="m0 0 1e-3 -1e-3c7e-3 1e-3 0.011 2e-3 0.018 4e-3z" fill="#9e1c21"/></g><g transform="translate(121.41 109.83)"><path d="m0 0c0.02-6e-3 0.039-0.013 0.06-0.019-0.015 0.027-0.036 0.027-0.06 0.019" fill="#9e1c21"/></g><g transform="translate(130.72 100.19)"><path d="m0 0c-1e-3 -0.01 3e-3 -0.02 4e-3 -0.03 0.015 0.013 0.024 0.025-4e-3 0.03" fill="#9e1c21"/></g></g><g transform="translate(127.69 99.823)"><path d="m0 0 2e-3 1e-3z" fill="#9e1c21"/></g><g clip-path="url(#d)"><g transform="translate(127.84 99.83)"><path d="m0 0c-0.011 0.037-0.089 0.023-0.151-7e-3 0.024-0.023 0.059-0.031 0.151 7e-3" fill="#9e1c21"/></g></g><g transform="translate(129 98.437)"><path d="m0 0v-2e-3l7e-3 7e-3z" fill="#9e1c21"/></g><g transform="translate(126.61 100.55)"><path d="m0 0 3e-3 2e-3 -2e-3 1e-3z" fill="#9e1c21"/></g><g clip-path="url(#c)"><g transform="translate(113.87 115.5)"><path d="m0 0 0.177 0.128c0.012-0.063-3e-3 -0.116-0.045-0.18 0.098 0.017 0.342 0.187 0.327 8e-3l-0.032 0.017c0.073-0.07-0.065-0.139-0.078-0.179l-0.013 0.018-0.025-0.137c0.012 0.097-0.193 0.061-0.146 0.027 0.036-0.131 0.019 0.059 0.1 8e-3 0.046-0.035-0.052-0.1-0.105-0.143l0.075-0.071c-0.079-0.065-0.041 0.054-0.092-0.046l0.166-0.025c-0.176-0.189 0.185-0.022 0.045-0.227-0.108 0.029-0.059-0.064-0.131-0.109l0.164-0.159c-0.012-0.04-0.099-9e-3 -0.066-0.025-0.024-0.08 0.093-0.011 0.107-0.029-0.038-0.062 0.117-0.124-0.013-0.234 0.021-0.191 0.204 0.098 0.229-0.074-0.063-0.084-0.095 0.068-0.131-0.052l0.13-0.084c-0.046-0.024-0.143-0.092-0.165-0.035 0.174-0.39-0.073-0.922 0.283-1.099-0.054-0.123-0.086-0.029-0.171-0.057 0.304-0.085 0.065-0.461 0.234-0.618l0.076 0.067c-7e-3 -0.45 0.396-0.598 0.552-0.95l0.021 0.081c0.105 0.032 0.168-0.019 0.242-0.03-0.03-0.042-0.185-0.12-0.082-0.165 0.011 0.04 8e-3 0.098 0.052 0.123 0.026-0.406 0.53-0.831 0.797-1.283 0.539-0.436 0.926-1.105 1.448-1.538-0.078 0.067 0.129 0.213 0.144 0.118-0.15-0.451 0.31-0.21 0.261-0.567 0.374-0.181 0.366-0.689 0.855-0.714l-0.079-0.091c1e-3 -0.077 0.07-0.028 0.119-0.06l-0.025-0.023c0.066-0.127 0.268-0.155 0.283-0.25l0.098 0.093c0.066-0.049-0.043-0.104 0.07-0.107l-0.049-0.047 0.158 0.024c-0.172-0.162 0.149-0.172 0.12-0.293 0.104-0.043 0.317-0.108 0.397-0.252-0.064-0.108 0.076-0.242 0.121-0.372 0.193-0.146 0.467-0.357 0.657-0.601l0.103 0.114 0.064-0.048c-0.024-0.023-0.029-0.043-0.048-0.047-0.077-0.168 0.169-0.089 0.14-0.212 0.067 0.128-0.025 0.055-0.055 0.089 3e-3 0.098 0.151 0.161 0.162 0.045l-0.025-0.023 0.066 0.011c-0.122-0.22-0.252-0.433-0.402-0.589 0.091-0.186 0.018-0.295-0.028-0.427l-0.202 0.138-4e-3 -0.136c-0.085 9e-3 0.015 0.096-0.106 0.089l0.096-0.127c-0.075 0.047-0.214-0.193-0.243 0.063l-0.257-0.346c-0.063-0.072 0.129-0.167 0.019-0.215-0.07 0.026-0.017 0.06-0.092 0.105-0.333-0.146 0.163-0.575-0.099-0.744l-0.012 0.039c0.023-0.079-0.04-0.15-0.013-0.171 0.221-0.116-0.076 0.121 0.094 0.107 0.162-0.129 0.024-0.156 0.155-0.244-0.101-0.011-0.03-0.113-0.055-0.167-0.165-5e-3 -0.177-0.177-0.354-0.143 0.024-0.079 0.156-0.242 0.1-0.332-0.177 0.033-0.115 0.104-0.227 0.056l0.088-0.083c-0.065-0.058-0.085-0.028-0.129 7e-3 -0.059-0.07 0.09-0.156-0.041-0.204l-0.058 0.119c-0.013-0.094-0.05-0.11-0.129-0.199-0.055 0.041-0.023 0.077 0.014 0.093-0.184 0.051-2e-3 -0.132-0.038-0.149 0.049-0.022 0.116 0.03 0.19-0.07-0.053-0.034 0.06-0.193-0.081-0.145l-0.057 0.117c4e-3 -0.151 0.084-0.138-0.037-0.224-3e-3 0.011-0.03 0.025-0.049 0.042 0.072-0.157-0.105-0.175-0.184-0.279l-0.013 0.039c5e-3 -0.067 0.078-0.152 0.056-0.171 0.097 0.023 0.115-0.014 0.214-0.073-0.217 0.029 0.11-0.255-0.073-0.324-0.056 0.041-0.105 0.12-0.02 0.116-0.139 0.16-0.279 0.263-0.305 0.399 6e-3 -0.078-9e-3 -0.154-0.071-0.093l0.146-0.122c-0.016-0.034-0.041-0.052-0.056-0.076 0.091-0.08 0.203-0.047 0.222-0.162-1e-3 -0.116-0.189 0.065-0.126 5e-3 -9e-3 -0.154 0.139-0.16 0.018-0.232-5e-3 0.02-0.019 0.059 1e-3 0.058-0.113-0.035-0.092-0.208-0.297-0.104-0.035 0.04-0.091 0.08-0.056 0.098l0.029-0.02c-0.084 0.176-9e-3 -0.096-0.163 0.044 0.106-0.062 0.013-0.155-0.037-0.191l0.127-0.062c0.245-0.391-0.226 0.161-0.284-0.03 0.014-0.154 0.057 0.017 0.099-0.099-0.064-0.056-0.185-0.014-0.199-0.148-0.064 2e-3 -0.164-0.015-0.299 0.065 0.014-0.096-0.179-0.15-0.074-0.267 0.179 0.034-0.07 0.193 0.181 0.207l0.105-0.117c-0.061-0.081-0.066-0.231-0.15-0.26 0.033-4e-3 0.069-0.02 0.092-0.045-0.029-0.151 0.078-0.268-0.036-0.36-0.129 0.059-0.064 0.115-0.042 0.171-0.144-0.016-0.058-0.074-0.172-0.168-0.108 0.059 0.057 0.075-0.036 0.152l-0.051-0.15-0.021 0.013c0.161-0.127-0.079-0.09-0.078-0.202-0.123-0.189 0.093-0.361 0.166-0.549-0.065 0-0.115 0.019-0.151 0.057 0.107-1e-3 0.041 0.028 6e-3 0.072-0.023-0.074-0.261-0.035-0.308 0.043-0.015-0.132 0.115-0.019 0.13-0.114l-0.101-0.132c0.101-0.037 0.151 0 0.174-0.113-0.014-0.075-0.051-0.094-0.107-0.169-0.037 0.038-0.153 0.057-0.109 0.113-0.058-0.018-0.101-0.075-0.028-0.15 0.134 0.04-7e-3 -0.191 0.172-0.208l-0.131-0.041c0.012 0.02-0.046 0.057-0.012 0.077-0.15 0.055-1e-3 -0.097-5e-3 -0.135-0.044-0.016-0.101-0.091-0.158-0.067 0.022-0.05-0.046-0.102-0.123-0.074 4e-3 -0.058 0.087-0.055 0.125-0.093l-0.09-0.137c-0.081 0.037-0.298 0.147-0.315 0.185 0.041-0.096 0.214-0.149 0.162-0.227-0.121 0.132-0.174-0.043-0.312 0.126-0.134 0.015-0.204-0.123-0.207-0.219 0.093-0.112 0.111 0.043 0.229-0.031-0.072-0.232 0.254-0.432 0.112-0.55l0.056 0.02c0.015-0.133 7e-3 -0.114 0.078-0.225-0.134 0.109-0.462 0.116-0.516-0.058 0.068-0.054 0.192 8e-3 0.297-0.083l-0.034-0.115c-0.016-1e-3 -0.035 0.024-0.047 0.048 3e-3 -0.122-0.291-0.065-0.129-0.188l-0.273 0.026 0.115-0.014c0.067-0.054 0.033-0.17 0.051-0.207 0.024-0.15-0.062-0.154-0.19-0.16 0.072-0.015 0.239-0.045 0.217-0.141-0.245 0.132-0.187-0.126-0.313-0.056-0.016-0.035-0.125-0.054-0.025-0.112l-0.15 0.087c0.209-0.121 0.131-0.238 0.118-0.352-0.279 0.173-0.034-0.115-0.322-0.019 0.188-0.12-0.014-0.207 0.145-0.311-0.03-0.077-0.21 0.025-0.284 0.039l0.056-0.072c-0.114 0.012-0.203-0.117-0.304-0.17l0.138-0.166-0.093 0.012c0.039-0.035 0.034-0.113 0.118-0.106l-0.029-0.036c0.19-0.1 0.024-0.085 0.066-0.21-0.039-4e-3 -0.083 0.024-0.1 0.055-0.022-0.041-0.112 0.027-0.187 0.036 0.063 5e-3 0.273-0.322 0.413-0.253 0.083-0.031 0.109-0.125 0.055-0.149l-0.185 0.061 0.159-0.139c-5e-3 -0.076-0.129-0.049-0.173-0.091 0.015 0.058-0.276 0.282-0.337 0.143 0.012 0.083-0.068 0.166-0.086 0.222-0.02-0.026-0.044-0.032-0.096 0.049 2e-3 -0.134 0.089-0.088 0.06-0.205-0.152 0.081-0.216 0.076-0.313 9e-3l0.147 0.014c0.017-0.013 0.028-0.024 0.035-0.034 0.029 0.018 0.057 0.014 0.119-0.01-0.011-0.02 0.134-0.218 0.031-0.189 0.292-0.012 0.099-0.278 0.277-0.281 0.039-0.034 0.013-0.112-0.068-0.082-0.075 0.146-0.209 0.019-0.31 0.086 0.029-0.055 0.148 0.014 0.186-0.059-0.015-0.058-0.129-0.05-0.192-0.056l-0.019 0.036-0.109-0.048c0.071-0.051 0.17 0.015 0.174-0.079-0.042-4e-3 -0.037-0.099-0.098-0.067-0.09 0.087-0.245 0.129-0.24 0.206-0.014-0.059-0.078-0.237 0.101-0.238l-0.036-0.061c0.086 8e-3 0.257 0.063 0.217-0.075l-0.03 0.016 0.076-0.144h-0.099c0.04-0.018 0.07-0.049 0.051-0.081-0.051 0.014-0.084-8e-3 -0.145 0.024-0.037-0.099 0.045-0.129 0.085-0.163-0.014-0.058-0.057-0.062-0.137 6e-3 -0.056-0.063-0.095-0.2-0.202-0.211 0.024-0.131 0.043 4e-3 0.121-0.102-0.313 0.043-0.259-0.274-0.299-0.449 0.259-0.066 6e-3 -0.056 0.211-0.185-0.06 0.069-0.258-0.066-0.259 0.104l-0.016-0.096c-0.159 1e-3 -0.032 0.185-0.255 0.18-0.037-0.1 0.197-0.281 0.054-0.354-0.152 0.115 0.015-0.112-0.159 0-0.05 0.051-0.016 0.074-0.015 0.112l-0.042-4e-3c-0.149-0.188 0.172-0.152 0.237-0.314-0.039-0.137-0.182-0.04-0.266-0.012-0.043-5e-3 -0.047-0.081-0.018-0.135-0.068 0.125 0.175 0.097 0.266 0.013-0.221 0.031-0.106-0.182-0.045-0.25 0.291 0.09 0.07 0.121 0.371 0.193-0.051 0.051-0.227 0.125-0.106 0.195 0.055-0.102 0.099-0.039 0.136-0.033-0.11 0.025-8e-3 0.089-0.035 0.139 0.095-8e-3 0.202-0.165 0.292-0.08l-0.227 0.126c0.055 0.024 0.165-0.096 0.15 0.016 0.1-0.102 0.197-0.073 0.179-0.206 0.267 0.048-7e-3 0.262-0.041 0.409 9e-3 -0.018 0.04-0.033 0.051-0.051-0.051 0.051-0.028 0.091-0.026 0.13 0.087 0.046 0.079-0.105 0.152-0.117l0.049 0.118c9e-3 -1e-3 0.013-2e-3 0.018-5e-3 -0.018 0.046-0.025 0.084 0.038 0.068 0.059-0.069 0.131-0.119 0.181-0.17l-0.105 0.196c0.071-0.049 0.181 0.038 0.196-0.074l0.052 0.193 0.165-0.058c-7e-3 0.055-0.037 0.071-0.081 0.029 0.065 0.044-0.148 0.4 0.147 0.222-0.063 0.2 0.013 0.227 0.014 0.434 0.083-0.2 0.255 0.061 0.256-0.109 0.107 0.048-0.055 0.146-0.051 0.222 0.096 0.028 0.237-0.073 0.264-0.165l-0.036 0.11 0.031-0.017-0.058 0.109c0.118 0.029 0.165-0.062 0.22 0l-0.131 0.082 0.105 0.01c-0.073 0.012-0.08 0.068-0.067 0.126l0.031-0.016 3e-3 0.076c0.055-0.104 0.058 0.043 0.143-0.034 0.033 0.051 0.032 0.053 0.053 0.163l-0.103 0.029c-0.021 0.168 0.144-0.063 0.2 0.036l-0.111 0.047c0.254 0.058 0.017 0.304 0.187 0.355-6e-3 -0.076 0.129-0.123 0.098-0.106 6e-3 0.114 0.108 0.254 0.023 0.418 0.174-0.044 0.225-0.059 0.344 5e-3 0.027 0.077 0.02 0.094-0.059 0.164 0.098 0.037 0.079 0.212 0.195 0.156-0.082 0.063 0.052 0.053-4e-3 0.13l0.051-0.016-0.111 0.05c0.308-5e-3 -0.023 0.276 0.254 0.289l0.017-0.037-0.013 0.074c0.051-0.017 0.069-0.053 0.129-0.088l0.152 0.229-0.107-4e-3c0.017 0.056-0.068 0.145 0.03 0.167 0.107-0.181 0.049 0.077 0.182 0.025l0.013-0.073c0.029 0.075 0.029 0.075-0.082 0.127 0.013 0.111 0.238-0.048 0.17 0.098l-0.038-0.057c-0.072 0.016-0.136 0.107-0.111 0.145 0.021 1e-3 0.085 3e-3 0.081-0.035-1e-3 0.094 0.113 0.172 0.088 0.226 0.055 0.021 0.123-0.033 0.14-0.07-9e-3 0.204 0.059 0.058 0.05 0.262l0.06-0.036-0.043 0.093 0.169 4e-3 -0.093 0.016c0.016 0.056-9e-3 0.111 0.059 0.151l0.075-0.074c0.029 0.169 0.24 0.08 0.189 0.284 0.022 0 0.038-0.037 0.047-0.055-0.071 0.204 0.21 4e-3 0.109 0.226 0.026-0.025 0.07-0.033 0.093-0.052l-0.026 0.09 0.117-0.073-0.151 0.148 0.143-0.036-0.046 0.055c0.263-0.072 0.138 0.114 0.355 0.097l-0.159 0.074c-0.198 0.394 0.438 0.377 0.456 0.7l0.115-0.076-0.074 0.184c0.128-3e-3 0.08-0.093 0.151-0.113 4e-3 0.146-0.145 0.15-0.099 0.295 0.12 0.016 0.073-0.075 0.095-0.13 0.017 0.151 0.063 0.364 0.182 0.406-0.015 0.011-0.032 0.03-0.042 0.03-3e-3 0.11 0.117 0.18 0.164 0.271 0.053-0.036 0.048-0.063 0.045-0.091 0.027 0.026 0.091 0.045 0.053 0.105l0.08-0.095c0.063 0.053 0.052 0.238 0.18 0.177-0.05 0.021-0.135 0.08-0.093 0.133 0.197-0.082 0.024 0.203 0.178 0.232 0.035-0.038 1e-3 -0.11 0.016-0.093 0.076 0.015 0.019 0.11-0.01 0.186l0.064-0.059 0.038 0.277c0.196-0.084 0.102 0.218 0.221 0.119 0.055 0.071-0.118-0.013-0.077 0.096 0.09-0.023 0.019 0.111 0.132 0.031l7e-3 -0.019 0.034 0.073 0.085-0.117c0.012 0.074-0.073 0.191-0.156 0.251 0.097 0.013 0.096 0.125 0.214 0.081l0.015-0.038c0.053 0.184 0.47 0.044 0.357 0.294 0.021-1e-3 0.049-0.022 0.035-0.04l0.068 0.09 0.07-0.08s-0.023 0.241-0.023 0.241l0.055-0.042c0.096 0.083 0.181 0.258 0.258 0.397l0.013-0.038c0.015 0.2 0.153 0.095 0.166 0.241 0.012-0.014 0.015-0.022 0.016-0.028l0.065 0.093 0.04-0.059c-0.071 0.154 0.3 0.079 0.167 0.111-0.025 0.076-0.041 0.189-0.102 0.25 0.068 0.104 0.091-0.028 0.183-1e-3 0.059 0.068-0.028 0.151 0.095 0.211l0.054-0.043c0.023 0.053 5e-3 0.111 0.043 0.18l0.013-0.038c-0.04 0.19 0.259 8e-3 0.077 0.269 0.077 0.01 0.103 0.119 0.211 0.032 0.023 0.182 0.065 0.308 0.115 0.47 0.196-0.117 9e-3 0.036 0.169 0.035l-0.1 0.068c0.119 0.19 0.501 0.217 0.615 0.439 0.223-0.139 0.441-0.287 0.584-0.461 0.186 0.072 0.282-0.01 0.402-0.068l-0.155-0.183 0.13-0.016c-0.019-0.082-0.09 0.023-0.097-0.095l0.13 0.08c-0.052-0.067 0.16-0.226-0.087-0.23l0.298-0.282c0.061-0.067 0.175 0.109 0.207-3e-3 -0.033-0.065-0.059-0.01-0.112-0.078 0.098-0.335 0.571 0.099 0.701-0.172l-0.039-7e-3c0.078 0.014 0.138-0.054 0.163-0.03 0.138 0.2-0.126-0.061-0.091 0.101 0.144 0.143 0.152 7e-3 0.253 0.123-2e-3 -0.098 0.105-0.041 0.155-0.071-0.016-0.159 0.148-0.189 0.093-0.355 0.079 0.014 0.254 0.123 0.334 0.059-0.054-0.166-0.116-0.099-0.083-0.211l0.092 0.075c0.047-0.069 0.016-0.084-0.025-0.123 0.061-0.063 0.164 0.068 0.193-0.062l-0.123-0.042c0.09-0.022 0.101-0.06 0.177-0.145-0.048-0.047-0.079-0.013-0.09 0.024-0.073-0.169 0.129-0.017 0.14-0.053 0.028 0.043-0.013 0.114 0.094 0.173 0.027-0.054 0.196 0.035 0.131-0.094l-0.122-0.041c0.148-0.014 0.146 0.064 0.214-0.061-0.012-1e-3 -0.029-0.025-0.048-0.041 0.164 0.052 0.153-0.123 0.237-0.217 0.058 0.01 0.121 0.04 0.133 0.02-7e-3 0.098 0.031 0.11 0.103 0.198-0.062-0.208 0.26 0.066 0.295-0.124-0.048-0.047-0.131-0.082-0.114-1e-3 -0.174-0.109-0.294-0.229-0.426-0.233 0.074-6e-3 0.143-0.033 0.076-0.084l0.139 0.123c0.03-0.021 0.043-0.048 0.063-0.066 0.09 0.075 0.077 0.189 0.19 0.189 0.109-0.019-0.093-0.173-0.026-0.121 0.144-0.033 0.174 0.109 0.223-0.019-0.02-3e-3 -0.059-0.01-0.055 0.01 0.014-0.115 0.182-0.123 0.049-0.305-0.043-0.028-0.091-0.075-0.102-0.038l0.024 0.024c-0.181-0.053 0.089-0.023-0.07-0.15 0.077 0.093 0.149-0.012 0.175-0.066l0.08 0.113c0.414 0.173-0.191-0.192-0.02-0.279 0.148-0.011-7e-3 0.058 0.111 0.08 0.042-0.071-0.019-0.18 0.106-0.216-0.013-0.061-0.014-0.16-0.114-0.276 0.094-2e-3 0.111-0.195 0.241-0.113-1e-3 0.177-0.197-0.036-0.165 0.206l0.13 0.082c0.066-0.071 0.208-0.101 0.221-0.186 0.01 0.031 0.031 0.063 0.06 0.081 0.139-0.053 0.269 0.03 0.337-0.094-0.079-0.113-0.121-0.043-0.171-0.012-0.01-0.14 0.061-0.068 0.13-0.192-0.075-0.093-0.062 0.067-0.152-9e-3l0.135-0.073-0.016-0.018c0.15 0.132 0.071-0.09 0.179-0.108 0.158-0.147 0.364 0.028 0.56 0.065-0.013-0.061-0.04-0.105-0.084-0.133 0.02 0.101-0.019 0.043-0.068 0.017 0.067-0.034-0.015-0.252-0.099-0.284 0.124-0.036 0.04 0.106 0.134 0.104l0.108-0.117c0.056 0.088 0.029 0.142 0.143 0.144 0.07-0.026 0.081-0.063 0.143-0.13-0.044-0.028-0.084-0.133-0.13-0.083 6e-3 -0.058 0.054-0.108 0.14-0.052-0.01 0.135 0.179-0.045 0.232 0.122l0.01-0.135c-0.015 0.017-0.063-0.032-0.074 5e-3 -0.083-0.133 0.089-0.022 0.125-0.034 5e-3 -0.046 0.063-0.117 0.029-0.167 0.052 0.011 0.085-0.066 0.043-0.134 0.055-9e-3 0.07 0.073 0.114 0.101l0.109-0.117c-0.052-0.069-0.202-0.254-0.242-0.262 0.098 0.018 0.186 0.173 0.248 0.106-0.15-0.088 2e-3 -0.176-0.186-0.272-0.044-0.125 0.069-0.222 0.159-0.244 0.126 0.064-0.015 0.115 0.08 0.212 0.202-0.118 0.462 0.149 0.543-0.012l-7e-3 0.057c0.129-0.014 0.109-0.018 0.231 0.026-0.134-0.105-0.213-0.415-0.061-0.504 0.067 0.053 0.036 0.184 0.145 0.264l0.102-0.058c-3e-3 -0.016-0.031-0.028-0.056-0.034 0.115-0.025-4e-3 -0.29 0.149-0.164l-0.086-0.252 0.039 0.105c0.066 0.053 0.169-6e-3 0.208 2e-3 0.149-0.01 0.132-0.092 0.109-0.214 0.031 0.065 0.098 0.216 0.184 0.174-0.182-0.202 0.077-0.205-0.018-0.308 0.03-0.022 0.023-0.13 0.101-0.048l-0.117-0.123c0.163 0.171 0.257 0.072 0.363 0.034-0.23-0.224 0.102-0.057-0.057-0.307 0.159 0.151 0.196-0.059 0.332 0.068 0.067-0.045-0.073-0.192-0.104-0.258l0.083 0.037c-0.038-0.104 0.065-0.216 0.087-0.328l0.189 0.089-0.034-0.086c0.042 0.028 0.113 4e-3 0.128 0.086l0.026-0.039c0.142 0.156 0.086 2e-3 0.213 0.01-7e-3 -0.039-0.044-0.074-0.077-0.082 0.032-0.031-0.053-0.099-0.081-0.169 0.011 0.062 0.37 0.177 0.341 0.329 0.05 0.07 0.144 0.07 0.153 0.013l-0.103-0.16 0.17 0.115c0.07-0.025 0.013-0.135 0.041-0.188-0.05 0.028-0.334-0.191-0.218-0.285-0.076 0.033-0.173-0.021-0.23-0.024 0.018-0.026 0.018-0.05-0.07-0.079 0.126-0.032 0.105 0.062 0.207 5e-3 -0.115-0.124-0.126-0.186-0.088-0.296l0.024 0.143c0.017 0.013 0.03 0.021 0.041 0.025-0.01 0.033 1e-3 0.058 0.039 0.111 0.016-0.016 0.238 0.071 0.186-0.019 0.084 0.274 0.286 0.022 0.333 0.19 0.042 0.029 0.109-0.016 0.061-0.086-0.157-0.033-0.071-0.193-0.16-0.272 0.059 0.013 0.025 0.144 0.103 0.161 0.051-0.028 0.015-0.135 5e-3 -0.196l-0.039-9e-3 0.018-0.115c0.066 0.054 0.028 0.164 0.119 0.145-7e-3 -0.041 0.084-0.061 0.038-0.111-0.105-0.063-0.184-0.199-0.255-0.175 0.052-0.029 0.205-0.134 0.25 0.035l0.05-0.049c0.013 0.083 3e-3 0.259 0.124 0.187l-0.023-0.025 0.156 0.035-0.024-0.094c0.027 0.034 0.063 0.054 0.089 0.029-0.026-0.045-0.013-0.082-0.059-0.132 0.085-0.061 0.134 0.01 0.176 0.039 0.052-0.028 0.046-0.069-0.039-0.128 0.047-0.068 0.168-0.141 0.153-0.244 0.131-0.01 6e-3 0.041 0.127 0.09-0.116-0.288 0.203-0.314 0.366-0.395 0.121 0.232 0.056-8e-3 0.226 0.157-0.08-0.04 9e-3 -0.262-0.158-0.222l0.093-0.038c-0.035-0.153-0.192 0.014-0.232-0.201 0.095-0.062 0.319 0.12 0.369-0.035-0.144-0.12 0.12-0.012-0.025-0.155-0.062-0.037-0.081 2e-3 -0.12 0.014l-2e-3 -0.043c0.178-0.196 0.185 0.13 0.369 0.154 0.143-0.071 0.036-0.196-5e-3 -0.273 0.012-0.049 0.098-0.073 0.211-0.075-0.225-8e-3 -0.149 0.222-0.054 0.296-0.021-0.109 0.032-0.151 0.146-0.17 0.032-6e-3 0.035 0 0.092-9e-3 0.058-0.01 0.114-0.012 0.163-9e-3l0.07 7e-3c-4e-3 3e-3 0.045 1e-3 0.096 6e-3 0.048 5e-3 0.097 0.015 0.145 0.03 0.198 0.063 0.311 0.198 0.354 0.27-0.075-0.089-0.209-0.181-0.344-0.211-0.135-0.034-0.268-9e-3 -0.254-3e-3 -0.041 0.018-0.078 0.037-0.111 0.055-0.077 0.04-0.085 0.061-0.1 0.076-0.031 0.032-0.055 0.047-0.077 0.062-0.032 0.025-0.07 0.054-0.09 0.209-0.058-0.039-0.163-0.195-0.219-0.061 0.114 0.031 0.056 0.088 0.058 0.124-0.045-0.101-0.092 0.012-0.147-3e-3 0.026 0.089 0.203 0.159 0.137 0.262l-0.169-0.189c-0.014 0.058 0.126 0.137 0.014 0.147 0.12 0.073 0.112 0.171 0.237 0.126 0.011 0.264-0.254 0.049-0.405 0.051 0.019 5e-3 0.041 0.031 0.061 0.037-0.061-0.037-0.095-5e-3 -0.132 5e-3 -0.025 0.094 0.12 0.051 0.147 0.118l-0.102 0.074c3e-3 8e-3 6e-3 0.012 9e-3 0.016-0.047-6e-3 -0.086-4e-3 -0.055 0.052 0.08 0.04 0.143 0.096 0.204 0.131l-0.212-0.054c0.063 0.056 7e-3 0.18 0.117 0.169l-0.171 0.095 0.096 0.142c-0.055 6e-3 -0.077-0.019-0.048-0.07-0.026 0.071-0.416-0.042-0.174 0.193-0.206-0.01-0.213 0.068-0.408 0.122 0.209 0.028 5e-3 0.257 0.166 0.215-0.018 0.114-0.151-0.015-0.223 8e-3 -1e-3 0.098 0.129 0.206 0.222 0.208l-0.113-6e-3 0.024 0.025-0.117-0.026c2e-3 0.118 0.099 0.14 0.055 0.209l-0.111-0.104 0.018 0.101c-0.031-0.065-0.086-0.058-0.136-0.03l0.023 0.025-0.071 0.023c0.111 0.025-0.026 0.066 0.068 0.127-0.04 0.045-0.042 0.044-0.141 0.093l-0.053-0.09c-0.164 0.023 0.096 0.119 0.017 0.2l-0.072-0.094c9e-3 0.257-0.281 0.095-0.287 0.271 0.07-0.024 0.147 0.091 0.124 0.066-0.106 0.036-0.211 0.171-0.386 0.133 0.084 0.155 0.111 0.2 0.08 0.331-0.066 0.045-0.086 0.04-0.171-0.017-0.014 0.101-0.188 0.123-0.108 0.219-0.079-0.062-0.039 0.061-0.126 0.027l0.027 0.044-0.074-0.093c0.074 0.29-0.272 0.042-0.222 0.306l0.039 8e-3 -0.074 4e-3c0.027 0.046 0.066 0.054 0.113 0.102l-0.187 0.197-0.019-0.102c-0.051 0.029-0.156-0.031-0.156 0.067 0.199 0.06-0.062 0.065 0.017 0.179l0.074-4e-3c-0.067 0.045-0.066 0.045-0.141-0.049-0.104 0.038 0.099 0.216-0.058 0.185l0.047-0.05c-0.031-0.065-0.132-0.105-0.164-0.072 4e-3 0.02 0.016 0.081 0.051 0.069-0.09 0.021-0.14 0.148-0.198 0.136-8e-3 0.057 0.06 0.11 0.098 0.118-0.198 0.038-0.043 0.069-0.241 0.109l0.048 0.048-0.098-0.02 0.032 0.163-0.036-0.085c-0.05 0.029-0.108 0.018-0.131 0.092l0.086 0.055c-0.155 0.067-0.025 0.25-0.232 0.248 5e-3 0.021 0.043 0.029 0.063 0.032-0.21-0.022 0.041 0.204-0.193 0.158 0.029 0.019 0.046 0.06 0.069 0.078l-0.092-5e-3 0.095 0.097-0.173-0.112 0.064 0.13-0.062-0.031c0.123 0.238-0.081 0.16-0.019 0.367l-0.104-0.137c-0.414-0.101-0.269 0.514-0.591 0.589l0.094 0.096-0.195-0.037c0.026 0.122 0.107 0.059 0.139 0.124-0.144 0.031-0.174-0.112-0.309-0.04 6e-3 0.119 0.086 0.056 0.145 0.067-0.147 0.045-0.348 0.129-0.369 0.251-0.014-0.012-0.034-0.025-0.036-0.034-0.109 0.018-0.158 0.145-0.239 0.208 0.044 0.044 0.07 0.035 0.097 0.027-0.022 0.031-0.029 0.096-0.095 0.071l0.107 0.06c-0.042 0.07-0.224 0.094-0.144 0.207-0.029-0.045-0.1-0.117-0.146-0.066 0.113 0.177-0.194 0.061-0.198 0.216 0.043 0.027 0.108-0.019 0.093-2e-3 -3e-3 0.077-0.104 0.039-0.182 0.025l0.067 0.051-0.263 0.088c0.112 0.177-0.196 0.14-0.082 0.238-0.061 0.067-6e-3 -0.118-0.106-0.058 0.036 0.084-0.104 0.04-9e-3 0.135l0.02 4e-3 -0.066 0.046 0.127 0.063c-0.07 0.026-0.197-0.037-0.268-0.109 3e-3 0.099-0.106 0.118-0.046 0.226l0.04 7e-3c-0.17 0.086 0.026 0.474-0.233 0.406 5e-3 0.021 0.029 0.045 0.044 0.029l-0.077 0.083 0.088 0.055-0.241 0.015 0.048 0.047c-0.072 0.105-0.237 0.211-0.367 0.304l0.039 7e-3c-0.197 0.043-0.078 0.162-0.221 0.194 0.015 0.01 0.023 0.012 0.029 0.012l-0.085 0.076 0.063 0.031c-0.161-0.049-0.046 0.303-0.093 0.178-0.078-0.014-0.192-0.015-0.258-0.066-0.096 0.08 0.037 0.085 0.02 0.179-0.061 0.067-0.152-7e-3 -0.2 0.12l0.049 0.048c-0.05 0.03-0.109 0.02-0.174 0.066l0.039 8e-3c-0.191-0.015 0.019 0.256-0.257 0.11-3e-3 0.077-0.107 0.117-0.01 0.213-0.178 0.046-0.297 0.103-0.451 0.173 0.134 0.18-0.035 0.014-0.018 0.173l-0.076-0.092c-0.176 0.144-0.163 0.538-0.378 0.674l0.077 0.092-0.126-0.061c-0.157 0.226-0.377 0.499-0.531 0.648-0.041 2e-3 -0.095-2e-3 -0.149 1e-3 0.034 0.049 0.116 0.071 0.179 0.033-0.197 0.248 0.266 0.136 0.088 0.322l0.167-0.034c-0.05 0.048-0.154 0.163-0.128 0.233 0.1-2e-3 0.179-0.094 0.246-0.127l-0.162 0.203c0.461 0.092 0.661 0.578 1.108 0.726 0.084 0.171 0.154 0.422 0.326 0.554l8e-3 -0.039 0.195 0.108-0.19-0.033c9e-3 0.054-3e-3 0.115 0.031 0.145 0.238 0.099 0.543 0.238 0.644 0.539-0.087 0.341 0.273-0.09 0.239 0.19 9e-3 -0.031 0.036-0.064 0.048-0.094 0.06 0.208 0.09 0.323 0.104 0.579 0.195-0.219 0.085 0.094 0.183-0.025l-0.074 0.094c0.083-0.02 0.173 0.034 0.224-0.036l-0.046 0.164 0.093-0.079c0.086 0.073 0.187 0.315 0.406 0.185 0.066 0.327 0.419 0.602 0.7 0.818-0.035 0.105 0.031 0.184 0.081 0.248l0.164-0.042c0.026 0.089-0.043 0.28 0.077 0.268 0.012-0.012 0.018-0.023 0.02-0.033 0.038 0.08 0.148 0.081 0.108 0.232 0.07 0.059 0.187 0.066 0.262-0.049-0.164 0.178 0.161 0.112 0.161 0.112s0.915 0.728 1.865 1.642c0.941 0.92 1.871 2.058 1.837 2.932-0.053 0.114-0.029 0.244-0.156 0.319 0.029 0.09 0.201-0.038 0.131 0.06-0.136-0.019-0.186 0.25-0.368 0.282l0.032 0.07c-0.048 0.072-4e-3 -0.137-0.097-0.012l0.138-0.176c-0.064-0.016-0.118-3e-3 -0.185 0.038 0.021-0.101 0.203-0.344 0.02-0.337l0.016 0.034c-0.07-0.078-0.144 0.061-0.185 0.073l0.018 0.014-0.141 0.021c0.099-8e-3 0.055 0.2 0.022 0.15-0.133-0.04 0.061-0.017 0.012-0.101-0.034-0.049-0.104 0.049-0.15 0.101l-0.069-0.078c-0.069 0.078 0.054 0.044-0.05 0.092l-0.02-0.17c-0.198 0.174-0.017-0.191-0.23-0.052 0.026 0.11-0.067 0.058-0.114 0.13l-0.157-0.171c-0.041 0.011-0.012 0.101-0.029 0.067-0.081 0.022-7e-3 -0.096-0.026-0.111-0.064 0.038-0.123-0.121-0.238 9e-3 -0.194-0.024 0.104-0.205-0.07-0.235-0.087 0.063 0.067 0.099-0.055 0.133l-0.083-0.134c-0.026 0.047-0.097 0.145-0.04 0.168-0.393-0.183-0.938 0.066-1.113-0.297-0.126 0.054-0.03 0.087-0.06 0.173-0.082-0.309-0.469-0.066-0.627-0.238l0.069-0.077c-0.458 7e-3 -0.607-0.401-0.966-0.558l0.082-0.022c0.033-0.106-0.019-0.17-0.03-0.245-0.042 0.031-0.122 0.189-0.17 0.085 0.043-0.011 0.102-8e-3 0.128-0.054-0.42-0.019-0.845-0.54-1.304-0.817-0.441-0.555-1.124-0.953-1.568-1.488 0.069 0.081 0.219-0.131 0.121-0.146-0.463 0.15-0.214-0.317-0.583-0.268-0.185-0.38-0.71-0.375-0.724-0.887l-0.093 0.079c-0.079-2e-3 -0.028-0.072-0.06-0.124l-0.024 0.025c-0.128-0.072-0.153-0.281-0.25-0.3l0.097-0.098c-0.049-0.069-0.107 0.041-0.107-0.075l-0.049 0.049 0.028-0.162c-0.17 0.172-0.174-0.159-0.299-0.133-0.042-0.109-0.104-0.329-0.25-0.416-0.111 0.062-0.247-0.085-0.379-0.137-0.147-0.203-0.358-0.49-0.605-0.693l0.12-0.101-0.048-0.068c-0.024 0.024-0.045 0.028-0.05 0.049-0.176 0.072-0.088-0.176-0.215-0.152 0.134-0.063 0.055 0.028 0.09 0.06 0.102 0 0.17-0.148 0.051-0.164l-0.025 0.025 0.02-0.101c-0.097 0.077-0.178 0.073-0.274 0.148-0.162-0.214-0.133-0.485-0.346-0.666-0.094 0.436-0.554 0.652-0.69 1.088-0.168 0.089-0.414 0.166-0.542 0.34l0.04 7e-3 -0.103 0.197 0.029-0.19c-0.054 0.012-0.113 2e-3 -0.143 0.036-0.093 0.238-0.225 0.546-0.518 0.655-0.335-0.076 0.091 0.269-0.182 0.244 0.029 8e-3 0.061 0.033 0.091 0.044-0.203 0.066-0.312 0.103-0.568 0.117 0.217 0.188-0.092 0.083 0.026 0.178l-0.094-0.072c0.02 0.081-0.033 0.169 0.036 0.219l-0.162-0.044 0.078 0.09c-0.073 0.085-0.312 0.184-0.183 0.398-0.324 0.067-0.596 0.414-0.807 0.693-0.104-0.035-0.182 0.032-0.245 0.081l0.042 0.16c-0.088 0.026-0.276-0.039-0.264 0.078 0.013 0.011 0.023 0.018 0.032 0.02-0.078 0.037-0.079 0.146-0.226 0.108-0.058 0.068-0.065 0.184 0.048 0.257-0.175-0.16-0.109 0.159-0.109 0.159s-0.708 0.918-1.606 1.832c-0.902 0.914-1.973 1.826-2.813 1.819-0.112-0.048-0.237-0.02-0.316-0.141-0.085 0.031 0.047 0.194-0.052 0.129 0.013-0.133-0.25-0.172-0.29-0.347l-0.067 0.033c-0.072-0.044 0.133-9e-3 8e-3 -0.095" fill="#9e1c21"/></g><g transform="translate(127.42 99.99)"><path d="m0 0c-1e-3 0-1e-3 1e-3 -1e-3 1e-3 -0.012-2e-3 -0.026-9e-3 -0.038-8e-3z" fill="#9e1c21"/></g><g transform="translate(129.03 98.382)"><path d="m0 0-0.026 0.053c-0.021-0.023-0.046-0.047-0.087-0.054z" fill="#9e1c21"/></g><g transform="translate(126.61 100.55)"><path d="m0 0c-0.019-0.019-0.041-0.044-0.056-0.085 0.053-0.01 0.048 0.044 0.056 0.085" fill="#9e1c21"/></g><g transform="translate(133.2 95.205)"><path d="m0 0-0.033 0.048c-6e-3 -6e-3 -0.011-0.011-0.018-0.019z" fill="#9e1c21"/></g><g transform="translate(133.37 94.812)"><path d="m0 0c-0.014 0.018-0.037 0.038-0.043 0.06-3e-3 -0.047 0.013-0.062 0.043-0.06" fill="#9e1c21"/></g><g transform="translate(131.58 96.785)"><path d="m0 0-6e-3 2e-3c-0.072-0.014-0.035-0.014 6e-3 -2e-3" fill="#9e1c21"/></g></g><g transform="translate(132.82 95.186)"><path d="m0 0 0.039 8e-3 -2e-3 9e-3z" fill="#9e1c21"/></g><g clip-path="url(#b)"><g transform="translate(133.52 94.61)"><path d="m0 0c-0.011 5e-3 -0.022 7e-3 -0.038 0 4e-3 -0.01 9e-3 -0.02 0.015-0.033 8e-3 0.015 0.016 0.025 0.023 0.033" fill="#9e1c21"/></g><g transform="translate(132.07 96.06)"><path d="M 0,0 C 0.046,0.027 0.073,0.049 0.09,0.067 0.075,0.079 0.051,0.07 0,0" fill="#9e1c21"/></g></g></g></svg>
