<?xml version="1.0" encoding="UTF-8"?>
<svg version="1.1" viewBox="0 0 256 256" xml:space="preserve" xmlns="http://www.w3.org/2000/svg">


<g transform="translate(1.4066 1.4066) scale(2.81)" stroke-linecap="round">
	<path d="m79.35 77.115h-68.699c-5.873 0-10.651-4.778-10.651-10.651v-42.928c0-5.873 4.778-10.65 10.65-10.65h68.7c5.873 0 10.65 4.778 10.65 10.65v42.928c0 5.873-4.777 10.651-10.65 10.651zm-68.7-57.23c-2.013 0-3.65 1.638-3.65 3.65v42.928c0 2.014 1.638 3.651 3.651 3.651h68.699c2.013 0 3.65-1.638 3.65-3.651v-42.927c0-2.013-1.638-3.65-3.65-3.65h-68.7z"/>
	<path d="m45 60.229c-0.796 0-1.592-0.271-2.241-0.812l-30.71-25.595c-1.485-1.237-1.686-3.444-0.448-4.93 1.237-1.483 3.445-1.686 4.929-0.447l28.47 23.728 28.469-23.727c1.484-1.238 3.691-1.036 4.93 0.447 1.237 1.485 1.037 3.692-0.447 4.93l-30.71 25.595c-0.65 0.541-1.446 0.811-2.242 0.811z"/>
</g>
</svg>
