<?xml version="1.0" standalone="no"?>
<!DOCTYPE svg PUBLIC "-//W3C//DTD SVG 20010904//EN"
 "http://www.w3.org/TR/2001/REC-SVG-20010904/DTD/svg10.dtd">
<svg version="1.0" xmlns="http://www.w3.org/2000/svg"
 width="656.000000pt" height="656.000000pt" viewBox="0 0 656.000000 656.000000"
 preserveAspectRatio="xMidYMid meet">
<metadata>
Created by potrace 1.14, written by Peter Selinger 2001-2017
</metadata>
<g transform="translate(0.000000,656.000000) scale(0.100000,-0.100000)"
fill="#000000" stroke="none">
<path d="M2110 6554 c-34 -12 -67 -30 -100 -54 -34 -25 -48 -36 -105 -84 -16
-14 -33 -26 -37 -26 -5 0 -8 -7 -8 -15 0 -8 -3 -15 -8 -15 -4 0 -26 -24 -48
-53 -61 -78 -115 -198 -141 -312 -10 -47 -9 -200 2 -260 15 -78 50 -176 82
-227 13 -21 23 -41 23 -45 0 -5 13 -23 29 -42 16 -19 35 -46 43 -60 7 -14 30
-54 50 -89 21 -34 38 -66 38 -71 0 -5 4 -11 8 -13 4 -1 20 -24 35 -50 73 -127
206 -156 332 -73 17 11 33 25 38 32 4 7 13 18 20 25 40 41 57 149 33 208 -10
23 -92 161 -159 267 -15 24 -27 45 -27 47 0 3 -14 26 -32 52 -39 58 -58 126
-52 190 7 87 53 157 148 229 67 50 90 78 107 129 20 57 15 124 -11 176 -22 43
-73 100 -88 100 -7 0 -12 4 -12 9 0 17 -127 37 -160 25z"/>
<path d="M830 5388 c-41 -10 -83 -20 -94 -23 -10 -2 -24 -9 -32 -16 -8 -6 -14
-9 -14 -6 0 11 -123 -65 -170 -104 -149 -123 -183 -170 -186 -254 -4 -88 24
-142 111 -214 27 -22 107 -42 147 -37 53 7 105 37 164 93 94 88 135 107 229
107 75 0 137 -23 185 -67 14 -13 88 -77 165 -142 77 -65 146 -125 153 -132 45
-44 149 -55 218 -24 93 42 147 122 148 217 0 75 -30 132 -101 190 -26 21 -55
46 -63 54 -9 8 -40 35 -70 59 -30 25 -74 63 -96 85 -97 95 -190 153 -309 194
-118 41 -266 48 -385 20z"/>
<path d="M2566 4903 c-2 -2 -24 -6 -49 -8 -25 -3 -57 -9 -71 -15 -14 -5 -26
-8 -26 -5 0 4 -56 -18 -130 -53 -112 -51 -246 -182 -314 -306 -34 -61 -77
-187 -84 -246 -7 -60 -7 -175 1 -227 11 -72 56 -192 99 -265 22 -38 73 -101
112 -141 322 -323 850 -284 1123 83 104 140 144 271 139 455 -4 130 -6 147
-30 216 -58 169 -162 303 -304 393 -133 83 -233 113 -405 120 -31 1 -59 1 -61
-1z"/>
<path d="M4349 3786 c-2 -2 -24 -6 -49 -9 -76 -9 -122 -17 -197 -32 -40 -8
-81 -15 -92 -15 -42 0 -152 -60 -205 -112 -89 -89 -127 -186 -122 -311 5 -113
33 -197 90 -272 32 -42 86 -95 98 -95 4 0 13 -6 20 -13 16 -16 86 -44 130 -53
38 -7 132 -7 168 1 14 3 41 8 60 11 19 4 40 7 45 8 86 20 177 25 230 14 22 -4
51 -10 65 -12 151 -26 327 -202 366 -367 10 -43 9 -36 19 -94 4 -27 10 -57 12
-65 1 -8 5 -28 8 -45 2 -16 7 -41 10 -55 3 -14 8 -38 10 -55 3 -16 10 -56 16
-87 5 -32 12 -70 15 -85 2 -16 7 -39 9 -53 3 -14 8 -36 10 -50 3 -14 7 -38 10
-55 2 -16 9 -55 15 -85 14 -70 20 -109 25 -140 2 -14 9 -50 15 -80 6 -30 13
-66 15 -80 2 -14 6 -36 9 -50 3 -14 8 -43 11 -65 4 -22 8 -44 9 -50 4 -13 15
-73 20 -105 2 -14 7 -42 11 -62 5 -28 4 -38 -5 -38 -11 0 -243 84 -305 110
-40 17 -320 121 -335 124 -8 2 -69 24 -135 49 -66 25 -212 80 -323 121 -234
88 -251 96 -312 145 -61 49 -72 61 -106 112 -61 91 -86 171 -89 284 -2 72 17
179 37 202 6 7 8 13 5 13 -3 0 8 33 24 73 35 83 57 177 54 227 -13 187 -98
306 -275 385 -52 23 -166 46 -200 40 -8 -1 -37 -6 -65 -10 -97 -14 -189 -73
-256 -165 -28 -39 -69 -130 -69 -154 0 -9 -5 -16 -11 -16 -5 0 -8 -4 -4 -9 3
-5 1 -12 -4 -15 -4 -3 -11 -20 -15 -37 -3 -17 -12 -45 -20 -62 -13 -30 -37
-99 -42 -122 -1 -5 -5 -21 -8 -35 -3 -14 -7 -36 -10 -50 -17 -78 -21 -121 -20
-270 0 -91 3 -181 8 -200 4 -19 9 -48 11 -65 1 -16 8 -42 14 -57 6 -16 8 -28
6 -28 -7 0 53 -165 85 -232 44 -91 104 -190 161 -263 35 -45 239 -245 250
-245 6 0 22 -11 37 -25 15 -14 31 -25 35 -25 5 0 27 -13 50 -28 63 -43 155
-84 337 -151 91 -34 172 -64 180 -68 8 -3 20 -7 25 -8 6 -2 35 -13 65 -25 30
-12 82 -31 115 -42 33 -12 71 -25 85 -31 14 -6 27 -11 30 -12 3 -1 16 -6 30
-12 14 -6 79 -30 145 -53 66 -23 134 -48 150 -55 17 -7 46 -18 65 -25 19 -7
46 -17 60 -22 45 -19 63 -26 275 -103 116 -42 287 -106 380 -141 94 -36 175
-66 180 -68 6 -2 17 -6 25 -9 174 -65 189 -69 265 -72 130 -6 218 28 308 118
47 46 107 147 107 180 0 6 6 23 13 37 21 40 18 175 -4 245 -20 62 -53 217 -73
345 -3 19 -8 46 -11 60 -6 27 -13 69 -21 115 -3 17 -7 37 -9 45 -3 8 -7 31
-10 50 -2 19 -7 47 -10 63 -10 55 -15 83 -21 117 -3 19 -9 51 -14 70 -4 19 -8
42 -8 50 0 8 -3 26 -6 40 -3 14 -10 50 -16 80 -5 30 -12 66 -15 80 -3 14 -8
41 -10 60 -2 19 -11 66 -19 104 -9 38 -18 85 -20 105 -2 20 -7 47 -10 61 -3
14 -8 41 -11 60 -4 19 -8 44 -10 55 -2 11 -6 31 -9 45 -14 71 -32 176 -40 229
-3 18 -8 40 -10 50 -3 9 -8 33 -10 55 -3 21 -8 46 -10 55 -3 9 -8 32 -10 51
-12 89 -41 196 -80 291 -14 36 -26 70 -26 76 0 6 -3 13 -7 15 -5 2 -21 30 -38
63 -16 33 -33 62 -36 65 -3 3 -18 23 -32 46 -14 22 -32 47 -39 55 -8 8 -19 22
-24 31 -5 10 -37 46 -71 80 -142 147 -231 213 -393 293 -80 40 -230 98 -230
90 0 -3 -8 -1 -18 4 -45 24 -223 48 -358 49 -67 1 -123 0 -125 -2z"/>
</g>
</svg>
