<?xml version="1.0" encoding="UTF-8" standalone="no"?>
<!DOCTYPE svg PUBLIC "-//W3C//DTD SVG 1.1//EN" "http://www.w3.org/Graphics/SVG/1.1/DTD/svg11.dtd">
<!-- Created with Vectornator (http://vectornator.io/) -->
<svg height="100%" stroke-miterlimit="10" style="fill-rule:nonzero;clip-rule:evenodd;stroke-linecap:round;stroke-linejoin:round;" version="1.1" viewBox="4.01277 1.54645 90.8283 97.1066" width="100%" xml:space="preserve" xmlns="http://www.w3.org/2000/svg" xmlns:xlink="http://www.w3.org/1999/xlink">
<defs/>
<g id="Livello-2">
<path d="M72.7192 30.9282L74.4699 32.0953L73.7941 32.7445L75.0829 33.6525L76.1081 32.393L75.5516 31.4264L76.9868 31.2799L78.217 30.782L78.9493 31.8071L80.7946 31.485L81.4097 32.3051L82.9328 32.4515L86.0962 34.5605L85.5104 35.4392L84.6555 35.6604L86.4392 36.7131L85.3865 42.2688L86.4976 43.5554L85.5327 44.2572L86.0883 45.4561L85.3865 47.5907L86.176 48.4386L85.9421 49.7837L87.0825 50.544L86.0883 52.8832L88.398 54.334L90.8809 54.6483L91.4467 56.6912L93.4582 58.6399L94.8411 59.4885L89.6237 67.5974L87.7951 71.1623L86.9725 74.3352L85.1216 76.9499L84.1815 78.9771L81.7724 81.063L80.0391 80.1816L78.3939 79.9172L77.2481 80.5635L76.3961 80.2404L74.8684 81.2686L73.752 80.3285L72.5475 80.681L70.9904 79.9172L69.6683 80.0641L68.9926 80.7104L68.3169 79.3296L67.8762 80.3579L67.318 81.298L67.8175 81.8268L67.7 83.1489L68.0231 83.9715L66.4737 86.8398L66.8538 89.3253L65.3918 91.5183L64.5146 93.0388L64.4561 94.0915L63.5789 94.9103L63.6666 96.1969L64.5146 96.6355L64.2221 98.1267L61.7659 95.4951L59.7483 95.6998L59.1635 95.4074L57.1166 96.3431L55.6254 96.0214L55.9031 98.6531L52.482 96.7524L51.0784 98.1267L49.3532 97.5127L47.5695 98.6238L45.7858 98.0975L45.932 97.191L44.2653 96.1969L44.7624 95.3781L43.6119 93.8958L44.1463 92.5754L45.1208 91.9467L44.9636 90.7836L43.8948 90.7207L43.2346 91.4437L41.82 91.4752L39.0535 90.4692L37.2931 91.7895L36.2871 90.6578L35.5326 91.3809L34.4324 89.8405L32.4204 90.2806L31.1241 92.3047L29.6913 93.2988L29.5159 95.6381L28.7556 96.3106L27.4983 95.0825L27.5567 93.7375L26.5918 92.6555L25.3344 90.6087L24.194 89.8192L23.9894 88.2694L23.5508 87.8016L24.0186 85.784L23.0537 84.1465L24.1063 83.7956L25.5976 81.5733L25.9485 79.6434L25.4806 78.0352L26.3871 77.1287L26.1824 76.2222L27.1766 75.8421L27.0304 74.8772L27.7614 74.3801L28.4924 74.9941L29.6913 73.5906L30.9633 73.2835L30.6124 71.7338L31.4896 70.8273L31.2557 69.5407L31.002 67.8504L29.3353 67.7042L28.8382 66.8855L27.6393 66.8855L25.3878 63.4058L26.0018 61.0373L24.3643 59.6922L23.1947 59.7507L22.6099 58.9027L22.4052 57.9963L18.8671 56.2418L18.0191 53.7856L15.7091 52.2943L15.7091 51.3294L16.4109 50.5691L15.7383 49.5749L15.212 46.8263L15.7968 46.0368L14.7003 45.9052L14.0277 44.7648L12.5657 44.1508L11.747 44.18L10.5188 42.4256L11.3376 41.4314L11.747 40.3202L13.6768 39.0044L12.3903 37.8348L11.3668 37.5716L10.5481 36.7236L9.08604 36.3142L7.82869 34.4136L6.38127 33.6241L6.35203 31.7527L6.81988 30.3491L6.41051 29.2965L6.99533 28.2146L5.38709 27.7467L6.20583 26.8695L4.01277 25.3197L6.11811 24.9103L6.49824 23.2144L5.06544 22.0155L5.06544 21.2553L6.11811 21.0213L6.70292 21.9863L7.69711 21.4599L10.0656 21.6939L10.7089 22.5418L11.6446 22.3664L12.1125 20.8459L13.516 19.8809L15.0073 19.2084L15.7383 18.068L16.2354 16.3428L17.4928 14.793L17.5489 12.7754L17.7248 11.3681L16.9332 10.2833L17.0505 9.31582L16.4055 7.96717L15.9364 6.55989L18.1939 4.68351L20.7446 4.36101L21.4775 4.9767L22.9141 5.18193L23.7644 5.44579L25.7287 5.32852L26.9601 4.9767L28.1328 4.24374L29.2762 5.47511L31.094 5.03534L31.8269 3.62805L31.5044 3.18828L32.7651 2.7485L33.8206 1.86895L35.4038 1.54645L36.6645 2.1035L37.8665 2.71919L38.922 3.56942L40.2413 3.27623L40.8863 4.21442L40.6518 5.06465L41.8831 4.80079L42.059 6.17875L43.2318 7.8499L44.4332 7.49529L45.7699 9.39586L45.1773 10.2614L45.0809 12.468L43.6443 14.5197L41.9116 14.6365L41.7546 15.562L46.1392 17.4676L48.9099 18.4111L50.1905 19.86L51.4123 19.5841L51.6383 18.3721L53.1205 17.9249L55.4976 18.9327L56.6153 21.7799L57.0737 23.826L57.9044 24.8874L59.1068 26.4735L59.7563 27.7764L62.3389 29.2268L63.7079 31.7534L66.22 33.0133L66.8984 35.0806L68.5745 35.7346L70.8803 33.9368L72.7192 30.9282Z" fill="#002400" fill-rule="nonzero" opacity="1" stroke="none"/>
</g>
</svg>
