<svg width="556" height="283" viewBox="0 0 556 283" fill="none" xmlns="http://www.w3.org/2000/svg">
<path d="M48.7773 261.942C43.2256 268.832 32.9661 276.634 27.8364 274.952C25.9932 274.304 24.2833 269.622 24.8385 254.687C24.6599 252.604 25.0569 250.514 25.9932 248.607C26.7037 247.092 27.7389 245.722 29.0381 244.577C30.3373 243.433 31.8742 242.537 33.5583 241.942C35.2425 241.347 37.04 241.066 38.8451 241.114C40.6502 241.162 42.4265 241.54 44.0695 242.224C47.2006 243.494 49.6979 245.787 51.0704 248.652C52.4429 251.517 52.5913 254.747 51.4865 257.706C51.3313 257.97 51.2868 258.233 51.1533 258.497V258.659C50.6202 259.847 49.8692 260.943 48.9327 261.901L48.7773 261.942Z" fill="#014900"/>
<path d="M25.4154 210.631C16.2885 208.605 2.94228 208.605 0.210833 213.002C-0.744048 214.583 1.25448 219.082 12.2468 230.268C13.5718 231.994 15.3512 233.388 17.421 234.321C20.5928 235.734 24.2398 235.976 27.6019 234.995C30.964 234.015 33.7818 231.888 35.4681 229.059C37.1545 226.229 37.5792 222.915 36.6538 219.807C35.7284 216.698 33.5243 214.036 30.5008 212.374L30.3455 212.273C30.1264 212.124 29.8876 212.001 29.6346 211.908H29.4349C28.1736 211.328 26.8152 210.944 25.4154 210.773V210.631Z" fill="#014900"/>
<path d="M164.274 159.725V186.434C164.398 192.168 163.251 197.866 160.901 203.185C158.552 208.504 155.048 213.335 150.601 217.388C146.154 221.44 140.856 224.631 135.024 226.768C129.191 228.904 122.946 229.943 116.663 229.822H103.472C101.505 229.925 99.5369 229.647 97.6957 229.007C95.8546 228.368 94.1822 227.381 92.7881 226.11C91.3941 224.84 90.3097 223.315 89.606 221.636C88.9023 219.957 88.5952 218.161 88.7047 216.366C88.6298 214.56 88.9506 212.759 89.6484 211.068C90.3462 209.376 91.407 207.829 92.7685 206.517C94.1687 205.243 95.8422 204.247 97.6841 203.592C99.5261 202.936 101.497 202.635 103.472 202.707H116.796C119.129 202.707 121.439 202.288 123.595 201.473C125.75 200.658 127.708 199.464 129.358 197.959C131.008 196.453 132.316 194.666 133.209 192.699C134.102 190.732 134.562 188.624 134.562 186.495V162.926L134.85 159.806C135.272 158.286 135.205 156.827 135.583 155.55C136.039 153.489 137.107 151.582 138.67 150.038C141.468 147.565 145.065 164.73 149.462 164.73C153.859 164.73 157.412 147.565 160.144 150.038C161.513 151.314 162.585 152.831 163.295 154.496C164.004 156.16 164.338 157.939 164.274 159.725Z" fill="#014900"/>
<path d="M108.603 218.007C108.603 224.019 106.649 229.896 102.989 234.895C99.3288 239.894 94.1264 243.79 88.0398 246.091C81.9532 248.392 75.2557 248.994 68.7942 247.821C62.3327 246.648 56.3974 243.753 51.7389 239.501C47.0804 235.25 43.9079 229.834 42.6227 223.937C41.3374 218.041 41.997 211.929 44.5182 206.374C47.0394 200.82 51.3088 196.072 56.7866 192.732C62.2644 189.392 68.7045 187.609 75.2926 187.609C79.667 187.609 83.9985 188.395 88.0398 189.923C92.0812 191.451 95.7533 193.69 98.8464 196.512C101.94 199.335 104.393 202.686 106.067 206.374C107.741 210.062 108.603 214.015 108.603 218.007ZM62.5016 218.007C62.5016 220.316 63.2518 222.572 64.6573 224.492C66.0628 226.412 68.0605 227.908 70.3977 228.791C72.735 229.675 75.3068 229.906 77.788 229.455C80.2693 229.005 82.5485 227.893 84.3373 226.261C86.1262 224.628 87.3444 222.548 87.8379 220.284C88.3315 218.02 88.0782 215.673 87.1101 213.54C86.1419 211.407 84.5025 209.584 82.399 208.301C80.2955 207.019 77.8225 206.334 75.2926 206.334C71.902 206.34 68.652 207.571 66.2545 209.759C63.8569 211.947 62.5075 214.913 62.5016 218.007Z" fill="#014900"/>
<path d="M342.571 149.104H191.566C189.59 149.177 187.62 148.876 185.778 148.22C183.936 147.564 182.262 146.568 180.862 145.295C179.499 143.984 178.437 142.437 177.739 140.745C177.041 139.054 176.721 137.252 176.798 135.446C176.689 133.652 176.996 131.858 177.698 130.181C178.4 128.503 179.483 126.979 180.875 125.709C182.266 124.439 183.936 123.452 185.774 122.811C187.613 122.17 189.579 121.89 191.544 121.99L342.549 121.99C356.051 122.071 347.565 149.104 342.571 149.104Z" fill="#014900"/>
<path d="M134.561 172.977V165.459C134.437 159.725 135.584 154.027 137.934 148.708C140.284 143.388 143.787 138.557 148.234 134.505C152.681 130.452 157.98 127.262 163.812 125.125C169.644 122.989 175.889 121.95 182.173 122.071L324.939 122.071C326.905 121.971 328.872 122.251 330.712 122.892C332.551 123.533 334.222 124.52 335.615 125.79C337.009 127.059 338.093 128.583 338.798 130.261C339.503 131.938 339.813 133.733 339.707 135.527C339.78 137.334 339.456 139.137 338.754 140.828C338.053 142.52 336.987 144.066 335.621 145.376C334.226 146.65 332.556 147.647 330.718 148.302C328.879 148.958 326.912 149.259 324.939 149.186H182.128C177.416 149.186 172.898 150.894 169.566 153.934C166.234 156.975 164.363 161.098 164.363 165.398V172.916C164.44 174.716 164.109 176.511 163.391 178.188C162.673 179.866 161.582 181.389 160.188 182.664C158.75 183.906 157.055 184.874 155.201 185.511C153.348 186.148 151.374 186.441 149.395 186.373C147.429 186.479 145.46 186.203 143.618 185.565C141.776 184.926 140.104 183.939 138.71 182.667C137.317 181.396 136.235 179.87 135.535 178.189C134.836 176.508 134.534 174.711 134.65 172.916L134.561 172.977Z" fill="#014900"/>
<path d="M323.474 226.113C312.859 241.879 300.179 241.048 286.677 241.048H273.464C271.498 241.148 269.531 240.868 267.692 240.227C265.852 239.586 264.181 238.599 262.788 237.329C261.395 236.06 260.31 234.536 259.605 232.859C258.9 231.181 258.591 229.386 258.697 227.592C258.624 225.785 258.947 223.982 259.649 222.291C260.351 220.599 261.416 219.053 262.783 217.743C264.178 216.469 265.847 215.473 267.686 214.817C269.524 214.161 271.492 213.86 273.464 213.933H286.788C289.143 213.977 291.482 213.58 293.663 212.768C295.843 211.956 297.819 210.746 299.468 209.212C302.954 205.811 306.161 202.181 309.062 198.349C309.062 198.349 328.337 213.285 325.095 222.972C324.653 224.059 324.111 225.11 323.474 226.113Z" fill="#014900"/>
<path d="M278.571 229.314C278.571 235.326 276.618 241.204 272.958 246.202C269.297 251.201 264.095 255.098 258.009 257.398C251.922 259.699 245.224 260.301 238.763 259.128C232.301 257.955 226.366 255.06 221.708 250.809C217.049 246.558 213.877 241.141 212.591 235.245C211.306 229.348 211.966 223.236 214.487 217.682C217.008 212.127 221.277 207.38 226.755 204.039C232.233 200.699 238.673 198.916 245.261 198.916C254.096 198.916 262.568 202.119 268.815 207.82C275.062 213.521 278.571 221.252 278.571 229.314ZM232.47 229.314C232.47 231.623 233.22 233.88 234.626 235.799C236.031 237.719 238.029 239.215 240.366 240.099C242.704 240.982 245.275 241.213 247.757 240.763C250.238 240.312 252.517 239.201 254.306 237.568C256.095 235.936 257.313 233.856 257.807 231.592C258.3 229.327 258.047 226.98 257.079 224.847C256.111 222.714 254.471 220.891 252.368 219.609C250.264 218.326 247.791 217.642 245.261 217.642C243.579 217.639 241.912 217.939 240.356 218.524C238.801 219.109 237.386 219.968 236.195 221.052C235.003 222.136 234.056 223.423 233.41 224.841C232.763 226.259 232.429 227.779 232.426 229.314H232.47Z" fill="#014900"/>
<path d="M299.89 101.238C298.478 102.487 296.804 103.461 294.968 104.102C293.132 104.743 291.173 105.037 289.208 104.967C287.228 105.032 285.253 104.736 283.4 104.096C281.546 103.456 279.852 102.484 278.416 101.238C277.02 99.9684 275.928 98.4484 275.21 96.774C274.491 95.0996 274.161 93.3072 274.241 91.5104V86.4239C274.241 84.2948 273.781 82.1867 272.889 80.2197C271.996 78.2528 270.687 76.4655 269.038 74.9601C267.388 73.4546 265.429 72.2605 263.274 71.4457C261.119 70.631 258.809 70.2116 256.476 70.2116H183.416C181.441 70.2859 179.472 69.9837 177.632 69.3242C175.793 68.6647 174.125 67.6625 172.734 66.3815C171.363 65.0787 170.294 63.5365 169.592 61.8476C168.89 60.1587 168.569 58.3578 168.648 56.5529C168.539 54.7578 168.846 52.9619 169.549 51.2827C170.253 49.6034 171.337 48.0788 172.731 46.8085C174.126 45.5382 175.798 44.5509 177.639 43.9113C179.48 43.2717 181.449 42.994 183.416 43.0967L256.342 43.0967C262.626 42.9754 268.871 44.0144 274.703 46.1511C280.535 48.2878 285.834 51.4783 290.281 55.5308C294.728 59.5833 298.231 64.4143 300.581 69.7336C302.93 75.0528 304.078 80.7506 303.954 86.4847V91.5712C304.028 93.3496 303.706 95.1232 303.008 96.7848C302.309 98.4463 301.248 99.9612 299.89 101.238Z" fill="#014900"/>
<path d="M187.035 55.3582C187.03 62.3648 184.372 69.1546 179.512 74.5787C174.652 80.0028 167.888 83.7282 160.364 85.1246C152.84 86.5209 145.019 85.5025 138.223 82.2416C131.427 78.9807 126.075 73.6776 123.071 67.2296C120.067 60.7815 119.596 53.5844 121.738 46.8559C123.88 40.1275 128.503 34.281 134.825 30.3055C141.148 26.3299 148.781 24.4696 156.433 25.0392C164.086 25.6088 171.288 28.5733 176.82 33.4312C180.054 36.2699 182.625 39.6754 184.38 43.4433C186.136 47.2112 187.039 51.2639 187.035 55.3582ZM140.934 55.3582V55.5811C141.018 58.6512 142.432 61.5658 144.865 63.6872C146.074 64.7508 147.502 65.5862 149.065 66.1456C150.629 66.705 152.298 66.9775 153.977 66.9473C155.656 66.9172 157.312 66.5851 158.85 65.9701C160.389 65.355 161.779 64.4691 162.941 63.363C165.278 61.1266 166.561 58.1439 166.516 55.0543C166.483 51.9589 165.104 49.0024 162.683 46.8348C160.261 44.6673 156.995 43.4662 153.603 43.4957C150.212 43.5253 146.971 44.7831 144.596 46.9924C142.22 49.2018 140.903 52.1818 140.934 55.2771V55.3582Z" fill="#014900"/>
<path d="M555 147.567L331.156 147.567C329.19 147.666 327.223 147.386 325.384 146.745C323.544 146.105 321.873 145.117 320.48 143.848C319.087 142.578 318.002 141.055 317.297 139.377C316.592 137.699 316.283 135.905 316.389 134.11C316.317 132.303 316.641 130.501 317.343 128.81C318.044 127.118 319.109 125.572 320.475 124.261C321.875 122.988 323.548 121.992 325.39 121.336C327.232 120.68 329.203 120.379 331.178 120.452L555 120.452C555 133.099 555 127.675 555 147.567Z" fill="#014900"/>
<path d="M303.954 91.5101V104.176C303.954 108.476 305.825 112.599 309.157 115.64C312.489 118.68 317.007 120.388 321.719 120.388L546.007 120.388C547.982 120.316 552.5 120.388 555 120.388C554.978 125.209 555 120.388 555 124.223C555 127.675 555 126.196 555 128.661C555 131.126 555.075 132.279 555 134.085C555.11 135.88 555 137.043 555 139.016C555 140.988 555 140.988 555 143.454C555 146.688 555 144.933 555 147.503C553.5 147.503 547.973 147.606 546.007 147.503H321.719C315.436 147.624 309.191 146.585 303.358 144.449C297.526 142.312 292.228 139.121 287.781 135.069C283.334 131.016 279.83 126.185 277.481 120.866C275.131 115.547 273.984 109.849 274.108 104.115V91.4493" fill="#014900"/>
<path d="M300.978 208.241L347.901 129.065C351.032 125.275 383.432 133.604 372.551 145.095L324.318 224.413M324.318 224.413C321.719 227.676 298.291 211.484 300.89 208.201Z" fill="#014900"/>
<path d="M206.267 176.545C200.715 183.435 190.455 191.237 185.326 189.535C183.483 188.887 181.773 184.205 182.328 169.27C182.153 167.187 182.55 165.098 183.482 163.19C184.195 161.677 185.232 160.309 186.532 159.166C187.832 158.024 189.369 157.13 191.053 156.537C192.737 155.944 194.534 155.664 196.338 155.714C198.142 155.764 199.917 156.142 201.559 156.827C204.685 158.097 207.178 160.386 208.55 163.247C209.923 166.107 210.074 169.332 208.976 172.289V172.411L208.643 173.181V173.343C208.094 174.524 207.345 175.618 206.422 176.586L206.267 176.545Z" fill="#014900"/>
<path d="M296.515 184.548C290.963 177.658 280.704 169.856 275.574 171.538C273.731 172.186 272.021 176.867 272.576 191.803C272.4 193.661 272.68 195.532 273.398 197.279C274.115 199.025 275.251 200.603 276.723 201.898C278.194 203.193 279.964 204.171 281.902 204.762C283.841 205.353 285.9 205.541 287.928 205.313C289.957 205.084 291.904 204.445 293.627 203.442C295.351 202.44 296.807 201.098 297.889 199.516C298.972 197.934 299.654 196.151 299.884 194.298C300.115 192.444 299.89 190.567 299.224 188.804C299.113 188.52 299.024 188.236 298.891 187.973V187.811C298.343 186.63 297.593 185.535 296.67 184.568L296.515 184.548Z" fill="#014900"/>
<path d="M217.881 14.0157C212.307 7.12547 202.07 -0.67663 196.94 1.02565C195.075 1.67416 193.365 6.35537 193.942 21.2909C193.78 23.1395 194.07 24.9979 194.793 26.7314C195.515 28.4649 196.65 30.0302 198.117 31.3137C199.584 32.5972 201.346 33.5669 203.274 34.1524C205.202 34.738 207.249 34.9248 209.266 34.6993C211.283 34.4738 213.22 33.8416 214.936 32.8486C216.653 31.8556 218.105 30.5267 219.189 28.958C220.273 27.3893 220.962 25.6202 221.204 23.7789C221.446 21.9376 221.236 20.0702 220.59 18.3119C220.457 18.0687 220.457 17.8256 220.301 17.5621C220.277 17.4894 220.277 17.4118 220.301 17.3391C219.764 16.1533 219.013 15.0574 218.081 14.0967L217.881 14.0157Z" fill="#014900"/>
<path d="M254.967 14.0175C249.415 7.12735 239.155 -0.674758 234.026 1.02752C232.16 1.67604 230.45 6.35724 231.028 21.2927C230.854 23.3733 231.243 25.461 232.16 27.3724C232.878 28.8846 233.918 30.2512 235.22 31.3925C236.523 32.5337 238.062 33.4266 239.747 34.019C241.432 34.6115 243.229 34.8915 245.034 34.8429C246.839 34.7942 248.615 34.4178 250.259 33.7356C253.385 32.466 255.878 30.1764 257.25 27.316C258.623 24.4555 258.774 21.2305 257.676 18.2732V18.1719C257.521 17.9287 257.498 17.6855 257.365 17.4221C257.232 17.1586 257.255 17.2194 257.255 17.2194C256.717 16.0335 255.966 14.9377 255.034 13.977L254.967 14.0175Z" fill="#014900"/>
<path d="M296.515 269.562C290.963 276.452 280.704 284.254 275.574 282.552C273.731 281.904 272.021 277.222 272.576 262.287C272.399 260.204 272.796 258.114 273.731 256.207C274.443 254.694 275.48 253.326 276.78 252.183C278.08 251.041 279.617 250.147 281.301 249.554C282.985 248.961 284.782 248.681 286.586 248.731C288.39 248.781 290.165 249.159 291.807 249.844C294.933 251.114 297.427 253.403 298.799 256.264C300.171 259.124 300.322 262.349 299.224 265.306C299.091 265.57 299.069 265.833 298.935 266.097V266.279C298.387 267.46 297.638 268.554 296.715 269.521L296.515 269.562Z" fill="#014900"/>
</svg>
