<svg width="620" height="287" viewBox="0 0 620 287" fill="none" xmlns="http://www.w3.org/2000/svg">
<path d="M620.001 135.943C619.91 144.564 616.133 152.801 609.497 158.853C602.861 164.904 593.905 168.278 584.588 168.236C575.271 168.194 566.352 164.739 559.78 158.628C553.208 152.517 549.518 144.246 549.518 135.624C549.518 127.003 553.208 118.732 559.78 112.621C566.352 106.509 575.271 103.055 584.588 103.013C593.905 102.971 602.861 106.344 609.497 112.396C616.133 118.447 619.91 126.684 620.001 135.306V135.943ZM573.877 135.943C573.882 138.685 574.918 141.34 576.806 143.453C578.695 145.566 581.319 147.006 584.228 147.525C587.138 148.044 590.152 147.611 592.755 146.299C595.357 144.987 597.385 142.879 598.491 140.335C599.598 137.791 599.714 134.97 598.819 132.356C597.925 129.742 596.075 127.497 593.588 126.006C591.101 124.515 588.131 123.871 585.187 124.184C582.244 124.498 579.509 125.749 577.453 127.723C575.155 129.923 573.873 132.863 573.877 135.922V135.943Z" fill="#014900"/>
<path d="M48.7773 265.65C43.2256 272.636 32.9661 280.548 27.8364 278.842C25.9932 278.185 24.2833 273.438 24.8385 258.293C24.6599 256.181 25.0569 254.061 25.9932 252.128C26.7037 250.592 27.7389 249.202 29.0381 248.042C30.3373 246.881 31.8742 245.972 33.5583 245.369C35.2425 244.766 37.04 244.481 38.8451 244.53C40.6502 244.579 42.4265 244.961 44.0695 245.655C47.2006 246.943 49.6979 249.268 51.0704 252.173C52.4429 255.078 52.5913 258.353 51.4865 261.355C51.3313 261.622 51.2868 261.889 51.1533 262.156V262.321C50.6202 263.525 49.8692 264.637 48.9327 265.609L48.7773 265.65Z" fill="#014900"/>
<path d="M25.4154 213.62C16.2885 211.565 2.94228 211.565 0.210833 216.024C-0.744048 217.627 1.25448 222.189 12.2468 233.532C13.5718 235.282 15.3512 236.695 17.421 237.642C20.5928 239.075 24.2398 239.319 27.6019 238.325C30.964 237.331 33.7818 235.175 35.4681 232.306C37.1545 229.436 37.5792 226.076 36.6538 222.924C35.7284 219.772 33.5243 217.072 30.5008 215.387L30.3455 215.284C30.1264 215.133 29.8876 215.009 29.6346 214.914H29.4349C28.1736 214.326 26.8152 213.937 25.4154 213.763V213.62Z" fill="#014900"/>
<path d="M164.274 161.999V189.083C164.398 194.898 163.251 200.675 160.901 206.069C158.552 211.463 155.048 216.362 150.601 220.471C146.154 224.58 140.856 227.816 135.024 229.982C129.191 232.149 122.946 233.202 116.663 233.079H103.472C101.505 233.184 99.5369 232.902 97.6957 232.253C95.8546 231.605 94.1822 230.604 92.7881 229.316C91.3941 228.028 90.3097 226.481 89.606 224.779C88.9023 223.076 88.5952 221.255 88.7047 219.435C88.6298 217.604 88.9506 215.777 89.6484 214.062C90.3462 212.347 91.407 210.778 92.7685 209.448C94.1687 208.156 95.8422 207.146 97.6841 206.481C99.5261 205.816 101.497 205.511 103.472 205.584H116.796C119.129 205.584 121.439 205.159 123.595 204.333C125.75 203.507 127.708 202.296 129.358 200.769C131.008 199.243 132.316 197.431 133.209 195.436C134.102 193.441 134.562 191.304 134.562 189.145V165.246L134.85 162.081C135.272 160.54 135.205 159.061 135.583 157.766C136.039 155.676 137.107 153.743 138.67 152.177C141.468 149.67 145.065 167.075 149.462 167.075C153.859 167.075 157.412 149.67 160.144 152.177C161.513 153.471 162.585 155.009 163.295 156.697C164.004 158.385 164.338 160.189 164.274 161.999Z" fill="#014900"/>
<path d="M108.603 221.099C108.603 227.195 106.649 233.155 102.989 238.224C99.3288 243.293 94.1264 247.243 88.0398 249.576C81.9532 251.909 75.2557 252.52 68.7942 251.331C62.3327 250.141 56.3974 247.205 51.7389 242.895C47.0804 238.584 43.9079 233.091 42.6227 227.112C41.3374 221.133 41.997 214.935 44.5182 209.303C47.0394 203.67 51.3088 198.856 56.7866 195.469C62.2644 192.082 68.7045 190.275 75.2926 190.275C79.667 190.275 83.9985 191.072 88.0398 192.621C92.0812 194.17 95.7533 196.441 98.8464 199.303C101.94 202.165 104.393 205.563 106.067 209.303C107.741 213.043 108.603 217.051 108.603 221.099ZM62.5016 221.099C62.5016 223.44 63.2518 225.728 64.6573 227.675C66.0628 229.621 68.0605 231.138 70.3977 232.034C72.735 232.93 75.3068 233.164 77.788 232.708C80.2693 232.251 82.5485 231.124 84.3373 229.468C86.1262 227.813 87.3444 225.704 87.8379 223.408C88.3315 221.112 88.0782 218.732 87.1101 216.569C86.1419 214.406 84.5025 212.558 82.399 211.257C80.2955 209.956 77.8225 209.262 75.2926 209.262C71.902 209.268 68.652 210.516 66.2545 212.735C63.8569 214.954 62.5075 217.961 62.5016 221.099Z" fill="#014900"/>
<path d="M342.571 151.23H191.566C189.59 151.304 187.62 150.998 185.778 150.333C183.936 149.669 182.262 148.659 180.862 147.367C179.499 146.038 178.437 144.469 177.739 142.754C177.041 141.039 176.721 139.211 176.798 137.38C176.689 135.562 176.996 133.742 177.698 132.041C178.4 130.34 179.483 128.795 180.875 127.507C182.266 126.219 183.936 125.218 185.774 124.568C187.613 123.918 189.579 123.634 191.544 123.735L342.549 123.735C356.051 123.817 347.565 151.23 342.571 151.23Z" fill="#014900"/>
<path d="M134.561 175.438V167.814C134.437 161.999 135.584 156.222 137.934 150.828C140.284 145.434 143.787 140.535 148.234 136.426C152.681 132.317 157.98 129.081 163.812 126.915C169.644 124.748 175.889 123.695 182.173 123.818L324.939 123.818C326.905 123.717 328.872 124 330.712 124.65C332.551 125.3 334.222 126.301 335.615 127.589C337.009 128.876 338.093 130.421 338.798 132.122C339.503 133.823 339.813 135.643 339.707 137.462C339.78 139.295 339.456 141.123 338.754 142.838C338.053 144.553 336.987 146.121 335.621 147.449C334.226 148.742 332.556 149.752 330.718 150.417C328.879 151.082 326.912 151.387 324.939 151.313H182.128C177.416 151.313 172.898 153.045 169.566 156.128C166.234 159.211 164.363 163.392 164.363 167.752V175.376C164.44 177.201 164.109 179.021 163.391 180.722C162.673 182.423 161.582 183.968 160.188 185.26C158.75 186.52 157.055 187.502 155.201 188.147C153.348 188.793 151.374 189.09 149.395 189.021C147.429 189.129 145.46 188.849 143.618 188.202C141.776 187.554 140.104 186.553 138.71 185.264C137.317 183.974 136.235 182.427 135.535 180.722C134.836 179.018 134.534 177.196 134.65 175.376L134.561 175.438Z" fill="#014900"/>
<path d="M323.474 229.318C312.859 245.306 300.179 244.463 286.677 244.463H273.464C271.498 244.564 269.531 244.28 267.692 243.63C265.852 242.981 264.181 241.979 262.788 240.692C261.395 239.405 260.31 237.86 259.605 236.159C258.9 234.457 258.591 232.638 258.697 230.818C258.624 228.986 258.947 227.158 259.649 225.443C260.351 223.728 261.416 222.16 262.783 220.831C264.178 219.539 265.847 218.529 267.686 217.864C269.524 217.199 271.492 216.894 273.464 216.968H286.788C289.143 217.012 291.482 216.61 293.663 215.786C295.843 214.963 297.819 213.736 299.468 212.18C302.954 208.732 306.161 205.05 309.062 201.166C309.062 201.166 328.337 216.31 325.095 226.133C324.653 227.235 324.111 228.301 323.474 229.318Z" fill="#014900"/>
<path d="M278.571 232.565C278.571 238.661 276.618 244.621 272.958 249.69C269.297 254.759 264.095 258.709 258.009 261.042C251.922 263.375 245.224 263.986 238.763 262.796C232.301 261.607 226.366 258.671 221.708 254.361C217.049 250.05 213.877 244.557 212.591 238.578C211.306 232.599 211.966 226.401 214.487 220.769C217.008 215.136 221.277 210.322 226.755 206.935C232.233 203.548 238.673 201.741 245.261 201.741C254.096 201.741 262.568 204.988 268.815 210.769C275.062 216.549 278.571 224.39 278.571 232.565ZM232.47 232.565C232.47 234.906 233.22 237.194 234.626 239.141C236.031 241.087 238.029 242.604 240.366 243.5C242.704 244.396 245.275 244.63 247.757 244.174C250.238 243.717 252.517 242.59 254.306 240.934C256.095 239.279 257.313 237.17 257.807 234.874C258.3 232.578 258.047 230.198 257.079 228.035C256.111 225.872 254.471 224.024 252.368 222.723C250.264 221.422 247.791 220.728 245.261 220.728C243.579 220.725 241.912 221.029 240.356 221.623C238.801 222.216 237.386 223.087 236.195 224.186C235.003 225.286 234.056 226.591 233.41 228.029C232.763 229.466 232.429 231.008 232.426 232.565H232.47Z" fill="#014900"/>
<path d="M299.89 102.692C298.479 103.959 296.804 104.947 294.968 105.597C293.132 106.247 291.173 106.545 289.208 106.473C287.228 106.54 285.253 106.24 283.4 105.591C281.546 104.941 279.852 103.956 278.416 102.692C277.02 101.405 275.928 99.8638 275.21 98.1659C274.491 96.468 274.161 94.6506 274.241 92.8286V87.6707C274.241 85.5118 273.781 83.3741 272.889 81.3796C271.996 79.385 270.687 77.5727 269.038 76.0462C267.388 74.5196 265.429 73.3087 263.274 72.4826C261.119 71.6564 258.809 71.2312 256.476 71.2312H183.416C181.441 71.3065 179.472 71 177.632 70.3313C175.793 69.6626 174.125 68.6463 172.734 67.3474C171.363 66.0262 170.294 64.4625 169.592 62.7499C168.89 61.0373 168.569 59.2111 168.648 57.3809C168.539 55.5607 168.846 53.7396 169.549 52.0368C170.253 50.3341 171.337 48.788 172.731 47.4999C174.126 46.2118 175.798 45.2107 177.639 44.5621C179.48 43.9135 181.449 43.632 183.416 43.7361L256.342 43.7361C262.626 43.6131 268.871 44.6666 274.703 46.8333C280.535 49 285.834 52.2352 290.281 56.3445C294.728 60.4539 298.231 65.3526 300.581 70.7464C302.93 76.1402 304.078 81.9179 303.954 87.7324V92.8902C304.028 94.6935 303.706 96.492 303.008 98.1769C302.309 99.8617 301.248 101.398 299.89 102.692Z" fill="#014900"/>
<path d="M187.035 56.1695C187.03 63.2744 184.372 70.1593 179.512 75.6595C174.652 81.1596 167.888 84.9372 160.364 86.3532C152.84 87.7691 145.019 86.7364 138.223 83.4298C131.427 80.1232 126.075 74.7458 123.071 68.2073C120.067 61.6688 119.596 54.3708 121.738 47.548C123.88 40.7253 128.503 34.7968 134.825 30.7655C141.148 26.7343 148.781 24.8478 156.433 25.4254C164.086 26.003 171.288 29.0091 176.82 33.9351C180.054 36.8136 182.625 40.2668 184.38 44.0876C186.136 47.9083 187.039 52.0178 187.035 56.1695ZM140.934 56.1695V56.3955C141.018 59.5086 142.432 62.4642 144.865 64.6153C146.074 65.6938 147.502 66.5409 149.065 67.1081C150.629 67.6754 152.298 67.9517 153.977 67.9211C155.656 67.8906 157.312 67.5539 158.85 66.9302C160.389 66.3065 161.779 65.4081 162.941 64.2865C165.278 62.0188 166.561 58.9943 166.516 55.8613C166.483 52.7226 165.104 49.7246 162.683 47.5266C160.261 45.3287 156.995 44.1107 153.603 44.1407C150.212 44.1707 146.971 45.4461 144.596 47.6864C142.22 49.9268 140.903 52.9486 140.934 56.0873V56.1695Z" fill="#014900"/>
<path d="M563.749 149.671H331.156C329.19 149.772 327.223 149.488 325.384 148.838C323.544 148.188 321.873 147.187 320.48 145.9C319.087 144.612 318.002 143.067 317.297 141.366C316.592 139.665 316.283 137.845 316.389 136.026C316.317 134.193 316.641 132.366 317.343 130.651C318.044 128.936 319.109 127.368 320.475 126.039C321.875 124.747 323.548 123.737 325.39 123.072C327.232 122.408 329.203 122.102 331.178 122.176L563.771 122.176C568.768 122.176 577.254 149.671 563.749 149.671Z" fill="#014900"/>
<path d="M303.954 92.8282V105.672C303.954 110.032 305.825 114.213 309.157 117.296C312.489 120.379 317.007 122.111 321.719 122.111L546.007 122.111C547.982 122.038 549.953 122.343 551.795 123.008C553.636 123.673 555.31 124.683 556.71 125.974C558.072 127.305 559.133 128.874 559.83 130.589C560.528 132.304 560.849 134.13 560.774 135.961C560.884 137.782 560.576 139.603 559.873 141.305C559.169 143.008 558.085 144.554 556.691 145.842C555.297 147.13 553.624 148.132 551.783 148.78C549.942 149.429 547.973 149.71 546.007 149.606L321.719 149.606C315.436 149.729 309.191 148.676 303.358 146.509C297.526 144.342 292.228 141.107 287.781 136.998C283.334 132.888 279.83 127.99 277.481 122.596C275.131 117.202 273.984 111.424 274.108 105.61V92.7666" fill="#014900"/>
<path d="M300.978 211.196L347.901 130.91C351.032 127.067 383.432 135.513 372.551 147.164L324.318 227.594M324.318 227.594C321.719 230.903 298.291 214.484 300.89 211.155L324.318 227.594Z" fill="#014900"/>
<path d="M206.267 179.055C200.715 186.042 190.455 193.954 185.326 192.228C183.483 191.57 181.773 186.823 182.328 171.678C182.153 169.566 182.55 167.448 183.482 165.513C184.195 163.979 185.232 162.592 186.532 161.433C187.832 160.274 189.369 159.368 191.053 158.767C192.737 158.166 194.534 157.882 196.338 157.933C198.142 157.983 199.917 158.367 201.559 159.061C204.685 160.348 207.178 162.67 208.55 165.571C209.923 168.471 210.074 171.741 208.976 174.74V174.863L208.643 175.644V175.809C208.094 177.006 207.345 178.116 206.422 179.097L206.267 179.055Z" fill="#014900"/>
<path d="M296.515 187.171C290.963 180.184 280.704 172.272 275.574 173.978C273.731 174.635 272.021 179.382 272.576 194.527C272.4 196.412 272.68 198.309 273.398 200.08C274.115 201.851 275.251 203.451 276.723 204.764C278.194 206.077 279.964 207.069 281.902 207.668C283.841 208.267 285.9 208.458 287.928 208.226C289.957 207.995 291.904 207.347 293.627 206.33C295.351 205.313 296.807 203.953 297.889 202.348C298.972 200.744 299.654 198.936 299.884 197.057C300.115 195.178 299.89 193.274 299.224 191.486C299.113 191.198 299.024 190.911 298.891 190.643V190.479C298.343 189.282 297.593 188.172 296.67 187.191L296.515 187.171Z" fill="#014900"/>
<path d="M217.881 14.2473C212.307 7.26052 202.07 -0.650967 196.94 1.07518C195.075 1.73279 193.365 6.47962 193.942 21.6245C193.78 23.4991 194.07 25.3835 194.793 27.1414C195.515 28.8992 196.65 30.4863 198.117 31.7879C199.584 33.0894 201.346 34.0726 203.274 34.6664C205.202 35.2602 207.249 35.4496 209.266 35.2209C211.283 34.9923 213.22 34.3512 214.936 33.3443C216.653 32.3374 218.105 30.9898 219.189 29.3992C220.273 27.8085 220.962 26.0146 221.204 24.1474C221.446 22.2803 221.236 20.3867 220.59 18.6038C220.457 18.3572 220.457 18.1106 220.301 17.8434C220.277 17.7698 220.277 17.6911 220.301 17.6174C219.764 16.4149 219.013 15.3037 218.081 14.3295L217.881 14.2473Z" fill="#014900"/>
<path d="M254.967 14.2493C249.415 7.2625 239.155 -0.648998 234.026 1.07715C232.16 1.73476 230.45 6.48159 231.028 21.6265C230.854 23.7362 231.243 25.8532 232.16 27.7913C232.878 29.3248 233.918 30.7106 235.22 31.8678C236.523 33.025 238.062 33.9305 239.747 34.5312C241.432 35.1319 243.229 35.4159 245.034 35.3666C246.839 35.3172 248.615 34.9355 250.259 34.2438C253.385 32.9564 255.878 30.6347 257.25 27.7342C258.623 24.8336 258.774 21.5634 257.676 18.5647V18.4619C257.521 18.2153 257.498 17.9687 257.365 17.7015C257.232 17.4344 257.255 17.4961 257.255 17.4961C256.717 16.2935 255.966 15.1824 255.034 14.2082L254.967 14.2493Z" fill="#014900"/>
<path d="M296.515 273.377C290.963 280.363 280.704 288.275 275.574 286.549C273.731 285.891 272.021 281.144 272.576 265.999C272.399 263.887 272.796 261.768 273.731 259.835C274.443 258.3 275.48 256.913 276.78 255.754C278.08 254.596 279.617 253.689 281.301 253.088C282.985 252.487 284.782 252.203 286.586 252.254C288.39 252.304 290.165 252.688 291.807 253.382C294.933 254.67 297.427 256.991 298.799 259.892C300.171 262.792 300.322 266.063 299.224 269.061C299.091 269.328 299.069 269.595 298.935 269.863V270.048C298.387 271.245 297.638 272.355 296.715 273.335L296.515 273.377Z" fill="#014900"/>
</svg>
