<svg width="256" height="247" viewBox="0 0 256 247" fill="none" xmlns="http://www.w3.org/2000/svg">
<path d="M6.25126 77.1246C6.78276 76.2993 7.4874 75.6004 8.31605 75.0766C9.1447 74.5529 10.0774 74.2169 11.049 74.0921L25.1367 72.3035C25.5505 72.0825 25.9008 71.7586 26.154 71.3627L26.9686 70.0871C27.2044 69.7307 27.5211 69.4355 27.8928 69.2259C28.2645 69.0163 28.6805 68.8981 29.1067 68.8812C29.5328 68.8642 29.957 68.949 30.3442 69.1285C30.7315 69.308 31.0708 69.577 31.3343 69.9136C31.6777 70.3522 31.8764 70.8873 31.9027 71.4443C31.929 72.0013 31.7817 72.5526 31.4811 73.0215L30.6865 74.2735C30.0482 75.2786 29.1995 76.1321 28.1991 76.7747C27.8477 76.9855 27.4556 77.119 27.0488 77.1663L11.7902 79.0954C11.3724 79.3109 11.0208 79.636 10.7728 80.0362L9.95733 81.301C9.76699 81.6016 9.5193 81.8615 9.22847 82.0658C8.93764 82.27 8.6094 82.4146 8.26263 82.4912C7.91587 82.5678 7.55742 82.5749 7.20785 82.5121C6.85827 82.4493 6.52448 82.3178 6.22563 82.1252C5.62401 81.7355 5.2007 81.1226 5.04838 80.4207C4.89605 79.7188 5.02713 78.9851 5.41291 78.3802L6.25126 77.1246Z" fill="current"/>
<path d="M139.467 48.281C138.624 49.6096 138.083 51.1077 137.881 52.6695C137.678 54.2314 137.82 55.8189 138.296 57.32L145.216 79.072C145.169 79.8184 144.935 80.5406 144.535 81.1715L138.533 92.6814C141.731 92.4176 138.014 101.671 141.098 102.822L151.909 85.8692C152.931 84.2633 153.596 82.4548 153.858 80.567C153.947 79.9157 153.892 79.2529 153.698 78.6248L146.279 55.0684C146.32 54.3209 146.555 53.5973 146.96 52.9689L155.189 40.0297L147.739 35.3384L139.467 48.281Z" fill="current"/>
<path d="M145.15 95.2555C143.803 94.6963 142.569 93.8975 141.506 92.8976C140.258 91.847 139.747 91.4828 138.822 91.5591L135.544 89.6324L142.689 80.0276C142.831 79.8008 142.932 79.5508 142.989 79.2888L136.249 57.9833C135.679 56.1814 135.509 54.2763 135.752 52.402C135.994 50.5277 136.643 48.7297 137.653 47.1344L145.902 34.1687L156.898 41.226L148.637 54.1818C148.494 54.4041 148.392 54.6508 148.336 54.9097L155.652 78.0242C155.946 78.9582 156.027 79.9462 155.891 80.9157C155.586 83.1089 154.814 85.2106 153.629 87.0785L146.78 95.901L145.15 95.2555ZM148.756 37.7064L141.282 49.4387C140.607 50.5011 140.174 51.6992 140.012 52.9483C139.851 54.1974 139.964 55.4671 140.345 56.6676L147.384 78.8053L147.361 79.1916C147.301 80.2891 146.963 81.353 146.379 82.2828L142.052 87.9749C142.863 88.4351 142.827 89.4452 143.517 90.0731C148.68 80.7118 144.924 90.1328 145.239 90.3704L150.075 84.7462C150.931 83.404 151.489 81.8932 151.713 80.3156C151.755 79.9826 151.727 79.6444 151.631 79.3227L144.061 55.3833L144.028 54.9905C144.097 53.874 144.449 52.7937 145.051 51.8521L152.525 40.1198L148.756 37.7064Z" fill="current"/>
<path d="M74.1579 150.838C75.0073 149.513 76.1362 148.39 77.4649 147.55C78.7937 146.71 80.2901 146.172 81.8487 145.974L104.422 143.112C105.075 142.759 105.628 142.245 106.028 141.617L117.099 124.225C118.213 127.242 121.833 127.064 124.214 129.373L113.415 146.336C112.395 147.941 111.039 149.305 109.441 150.333C108.882 150.677 108.252 150.891 107.599 150.957L83.1521 154.073C82.4984 154.426 81.9454 154.94 81.5453 155.568L72.1042 170.119L66.126 164.021L74.1579 150.838Z" fill="current"/>
<path d="M110.599 152.16C109.774 152.679 108.843 153.003 107.875 153.11L83.8959 156.187C83.6771 156.342 83.4922 156.54 83.3527 156.77L74.1175 171.051L64.4045 163.064L72.3559 149.702C73.3732 148.109 74.7275 146.76 76.3228 145.751C77.9182 144.743 79.7154 144.098 81.5871 143.865L103.683 141.064C103.902 140.909 104.087 140.71 104.226 140.481L116.178 120.342L119.121 123.52C119.43 124.351 120.119 124.734 121.759 125.5C123.219 126.053 124.564 126.873 125.725 127.919L126.987 129.144L115.226 147.582C114.029 149.423 112.451 150.985 110.599 152.16ZM120.023 129.411C119.071 129.026 118.164 128.538 117.319 127.953L107.847 142.818C107.25 143.763 106.42 144.535 105.437 145.061L105.09 145.243L82.1277 148.159C80.8812 148.314 79.6841 148.742 78.6211 149.412C77.5581 150.083 76.6552 150.98 75.9763 152.04L68.3012 163.841L72.0582 166.245L79.7343 154.454C80.3373 153.511 81.1707 152.739 82.1553 152.211L82.5016 152.028L107.34 148.88C107.66 148.829 107.967 148.714 108.242 148.542C109.574 147.681 110.705 146.543 111.559 145.204L121.253 129.98C120.927 129.754 120.463 129.561 120.019 129.367L120.023 129.411Z" fill="current"/>
<path d="M70.2918 183.609C67.3709 184.582 64.2037 184.508 61.3299 183.4C58.4561 182.293 56.0534 180.22 54.5315 177.535C53.0096 174.85 52.4625 171.72 52.9835 168.677C53.5045 165.634 55.0613 162.866 57.3887 160.847C59.716 158.827 62.6699 157.68 65.7469 157.601C68.8239 157.522 71.8336 158.516 74.2631 160.413C76.6926 162.31 78.3916 164.994 79.0705 168.006C79.7495 171.018 79.3663 174.173 77.9863 176.932C77.7804 177.356 77.54 177.76 77.2987 178.153C75.6592 180.727 73.1843 182.654 70.2918 183.609ZM61.9121 168.844C61.4943 169.676 61.3325 170.615 61.4471 171.54C61.5618 172.466 61.9477 173.336 62.556 174.041C63.1643 174.747 63.9676 175.255 64.8639 175.502C65.7603 175.749 66.7094 175.723 67.591 175.428C68.1766 175.238 68.7181 174.931 69.1832 174.527C69.6483 174.122 70.0276 173.628 70.2985 173.073C70.8203 171.999 70.9147 170.765 70.5627 169.622C70.2107 168.479 69.4385 167.514 68.403 166.921C67.3674 166.329 66.1461 166.153 64.987 166.431C63.8278 166.709 62.8177 167.419 62.1616 168.417C62.0736 168.545 61.9866 168.684 61.9121 168.844Z" fill="current"/>
<path d="M164.682 40.8066C162.578 43.5003 159.509 45.2635 156.128 45.721C152.747 46.1785 149.321 45.2942 146.579 43.2562C143.837 41.2182 141.995 38.1875 141.446 34.8091C140.897 31.4307 141.683 27.9713 143.638 25.1672C145.593 22.3631 148.562 20.4357 151.913 19.7952C155.265 19.1547 158.733 19.8516 161.582 21.7377C164.43 23.6238 166.432 26.5501 167.163 29.8938C167.894 33.2376 167.295 36.7347 165.494 39.641C165.244 40.0434 164.972 40.4324 164.682 40.8066ZM149.622 33.0738C149.767 34.3129 150.395 35.4446 151.367 36.2224C152.34 37.0001 153.58 37.361 154.816 37.2264C156.05 37.0818 157.179 36.456 157.957 35.4841C158.341 35.0004 158.626 34.4453 158.795 33.8506C158.963 33.2559 159.013 32.6335 158.941 32.0193C158.841 31.0917 158.467 30.2151 157.867 29.5012C157.268 28.7874 156.471 28.2687 155.576 28.0113C154.682 27.7539 153.732 27.7694 152.847 28.0559C151.962 28.3424 151.183 28.8869 150.607 29.6199C150.508 29.749 150.41 29.8779 150.323 30.0169C149.744 30.9237 149.496 32.0041 149.622 33.0738Z" fill="current"/>
<path d="M39.9464 125.318C40.7948 123.994 41.9219 122.872 43.2487 122.032C44.5755 121.192 46.0697 120.654 47.6263 120.455L70.1993 117.593C70.8577 117.246 71.4123 116.73 71.8061 116.098L77.0272 107.977C78.1271 111.051 79.9027 113.837 82.2222 116.128L79.198 120.882C78.1781 122.488 76.8222 123.851 75.2244 124.879C74.6638 125.223 74.0352 125.439 73.3824 125.514L48.936 128.63C48.2793 128.983 47.7258 129.502 47.3301 130.136L43.6755 135.743L36.2882 131.014L39.9464 125.318Z" fill="current"/>
<path d="M76.3881 126.64C75.5579 127.157 74.6242 127.486 73.6532 127.601L49.6744 130.678C49.4615 130.836 49.2808 131.034 49.1421 131.261L44.3518 138.764L35.206 127.698L38.1299 124.139C39.15 122.548 40.5051 121.201 42.0999 120.193C43.6947 119.185 45.4905 118.539 47.3611 118.302L69.4691 115.511C69.6768 115.347 69.8565 115.15 70.0014 114.928L77.5339 103.102L79.0297 107.164C80.0239 109.919 81.6219 112.415 83.7058 114.468L84.9677 115.693L80.9928 121.931C79.8123 123.814 78.2419 125.42 76.3881 126.64ZM76.724 112.396L73.6208 117.255C73.0245 118.2 72.194 118.972 71.2107 119.498L70.8653 119.691L47.9017 122.596C46.6541 122.751 45.456 123.18 44.3928 123.852C43.3297 124.525 42.4277 125.425 41.7512 126.487L39.2785 130.361L43.0465 132.763L45.5083 128.891C46.1113 127.948 46.9448 127.176 47.9294 126.648L48.2756 126.465L73.1136 123.317C73.449 123.286 73.7732 123.181 74.0627 123.008C75.3984 122.148 76.5333 121.009 77.3898 119.669L79.5133 116.341C78.4471 115.129 77.512 113.806 76.724 112.396Z" fill="current"/>
<path d="M39.9895 150.79C37.0136 151.778 33.7848 151.679 30.8735 150.51C27.9623 149.342 25.5561 147.178 24.08 144.403C22.6038 141.627 22.1528 138.418 22.8067 135.342C23.4606 132.267 25.1772 129.522 27.6533 127.595C30.1293 125.667 33.2054 124.679 36.3381 124.806C39.4707 124.934 42.4582 126.168 44.7728 128.291C47.0873 130.413 48.5799 133.288 48.9868 136.407C49.3937 139.526 48.6887 142.688 46.9964 145.334C45.3522 147.904 42.879 149.83 39.9895 150.79ZM31.4021 139.612C31.6938 140.496 32.2403 141.274 32.9723 141.847C33.7043 142.419 34.5891 142.762 35.5147 142.83C36.4404 142.898 37.3653 142.69 38.1725 142.231C38.9798 141.772 39.6331 141.083 40.0499 140.251C40.4667 139.42 40.6282 138.482 40.5141 137.558C40.3999 136.634 40.0152 135.765 39.4086 135.06C38.802 134.355 38.0007 133.846 37.1061 133.598C36.2115 133.349 35.2637 133.373 34.3826 133.665C33.3616 134.001 32.4889 134.683 31.9136 135.593C31.5265 136.179 31.2747 136.844 31.1768 137.541C31.0789 138.237 31.1373 138.946 31.3477 139.617L31.4021 139.612Z" fill="current"/>
<path d="M98.6328 33.1394C97.7909 34.4703 97.2499 35.9702 97.0478 37.5337C96.8457 39.0972 96.9875 40.6863 97.4633 42.1892L104.35 63.9439C104.299 64.6895 104.065 65.4107 103.669 66.0435L98.4481 74.1643C101.692 73.8753 104.96 74.3268 108.007 75.4848L111.042 70.7302C112.063 69.1272 112.728 67.3227 112.993 65.439C113.081 64.7877 113.027 64.1247 112.832 63.4967L105.414 39.9403C105.452 39.1942 105.682 38.4709 106.084 37.8417L109.72 32.1477L102.332 27.4072L98.6328 33.1394Z" fill="current"/>
<path d="M107.246 77.5361C104.498 76.4984 101.553 76.0956 98.629 76.3575L94.2786 76.7164L101.811 64.8895C101.954 64.6671 102.057 64.4205 102.112 64.1616L95.3711 42.8452C94.8012 41.0433 94.6315 39.1382 94.8742 37.2639C95.1168 35.3896 95.7657 33.5916 96.7755 31.9963L100.388 26.3263L111.395 33.3937L107.782 39.0528C107.64 39.2757 107.538 39.5221 107.481 39.7807L114.799 62.9061C115.089 63.8408 115.17 64.828 115.037 65.7976C114.725 67.988 113.95 70.0859 112.763 71.9504L108.789 78.1887L107.246 77.5361ZM102.92 30.4237L100.447 34.297C99.7734 35.3614 99.3403 36.5614 99.1786 37.8123C99.0169 39.0632 99.1307 40.3345 99.5119 41.5368L106.506 63.6672L106.539 64.06C106.474 65.1774 106.122 66.2587 105.517 67.1984L102.424 72.0565C104.026 72.1829 105.611 72.4793 107.151 72.9408L109.275 69.6127C110.127 68.2704 110.682 66.7597 110.902 65.183C110.951 64.8502 110.923 64.5104 110.82 64.1901L103.158 40.2033L103.18 39.8061C103.248 38.6895 103.6 37.6093 104.202 36.6677L106.674 32.7945L102.92 30.4237Z" fill="current"/>
<path d="M110.009 37.2432C107.007 37.5892 103.976 36.9003 101.415 35.2897C98.854 33.679 96.9148 31.2425 95.9162 28.3805C94.9176 25.5186 94.919 22.4015 95.9203 19.5415C96.9216 16.6815 98.8631 14.2489 101.426 12.6434C103.988 11.0379 107.02 10.355 110.022 10.7071C113.023 11.0591 115.817 12.4251 117.943 14.5806C120.07 16.736 121.402 19.5526 121.722 22.5675C122.042 25.5824 121.33 28.6162 119.703 31.1702C118.644 32.8466 117.223 34.2627 115.546 35.3139C113.868 36.365 111.976 37.0244 110.009 37.2432ZM103.85 24.5686C103.916 25.1836 104.103 25.7792 104.402 26.3206C104.7 26.8619 105.104 27.338 105.588 27.7208C106.313 28.3048 107.194 28.6594 108.12 28.7394C109.046 28.8194 109.974 28.6212 110.787 28.1701C111.6 27.719 112.26 27.0354 112.685 26.2062C113.109 25.377 113.277 24.4399 113.169 23.514C113.121 22.8827 112.947 22.2673 112.658 21.7048C112.368 21.1423 111.968 20.6442 111.481 20.2403C110.995 19.8364 110.433 19.535 109.828 19.3541C109.223 19.1732 108.588 19.1165 107.961 19.1875C107.334 19.2584 106.728 19.4556 106.178 19.7671C105.629 20.0786 105.148 20.4981 104.764 21.0004C104.381 21.5028 104.102 22.0777 103.945 22.6908C103.787 23.3039 103.755 23.9425 103.85 24.5686Z" fill="current"/>
<path d="M150.668 198.235L128.619 165.108C127.054 163.371 125.98 161.247 125.508 158.955C125.036 156.663 125.183 154.286 125.933 152.07C126.249 151.216 126.655 150.398 127.145 149.63L133.934 139.018L141.322 143.759L134.533 154.371C134.125 155.008 133.889 155.74 133.848 156.497C133.806 157.253 133.961 158.007 134.298 158.686L158.514 194.324C159.515 196.367 159.976 198.632 159.855 200.904C159.734 203.176 159.034 205.378 157.822 207.301L149.935 219.662L142.558 214.921L150.434 202.56C150.837 201.919 151.071 201.185 151.112 200.428C151.153 199.671 151 198.916 150.668 198.235Z" fill="current"/>
<path d="M139.985 214.891L148.554 201.408C148.746 201.094 148.86 200.739 148.889 200.372C148.918 200.005 148.86 199.636 148.719 199.296L126.833 166.42C125.031 164.395 123.804 161.923 123.28 159.261C122.756 156.598 122.954 153.844 123.854 151.286C124.225 150.291 124.701 149.338 125.273 148.444L133.182 136.015L144.189 143.072L136.269 155.502C136.077 155.811 135.961 156.163 135.932 156.526C135.903 156.89 135.961 157.255 136.102 157.592L160.219 193.085L160.372 193.347C161.536 195.722 162.071 198.357 161.927 200.999C161.782 203.641 160.963 206.201 159.547 208.433L150.978 221.916L139.985 214.891ZM132.482 159.901L132.329 159.65C131.83 158.635 131.601 157.509 131.663 156.38C131.725 155.251 132.077 154.157 132.684 153.205L138.288 144.415L134.528 141.979L128.925 150.78C128.516 151.417 128.176 152.097 127.91 152.808C127.281 154.657 127.162 156.642 127.564 158.554C127.967 160.466 128.876 162.234 130.197 163.671L152.416 196.992L152.557 197.244C153.054 198.257 153.282 199.381 153.22 200.508C153.157 201.635 152.806 202.727 152.201 203.678L143.626 217.174L147.387 219.621L155.962 206.125C156.968 204.541 157.556 202.725 157.669 200.849C157.782 198.974 157.418 197.1 156.61 195.404L132.482 159.901Z" fill="current"/>
<path d="M144.599 235.625C142.887 235.968 141.125 235.969 139.413 235.629C137.701 235.288 136.072 234.612 134.62 233.64C133.167 232.668 131.92 231.418 130.949 229.962C129.978 228.507 129.303 226.874 128.961 225.156C128.619 223.439 128.618 221.671 128.958 219.954C129.298 218.236 129.971 216.603 130.941 215.147C131.91 213.691 133.155 212.442 134.606 211.469C136.058 210.497 137.686 209.821 139.397 209.48C142.852 208.792 146.439 209.509 149.368 211.473C152.298 213.436 154.331 216.486 155.02 219.952C155.71 223.418 154.999 227.016 153.045 229.955C151.091 232.894 148.053 234.933 144.599 235.625ZM137.42 223.474C137.604 224.387 138.052 225.224 138.71 225.882C139.367 226.539 140.204 226.986 141.114 227.166C142.025 227.346 142.968 227.252 143.824 226.895C144.681 226.537 145.412 225.933 145.927 225.159C146.441 224.385 146.715 223.474 146.714 222.544C146.712 221.613 146.436 220.703 145.92 219.93C145.403 219.156 144.67 218.553 143.813 218.197C142.955 217.841 142.012 217.748 141.102 217.93C140.497 218.05 139.921 218.289 139.408 218.633C138.896 218.977 138.456 219.419 138.114 219.934L138.12 220.011C137.442 221.028 137.191 222.272 137.42 223.474Z" fill="current"/>
<path d="M211.805 102.174L172.586 95.9947C170.363 95.3035 167.997 95.2188 165.731 95.7495C163.465 96.2801 161.382 97.4069 159.695 99.0138C159.053 99.6621 158.484 100.38 157.999 101.153L151.209 111.754L158.586 116.496L165.375 105.884C165.781 105.244 166.345 104.72 167.012 104.365C167.679 104.009 168.428 103.834 169.183 103.856L211.588 110.958C213.853 111.013 216.094 110.484 218.097 109.42C220.099 108.357 221.795 106.795 223.022 104.884L231.399 91.7302L224.022 86.9889L215.622 100.134C215.214 100.774 214.648 101.297 213.979 101.654C213.311 102.012 212.562 102.19 211.805 102.174Z" fill="current"/>
<path d="M211.535 113.105L169.01 106.001C168.646 106.014 168.291 106.114 167.974 106.293C167.657 106.472 167.388 106.725 167.189 107.03L159.28 119.46L148.273 112.403L156.193 99.9729C156.769 99.0797 157.434 98.2481 158.179 97.4911C160.113 95.6043 162.518 94.2735 165.141 93.6377C167.764 93.002 170.509 93.0846 173.09 93.8769L212.021 100.014C212.386 99.9985 212.743 99.8962 213.061 99.7152C213.38 99.5342 213.65 99.2796 213.851 98.9727L222.58 85.2379L233.587 92.2944L224.858 106.029C223.429 108.256 221.453 110.076 219.12 111.315C216.786 112.554 214.175 113.17 211.535 113.105ZM224.586 90.1308L217.462 101.333C216.855 102.283 216.013 103.06 215.019 103.588C214.025 104.117 212.912 104.379 211.787 104.35L172.281 98.1401L172.025 98.0844C170.177 97.4935 168.204 97.4108 166.314 97.845C164.424 98.2792 162.685 99.2144 161.278 100.553C160.743 101.092 160.267 101.688 159.859 102.329L154.255 111.119L158.013 113.533L163.617 104.743C164.224 103.79 165.066 103.01 166.062 102.479C167.058 101.949 168.174 101.685 169.302 101.715L211.839 108.828C213.713 108.849 215.562 108.393 217.212 107.501C218.862 106.61 220.26 105.313 221.273 103.732L228.398 92.5298L224.586 90.1308Z" fill="current"/>
<path d="M233.283 97.0617C230.729 97.6746 228.05 97.5145 225.586 96.6016C223.122 95.6888 220.982 94.064 219.436 91.9325C217.891 89.801 217.009 87.2583 216.903 84.6254C216.797 81.9925 217.47 79.3874 218.839 77.139C219.746 75.6348 220.945 74.3288 222.364 73.2984C223.784 72.2679 225.396 71.5339 227.104 71.1399C230.529 70.3157 234.142 70.8905 237.146 72.7379C240.151 74.5852 242.301 77.5538 243.125 80.9906C243.949 84.4275 243.378 88.0512 241.538 91.0645C239.699 94.0779 236.741 96.2341 233.316 97.059L233.283 97.0617ZM226.178 81.6857C225.853 82.212 225.636 82.7981 225.54 83.4097C225.444 84.0213 225.47 84.646 225.618 85.2474C225.872 86.3021 226.481 87.2366 227.343 87.8928C228.204 88.549 229.265 88.8867 230.346 88.8487C231.427 88.8107 232.461 88.3993 233.274 87.6842C234.087 86.969 234.629 85.994 234.807 84.9241C234.986 83.8541 234.791 82.7549 234.255 81.8123C233.719 80.8698 232.875 80.1418 231.865 79.7514C230.856 79.361 229.744 79.3322 228.716 79.67C227.688 80.0077 226.809 80.6912 226.226 81.6048L226.178 81.6857Z" fill="current"/>
<path d="M62.0178 63.6907C61.0071 63.0395 59.8785 62.5943 58.6965 62.3806C57.5146 62.1669 56.3023 62.1888 55.1291 62.4452C53.9558 62.7015 52.8445 63.1873 51.8586 63.8746C50.8727 64.562 50.0315 65.4376 49.3831 66.4513C48.7347 67.465 48.2918 68.597 48.0796 69.7827C47.8675 70.9684 47.8903 72.1845 48.1467 73.3617C48.4031 74.5388 48.888 75.6538 49.574 76.6431C50.2599 77.6324 51.1332 78.4765 52.1442 79.1273C53.2151 79.8101 54.4167 80.2599 55.6714 80.4478C56.9262 80.6357 58.2061 80.5574 59.4285 80.2181C57.5586 84.9323 56.8086 90.0191 57.2379 95.0757C52.9842 95.1087 48.8 93.9885 45.1273 91.8334C41.4546 89.6784 38.4298 86.5684 36.3724 82.8322C34.315 79.096 33.3014 74.8721 33.4387 70.607C33.5761 66.3418 34.8592 62.1936 37.1526 58.6007C39.4459 55.0077 42.6644 52.1035 46.468 50.1946C50.2716 48.2858 54.519 47.4433 58.7616 47.7561C63.0041 48.069 67.0843 49.5255 70.5711 51.9719C74.0578 54.4183 76.8217 57.7638 78.5707 61.6548C73.8152 63.3749 69.5283 66.1893 66.0538 69.8722C65.8466 68.617 65.3807 67.419 64.6857 66.3546C63.9907 65.2901 63.082 64.3828 62.0178 63.6907Z" fill="current"/>
<path d="M41.4623 21.8614C40.9351 22.692 40.5966 23.6289 40.4709 24.6056C40.3453 25.5824 40.4354 26.575 40.7351 27.5131L45.0316 41.0994C45.003 41.5657 44.8555 42.0167 44.6031 42.4092L43.7995 43.6839C43.5648 44.0493 43.4218 44.4664 43.3827 44.8994C43.3437 45.3325 43.4098 45.7686 43.5753 46.1706C43.7408 46.5726 44.0009 46.9284 44.3332 47.2077C44.6656 47.487 45.0603 47.6814 45.4838 47.7744L45.5381 47.7699C46.0787 47.8949 46.6445 47.8496 47.1583 47.6401C47.672 47.4306 48.1088 47.0671 48.409 46.5993L49.2145 45.3464C49.8537 44.345 50.2686 43.2163 50.4307 42.0382C50.4847 41.632 50.4506 41.2188 50.3308 40.827L45.6669 26.1065C45.6955 25.6402 45.843 25.1892 46.0954 24.7968L46.8991 23.522C47.2848 22.9172 47.4159 22.1835 47.2636 21.4816C47.1113 20.7797 46.688 20.1668 46.0864 19.7771C45.7875 19.5845 45.4537 19.453 45.1042 19.3902C44.7546 19.3274 44.3961 19.3345 44.0493 19.411C43.7026 19.4876 43.3744 19.6322 43.0835 19.8365C42.7927 20.0407 42.545 20.3006 42.3547 20.6013L41.4623 21.8614Z" fill="current"/>
<path d="M172.793 115.752C175.45 117.435 177.71 119.676 179.419 122.322C181.127 124.968 182.241 127.954 182.686 131.074C183.872 137.387 182.578 143.914 179.075 149.289C177.338 152.067 175.064 154.469 172.387 156.351C169.711 158.234 166.685 159.56 163.489 160.252C160.294 160.943 156.992 160.986 153.778 160.378C150.565 159.77 147.505 158.523 144.778 156.711L84.8634 117.349C83.9714 116.84 83.1965 116.148 82.589 115.318C81.9815 114.488 81.5552 113.539 81.3378 112.532C81.1205 111.526 81.117 110.485 81.3276 109.478C81.5382 108.471 81.9582 107.519 82.5601 106.686C83.0827 105.794 83.78 105.017 84.6101 104.403C85.4402 103.789 86.3858 103.35 87.3899 103.112C88.3963 102.891 89.4378 102.882 90.4481 103.086C91.4584 103.29 92.4154 103.703 93.2584 104.298L153.19 143.735C154.218 144.415 155.371 144.883 156.581 145.11C157.791 145.336 159.033 145.318 160.236 145.056C161.439 144.794 162.577 144.294 163.584 143.584C164.59 142.874 165.445 141.97 166.098 140.923C166.773 139.905 167.23 138.757 167.442 137.552C167.654 136.348 167.615 135.112 167.328 133.923C167.082 132.727 166.599 131.594 165.907 130.59C165.214 129.586 164.327 128.733 163.298 128.081" fill="current"/>
<path d="M148.513 99.7936C148.598 99.8479 148.686 99.8957 148.777 99.9367L148.513 99.7936Z" fill="current"/>
<path d="M141.662 113.772C141.467 113.657 141.263 113.575 141.055 113.449L141.662 113.772Z" fill="current"/>
<path d="M141.412 83.2639C144.308 85.1249 146.589 87.8053 147.967 90.9661C149.345 94.1269 149.758 97.6262 149.154 101.021C148.55 104.417 146.956 107.556 144.573 110.041C142.191 112.526 139.126 114.247 135.768 114.985C132.41 115.723 128.908 115.445 125.706 114.187C122.504 112.929 119.746 110.746 117.779 107.916C115.813 105.085 114.727 101.734 114.658 98.2853C114.59 94.8367 115.543 91.4457 117.396 88.5412C119.894 84.6618 123.82 81.9306 128.318 80.9422C132.816 79.9538 137.522 80.7882 141.412 83.2639ZM135.591 92.3459C134.484 91.6342 133.191 91.2678 131.876 91.2932C130.562 91.3186 129.284 91.7346 128.206 92.4886C127.127 93.2426 126.296 94.3006 125.818 95.5289C125.339 96.7572 125.234 98.1006 125.517 99.3889C125.799 100.677 126.457 101.853 127.405 102.767C128.354 103.681 129.551 104.292 130.845 104.524C132.14 104.755 133.474 104.596 134.678 104.067C135.882 103.537 136.902 102.662 137.61 101.55C138.561 100.065 138.887 98.2618 138.514 96.5357C138.142 94.8096 137.102 93.3019 135.624 92.3432L135.591 92.3459Z" fill="current"/>
<path d="M153.417 143.431C154.437 144.098 155.581 144.552 156.781 144.765C157.98 144.977 159.21 144.944 160.396 144.668C161.593 144.44 162.729 143.965 163.733 143.273C164.738 142.581 165.587 141.688 166.229 140.649C166.913 139.623 167.38 138.467 167.601 137.253C167.823 136.039 167.795 134.792 167.519 133.588C167.275 132.382 166.785 131.239 166.08 130.231C165.375 129.223 164.47 128.372 163.422 127.731L141.662 113.772C143.248 114.708 145.125 115.012 146.923 114.624C147.925 114.375 148.867 113.928 149.694 113.309C150.521 112.69 151.216 111.911 151.739 111.018C152.339 110.183 152.755 109.231 152.962 108.223C153.169 107.214 153.162 106.174 152.94 105.169C152.719 104.163 152.289 103.216 151.677 102.389C151.066 101.562 150.288 100.874 149.393 100.369L148.78 99.9694C148.896 100.048 149.019 100.081 149.135 100.16L171.739 114.663C174.515 116.399 176.917 118.674 178.804 121.354C180.691 124.034 182.024 127.066 182.727 130.27C183.429 133.474 183.485 136.787 182.892 140.012C182.299 143.238 181.069 146.312 179.274 149.053C175.855 154.494 170.466 158.392 164.239 159.928C161.218 160.824 158.038 161.048 154.92 160.584C151.803 160.121 148.824 158.98 146.191 157.243L153.417 143.431Z" fill="current"/>
<path d="M107.905 92.1695L99.3493 86.6796C98.3243 86.0086 97.1765 85.549 95.9729 85.3274C94.7692 85.1059 93.5338 85.1268 92.3385 85.389C91.1433 85.6512 90.0121 86.1495 89.011 86.8547C88.0099 87.56 87.1588 88.4581 86.5073 89.4969C85.8247 90.5082 85.3607 91.6516 85.1449 92.8538C84.9292 94.0559 84.9666 95.2902 85.2546 96.4773C85.5175 97.6713 86.0183 98.7997 86.727 99.7947C87.4358 100.79 88.3378 101.631 89.3787 102.267L131.005 128.999C131.881 129.539 132.64 130.251 133.236 131.091C133.832 131.932 134.252 132.885 134.473 133.893C134.693 134.9 134.708 135.942 134.517 136.955C134.326 137.969 133.934 138.933 133.363 139.79C132.843 140.681 132.146 141.453 131.314 142.059C130.482 142.664 129.533 143.09 128.528 143.309C127.518 143.509 126.479 143.502 125.471 143.289C124.464 143.076 123.51 142.661 122.666 142.068L80.9846 115.33C78.2498 113.572 75.8866 111.291 74.03 108.618C72.1734 105.945 70.8599 102.931 70.1644 99.7484C69.469 96.5661 69.4052 93.278 69.9767 90.0717C70.5483 86.8654 71.7439 83.8038 73.4954 81.0618C75.2469 78.3198 77.52 75.9512 80.1847 74.0912C82.8493 72.2311 85.8535 70.9162 89.0254 70.2215C92.1974 69.5267 95.4751 69.4658 98.6712 70.0422C101.867 70.6185 104.919 71.8209 107.653 73.5806L115.909 78.8866C113.389 80.4242 111.305 82.5859 109.857 85.1644C108.566 87.3033 108.249 89.8341 107.905 92.1695Z" fill="current"/>
<path d="M146.084 108.31C147.684 105.81 148.613 102.937 148.78 99.9694L149.393 100.369C150.288 100.874 151.066 101.562 151.677 102.389C152.289 103.216 152.719 104.163 152.94 105.169C153.162 106.174 153.169 107.215 152.962 108.223C152.755 109.231 152.339 110.183 151.739 111.019C151.216 111.911 150.521 112.69 149.694 113.309C148.867 113.928 147.925 114.375 146.923 114.624C145.125 115.012 143.248 114.708 141.662 113.772L141.095 113.402C143.097 112.076 144.797 110.341 146.084 108.31Z" fill="current"/>
<path d="M141.095 113.402L140.794 113.207C139.905 112.687 139.132 111.987 138.526 111.152C137.92 110.317 137.493 109.365 137.273 108.356C137.077 107.34 137.086 106.295 137.3 105.283C137.513 104.271 137.927 103.312 138.517 102.464C139.032 101.577 139.72 100.805 140.541 100.193C141.362 99.5814 142.299 99.1435 143.294 98.906C145.083 98.5481 146.941 98.8642 148.513 99.7936L148.78 99.9693C148.628 102.65 147.858 105.258 146.53 107.589C145.202 109.919 143.353 111.908 141.128 113.399L141.095 113.402Z" fill="current"/>
</svg>
