<svg width="342" height="263" viewBox="0 0 342 263" fill="none" xmlns="http://www.w3.org/2000/svg">
<path d="M96.3297 216.504L135.459 193.913C136.59 193.253 137.577 192.372 138.361 191.322C139.145 190.273 139.71 189.076 140.023 187.804L149.424 152.722L233.337 104.274C238.736 108.897 245.596 111.463 252.703 111.517C259.811 111.57 266.708 109.109 272.176 104.568C277.644 100.026 281.33 93.6979 282.582 86.7012C283.834 79.7046 282.571 72.4905 279.017 66.335C275.463 60.1795 269.847 55.479 263.162 53.0649C256.477 50.6507 249.153 50.6785 242.486 53.1431C235.82 55.6078 230.239 60.3506 226.732 66.5329C223.225 72.7151 222.017 79.9385 223.321 86.9255L136.357 137.134C135.225 137.794 134.238 138.675 133.454 139.725C132.669 140.774 132.105 141.971 131.793 143.243L122.426 178.201L87.1097 198.591C82.9114 195.037 77.8174 192.706 72.384 191.852C66.9506 190.997 61.3868 191.652 56.3005 193.745C51.2141 195.838 46.8008 199.289 43.5426 203.72C40.2843 208.151 38.3064 213.392 37.8249 218.872C37.3435 224.351 38.3768 229.857 40.8124 234.788C43.2479 239.72 46.9919 243.887 51.6353 246.835C56.2787 249.783 61.6429 251.398 67.142 251.505C72.6411 251.611 78.0637 250.204 82.8174 247.437C93.3027 241.383 98.5422 228.445 96.2563 216.377L96.3297 216.504ZM243.978 86.565C242.966 84.848 242.488 82.8684 242.605 80.8787C242.722 78.889 243.429 76.9793 244.636 75.393C245.843 73.8068 247.495 72.616 249.382 71.9723C251.268 71.3286 253.303 71.2613 255.228 71.779C257.153 72.2966 258.88 73.3758 260.189 74.8788C261.498 76.3818 262.33 78.2406 262.578 80.2182C262.827 82.1959 262.481 84.2027 261.584 85.9828C260.687 87.7629 259.281 89.2357 257.544 90.2134C255.253 91.4922 252.554 91.8265 250.02 91.1451C247.486 90.4637 245.318 88.8204 243.978 86.565ZM58.2246 226.854C57.2341 225.139 56.7745 223.168 56.9041 221.191C57.0336 219.214 57.7465 217.32 58.9525 215.749C60.1584 214.177 61.8033 212.998 63.6792 212.362C65.5551 211.725 67.5776 211.659 69.4911 212.171C71.4046 212.684 73.123 213.753 74.4292 215.242C75.7353 216.731 76.5706 218.575 76.8291 220.539C77.0877 222.503 76.758 224.499 75.8819 226.276C75.0057 228.053 73.6224 229.53 71.9068 230.52C69.604 231.839 66.8733 232.193 64.3103 231.506C61.7472 230.82 59.5597 229.147 58.2246 226.854Z" fill="#0A5908"/>
<path d="M265.917 28.2929C255.4 21.0836 251.282 20.1144 250.133 21.0956C246.685 23.6367 248.053 33.9676 250.721 40.7522C251.08 41.7934 251.551 42.793 252.124 43.7336C252.122 43.763 252.129 43.7923 252.143 43.8178C252.158 43.8433 252.18 43.8638 252.207 43.8766C252.326 44.0831 252.5 44.385 252.629 44.6074L252.724 44.5523C253.723 45.7854 254.985 46.7802 256.417 47.4643C257.85 48.1483 259.417 48.5044 261.004 48.5065C262.591 48.5087 264.159 48.157 265.593 47.4768C267.027 46.7967 268.292 45.8053 269.295 44.5749C270.298 43.3445 271.013 41.9059 271.39 40.364C271.767 38.8221 271.795 37.2156 271.472 35.6614C271.15 34.1072 270.485 32.6444 269.526 31.3796C268.567 30.1147 267.338 29.0797 265.929 28.3497L265.917 28.2929Z" fill="#0A5908"/>
<path d="M286.684 32.9309C285.118 33.0244 283.591 33.4621 282.213 34.2128C280.835 34.9635 279.639 36.0087 278.711 37.2741C277.783 38.5395 277.146 39.9939 276.844 41.5339C276.542 43.0738 276.583 44.6614 276.964 46.1836C277.346 47.7058 278.058 49.1252 279.051 50.3408C280.043 51.5564 281.291 52.5382 282.706 53.2164C284.122 53.8946 285.669 54.2525 287.238 54.2646C288.807 54.2767 290.36 53.9427 291.785 53.2864L291.831 53.3659C292.038 53.2466 292.34 53.0723 292.562 52.944C292.588 52.9462 292.615 52.9403 292.637 52.9272C292.66 52.914 292.678 52.8942 292.689 52.8704C293.608 52.2629 294.458 51.5589 295.226 50.7703C300.53 45.7591 306.169 36.9966 304.159 33.2216C303.534 31.8454 299.407 31.0084 286.797 33.0145L286.684 32.9309Z" fill="#0A5908"/>
</svg>
