<svg width="343" height="254" viewBox="0 0 343 254" fill="none" xmlns="http://www.w3.org/2000/svg">
<path d="M260.931 213.823C259.015 224.05 263.51 235.019 272.381 240.286C276.444 242.679 281.088 243.908 285.803 243.835C290.517 243.763 295.121 242.393 299.109 239.876C303.096 237.359 306.313 233.792 308.406 229.566C310.499 225.34 311.388 220.62 310.974 215.923C310.56 211.225 308.86 206.733 306.061 202.938C303.261 199.144 299.47 196.194 295.104 194.413C290.738 192.631 285.965 192.087 281.31 192.84C276.655 193.594 272.298 195.615 268.716 198.682L238.654 181.325L230.645 151.435C230.379 150.351 229.898 149.331 229.23 148.437C228.561 147.542 227.72 146.792 226.756 146.23L100.74 73.4743C101.851 67.5214 100.822 61.3671 97.8339 56.0998C94.8458 50.8325 90.0912 46.7916 84.4111 44.6917C78.731 42.5918 72.4913 42.5682 66.7954 44.6251C61.0996 46.6819 56.3146 50.6868 53.2867 55.9313C50.2588 61.1758 49.183 67.3221 50.2496 73.2833C51.3162 79.2445 54.4565 84.6364 59.1152 88.5056C63.7738 92.3748 69.6506 94.4719 75.7063 94.426C81.7619 94.3802 87.6063 92.1944 92.2059 88.2552L215.65 159.526L223.659 189.416C223.926 190.5 224.407 191.519 225.075 192.414C225.743 193.308 226.584 194.059 227.548 194.621L260.886 213.869L260.931 213.823ZM71.5741 76.2892C70.1076 75.4461 68.9242 74.187 68.1736 72.671C67.423 71.1551 67.139 69.4506 67.3575 67.7732C67.576 66.0958 68.2871 64.5209 69.401 63.2479C70.5149 61.9748 71.9814 61.0608 73.6149 60.6215C75.2484 60.1822 76.9756 60.2373 78.5777 60.78C80.1799 61.3226 81.5851 62.3283 82.6155 63.6699C83.6458 65.0114 84.2551 66.6285 84.3661 68.3164C84.4771 70.0043 84.0849 71.6872 83.2391 73.1522C82.1009 75.1072 80.2367 76.5336 78.0521 77.1211C75.8675 77.7086 73.5393 77.4096 71.5741 76.2892ZM281.74 225.764C280.278 224.92 279.099 223.662 278.353 222.148C277.606 220.634 277.325 218.933 277.546 217.26C277.766 215.587 278.478 214.016 279.59 212.747C280.703 211.478 282.167 210.568 283.798 210.131C285.428 209.694 287.151 209.75 288.749 210.293C290.348 210.836 291.749 211.84 292.777 213.179C293.804 214.518 294.411 216.132 294.522 217.816C294.632 219.5 294.241 221.179 293.397 222.641C292.259 224.594 290.395 226.019 288.212 226.604C286.028 227.189 283.702 226.888 281.74 225.764Z" fill="#0A5908"/>
<path d="M140.877 137.399C135.893 139.592 128.229 140.925 126.191 138.485C125.46 137.594 126.1 134.516 131.151 126.424C131.716 125.211 132.581 124.164 133.666 123.382C135.325 122.175 137.385 121.654 139.417 121.927C141.45 122.201 143.3 123.247 144.581 124.849C145.862 126.451 146.476 128.485 146.295 130.528C146.115 132.572 145.154 134.467 143.612 135.819L143.68 135.858L143.187 136.242C143.179 136.234 143.168 136.229 143.157 136.225C143.146 136.222 143.134 136.222 143.122 136.224C143.111 136.226 143.1 136.23 143.09 136.237C143.081 136.244 143.073 136.253 143.067 136.263C142.409 136.766 141.668 137.151 140.877 137.399Z" fill="#0A5908"/>
<path d="M64.5392 23.5177C73.4997 17.3753 77.0298 16.5438 78.0089 17.3799C80.9382 19.5584 79.7669 28.339 77.4865 34.1331C77.1879 35.0233 76.7866 35.8757 76.2907 36.6732C76.2955 36.6957 76.2917 36.7193 76.2801 36.7393C76.2686 36.7592 76.2501 36.7743 76.2282 36.7815C76.1266 36.9574 75.9781 37.2146 75.8687 37.4041C74.4463 39.18 72.4071 40.355 70.1573 40.6949C67.9075 41.0348 65.6122 40.5147 63.7286 39.2383C61.7361 37.8841 60.3573 35.7994 59.891 33.4358C59.4247 31.0722 59.9085 28.62 61.2375 26.6106C62.0817 25.3379 63.2384 24.303 64.597 23.6052L64.5392 23.5177Z" fill="#0A5908"/>
<path d="M46.8666 27.4636C48.3886 27.522 49.8705 27.9676 51.1723 28.7583C53.1644 29.9702 54.6151 31.9007 55.2248 34.1514C55.8344 36.402 55.5565 38.8009 54.4485 40.8525C53.3404 42.9041 51.4867 44.4519 49.2703 45.1762C47.0539 45.9005 44.644 45.746 42.5382 44.7445L42.4913 44.8258C42.3018 44.7164 42.0447 44.5679 41.8552 44.4585C41.8326 44.4632 41.809 44.4594 41.7891 44.4479C41.7691 44.4364 41.7541 44.4179 41.7469 44.3959C40.96 43.8846 40.2348 43.2842 39.5855 42.6067C35.0662 38.3371 30.2683 30.8928 31.9751 27.6551C32.4941 26.4749 36.0236 25.7694 46.7676 27.4787L46.8666 27.4636Z" fill="#0A5908"/>
</svg>
