<svg width="80" height="194" viewBox="0 0 80 194" fill="none" xmlns="http://www.w3.org/2000/svg">
<path d="M58.1375 167.078V146.128C58.1355 145.521 58.0108 144.921 57.7711 144.363C57.5314 143.806 57.1815 143.303 56.7425 142.884L44.868 131.009V53.4262C47.9788 52.3304 50.6018 50.1698 52.2731 47.3265C53.9444 44.4831 54.5563 41.1403 54.0005 37.8894C53.4446 34.6384 51.757 31.6888 49.236 29.5622C46.715 27.4356 43.5231 26.2692 40.2249 26.2692C36.9268 26.2692 33.7349 27.4356 31.2139 29.5622C28.6929 31.6888 27.0052 34.6384 26.4494 37.8894C25.8936 41.1403 26.5055 44.4831 28.1768 47.3265C29.8481 50.1698 32.4711 52.3304 35.5819 53.4262V132.615C35.5828 133.223 35.7069 133.824 35.9466 134.383C36.1864 134.942 36.5369 135.447 36.9769 135.867L48.8514 147.741V166.625C46.4475 167.484 44.3263 168.988 42.7196 170.972C41.1128 172.956 40.0824 175.344 39.7409 177.874C39.3994 180.404 39.7601 182.979 40.7834 185.318C41.8067 187.657 43.4533 189.669 45.5432 191.135C47.6331 192.602 50.0859 193.465 52.6335 193.632C55.181 193.798 57.7252 193.261 59.9881 192.079C62.2509 190.897 64.1452 189.115 65.464 186.929C66.7828 184.743 67.4752 182.237 67.4657 179.684C67.4657 174.062 63.4823 168.961 58.1375 167.078ZM40.1955 45.0476C39.2764 45.0476 38.3779 44.7751 37.6137 44.2644C36.8494 43.7538 36.2538 43.0279 35.902 42.1788C35.5503 41.3296 35.4583 40.3952 35.6376 39.4937C35.8169 38.5922 36.2595 37.7642 36.9095 37.1142C37.5594 36.4643 38.3874 36.0217 39.2889 35.8424C40.1904 35.6631 41.1248 35.7551 41.974 36.1069C42.8232 36.4586 43.549 37.0543 44.0596 37.8185C44.5703 38.5827 44.8428 39.4812 44.8428 40.4004C44.8384 41.6316 44.3473 42.811 43.4768 43.6816C42.6062 44.5521 41.4267 45.0432 40.1955 45.0476ZM53.465 184.785C52.5459 184.785 51.6474 184.512 50.8832 184.002C50.1189 183.491 49.5233 182.765 49.1715 181.916C48.8198 181.067 48.7277 180.133 48.9071 179.231C49.0864 178.33 49.529 177.502 50.1789 176.852C50.8289 176.202 51.6569 175.759 52.5584 175.58C53.4599 175.4 54.3943 175.492 55.2435 175.844C56.0927 176.196 56.8185 176.792 57.3291 177.556C57.8398 178.32 58.1123 179.219 58.1123 180.138C58.1079 181.369 57.6168 182.548 56.7463 183.419C55.8757 184.29 54.6962 184.781 53.465 184.785Z" fill="current"/>
<path d="M61.8368 133.27C65.4167 130.631 69.459 125.782 68.5598 123.354C68.2236 122.471 65.7949 121.673 58.0383 121.934C57.0729 121.846 56.1001 121.976 55.1913 122.313C54.2826 122.65 53.4608 123.187 52.7863 123.883C52.1118 124.579 51.6017 125.418 51.2933 126.337C50.9849 127.256 50.8861 128.232 51.0041 129.194C51.1222 130.156 51.454 131.08 51.9754 131.897C52.4967 132.714 53.1944 133.404 54.0171 133.917C54.8399 134.429 55.767 134.751 56.7303 134.859C57.6937 134.967 58.6689 134.857 59.5846 134.539V134.607C59.7189 134.539 59.9207 134.472 60.0552 134.405C60.0551 134.396 60.0569 134.387 60.0603 134.379C60.0636 134.371 60.0686 134.363 60.0749 134.357C60.0811 134.351 60.0885 134.346 60.0967 134.343C60.1049 134.339 60.1137 134.337 60.1225 134.337C60.7394 134.076 61.3077 133.713 61.8033 133.262L61.8368 133.27Z" fill="current"/>
<path d="M61.836 113.975C65.416 111.345 69.4582 106.487 68.559 104.059C68.2228 103.218 65.7942 102.378 58.0375 102.647C56.9502 102.556 55.8577 102.741 54.8609 103.185C54.0747 103.525 53.3645 104.019 52.7721 104.638C52.1798 105.257 51.7173 105.988 51.4119 106.788C51.1064 107.588 50.9643 108.442 50.9937 109.298C51.0232 110.154 51.2237 110.996 51.5834 111.773C52.2402 113.256 53.4283 114.439 54.9138 115.089C56.3992 115.739 58.0743 115.809 59.609 115.286V115.353C59.7433 115.286 59.9452 115.219 60.0796 115.152C60.0796 115.143 60.0813 115.134 60.0847 115.126C60.0881 115.118 60.093 115.11 60.0993 115.104C60.1055 115.098 60.113 115.093 60.1212 115.089C60.1293 115.086 60.1381 115.084 60.1469 115.084C60.7643 114.82 61.3325 114.454 61.8277 114L61.836 113.975Z" fill="current"/>
<path d="M49.3048 11.8446C46.6493 2.52489 44.7584 0.00376717 43.6407 0.00376717C40.3969 -0.181089 36.195 6.47465 34.4555 11.7186C34.1537 12.4992 33.9395 13.311 33.8168 14.1389C33.8065 14.1416 33.7969 14.1466 33.7886 14.1533C33.7804 14.1601 33.7736 14.1685 33.7689 14.178C33.7641 14.1876 33.7614 14.198 33.7609 14.2087C33.7605 14.2193 33.7623 14.23 33.7663 14.2399C33.7663 14.4247 33.7662 14.6936 33.7075 14.8785H33.7914C33.7516 16.899 34.474 18.8603 35.8147 20.3724C37.1555 21.8844 39.0163 22.8362 41.027 23.0386C42.4232 23.1835 43.8331 22.9627 45.1183 22.3979C46.4034 21.8331 47.5195 20.9438 48.357 19.8173C49.1945 18.6907 49.7245 17.3657 49.8951 15.9724C50.0656 14.579 49.8709 13.1653 49.3299 11.87L49.3048 11.8446Z" fill="current"/>
<path d="M23.3044 15.6514C14.3041 12.1134 11.119 12.063 10.4383 12.979C8.32057 15.4413 11.0602 22.8198 14.1696 27.3914C14.6041 28.1044 15.1202 28.7644 15.7075 29.3579C15.702 29.3682 15.699 29.3796 15.6987 29.3912C15.6984 29.4029 15.7008 29.4145 15.7057 29.425C15.7105 29.4356 15.7178 29.4449 15.7269 29.4522C15.736 29.4595 15.7466 29.4646 15.758 29.4671C15.8841 29.6015 16.0941 29.7698 16.2285 29.9041V29.82C17.8125 31.0928 19.8196 31.7189 21.8463 31.5723C23.873 31.4258 25.7691 30.5175 27.1534 29.03C28.1164 28.0086 28.7971 26.7543 29.1287 25.3903C29.4603 24.0263 29.4315 22.5995 29.0449 21.25C28.6584 19.9006 27.9275 18.6748 26.924 17.6932C25.9205 16.7117 24.679 16.0079 23.3213 15.6513L23.3044 15.6514Z" fill="current"/>
<path d="M10.9334 35.0056C2.11786 38.9638 -0.159551 41.2076 0.00850229 42.3336C0.285786 45.5691 7.47945 48.7709 12.9166 49.7542C13.744 49.9407 14.5897 50.0337 15.4378 50.0314C15.447 50.0512 15.4635 50.0667 15.4839 50.0746C15.5043 50.0824 15.5269 50.0819 15.547 50.0733C15.7405 50.0733 16.0008 50.0733 16.1857 50.0733V49.9978C17.3759 49.8416 18.5163 49.4223 19.5243 48.7704C20.5322 48.1185 21.3823 47.2503 22.0129 46.2288C22.6435 45.2074 23.0387 44.0584 23.1698 42.8652C23.3009 41.672 23.1647 40.4645 22.771 39.3306C22.3772 38.1966 21.736 37.1645 20.8936 36.3092C20.0513 35.454 19.0291 34.7971 17.9012 34.3862C16.7734 33.9753 15.5681 33.8206 14.3731 33.9336C13.178 34.0465 12.0231 34.4242 10.9922 35.0392L10.9334 35.0056Z" fill="current"/>
<path d="M15.9092 57.0484C12.4384 66.0741 12.4048 69.2674 13.3292 69.9397C15.8 72.0407 23.1616 69.2506 27.7164 66.1076C28.4255 65.668 29.0824 65.1492 29.6745 64.5614C29.6844 64.5653 29.695 64.567 29.7056 64.5665C29.7162 64.5661 29.7266 64.5634 29.7361 64.5586C29.7456 64.5538 29.754 64.5471 29.7608 64.5389C29.7675 64.5307 29.7724 64.5211 29.7752 64.5109C29.9096 64.3765 30.0779 64.1663 30.2122 64.0403H30.128C31.3799 62.4537 31.9886 60.4539 31.8329 58.4389C31.6772 56.4238 30.7685 54.5413 29.2877 53.1658C28.2629 52.2031 27.0049 51.524 25.6378 51.1954C24.2707 50.8669 22.8415 50.9002 21.4911 51.292C20.1408 51.6839 18.9158 52.4208 17.937 53.4302C16.9581 54.4396 16.2594 55.6867 15.9092 57.0484Z" fill="current"/>
<path d="M52.782 66.8641C61.0849 71.8223 64.2195 72.3937 65.0431 71.5954C67.5642 69.5197 66.0347 61.7882 63.7153 56.7712C63.4052 55.9957 63.0046 55.2594 62.5219 54.5778C62.5373 54.5621 62.5459 54.541 62.5459 54.5191C62.5459 54.4971 62.5373 54.476 62.5219 54.4603C62.4127 54.3091 62.2361 54.1158 62.1269 53.9561L62.085 54.0317C60.7294 52.526 58.8555 51.5874 56.8379 51.4036C54.8203 51.2197 52.8076 51.8041 51.2022 53.04C49.5056 54.3451 48.3924 56.2669 48.1044 58.388C47.8165 60.5091 48.377 62.6581 49.6643 64.3683C50.4774 65.4619 51.5564 66.3297 52.7989 66.8894L52.782 66.8641Z" fill="current"/>
<path d="M67.886 50.5096C77.2981 48.291 79.9537 46.5178 79.9873 45.3749C80.3235 42.1478 73.8694 37.6434 68.7095 35.6517C67.947 35.3169 67.1492 35.0689 66.3313 34.9122C66.3295 34.9012 66.3253 34.8907 66.3189 34.8815C66.3126 34.8723 66.3043 34.8646 66.2947 34.859C66.285 34.8534 66.2742 34.85 66.2631 34.849C66.2519 34.8481 66.2407 34.8496 66.2303 34.8535C66.0454 34.8535 65.7765 34.803 65.5916 34.761V34.8452C63.5723 34.7072 61.5751 35.3356 59.9987 36.6051C58.4223 37.8747 57.3826 39.6919 57.087 41.6943C56.7658 43.8187 57.299 45.9838 58.5699 47.7161C59.8408 49.4485 61.746 50.607 63.8688 50.9384C65.2086 51.1468 66.5794 51.0108 67.8522 50.5434L67.886 50.5096Z" fill="current"/>
<path d="M66.4055 26.2735C70.9939 17.7605 71.4477 14.6091 70.6073 13.8192C68.4223 11.4241 60.7582 13.2477 55.842 15.7857C55.0847 16.1333 54.3687 16.5646 53.7074 17.0714C53.7004 17.064 53.6919 17.0582 53.6825 17.0542C53.6731 17.0502 53.663 17.0481 53.6528 17.0481C53.6426 17.0481 53.6325 17.0502 53.6231 17.0542C53.6137 17.0582 53.6052 17.064 53.5982 17.0714C53.447 17.1893 53.262 17.3741 53.1107 17.4916H53.1863C51.7305 18.9629 50.8944 20.9365 50.8503 23.0058C50.8063 25.0751 51.5575 27.0825 52.9494 28.6144C54.3413 30.1464 56.2677 31.0861 58.3318 31.24C60.3958 31.3939 62.4403 30.7503 64.044 29.4417C65.088 28.5764 65.8996 27.4644 66.4054 26.2063L66.4055 26.2735Z" fill="current"/>
</svg>
