<svg width="172" height="230" viewBox="0 0 172 230" fill="none" xmlns="http://www.w3.org/2000/svg">
<path d="M166 144.08V64.1964C166 60.3443 164.47 56.6501 161.746 53.9262C159.022 51.2024 155.328 49.6722 151.476 49.6722C147.623 49.6722 143.929 51.2024 141.205 53.9262C138.482 56.6501 136.951 60.3443 136.951 64.1964V115.031" stroke="#025300" stroke-width="12" stroke-linecap="round" stroke-linejoin="round"/>
<path d="M136.952 115.031V35.148C136.952 31.2959 135.421 27.6017 132.698 24.8778C129.974 22.154 126.279 20.6238 122.427 20.6238C118.575 20.6238 114.881 22.154 112.157 24.8778C109.433 27.6017 107.903 31.2959 107.903 35.148V107.769" stroke="#025300" stroke-width="12" stroke-linecap="round" stroke-linejoin="round"/>
<path d="M78.8546 108.223V42.4101C78.8546 38.558 77.3244 34.8637 74.6006 32.1399C71.8767 29.4161 68.1825 27.8859 64.3304 27.8859C60.4783 27.8859 56.784 29.4161 54.0602 32.1399C51.3364 34.8637 49.8062 38.558 49.8062 42.4101V144.08" stroke="#025300" stroke-width="12" stroke-linecap="round" stroke-linejoin="round"/>
<path d="M107.903 107.769V20.6237C107.903 16.7717 106.373 13.0774 103.649 10.3535C100.925 7.62971 97.231 6.09949 93.379 6.09949C89.5269 6.09949 85.8326 7.62971 83.1088 10.3535C80.385 13.0774 78.8547 16.7717 78.8547 20.6237V107.769" stroke="#025300" stroke-width="12" stroke-linecap="round" stroke-linejoin="round"/>
<path d="M166 144.08C166 197.366 136.952 223.963 97.0099 223.963C57.0682 223.963 40.8601 205.989 31.6508 184.021L7.74485 118.662C4.72199 110.47 6.09271 102.872 13.1324 98.8731C20.1767 94.8699 29.4313 96.9305 33.244 104.174L49.8061 144.08" stroke="#025300" stroke-width="12" stroke-linecap="round" stroke-linejoin="round"/>
</svg>
