<svg width="69" height="63" viewBox="0 0 69 63" fill="none" xmlns="http://www.w3.org/2000/svg">
<path fill-rule="evenodd" clip-rule="evenodd" d="M48.4221 0.834537C43.997 0.834483 41.1446 1.36166 37.8747 2.96219C36.664 3.55476 35.5283 4.26839 34.4735 5.10094C33.4593 4.31506 32.369 3.6342 31.2084 3.06019C27.8751 1.41152 24.8763 0.834488 20.61 0.834488C9.18358 0.834488 0.880188 10.302 0.880188 22.598C0.880188 31.8839 6.05776 40.854 15.7018 49.5278C20.7639 54.0806 27.2271 58.5862 31.8558 60.9831L34.5042 62.3545L37.1525 60.9831C41.7812 58.5862 48.2444 54.0806 53.3065 49.5278C62.9505 40.854 68.1281 31.8839 68.1281 22.598C68.1281 10.4321 59.7464 0.881434 48.4221 0.834537ZM62.0146 22.5979C62.0146 29.873 57.6929 37.3602 49.2183 44.9823C44.5979 49.1378 38.658 53.2907 34.5041 55.4694C30.3501 53.2907 24.4102 49.1378 19.7898 44.9823C11.3152 37.3602 6.99355 29.873 6.99355 22.5979C6.99355 13.5128 12.7513 6.94785 20.6099 6.94785C24.002 6.94785 26.0923 7.35008 28.498 8.53992C29.919 9.24274 31.1749 10.1708 32.2621 11.3305L34.5112 13.7298L36.7399 11.3115C37.8515 10.1053 39.1259 9.15614 40.5623 8.45306C42.8974 7.31005 44.8572 6.94785 48.4094 6.94787C56.1708 6.98004 62.0146 13.6389 62.0146 22.5979Z" fill="#025300"/>
</svg>
