<svg width="303" height="208" viewBox="0 0 303 208" fill="none" xmlns="http://www.w3.org/2000/svg">
<path d="M222.747 67.651C229.951 69.8211 237.563 65.6991 239.748 58.4444C241.933 51.1896 237.865 43.5493 230.661 41.3793C223.457 39.2092 215.846 43.3312 213.66 50.586C211.475 57.8407 215.543 65.481 222.747 67.651Z" fill="current" stroke="current" stroke-width="6.99999" stroke-miterlimit="10"/>
<path d="M231.745 9.83168C232.258 10.0719 232.717 10.4147 233.093 10.8394C233.47 11.264 233.756 11.7616 233.935 12.3019C234.161 12.829 234.278 13.3971 234.279 13.9719C234.28 14.5467 234.166 15.1162 233.942 15.646C233.709 16.1694 233.372 16.6393 232.952 17.0264C232.531 17.4136 232.036 17.7095 231.497 17.8959L229.985 18.4771C229.35 18.7178 228.768 19.0831 228.274 19.5518C227.779 20.0206 227.382 20.5832 227.105 21.2071C226.829 21.8309 226.678 22.5035 226.663 23.1854C226.647 23.8674 226.766 24.5452 227.014 25.1792L228.537 31.1926C228.763 31.7186 228.876 32.2869 228.87 32.8607C228.864 33.4346 228.738 34.0012 228.501 34.524C228.257 35.0454 227.91 35.5122 227.483 35.8966C227.056 36.281 226.556 36.575 226.014 36.7611C225.495 36.9973 224.932 37.1205 224.363 37.1227C223.794 37.1248 223.231 37.0057 222.712 36.7734C222.193 36.541 221.729 36.2005 221.351 35.7744C220.972 35.3482 220.688 34.846 220.517 34.3007L219.051 28.3043C218.375 26.6153 218.044 24.8053 218.079 22.9822C218.114 21.1591 218.513 19.3602 219.253 17.693C219.993 16.0258 221.059 14.5243 222.387 13.2781C223.715 12.0319 225.278 11.0666 226.983 10.4397L228.495 9.85841C229.008 9.63675 229.56 9.52023 230.118 9.51564C230.676 9.51104 231.229 9.61849 231.745 9.83168Z" fill="current"/>
<path d="M192.989 25.5131L194.436 24.7886C196.049 23.9468 197.812 23.4401 199.621 23.299C201.43 23.1578 203.247 23.3851 204.964 23.9673C206.68 24.5494 208.261 25.4744 209.612 26.6869C210.962 27.8994 212.055 29.3744 212.824 31.0238L216.159 36.2216C216.44 36.718 216.613 37.269 216.668 37.8384C216.722 38.4078 216.655 38.9828 216.473 39.5255C216.291 40.0683 215.996 40.5665 215.609 40.9875C215.223 41.4085 214.752 41.7428 214.228 41.9684C213.726 42.2448 213.174 42.4167 212.605 42.4739C212.036 42.5312 211.462 42.4726 210.917 42.3016C210.383 42.1113 209.896 41.8115 209.484 41.4212C209.073 41.031 208.747 40.5586 208.527 40.0343L205.177 34.8322C204.888 34.2052 204.475 33.6443 203.963 33.1833C203.451 32.7223 202.852 32.3707 202.2 32.1499C201.549 31.929 200.859 31.8435 200.173 31.8984C199.486 31.9533 198.818 32.1475 198.207 32.4693L196.759 33.1938C196.259 33.4689 195.707 33.6367 195.139 33.6867C194.571 33.7367 194 33.6679 193.461 33.4844C192.402 33.0679 191.546 32.2556 191.071 31.2172C190.793 30.7195 190.623 30.1683 190.572 29.5993C190.52 29.0303 190.588 28.4562 190.772 27.9146C190.955 27.3729 191.25 26.8757 191.637 26.4553C192.023 26.035 192.493 25.7008 193.016 25.4747L192.989 25.5131Z" fill="current"/>
<path d="M228.442 77.7682C229.493 77.6473 230.557 77.7422 231.569 78.047C232.581 78.3519 233.52 78.8605 234.33 79.5419C235.2 80.1519 235.939 80.9317 236.504 81.8352C237.068 82.7387 237.446 83.7476 237.616 84.8022C237.763 85.8595 237.69 86.937 237.401 87.9662C237.113 88.9953 236.614 89.9535 235.938 90.7799L234.108 93.1839C233.336 94.193 232.771 95.3457 232.445 96.5749C232.12 97.8041 232.041 99.0852 232.212 100.344C232.384 101.602 232.802 102.812 233.444 103.905C234.086 104.997 234.938 105.949 235.95 106.705L267.196 130.491C268.068 131.101 268.804 131.887 269.357 132.799C269.911 133.712 270.268 134.731 270.408 135.792C270.522 136.856 270.422 137.934 270.113 138.96C269.804 139.986 269.292 140.939 268.609 141.764C268.006 142.641 267.231 143.385 266.331 143.95C265.431 144.515 264.427 144.888 263.379 145.047C262.328 145.168 261.264 145.073 260.252 144.768C259.24 144.463 258.301 143.955 257.491 143.273L226.246 119.487C223.508 117.501 221.2 114.977 219.463 112.066C217.726 109.155 216.594 105.917 216.137 102.549C215.68 99.1803 215.906 95.7511 216.803 92.468C217.7 89.1849 219.248 86.1161 221.354 83.4468L223.17 81.0387C223.782 80.1618 224.566 79.4194 225.472 78.857C226.379 78.2946 227.389 77.9241 228.442 77.7682Z" fill="current"/>
<path d="M249.166 69.513L252.141 69.8367C255.505 70.1486 258.769 71.1402 261.737 72.7523C264.706 74.3644 267.318 76.5638 269.417 79.2188C271.517 81.8737 273.06 84.9297 273.955 88.2036C274.851 91.4775 275.079 94.902 274.627 98.2721L270.128 137.487C270.069 138.552 269.787 139.593 269.3 140.542C268.814 141.492 268.133 142.328 267.304 142.996C266.475 143.663 265.515 144.148 264.488 144.417C263.461 144.686 262.39 144.734 261.345 144.558C260.281 144.477 259.245 144.182 258.298 143.692C257.351 143.202 256.511 142.527 255.828 141.705C255.168 140.87 254.688 139.906 254.417 138.874C254.146 137.842 254.091 136.763 254.255 135.707L258.744 96.474C258.9 95.213 258.806 93.9344 258.466 92.7125C258.126 91.4906 257.547 90.3499 256.764 89.3567C255.981 88.3634 255.009 87.5375 253.904 86.9269C252.799 86.3164 251.584 85.9334 250.329 85.8002L247.353 85.4764C246.294 85.4037 245.263 85.1088 244.325 84.6105C243.388 84.1123 242.565 83.4218 241.91 82.5834C241.266 81.7322 240.8 80.7583 240.54 79.7202C240.28 78.682 240.231 77.601 240.396 76.5417C240.459 75.4788 240.745 74.4405 241.233 73.4945C241.722 72.5485 242.404 71.7162 243.233 71.0518C244.063 70.3875 245.022 69.9062 246.047 69.6393C247.072 69.3724 248.142 69.326 249.184 69.503L249.166 69.513Z" fill="current"/>
<path d="M70.3856 128.971C72.0836 136.301 79.3943 140.868 86.7146 139.172C94.0349 137.476 98.5926 130.159 96.8947 122.83C95.1967 115.5 87.8859 110.933 80.5657 112.629C73.2454 114.325 68.6877 121.642 70.3856 128.971Z" fill="current" stroke="current" stroke-width="6.99999" stroke-miterlimit="10"/>
<path d="M124.561 108.145C124.609 108.71 124.541 109.278 124.362 109.815C124.183 110.352 123.897 110.848 123.521 111.271C123.179 111.728 122.749 112.111 122.255 112.396C121.761 112.682 121.215 112.865 120.648 112.933C120.083 112.99 119.512 112.93 118.971 112.757C118.43 112.583 117.931 112.3 117.504 111.924L116.256 110.9C115.735 110.467 115.133 110.143 114.485 109.946C113.837 109.749 113.157 109.683 112.483 109.751C111.81 109.82 111.157 110.023 110.563 110.347C109.969 110.671 109.445 111.11 109.022 111.639L104.604 115.94C104.264 116.397 103.831 116.777 103.334 117.056C102.838 117.335 102.288 117.506 101.721 117.559C101.152 117.605 100.579 117.536 100.037 117.355C99.4954 117.174 98.9953 116.886 98.5671 116.508C98.107 116.174 97.7227 115.746 97.4393 115.253C97.1559 114.76 96.9799 114.213 96.9229 113.647C96.8659 113.081 96.9291 112.51 97.1085 111.97C97.2878 111.431 97.5792 110.935 97.9634 110.517L102.395 106.274C103.513 104.85 104.906 103.666 106.491 102.793C108.076 101.921 109.82 101.376 111.621 101.193C113.421 101.01 115.239 101.192 116.968 101.728C118.697 102.264 120.3 103.143 121.683 104.312L122.931 105.337C123.375 105.673 123.749 106.094 124.029 106.577C124.309 107.059 124.49 107.592 124.561 108.145Z" fill="current"/>
<path d="M91.9007 82.2628L93.2398 83.1607C94.7615 84.1436 96.0697 85.4237 97.086 86.9243C98.1023 88.4249 98.8059 90.1152 99.1547 91.894C99.5034 93.6729 99.4901 95.5036 99.1155 97.2768C98.741 99.0499 98.013 100.729 96.975 102.214L94.1551 107.684C93.8673 108.174 93.4791 108.597 93.0162 108.926C92.5533 109.255 92.026 109.483 91.4691 109.593C90.9121 109.703 90.338 109.695 89.7845 109.567C89.231 109.44 88.7106 109.197 88.2575 108.854C87.7714 108.555 87.3504 108.16 87.0196 107.695C86.6889 107.229 86.4553 106.702 86.3327 106.144C86.2324 105.586 86.2489 105.014 86.381 104.464C86.5131 103.913 86.758 103.396 87.1001 102.946L89.9166 97.461C90.3126 96.8991 90.5905 96.2626 90.7338 95.5899C90.8771 94.9173 90.8828 94.2225 90.7504 93.5475C90.618 92.8725 90.3503 92.2312 89.9635 91.6625C89.5767 91.0938 89.0789 90.6095 88.5 90.2387L87.1608 89.3408C86.6764 89.0422 86.2591 88.6463 85.9352 88.1781C85.6113 87.7099 85.3878 87.1796 85.2788 86.6207C85.1134 85.4953 85.3883 84.3497 86.0462 83.4227C86.3369 82.9353 86.7268 82.5146 87.1906 82.188C87.6544 81.8614 88.1819 81.6363 88.7385 81.5273C89.2951 81.4183 89.8684 81.4278 90.4212 81.5553C90.974 81.6828 91.4939 81.9253 91.947 82.2672L91.9007 82.2628Z" fill="current"/>
<path d="M64.5024 138.926C65.1264 139.779 65.5712 140.75 65.8098 141.78C66.0483 142.809 66.0757 143.877 65.8902 144.917C65.7962 145.975 65.4913 147.003 64.9935 147.941C64.4958 148.878 63.8152 149.706 62.9921 150.376C62.1558 151.027 61.193 151.498 60.165 151.757C59.1371 152.015 58.0665 152.057 57.0212 151.88L54.0482 151.481C52.7985 151.311 51.5276 151.391 50.3095 151.717C49.0914 152.044 47.9505 152.609 46.9531 153.381C45.9557 154.154 45.1219 155.117 44.5001 156.215C43.8784 157.313 43.4811 158.524 43.3316 159.778L38.3345 198.688C38.2421 199.747 37.9305 200.776 37.4194 201.708C36.9083 202.64 36.2089 203.455 35.3658 204.102C34.5069 204.728 33.5306 205.175 32.4952 205.415C31.4598 205.655 30.3866 205.683 29.3398 205.498C28.2868 205.409 27.2632 205.104 26.3324 204.603C25.4016 204.102 24.5835 203.414 23.9289 202.584C23.3048 201.731 22.86 200.76 22.6214 199.73C22.3829 198.701 22.3555 197.633 22.541 196.593L27.5381 157.683C27.8909 154.322 28.9203 151.069 30.5643 148.118C32.2083 145.168 34.4327 142.582 37.1032 140.516C39.7738 138.451 42.835 136.949 46.1021 136.102C49.3692 135.254 52.7743 135.078 56.1119 135.585L59.0816 135.969C60.1385 136.066 61.1646 136.379 62.0968 136.887C63.029 137.396 63.8476 138.09 64.5024 138.926Z" fill="current"/>
<path d="M81.8554 152.831L83.0491 155.575C84.4451 158.65 85.207 161.975 85.2893 165.35C85.3716 168.726 84.7725 172.083 83.528 175.221C82.2835 178.359 80.4191 181.213 78.0464 183.612C75.6738 186.011 72.8418 187.905 69.7199 189.182L33.7696 204.698C32.8245 205.175 31.7894 205.446 30.7321 205.493C29.6748 205.541 28.6193 205.364 27.6348 204.975C26.6502 204.586 25.7589 203.992 25.0192 203.234C24.2796 202.476 23.7084 201.57 23.343 200.575C22.8866 199.611 22.6271 198.566 22.5797 197.501C22.5324 196.436 22.6982 195.372 23.0673 194.372C23.4588 193.385 24.0499 192.491 24.8037 191.745C25.5574 190.998 26.4573 190.416 27.4469 190.035L63.4081 174.501C64.5697 174.012 65.6224 173.296 66.5051 172.396C67.3877 171.496 68.0826 170.429 68.5493 169.257C69.016 168.085 69.2453 166.832 69.2238 165.57C69.2022 164.308 68.9303 163.063 68.4238 161.908L67.2301 159.164C66.7686 158.208 66.5119 157.167 66.4766 156.106C66.4412 155.045 66.628 153.989 67.025 153.005C67.4385 152.024 68.0455 151.138 68.8096 150.397C69.5737 149.657 70.4791 149.079 71.4717 148.698C72.417 148.226 73.4512 147.96 74.5066 147.916C75.5621 147.872 76.615 148.051 77.5967 148.442C78.5784 148.833 79.4667 149.427 80.2036 150.186C80.9405 150.944 81.5094 151.849 81.8731 152.842L81.8554 152.831Z" fill="current"/>
</svg>
