<?xml version="1.0" encoding="UTF-8"?>
<svg width="19.687mm" height="21.874mm" version="1.1" viewBox="0 0 19.687 21.874" xmlns="http://www.w3.org/2000/svg">
<g transform="translate(-85.601 -96.859)" fill="current" stroke="current">
<circle cx="93.3" cy="104.9" r="2.45" stroke-miterlimit="10" stroke-width=".252"/>
<path d="m91.851 96.995a0.75142 0.75142 0 0 1 0.50536 0.30956 0.75935 0.75935 0 0 1 0.17462 0.5715 0.74348 0.74348 0 0 1-0.30427 0.51065l-0.23019 0.17727a0.9181 0.9181 0 0 0-0.16404 1.2991l0.57414 0.94986a0.7329 0.7329 0 0 1 0.16669 0.5715 0.76465 0.76465 0 0 1-0.31221 0.51064 0.72496 0.72496 0 0 1-1.0742-0.13758l-0.56356-0.94985a2.4262 2.4262 0 0 1 0.43921-3.4634l0.23019-0.17727a0.75406 0.75406 0 0 1 0.55827-0.17198z" stroke-width=".26458"/>
<path d="m85.99 101.67 0.21167-0.19843a2.4236 2.4236 0 0 1 3.4899 0.11906l0.84402 0.71702a0.72496 0.72496 0 0 1-0.0344 1.0822 0.76465 0.76465 0 0 1-0.55298 0.22754 0.73554 0.73554 0 0 1-0.52917-0.26459l-0.84667-0.71702a0.91546 0.91546 0 0 0-1.3229-0.045l-0.21167 0.19844a0.74083 0.74083 0 0 1-0.55298 0.21961 0.79375 0.79375 0 0 1-0.52917-0.26459 0.7276 0.7276 0 0 1 0.03704-1.0821z" stroke-width=".26458"/>
<path d="m94.806 108.78a1.4049 1.4049 0 0 1 1.106 0 1.4288 1.4288 0 0 1 0.83873 0.73025 1.3758 1.3758 0 0 1 0.02117 1.1086l-0.1905 0.50536a1.7119 1.7119 0 0 0 1.0186 2.2172l6.6146 2.458a1.3785 1.3785 0 0 1 0.82814 0.74084 1.4235 1.4235 0 0 1 0 1.1139 1.3891 1.3891 0 0 1-0.73025 0.8308 1.4049 1.4049 0 0 1-1.106 0l-6.6146-2.458a4.4979 4.4979 0 0 1-2.712-5.9108l0.18786-0.50535a1.4023 1.4023 0 0 1 0.73819-0.83079z" stroke-width=".26458"/>
<path d="m97.947 106.3 0.52917-0.0979a4.5138 4.5138 0 0 1 5.3472 3.7042l1.2594 6.9374a1.352 1.352 0 0 1-1.1456 1.6616 1.4393 1.4393 0 0 1-1.098-0.20373 1.3838 1.3838 0 0 1-0.58208-0.94456l-1.2621-6.94a1.7119 1.7119 0 0 0-2.0029-1.3917l-0.52917 0.0979a1.3679 1.3679 0 0 1-1.0874-0.21432 1.4235 1.4235 0 0 1-0.57415-0.95514 1.352 1.352 0 0 1 1.1483-1.6563z" stroke-width=".26458"/>
</g>
</svg>
