<svg width="56" height="70" viewBox="0 0 56 70" fill="none" xmlns="http://www.w3.org/2000/svg">
<path fill-rule="evenodd" clip-rule="evenodd" d="M27.5455 69.0271L29.556 67.2716C46.4627 52.509 55.0561 39.6189 55.0561 28.2884C55.0561 12.2426 42.5325 0.777878 27.5455 0.777878C12.5586 0.777878 0.0350342 12.2426 0.0350342 28.2884C0.0350342 39.6189 8.62843 52.509 25.5351 67.2716L27.5455 69.0271ZM27.5455 60.8834C13.1991 47.9539 6.14839 36.9976 6.14839 28.2883C6.14839 15.7454 15.8202 6.89124 27.5455 6.89124C39.2707 6.89124 48.9425 15.7454 48.9425 28.2883C48.9425 36.9976 41.8918 47.9539 27.5455 60.8834ZM27.5452 13.0049C35.9861 13.0049 42.8288 19.8476 42.8288 28.2885C42.8288 36.7294 35.9861 43.5721 27.5452 43.5721C19.1043 43.5721 12.2616 36.7294 12.2616 28.2885C12.2616 19.8476 19.1043 13.0049 27.5452 13.0049ZM18.375 28.2884C18.375 23.2239 22.4806 19.1182 27.5452 19.1182C32.6097 19.1182 36.7154 23.2239 36.7154 28.2884C36.7154 33.353 32.6097 37.4586 27.5452 37.4586C22.4806 37.4586 18.375 33.353 18.375 28.2884Z" fill="#025300"/>
</svg>
