<svg width="195" height="65" viewBox="0 0 195 65" fill="none" xmlns="http://www.w3.org/2000/svg">
<g id="logo-nt">
<path id="path247" d="M10.5515 6.72262C10.5543 6.40261 10.4974 6.08527 10.3841 5.78957C10.2709 5.49387 10.1036 5.22585 9.89241 5.00156C9.68841 4.76907 9.44211 4.58471 9.16901 4.46003C8.89591 4.33534 8.6019 4.27305 8.30545 4.27706C8.00552 4.27073 7.70756 4.33062 7.42982 4.4531C7.15207 4.57557 6.90039 4.75804 6.6902 4.98932C6.47615 5.21453 6.3072 5.48486 6.19382 5.78354C6.08044 6.08223 6.02505 6.4029 6.03109 6.72567V55.8569C6.04089 56.1271 5.99896 56.3967 5.90794 56.6486C5.81692 56.9006 5.67876 57.1295 5.5021 57.3211C5.31997 57.5084 5.105 57.6544 4.86986 57.7504C4.63472 57.8465 4.38417 57.8908 4.13296 57.8806C3.88362 57.8952 3.63423 57.8528 3.40106 57.7562C3.16789 57.6596 2.95618 57.511 2.77975 57.3201C2.60331 57.1291 2.46611 56.9001 2.37709 56.648C2.28807 56.3959 2.24924 56.1263 2.26312 55.8569V6.72262C2.25363 5.86244 2.40346 5.00888 2.70379 4.21221C3.00412 3.41553 3.44888 2.69183 4.0119 2.08368C4.57492 1.47554 5.24483 0.995244 5.98219 0.671067C6.71955 0.34689 7.50946 0.185391 8.30545 0.196052C9.86643 0.185637 11.3703 0.829987 12.5006 1.99352C13.0788 2.53487 13.541 3.20577 13.8551 3.95961C14.1692 4.71345 14.3277 5.53216 14.3195 6.35885" fill="current"/>
<path id="path249" d="M2.26349 6.3713C2.2553 5.54461 2.41376 4.72591 2.72787 3.97207C3.04197 3.21823 3.50419 2.54734 4.0824 2.00599C5.21267 0.842454 6.71653 0.198086 8.27752 0.208502C9.07254 0.197871 9.86151 0.359003 10.5981 0.682423C11.3347 1.00584 12.0041 1.48503 12.567 2.09187C13.1298 2.6987 13.5748 3.42096 13.8759 4.21621C14.1769 5.01146 14.3278 5.86369 14.3198 6.72286V19.7393C14.3342 20.0089 14.2956 20.2786 14.2068 20.531C14.1179 20.7833 13.9807 21.0125 13.8042 21.2036C13.6277 21.3947 13.4158 21.5432 13.1824 21.6397C12.949 21.7361 12.6994 21.7781 12.45 21.763C12.1992 21.7735 11.949 21.7294 11.7143 21.6333C11.4796 21.5371 11.2651 21.391 11.0837 21.2036C10.9061 21.0126 10.7671 20.7838 10.6756 20.5318C10.5841 20.2797 10.5419 20.0099 10.5519 19.7393V6.72286C10.5586 6.39999 10.5035 6.07909 10.3901 5.7803C10.2767 5.48151 10.1074 5.21127 9.89276 4.98651C9.68267 4.75508 9.431 4.57252 9.15323 4.45003C8.87547 4.32755 8.57746 4.26773 8.27752 4.27425C7.98107 4.27023 7.68706 4.33251 7.41395 4.45719C7.14085 4.58187 6.89456 4.76626 6.69056 4.99874C6.47932 5.22303 6.31208 5.49103 6.19884 5.78674C6.08559 6.08244 6.02866 6.39977 6.03145 6.71979" fill="current"/>
<path id="path251" d="M34.1347 28.427H33.996C33.2013 28.4448 32.4117 28.285 31.6767 27.9579C30.9417 27.6307 30.2772 27.1431 29.7246 26.5256C29.1594 25.9217 28.7143 25.1995 28.4166 24.4031C28.1189 23.6067 27.9748 22.753 27.9933 21.8943V14.7472C26.9544 15.3485 25.7943 15.6635 24.6157 15.6643C24.3656 15.6754 24.116 15.6304 23.8828 15.532C23.6495 15.4336 23.4377 15.284 23.2607 15.0926C23.0882 14.8954 22.9539 14.6629 22.8655 14.4089C22.7771 14.1548 22.7364 13.8843 22.7459 13.6131C22.732 13.3438 22.7708 13.0743 22.8598 12.8224C22.9489 12.5704 23.0861 12.3416 23.2626 12.1508C23.4391 11.9601 23.6509 11.8118 23.884 11.7156C24.1172 11.6193 24.3665 11.5774 24.6157 11.5924C25.289 11.6021 25.9497 11.3953 26.5138 10.9981C27.078 10.601 27.5201 10.0315 27.784 9.36212C28.0479 8.69274 28.1216 7.95367 27.9958 7.23889C27.8699 6.52411 27.5503 5.86591 27.0774 5.34798C26.6045 4.83005 25.9998 4.47579 25.3401 4.33023C24.6804 4.18468 23.9955 4.25443 23.3726 4.53058C22.7497 4.80673 22.2169 5.27682 21.8418 5.88108C21.4668 6.48535 21.2665 7.19651 21.2664 7.9241V19.7698C21.2762 20.04 21.2343 20.3096 21.1433 20.5615C21.0523 20.8135 20.9141 21.0424 20.7374 21.234C20.5553 21.4213 20.3403 21.5672 20.1052 21.6633C19.8701 21.7594 19.6195 21.8036 19.3683 21.7935C19.119 21.8081 18.8696 21.7657 18.6364 21.6691C18.4032 21.5725 18.1915 21.4239 18.0151 21.233C17.8387 21.042 17.7015 20.813 17.6124 20.5609C17.5234 20.3088 17.4846 20.0392 17.4985 19.7698V7.91187C17.4985 5.86796 18.2498 3.90777 19.5872 2.46251C20.9246 1.01725 22.7385 0.205322 24.6299 0.205322C26.5212 0.205322 28.3352 1.01725 29.6725 2.46251C31.0099 3.90777 31.7613 5.86796 31.7613 7.91187V21.8943C31.7542 22.2156 31.8075 22.5351 31.9178 22.8336C32.0282 23.132 32.1934 23.4032 32.4034 23.6307C32.608 23.8624 32.855 24.0454 33.1288 24.168C33.4025 24.2907 33.6969 24.3503 33.9932 24.343H34.1318C34.382 24.3314 34.6317 24.3763 34.865 24.4747C35.0982 24.5731 35.31 24.7229 35.4868 24.9146C35.66 25.1114 35.7948 25.3437 35.8832 25.5979C35.9717 25.8521 36.0119 26.1229 36.0017 26.3942C36.0095 26.6618 35.9665 26.9284 35.8753 27.1773C35.7842 27.4263 35.6467 27.6525 35.4715 27.8419C35.2963 28.0312 35.087 28.1797 34.8566 28.2783C34.6262 28.3768 34.3795 28.4233 34.1318 28.4148L34.1347 28.427Z" fill="current"/>
<path id="path253" d="M43.0966 19.7515C43.1105 20.0212 43.0716 20.291 42.9824 20.5434C42.8932 20.7957 42.7558 21.0249 42.579 21.2159C42.4023 21.4069 42.1902 21.5554 41.9567 21.6518C41.7232 21.7482 41.4735 21.7902 41.2239 21.7752C40.9731 21.7856 40.7229 21.7415 40.4882 21.6454C40.2535 21.5493 40.0391 21.4032 39.8576 21.2158C39.68 21.0247 39.5411 20.796 39.4495 20.5439C39.358 20.2919 39.3159 20.022 39.3258 19.7515V4.27723H36.8704C36.618 4.28985 36.366 4.24544 36.1304 4.14682C35.8949 4.0482 35.6809 3.89756 35.5023 3.70451C35.3236 3.51146 35.1842 3.28026 35.093 3.02568C35.0017 2.7711 34.9606 2.49873 34.9723 2.22601C34.9624 1.95592 35.0046 1.68656 35.0961 1.43502C35.1877 1.18347 35.3266 0.95523 35.5041 0.764789C35.6855 0.577352 35.9 0.431238 36.1347 0.335136C36.3694 0.239033 36.6196 0.194901 36.8704 0.205363H45.6906C45.9418 0.195009 46.1924 0.239191 46.4276 0.335277C46.6628 0.431362 46.8777 0.577404 47.0597 0.764789C47.2363 0.955823 47.3745 1.18424 47.4655 1.43569C47.5565 1.68714 47.5985 1.95621 47.5887 2.22601C47.6009 2.49885 47.5601 2.77141 47.469 3.0262C47.3779 3.281 47.2385 3.5124 47.0597 3.70555C46.881 3.8987 46.6669 4.04934 46.4311 4.14779C46.1953 4.24624 45.9431 4.29033 45.6906 4.27723H43.0966V19.7515Z" fill="current"/>
<path id="path255" d="M54.5395 2.23512V15.2546C54.5361 15.5768 54.5923 15.8965 54.7049 16.1948C54.8174 16.4932 54.9839 16.7643 55.1948 16.9921C55.4056 17.2199 55.6564 17.3999 55.9325 17.5215C56.2086 17.6431 56.5045 17.7039 56.8026 17.7002C57.0983 17.7075 57.3923 17.6486 57.6659 17.5271C57.9395 17.4055 58.1869 17.224 58.3924 16.994C58.6021 16.7669 58.767 16.4962 58.8774 16.1983C58.9878 15.9004 59.0412 15.5815 59.0345 15.2607V2.2565C59.0299 1.9859 59.0759 1.71709 59.1696 1.46614C59.2634 1.21519 59.4031 0.98727 59.5804 0.796038C59.7576 0.604806 59.9687 0.454197 60.201 0.353215C60.4334 0.252234 60.6822 0.20296 60.9326 0.208352C61.183 0.197605 61.4327 0.24313 61.6659 0.342056C61.8992 0.440982 62.1109 0.591156 62.2876 0.783063C62.4601 0.979109 62.5945 1.21048 62.6829 1.46353C62.7713 1.71659 62.812 1.9862 62.8025 2.2565V15.2821C62.8002 17.0058 62.1644 18.6579 61.035 19.875C59.9056 21.0921 58.375 21.7745 56.7799 21.772C55.1849 21.7696 53.6561 21.0825 52.5299 19.862C51.4036 18.6414 50.7722 16.9874 50.7744 15.2638V2.23201C50.7601 1.96246 50.7986 1.69267 50.8874 1.44033C50.9763 1.18799 51.1135 0.958801 51.29 0.767743C51.4666 0.576684 51.6785 0.428077 51.9118 0.331672C52.1452 0.235267 52.3948 0.193231 52.6442 0.208317C52.8951 0.197855 53.1453 0.241987 53.38 0.338089C53.6147 0.434191 53.8291 0.580305 54.0106 0.767743C54.1879 0.959485 54.3264 1.1889 54.4175 1.44146C54.5085 1.69403 54.5501 1.9643 54.5395 2.23512Z" fill="current"/>
<path id="path257" d="M75.0258 15.3707C75.03 15.6798 75.0915 15.9849 75.2067 16.2679C75.3218 16.5509 75.4883 16.8061 75.6962 17.0184C75.894 17.2363 76.1306 17.4087 76.3916 17.5253C76.6527 17.642 76.9328 17.7004 77.2153 17.697C77.4736 17.6837 77.7318 17.7263 77.9747 17.8224C78.2176 17.9185 78.4403 18.0661 78.6297 18.2565C78.8081 18.453 78.9471 18.6872 79.0381 18.9444C79.1291 19.2016 79.1702 19.4762 79.1587 19.7513C79.1686 20.0216 79.1268 20.2912 79.0358 20.5432C78.9447 20.7952 78.8065 21.0241 78.6297 21.2156C78.4475 21.4028 78.2326 21.5488 77.9974 21.6449C77.7623 21.7409 77.5117 21.7852 77.2605 21.775C76.4653 21.7979 75.6743 21.6432 74.9369 21.3208C74.1996 20.9984 73.5316 20.5151 72.9749 19.9011C72.4123 19.2916 71.9703 18.5648 71.6756 17.765C71.3809 16.9652 71.2397 16.109 71.2606 15.2484V13.5885C71.2693 13.055 71.4689 12.5458 71.8176 12.1679C72.1662 11.79 72.6368 11.5727 73.1305 11.5617C73.7987 11.564 74.4524 11.3514 75.0085 10.9512C75.5647 10.5509 75.9981 9.98092 76.2537 9.31376C76.5094 8.64659 76.5756 7.91235 76.4441 7.20438C76.3126 6.49641 75.9892 5.84669 75.5151 5.33782C75.2046 4.99626 74.8331 4.72638 74.4232 4.54457C74.0133 4.36276 73.5735 4.27279 73.1305 4.2801C72.6897 4.27849 72.2531 4.3712 71.8457 4.55291C71.4383 4.73461 71.0682 5.0017 70.7568 5.33877C70.4454 5.67583 70.1989 6.0762 70.0314 6.51677C69.864 6.95733 69.7789 7.42938 69.7812 7.90565V19.7513C69.7911 20.0219 69.749 20.2917 69.6574 20.5437C69.5659 20.7958 69.4269 21.0246 69.2494 21.2156C69.0679 21.403 68.8535 21.5491 68.6188 21.6452C68.3841 21.7413 68.1339 21.7855 67.883 21.775C67.6351 21.7835 67.3882 21.737 67.1576 21.6382C66.927 21.5395 66.7176 21.3907 66.5423 21.201C66.3671 21.0113 66.2297 20.7848 66.1387 20.5354C66.0477 20.2861 66.005 20.0192 66.0132 19.7513V7.91175C66.0162 6.68963 66.2882 5.48581 66.8066 4.39965C67.325 3.31349 68.0751 2.37613 68.9948 1.66497C69.9145 0.953803 70.9776 0.489222 72.0962 0.309559C73.2149 0.129897 74.357 0.240313 75.4284 0.631689C76.4997 1.02307 77.4696 1.68418 78.2579 2.56047C79.0462 3.43675 79.6304 4.50309 79.9622 5.67144C80.294 6.83979 80.3639 8.07666 80.1661 9.27996C79.9684 10.4833 79.5086 11.6185 78.8249 12.5919C77.8773 13.9463 76.5414 14.9234 75.0258 15.3707Z" fill="current"/>
<path id="path259" d="M100.089 28.4269H99.9471C99.1539 28.4462 98.3655 28.2887 97.6311 27.9642C96.8967 27.6396 96.232 27.1551 95.6785 26.5408C95.1105 25.9355 94.6632 25.211 94.364 24.4119C94.0648 23.6128 93.9201 22.756 93.9388 21.8942V14.7471C92.8999 15.3484 91.7397 15.6634 90.5612 15.6642C90.3114 15.6756 90.0622 15.6307 89.8294 15.5323C89.5966 15.4339 89.3853 15.2841 89.209 15.0925C89.0356 14.8958 88.9005 14.6635 88.8116 14.4094C88.7226 14.1552 88.6818 13.8844 88.6913 13.6129C88.6779 13.3438 88.717 13.0745 88.8062 12.8228C88.8954 12.571 89.0327 12.3424 89.2091 12.1518C89.3855 11.9612 89.597 11.8128 89.83 11.7164C90.0629 11.62 90.3121 11.5777 90.5612 11.5923C91.2344 11.602 91.8951 11.3951 92.4593 10.998C93.0234 10.6009 93.4655 10.0314 93.7294 9.362C93.9933 8.69262 94.067 7.95355 93.9412 7.23877C93.8154 6.52399 93.4957 5.86579 93.0228 5.34786C92.5499 4.82993 91.9452 4.47567 91.2855 4.33011C90.6258 4.18456 89.941 4.25431 89.3181 4.53046C88.6952 4.80661 88.1623 5.2767 87.7873 5.88097C87.4122 6.48523 87.2119 7.19639 87.2119 7.92398V19.7696C87.2217 20.0399 87.1798 20.3095 87.0887 20.5614C86.9977 20.8134 86.8595 21.0423 86.6829 21.2339C86.501 21.4216 86.2861 21.5678 86.0509 21.6639C85.8157 21.76 85.565 21.804 85.3138 21.7933C85.0644 21.8079 84.815 21.7656 84.5819 21.669C84.3487 21.5724 84.137 21.4238 83.9605 21.2328C83.7841 21.0419 83.6469 20.8129 83.5579 20.5608C83.4689 20.3086 83.43 20.0391 83.4439 19.7696V7.91175C83.4435 6.89941 83.6276 5.89692 83.9858 4.96151C84.344 4.0261 84.8692 3.17611 85.5315 2.46011C86.1938 1.74412 86.9801 1.17614 87.8455 0.788624C88.7109 0.401112 89.6385 0.20166 90.5753 0.20166C91.5121 0.20166 92.4397 0.401112 93.3051 0.788624C94.1706 1.17614 94.9569 1.74412 95.6191 2.46011C96.2814 3.17611 96.8066 4.0261 97.1648 4.96151C97.523 5.89692 97.7071 6.89941 97.7067 7.91175V21.8942C97.7003 22.2154 97.7539 22.5347 97.8642 22.8331C97.9745 23.1314 98.1394 23.4026 98.3489 23.6306C98.5535 23.8621 98.8006 24.045 99.0743 24.1677C99.3481 24.2903 99.6424 24.35 99.9387 24.3428H100.08C100.33 24.3316 100.579 24.3766 100.812 24.475C101.045 24.5734 101.256 24.7231 101.432 24.9145C101.606 25.111 101.741 25.3433 101.83 25.5974C101.919 25.8516 101.96 26.1225 101.95 26.394C101.957 26.6615 101.913 26.9276 101.822 27.1762C101.73 27.4248 101.593 27.6506 101.418 27.8398C101.243 28.0289 101.034 28.1775 100.804 28.2763C100.574 28.3752 100.328 28.4223 100.08 28.4147L100.089 28.4269Z" fill="current"/>
<path id="path261" d="M108.154 21.7751H106.926C106.13 21.7909 105.338 21.6328 104.6 21.3105C103.861 20.9881 103.191 20.508 102.628 19.899C102.065 19.2899 101.622 18.5644 101.324 17.7658C101.027 16.9673 100.882 16.1121 100.898 15.2516V2.23201C100.883 1.96246 100.922 1.69268 101.011 1.44033C101.1 1.18799 101.237 0.958801 101.413 0.767743C101.59 0.576684 101.802 0.428077 102.035 0.331672C102.268 0.235267 102.518 0.193231 102.768 0.208317C103.018 0.197855 103.269 0.241987 103.503 0.338089C103.738 0.434192 103.952 0.580305 104.134 0.767743C104.312 0.959224 104.451 1.18851 104.542 1.44109C104.634 1.69367 104.676 1.96404 104.666 2.23508V15.2546C104.663 15.5767 104.719 15.8961 104.832 16.1943C104.944 16.4925 105.111 16.7634 105.322 16.9911C105.532 17.2189 105.783 17.3989 106.059 17.5207C106.335 17.6424 106.631 17.7034 106.929 17.7002H108.156C108.406 17.6893 108.655 17.7344 108.888 17.8328C109.121 17.9312 109.332 18.0807 109.509 18.2718C109.682 18.4685 109.817 18.7008 109.906 18.9549C109.995 19.2091 110.036 19.4799 110.026 19.7514C110.04 20.0205 110.001 20.2898 109.911 20.5415C109.822 20.7933 109.685 21.0219 109.509 21.2125C109.332 21.4031 109.121 21.5515 108.888 21.6479C108.655 21.7443 108.405 21.7866 108.156 21.772L108.154 21.7751Z" fill="current"/>
<path id="path263" d="M129.282 6.72264C129.285 6.40282 129.229 6.08555 129.116 5.78983C129.003 5.49412 128.836 5.22602 128.626 5.00158C128.402 4.75273 128.131 4.55944 127.832 4.43513C127.532 4.31083 127.211 4.25848 126.891 4.28175C126.571 4.30503 126.26 4.40336 125.978 4.56989C125.697 4.73643 125.453 4.9672 125.262 5.24613V19.7483C125.272 20.0186 125.231 20.2883 125.14 20.5403C125.049 20.7924 124.91 21.0213 124.733 21.2125C124.551 21.4002 124.336 21.5465 124.101 21.6426C123.866 21.7387 123.615 21.7827 123.364 21.772C123.115 21.7866 122.865 21.7442 122.632 21.6476C122.399 21.551 122.187 21.4024 122.011 21.2115C121.834 21.0205 121.697 20.7915 121.608 20.5394C121.519 20.2873 121.48 20.0177 121.494 19.7483V6.72264C121.494 6.07404 121.256 5.45199 120.831 4.99336C120.407 4.53473 119.831 4.27708 119.231 4.27708C118.631 4.27708 118.055 4.53473 117.631 4.99336C117.206 5.45199 116.968 6.07404 116.968 6.72264V19.7452C116.982 20.0146 116.943 20.2842 116.854 20.5363C116.765 20.7884 116.628 21.0175 116.451 21.2084C116.275 21.3994 116.063 21.548 115.83 21.6445C115.597 21.7411 115.348 21.7835 115.098 21.7689C114.847 21.7796 114.596 21.7356 114.361 21.6395C114.126 21.5434 113.911 21.3972 113.729 21.2095C113.552 21.0184 113.413 20.7896 113.322 20.5375C113.231 20.2854 113.189 20.0156 113.2 19.7452V6.72264C113.191 5.47449 113.515 4.24995 114.135 3.19649C114.754 2.14302 115.642 1.30552 116.692 0.784831C117.742 0.264142 118.908 0.0824594 120.051 0.261652C121.195 0.440845 122.265 0.973271 123.135 1.79484C124.281 0.717901 125.762 0.150604 127.28 0.207335C128.797 0.264066 130.239 0.940612 131.313 2.10054C131.877 2.70347 132.322 3.42413 132.621 4.21871C132.919 5.01329 133.065 5.86521 133.05 6.72264V21.882C133.048 22.2039 133.105 22.523 133.217 22.8208C133.33 23.1186 133.497 23.3892 133.708 23.6167C133.918 23.8443 134.169 24.0243 134.444 24.1464C134.72 24.2684 135.015 24.33 135.313 24.3276H135.426C135.678 24.315 135.93 24.3594 136.166 24.458C136.402 24.5566 136.616 24.7072 136.794 24.9003C136.973 25.0933 137.112 25.3245 137.203 25.5791C137.295 25.8337 137.336 26.1061 137.324 26.3788C137.334 26.6489 137.292 26.9182 137.2 27.1698C137.109 27.4213 136.97 27.6496 136.792 27.84C136.611 28.0274 136.396 28.1736 136.162 28.2697C135.927 28.3658 135.677 28.4099 135.426 28.3994H135.313C134.518 28.4084 133.73 28.2458 132.994 27.921C132.258 27.5963 131.59 27.116 131.029 26.5083C130.467 25.9006 130.024 25.1778 129.724 24.3823C129.425 23.5868 129.275 22.7347 129.285 21.8759L129.282 6.72264Z" fill="current"/>
<path id="path265" d="M165.649 28.4269H165.539C164.742 28.4431 163.951 28.2854 163.212 27.9633C162.473 27.6411 161.802 27.1611 161.239 26.552C160.676 25.9428 160.232 25.2172 159.935 24.4184C159.637 23.6197 159.492 22.7642 159.508 21.9034V6.72262C159.511 6.40251 159.455 6.08497 159.341 5.78917C159.228 5.49336 159.06 5.22542 158.849 5.00156C158.645 4.76907 158.398 4.58471 158.125 4.46003C157.852 4.33534 157.558 4.27305 157.262 4.27707C156.962 4.27073 156.664 4.33062 156.386 4.4531C156.108 4.57557 155.857 4.75804 155.646 4.98932C155.432 5.21453 155.263 5.48486 155.15 5.78354C155.037 6.08223 154.981 6.4029 154.987 6.72567V19.7483C154.997 20.0185 154.955 20.2881 154.864 20.54C154.773 20.792 154.635 21.0209 154.458 21.2125C154.276 21.3998 154.061 21.5457 153.826 21.6418C153.591 21.7379 153.34 21.7821 153.089 21.772C152.84 21.7866 152.591 21.7442 152.357 21.6476C152.124 21.551 151.912 21.4024 151.736 21.2115C151.56 21.0205 151.422 20.7915 151.333 20.5394C151.244 20.2873 151.206 20.0177 151.219 19.7483V6.72262C151.21 5.86244 151.36 5.00888 151.66 4.21221C151.96 3.41553 152.405 2.69183 152.968 2.08368C153.531 1.47554 154.201 0.995244 154.938 0.671067C155.676 0.34689 156.466 0.185391 157.262 0.196052C158.823 0.185637 160.327 0.829987 161.457 1.99352C162.035 2.53487 162.497 3.20577 162.811 3.95961C163.125 4.71345 163.284 5.53216 163.276 6.35885V21.879C163.274 22.2008 163.33 22.5199 163.443 22.8177C163.556 23.1155 163.723 23.3861 163.934 23.6137C164.144 23.8412 164.395 24.0213 164.67 24.1433C164.946 24.2654 165.241 24.327 165.539 24.3245H165.649C165.902 24.3119 166.154 24.3563 166.389 24.4549C166.625 24.5535 166.839 24.7042 167.017 24.8972C167.196 25.0903 167.335 25.3215 167.427 25.5761C167.518 25.8306 167.559 26.103 167.547 26.3757C167.557 26.6458 167.515 26.9152 167.423 27.1667C167.332 27.4182 167.193 27.6465 167.015 27.8369C166.836 28.0299 166.623 28.1816 166.388 28.283C166.153 28.3844 165.902 28.4334 165.649 28.4269Z" fill="current"/>
<path id="path267" d="M174.608 19.7513C174.621 20.0207 174.583 20.2903 174.494 20.5424C174.405 20.7945 174.267 21.0235 174.091 21.2145C173.915 21.4054 173.703 21.5541 173.47 21.6506C173.236 21.7472 172.987 21.7896 172.738 21.775C172.487 21.7853 172.236 21.7412 172.001 21.6451C171.766 21.549 171.551 21.403 171.369 21.2156C171.192 21.024 171.054 20.795 170.963 20.5431C170.872 20.2911 170.83 20.0216 170.84 19.7513V4.27705H168.384C168.132 4.29015 167.88 4.24604 167.644 4.14759C167.408 4.04914 167.194 3.89852 167.015 3.70537C166.836 3.51222 166.697 3.28082 166.606 3.02603C166.515 2.77123 166.474 2.49867 166.486 2.22583C166.476 1.95594 166.517 1.68667 166.608 1.4351C166.699 1.18354 166.838 0.955203 167.015 0.764611C167.197 0.576941 167.412 0.430709 167.647 0.334605C167.882 0.238501 168.133 0.194484 168.384 0.205185H177.204C177.455 0.194723 177.705 0.238855 177.94 0.334958C178.175 0.43106 178.389 0.577173 178.571 0.764611C178.748 0.955203 178.886 1.18354 178.977 1.4351C179.069 1.68667 179.11 1.95594 179.1 2.22583C179.112 2.4984 179.071 2.77069 178.98 3.02527C178.889 3.27984 178.75 3.51109 178.572 3.70419C178.393 3.89729 178.179 4.048 177.944 4.14664C177.709 4.24529 177.457 4.28971 177.204 4.27705H174.608V19.7513Z" fill="current"/>
<path id="path269" d="M4.2432 64.603C3.40398 64.603 2.5836 64.334 1.88581 63.8302C1.18802 63.3263 0.644155 62.6102 0.322997 61.7723C0.00183902 60.9344 -0.0821912 60.0125 0.0815337 59.123C0.245259 58.2335 0.649385 57.4164 1.24281 56.7752C1.83623 56.1339 2.5923 55.6972 3.4154 55.5202C4.2385 55.3433 5.09167 55.4341 5.86701 55.7812C6.64235 56.1282 7.30505 56.716 7.7713 57.47C8.23755 58.2241 8.48641 59.1106 8.48641 60.0175C8.48641 61.2337 8.03936 62.4 7.2436 63.2599C6.44785 64.1199 5.36857 64.603 4.2432 64.603ZM4.2432 58.2812C3.92306 58.2806 3.60994 58.3826 3.34348 58.5744C3.07702 58.7662 2.86919 59.039 2.74628 59.3585C2.62338 59.678 2.59093 60.0296 2.65305 60.369C2.71516 60.7084 2.86905 61.0203 3.09522 61.2651C3.3214 61.51 3.60971 61.6768 3.92366 61.7445C4.23761 61.8122 4.5631 61.7778 4.85893 61.6455C5.15476 61.5133 5.40764 61.2891 5.58556 61.0015C5.76348 60.7139 5.85844 60.3757 5.85845 60.0298C5.85845 59.5665 5.68836 59.1222 5.38553 58.7944C5.08269 58.4666 4.67185 58.282 4.2432 58.2812Z" fill="current"/>
<path id="path271" d="M146.306 21.8055H142.702C141.906 21.8213 141.114 21.6633 140.376 21.3409C139.637 21.0186 138.967 20.5385 138.404 19.9294C137.841 19.3204 137.398 18.5948 137.1 17.7963C136.803 16.9977 136.658 16.1426 136.674 15.282V7.98201C136.659 7.71246 136.698 7.44269 136.787 7.19035C136.876 6.93801 137.013 6.7088 137.189 6.51774C137.366 6.32668 137.578 6.17808 137.811 6.08167C138.044 5.98527 138.294 5.94323 138.544 5.95832C138.794 5.94841 139.045 5.99251 139.28 6.08802C139.515 6.18353 139.73 6.32855 139.913 6.51467C140.09 6.70675 140.228 6.93621 140.319 7.18869C140.41 7.44118 140.452 7.71126 140.442 7.98201V15.282C140.439 15.6041 140.495 15.9235 140.608 16.2217C140.72 16.5199 140.887 16.7908 141.098 17.0186C141.308 17.2463 141.559 17.4263 141.835 17.5481C142.111 17.6698 142.407 17.7308 142.705 17.7276H146.309C146.559 17.716 146.808 17.7609 147.042 17.8593C147.275 17.9578 147.487 18.1075 147.664 18.2992C147.836 18.4964 147.971 18.7288 148.059 18.9829C148.147 19.2369 148.188 19.5075 148.178 19.7788C148.192 20.0481 148.154 20.3175 148.064 20.5695C147.975 20.8215 147.838 21.0503 147.662 21.241C147.485 21.4317 147.273 21.58 147.04 21.6763C146.807 21.7725 146.558 21.8144 146.309 21.7994L146.306 21.8055Z" fill="current"/>
<path id="path273" d="M147.661 0.737362C147.834 0.930535 147.968 1.15967 148.057 1.41085C148.145 1.66204 148.186 1.93003 148.176 2.19858C148.185 2.46982 148.145 2.74041 148.056 2.99448C147.968 3.24854 147.833 3.48097 147.661 3.67814C147.484 3.8698 147.272 4.0196 147.039 4.11802C146.806 4.21643 146.556 4.2613 146.306 4.24978H142.702C142.404 4.24734 142.109 4.30893 141.833 4.43096C141.558 4.553 141.307 4.73305 141.097 4.96063C140.886 5.18821 140.719 5.45878 140.606 5.75659C140.494 6.0544 140.437 6.3735 140.439 6.69534V12.8673C140.449 13.1376 140.407 13.4071 140.316 13.6591C140.225 13.911 140.086 14.14 139.91 14.3316C139.728 14.5188 139.513 14.6648 139.278 14.7609C139.042 14.8569 138.792 14.9012 138.541 14.891C138.291 14.9056 138.042 14.8632 137.809 14.7667C137.576 14.6701 137.364 14.5215 137.187 14.3305C137.011 14.1396 136.874 13.9106 136.785 13.6584C136.696 13.4063 136.657 13.1368 136.671 12.8673V6.70452C136.654 5.84372 136.799 4.98816 137.096 4.18922C137.393 3.39028 137.836 2.66442 138.399 2.05518C138.962 1.44594 139.633 0.965877 140.372 0.643819C141.111 0.321761 141.902 0.164348 142.699 0.181004H146.303C146.552 0.168724 146.802 0.211745 147.035 0.307426C147.269 0.403108 147.482 0.549422 147.661 0.737362Z" fill="current"/>
<path id="path275" d="M137.491 8.94218H143.378C143.629 8.93176 143.879 8.97562 144.114 9.07115C144.349 9.16669 144.564 9.312 144.747 9.49855C144.924 9.68983 145.062 9.9187 145.153 10.1707C145.244 10.4228 145.286 10.6925 145.276 10.9628C145.287 11.2355 145.246 11.5079 145.155 11.7625C145.064 12.0171 144.924 12.2483 144.746 12.4413C144.567 12.6344 144.353 12.785 144.118 12.8836C143.882 12.9822 143.63 13.0267 143.378 13.014H137.406" fill="current"/>
<path id="path277" d="M193.125 21.775H187.224C186.427 21.7917 185.636 21.6342 184.897 21.3122C184.158 20.9901 183.487 20.5101 182.924 19.9008C182.361 19.2916 181.918 18.5657 181.621 17.7668C181.324 16.9679 181.179 16.1123 181.196 15.2515V7.94539C181.181 7.67584 181.22 7.40607 181.309 7.15373C181.398 6.90139 181.535 6.67218 181.711 6.48112C181.888 6.29006 182.1 6.14147 182.333 6.04507C182.567 5.94866 182.816 5.90661 183.066 5.92169C183.316 5.91123 183.567 5.95536 183.801 6.05147C184.036 6.14757 184.251 6.29368 184.432 6.48112C184.61 6.67202 184.749 6.90077 184.84 7.15285C184.932 7.40492 184.974 7.67482 184.964 7.94539V15.2484C184.96 15.5706 185.017 15.8903 185.129 16.1887C185.242 16.487 185.408 16.7581 185.619 16.9859C185.83 17.2138 186.081 17.3938 186.357 17.5154C186.633 17.637 186.929 17.6977 187.227 17.694H193.128C193.377 17.6835 193.626 17.7288 193.859 17.8272C194.092 17.9255 194.303 18.0748 194.48 18.2656C194.653 18.4624 194.788 18.6947 194.877 18.9488C194.966 19.2029 195.007 19.4737 194.998 19.7452C195.011 20.0144 194.972 20.2836 194.883 20.5354C194.793 20.7871 194.656 21.0157 194.48 21.2064C194.303 21.397 194.092 21.5453 193.859 21.6417C193.626 21.7381 193.377 21.7804 193.128 21.7658L193.125 21.775Z" fill="current"/>
<path id="path279" d="M192.18 0.706676C192.354 0.899744 192.49 1.12923 192.579 1.38103C192.668 1.63283 192.708 1.90164 192.698 2.17095C192.708 2.44199 192.667 2.71236 192.578 2.96601C192.489 3.21966 192.354 3.45139 192.18 3.64745C192.004 3.83958 191.793 3.98993 191.56 4.08888C191.327 4.18784 191.078 4.23323 190.828 4.22216H187.224C186.926 4.21848 186.63 4.27921 186.354 4.4008C186.078 4.5224 185.827 4.7024 185.616 4.93023C185.405 5.15805 185.239 5.42912 185.126 5.72749C185.014 6.02587 184.958 6.34554 184.961 6.66772V12.8366C184.971 13.1072 184.929 13.3771 184.838 13.6292C184.746 13.8812 184.607 14.11 184.429 14.3009C184.248 14.4883 184.033 14.6345 183.799 14.7306C183.564 14.8267 183.314 14.8708 183.063 14.8603C182.813 14.8754 182.564 14.8334 182.331 14.737C182.097 14.6406 181.885 14.492 181.709 14.3009C181.532 14.1098 181.395 13.8806 181.306 13.6283C181.217 13.376 181.179 13.1062 181.193 12.8366V6.67384C181.176 5.8128 181.32 4.95686 181.616 4.15753C181.913 3.3582 182.356 2.63199 182.92 2.02257C183.483 1.41316 184.154 0.933123 184.893 0.61137C185.633 0.289617 186.424 0.132781 187.221 0.1503H190.825C191.074 0.138623 191.323 0.181944 191.556 0.277604C191.789 0.373264 192.001 0.519268 192.18 0.706676Z" fill="current"/>
<path id="path281" d="M182.011 8.91142H187.901C188.151 8.90095 188.402 8.94509 188.636 9.04119C188.871 9.13729 189.085 9.28341 189.267 9.47084C189.445 9.66106 189.584 9.88924 189.675 10.1408C189.767 10.3924 189.809 10.6619 189.799 10.9321C189.81 11.2048 189.769 11.4771 189.678 11.7317C189.587 11.9863 189.447 12.2175 189.269 12.4106C189.09 12.6036 188.876 12.7543 188.641 12.8529C188.405 12.9515 188.153 12.9959 187.901 12.9833H181.929" fill="current"/>
<path id="path283" d="M72.2357 61.7233H72.1254C71.3288 61.7399 70.5373 61.5825 69.7984 61.2605C69.0595 60.9384 68.3885 60.4583 67.8255 59.8491C67.2625 59.2399 66.8192 58.514 66.5222 57.7151C66.2252 56.9161 66.0807 56.0606 66.0972 55.1998V40.0434C66.1006 39.723 66.0437 39.4053 65.9299 39.1094C65.8161 38.8135 65.6478 38.5458 65.4353 38.3224C65.2314 38.0897 64.9851 37.9053 64.712 37.7806C64.4389 37.6559 64.1448 37.5937 63.8483 37.5979C63.5505 37.5954 63.2552 37.657 62.9796 37.7791C62.7041 37.9011 62.4537 38.0812 62.2431 38.3087C62.0325 38.5363 61.8659 38.8069 61.7529 39.1047C61.64 39.4025 61.583 39.7216 61.5853 40.0434V53.066C61.5953 53.3363 61.5534 53.6059 61.4624 53.8579C61.3713 54.1099 61.2331 54.3388 61.0563 54.5303C60.8743 54.7177 60.6593 54.8637 60.4242 54.9598C60.189 55.0559 59.9384 55.1001 59.6872 55.0897C59.4378 55.1043 59.1884 55.0619 58.9553 54.9654C58.7221 54.8688 58.5104 54.7202 58.3339 54.5292C58.1575 54.3383 58.0203 54.1092 57.9313 53.8571C57.8423 53.605 57.8034 53.3354 57.8173 53.066V40.0434C57.8078 39.1832 57.9577 38.3297 58.258 37.533C58.5583 36.7363 59.0031 36.0126 59.5661 35.4045C60.1291 34.7964 60.799 34.3161 61.5364 33.9919C62.2737 33.6677 63.0637 33.5062 63.8596 33.5169C65.4207 33.5058 66.9248 34.1503 68.0548 35.3143C68.633 35.8557 69.0952 36.5266 69.4093 37.2804C69.7234 38.0343 69.8819 38.853 69.8737 39.6797V55.2059C69.8706 55.528 69.9271 55.8474 70.0398 56.1456C70.1524 56.4438 70.319 56.7147 70.5298 56.9424C70.7405 57.1702 70.9912 57.3502 71.2671 57.4719C71.543 57.5937 71.8387 57.6547 72.1367 57.6514H72.247C72.4994 57.6388 72.7514 57.6832 72.987 57.7818C73.2226 57.8805 73.4365 58.0311 73.6152 58.2241C73.7938 58.4172 73.9332 58.6484 74.0245 58.903C74.1157 59.1576 74.1568 59.4299 74.1452 59.7026C74.1551 59.9727 74.1129 60.2421 74.0213 60.4937C73.9298 60.7452 73.7909 60.9734 73.6133 61.1639C73.4307 61.353 73.2144 61.5 72.9776 61.5962C72.7408 61.6924 72.4884 61.7356 72.2357 61.7233Z" fill="current"/>
<path id="path285" d="M19.7081 53.0416C19.7228 53.3141 19.6841 53.5869 19.5944 53.842C19.5047 54.0972 19.3661 54.3289 19.1876 54.5221C19.0092 54.7152 18.7949 54.8654 18.5589 54.9627C18.3229 55.06 18.0706 55.1023 17.8184 55.0867C17.5646 55.0973 17.3113 55.0527 17.0737 54.9555C16.8361 54.8584 16.619 54.7107 16.4351 54.5212C16.2556 54.3283 16.1151 54.0971 16.0226 53.8424C15.93 53.5877 15.8875 53.315 15.8977 53.0416V37.3992H13.4168C13.1618 37.4114 12.9073 37.3661 12.6694 37.2662C12.4315 37.1664 12.2153 37.0142 12.0347 36.8193C11.8541 36.6244 11.713 36.3911 11.6202 36.1342C11.5275 35.8772 11.4852 35.6022 11.4961 35.3266C11.4852 35.0531 11.5274 34.7802 11.62 34.5254C11.7125 34.2706 11.8534 34.0395 12.0335 33.8471C12.2173 33.6576 12.4345 33.5099 12.6721 33.4127C12.9097 33.3156 13.163 33.271 13.4168 33.2815H22.3332C22.5871 33.271 22.8403 33.3156 23.0779 33.4127C23.3155 33.5099 23.5327 33.6576 23.7165 33.8471C23.8957 34.0401 24.0357 34.2714 24.1278 34.5261C24.2198 34.7808 24.2618 35.0534 24.2511 35.3266C24.2628 35.6022 24.2212 35.8773 24.1289 36.1345C24.0367 36.3916 23.8958 36.6252 23.7153 36.8202C23.5348 37.0153 23.3187 37.1675 23.0807 37.2672C22.8428 37.3669 22.5882 37.4119 22.3332 37.3992H19.7081V53.0416Z" fill="current"/>
<path id="path287" d="M52.6976 55.1479C51.3547 55.1721 50.0209 54.9072 48.7737 54.3687C47.5266 53.8301 46.3912 53.0287 45.4336 52.011C44.476 50.9934 43.7155 49.7799 43.1964 48.4414C42.6773 47.1029 42.4099 45.666 42.4099 44.2147C42.4099 42.7634 42.6773 41.3266 43.1964 39.988C43.7155 38.6495 44.476 37.4361 45.4336 36.4184C46.3912 35.4008 47.5266 34.5993 48.7737 34.0607C50.0209 33.5222 51.3547 33.2573 52.6976 33.2816C52.9514 33.271 53.2047 33.3156 53.4423 33.4127C53.6799 33.5099 53.897 33.6576 54.0809 33.8471C54.261 34.0396 54.4018 34.2706 54.4944 34.5254C54.587 34.7802 54.6292 35.0531 54.6183 35.3266C54.6292 35.6022 54.5869 35.8772 54.4941 36.1342C54.4014 36.3911 54.2603 36.6244 54.0796 36.8193C53.899 37.0142 53.6829 37.1664 53.445 37.2662C53.2071 37.3661 52.9525 37.4114 52.6976 37.3993C51.8686 37.3983 51.0476 37.5739 50.2815 37.9161C49.5153 38.2583 48.8191 38.7602 48.2327 39.3934C47.6462 40.0265 47.1809 40.7783 46.8635 41.6058C46.5461 42.4334 46.3827 43.3204 46.3827 44.2162C46.3827 45.1121 46.5461 45.9991 46.8635 46.8267C47.1809 47.6542 47.6462 48.406 48.2327 49.0391C48.8191 49.6722 49.5153 50.1742 50.2815 50.5164C51.0476 50.8585 51.8686 51.0342 52.6976 51.0332C52.9528 51.0202 53.2077 51.0648 53.446 51.1643C53.6843 51.2638 53.9008 51.416 54.0816 51.6111C54.2624 51.8061 54.4035 52.0399 54.4959 52.2972C54.5883 52.5546 54.63 52.83 54.6183 53.1058C54.6288 53.3793 54.5865 53.6521 54.4939 53.9068C54.4014 54.1616 54.2607 54.3927 54.0809 54.5854C53.8969 54.7745 53.6797 54.9217 53.442 55.0184C53.2044 55.115 52.9512 55.159 52.6976 55.1479Z" fill="current"/>
<path id="path289" d="M83.3195 33.2815C85.6369 33.2999 87.8769 34.1849 89.6589 35.786C91.4408 37.3872 92.6547 39.6057 93.0944 42.0645C93.5341 44.5234 93.1723 47.071 92.0707 49.2742C90.969 51.4775 89.1953 53.2006 87.0511 54.1507C84.9069 55.1008 82.5244 55.2192 80.3085 54.4859C78.0927 53.7526 76.1801 52.2128 74.8958 50.1282C73.6116 48.0435 73.0349 45.5427 73.2638 43.0505C73.4926 40.5584 74.513 38.2288 76.1513 36.4576C77.0821 35.4273 78.1984 34.614 79.4312 34.0677C80.664 33.5215 81.9873 33.2539 83.3195 33.2815ZM83.3195 37.3992C81.8829 37.4165 80.4961 37.9705 79.3945 38.967C78.2928 39.9636 77.5441 41.3413 77.2755 42.8665C77.0068 44.3917 77.2348 45.9703 77.9206 47.3346C78.6065 48.6988 79.708 49.7646 81.0382 50.351C82.3685 50.9375 83.8455 51.0085 85.2187 50.5521C86.5919 50.0957 87.7767 49.1398 88.572 47.8468C89.3673 46.5538 89.7241 45.0033 89.5819 43.4584C89.4397 41.9135 88.8072 40.4693 87.7918 39.3709C87.2103 38.7299 86.5135 38.2243 85.7444 37.8852C84.9753 37.5461 84.15 37.3807 83.3195 37.3992Z" fill="current"/>
<path id="path291" d="M103.947 55.0866H102.708C101.903 55.1037 101.102 54.9446 100.355 54.619C99.6081 54.2934 98.9295 53.8079 98.3604 53.1917C97.7912 52.5755 97.3433 51.8413 97.0433 51.0333C96.7434 50.2253 96.5977 49.3601 96.615 48.4897V35.3448C96.6003 35.0722 96.639 34.7993 96.7287 34.544C96.8183 34.2887 96.9569 34.0568 97.1353 33.8634C97.3138 33.67 97.528 33.5196 97.7639 33.4219C97.9999 33.3242 98.2523 33.2816 98.5046 33.2967C98.7584 33.2866 99.0115 33.3315 99.2491 33.4286C99.4866 33.5257 99.7038 33.6731 99.8879 33.8622C100.067 34.056 100.207 34.2878 100.299 34.543C100.391 34.7981 100.433 35.0712 100.423 35.3448V48.5111C100.419 48.8369 100.475 49.1602 100.589 49.4621C100.702 49.7639 100.87 50.0382 101.083 50.2689C101.296 50.4996 101.55 50.6819 101.829 50.8053C102.108 50.9287 102.407 50.9905 102.708 50.9872H103.95C104.203 50.9756 104.455 51.0211 104.691 51.1205C104.927 51.22 105.141 51.3713 105.319 51.565C105.495 51.7636 105.631 51.9983 105.721 52.255C105.811 52.5118 105.852 52.7855 105.843 53.0598C105.857 53.3323 105.818 53.605 105.728 53.86C105.638 54.115 105.499 54.3466 105.32 54.5394C105.141 54.7323 104.927 54.8821 104.691 54.979C104.455 55.076 104.202 55.1178 103.95 55.1019L103.947 55.0866Z" fill="current"/>
<path id="path293" d="M119.161 33.2815C121.478 33.2999 123.718 34.1849 125.5 35.786C127.282 37.3872 128.496 39.6057 128.935 42.0645C129.375 44.5234 129.013 47.0709 127.912 49.2742C126.81 51.4775 125.036 53.2006 122.892 54.1507C120.748 55.1008 118.365 55.2192 116.15 54.4859C113.934 53.7526 112.021 52.2128 110.737 50.1282C109.453 48.0435 108.876 45.5427 109.105 43.0505C109.334 40.5584 110.354 38.2288 111.992 36.4576C112.923 35.4273 114.039 34.614 115.272 34.0677C116.505 33.5215 117.828 33.2539 119.161 33.2815ZM119.161 37.3992C117.724 37.4186 116.339 37.9743 115.238 38.972C114.138 39.9697 113.391 41.348 113.124 42.8731C112.857 44.3981 113.086 45.9761 113.773 47.3394C114.459 48.7026 115.561 49.7673 116.892 50.3526C118.222 50.938 119.698 51.0081 121.071 50.551C122.444 50.0939 123.628 49.1379 124.423 47.8449C125.217 46.552 125.574 45.0018 125.431 43.4573C125.289 41.9128 124.656 40.469 123.641 39.3709C123.059 38.7287 122.361 38.2225 121.59 37.8833C120.819 37.5442 119.992 37.3794 119.161 37.3992Z" fill="current"/>
<path id="path295" d="M144.727 42.1559H150.767C151.016 42.1555 151.262 42.211 151.491 42.3189C151.719 42.4268 151.924 42.5847 152.093 42.7826C152.273 42.9707 152.415 43.1959 152.513 43.4449C152.61 43.6938 152.66 43.9614 152.659 44.2316C152.663 46.7972 151.834 49.2831 150.317 51.2568C148.8 53.2305 146.691 54.567 144.357 55.034C142.022 55.5009 139.61 55.0687 137.54 53.8125C135.47 52.5563 133.873 50.5557 133.026 48.1585C132.18 45.7614 132.138 43.1195 132.908 40.6925C133.678 38.2655 135.211 36.2068 137.24 34.8748C139.269 33.5427 141.666 33.0214 144.014 33.4017C146.362 33.7819 148.512 35.0397 150.091 36.956C150.265 37.1427 150.402 37.3657 150.494 37.6116C150.586 37.8574 150.631 38.1209 150.626 38.3861C150.62 38.6512 150.565 38.9124 150.464 39.1537C150.362 39.3951 150.216 39.6115 150.034 39.7898C149.854 39.9899 149.639 40.1488 149.402 40.257C149.164 40.3652 148.909 40.4205 148.651 40.4196C148.384 40.4117 148.123 40.3416 147.884 40.2138C147.645 40.0861 147.435 39.9039 147.267 39.6798C146.692 38.9901 145.994 38.4329 145.214 38.0417C144.435 37.6505 143.59 37.4333 142.732 37.403C141.873 37.3728 141.017 37.5301 140.216 37.8656C139.414 38.2012 138.684 38.708 138.068 39.3557C137.385 40.0866 136.865 40.976 136.547 41.9565C136.229 42.937 136.121 43.9828 136.233 45.0147C136.345 46.0466 136.672 47.0375 137.191 47.9123C137.709 48.7871 138.406 49.5228 139.226 50.0637C140.047 50.6046 140.971 50.9365 141.928 51.0342C142.885 51.1319 143.851 50.9929 144.751 50.6276C145.651 50.2624 146.462 49.6805 147.123 48.9262C147.784 48.1718 148.277 47.2647 148.566 46.2736H144.727C144.474 46.2848 144.222 46.2392 143.987 46.1398C143.751 46.0403 143.537 45.8892 143.358 45.6958C143.183 45.4968 143.047 45.262 142.958 45.0052C142.869 44.7485 142.828 44.4751 142.838 44.201C142.823 43.9285 142.861 43.6558 142.951 43.4006C143.041 43.1454 143.179 42.9137 143.358 42.7206C143.536 42.5274 143.751 42.3772 143.987 42.2799C144.223 42.1826 144.475 42.1403 144.727 42.1559Z" fill="current"/>
<path id="path297" d="M159.567 35.3297V53.0416C159.577 53.3154 159.534 53.5885 159.442 53.8437C159.349 54.0988 159.209 54.3305 159.029 54.5242C158.845 54.7125 158.628 54.8592 158.39 54.9557C158.153 55.0523 157.9 55.0968 157.646 55.0867C157.394 55.1028 157.141 55.0608 156.905 54.9637C156.669 54.8666 156.454 54.7164 156.276 54.5232C156.097 54.3299 155.959 54.098 155.869 53.8426C155.78 53.5872 155.741 53.3142 155.756 53.0416V35.3297C155.742 35.0571 155.78 34.7842 155.87 34.5289C155.96 34.2736 156.098 34.0416 156.277 33.8483C156.455 33.6549 156.669 33.5044 156.905 33.4068C157.141 33.3091 157.394 33.2664 157.646 33.2815C157.9 33.2711 158.153 33.3158 158.391 33.413C158.628 33.5101 158.845 33.6577 159.029 33.8471C159.209 34.0406 159.349 34.2722 159.442 34.5274C159.535 34.7826 159.577 35.0558 159.567 35.3297Z" fill="current"/>
<path id="path299" d="M172.891 55.1479C171.548 55.1721 170.214 54.9072 168.967 54.3687C167.72 53.8301 166.584 53.0287 165.627 52.011C164.669 50.9934 163.909 49.7799 163.39 48.4414C162.871 47.1029 162.603 45.666 162.603 44.2147C162.603 42.7634 162.871 41.3266 163.39 39.988C163.909 38.6495 164.669 37.4361 165.627 36.4184C166.584 35.4008 167.72 34.5993 168.967 34.0607C170.214 33.5222 171.548 33.2573 172.891 33.2816C173.145 33.271 173.398 33.3156 173.636 33.4127C173.873 33.5099 174.09 33.6576 174.274 33.8471C174.454 34.0396 174.595 34.2706 174.688 34.5254C174.78 34.7802 174.822 35.0531 174.812 35.3266C174.822 35.6022 174.78 35.8772 174.687 36.1342C174.595 36.3911 174.453 36.6244 174.273 36.8193C174.092 37.0142 173.876 37.1664 173.638 37.2662C173.4 37.3661 173.146 37.4114 172.891 37.3993C172.062 37.3983 171.241 37.5739 170.475 37.9161C169.709 38.2583 169.012 38.7602 168.426 39.3934C167.839 40.0265 167.374 40.7783 167.057 41.6058C166.739 42.4334 166.576 43.3204 166.576 44.2162C166.576 45.1121 166.739 45.9991 167.057 46.8267C167.374 47.6542 167.839 48.406 168.426 49.0391C169.012 49.6722 169.709 50.1742 170.475 50.5164C171.241 50.8585 172.062 51.0342 172.891 51.0332C173.146 51.0202 173.401 51.0648 173.639 51.1643C173.878 51.2638 174.094 51.416 174.275 51.6111C174.456 51.8061 174.597 52.0399 174.689 52.2972C174.782 52.5546 174.823 52.83 174.812 53.1058C174.822 53.3793 174.78 53.6521 174.687 53.9068C174.595 54.1616 174.454 54.3927 174.274 54.5854C174.09 54.7745 173.873 54.9217 173.635 55.0184C173.398 55.115 173.144 55.159 172.891 55.1479Z" fill="current"/>
<path id="path301" d="M37.6006 55.1171H33.9684C33.1629 55.1338 32.3626 54.9745 31.6155 54.6487C30.8684 54.323 30.1898 53.8375 29.6205 53.2214C29.0512 52.6054 28.603 51.8714 28.3026 51.0636C28.0022 50.2558 27.8559 49.3907 27.8724 48.5202V41.1408C27.8581 40.8683 27.8971 40.5956 27.987 40.3406C28.0768 40.0855 28.2154 39.8537 28.3937 39.6604C28.572 39.4672 28.7861 39.3167 29.0218 39.2189C29.2576 39.121 29.5098 39.078 29.762 39.0926C30.0159 39.0821 30.2691 39.1267 30.5067 39.2238C30.7443 39.321 30.9615 39.4687 31.1453 39.6582C31.3249 39.8517 31.4654 40.0833 31.558 40.3385C31.6505 40.5937 31.693 40.8669 31.6828 41.1408V48.5264C31.679 48.8521 31.7355 49.1755 31.8489 49.4773C31.9624 49.7792 32.1305 50.0535 32.3434 50.2842C32.5564 50.5149 32.8098 50.6972 33.0889 50.8206C33.3679 50.9439 33.667 51.0058 33.9684 51.0025H37.6119C37.8649 50.9915 38.1173 51.0375 38.353 51.1375C38.5887 51.2374 38.8026 51.3893 38.9811 51.5833C39.1564 51.7819 39.2931 52.0166 39.383 52.2734C39.4729 52.5302 39.5142 52.8038 39.5044 53.0782C39.5188 53.3507 39.4797 53.6234 39.3896 53.8784C39.2996 54.1334 39.1606 54.3649 38.9819 54.5578C38.8032 54.7506 38.5887 54.9004 38.3526 54.9974C38.1165 55.0943 37.8641 55.1362 37.6119 55.1202L37.6006 55.1171Z" fill="current"/>
<path id="path303" d="M38.9696 33.8164C39.1451 34.0111 39.2821 34.2425 39.3721 34.4963C39.4621 34.7502 39.5032 35.0212 39.4929 35.2929C39.5027 35.5672 39.4614 35.8409 39.3715 36.0976C39.2816 36.3544 39.145 36.5891 38.9696 36.7877C38.7915 36.9823 38.5777 37.1346 38.3419 37.2346C38.1061 37.3346 37.8535 37.3803 37.6005 37.3685H33.9683C33.6668 37.3652 33.3678 37.4271 33.0887 37.5505C32.8096 37.6738 32.5562 37.8562 32.3433 38.0868C32.1304 38.3175 31.9622 38.5918 31.8488 38.8937C31.7353 39.1955 31.6788 39.5189 31.6826 39.8446V46.0808C31.6928 46.3547 31.6503 46.6279 31.5578 46.8831C31.4653 47.1383 31.3248 47.3699 31.1451 47.5634C30.9613 47.7529 30.7442 47.9006 30.5066 47.9978C30.269 48.0949 30.0157 48.1395 29.7619 48.129C29.5099 48.1435 29.258 48.1006 29.0224 48.003C28.7868 47.9053 28.573 47.7551 28.3947 47.5622C28.2164 47.3692 28.0777 47.1379 27.9877 46.8832C27.8977 46.6285 27.8584 46.3561 27.8722 46.0839V39.8477C27.8561 38.9774 28.0027 38.1125 28.3032 37.3049C28.6038 36.4972 29.0521 35.7634 29.6213 35.1475C30.1905 34.5315 30.8689 34.046 31.6158 33.7201C32.3628 33.3942 33.1629 33.2346 33.9683 33.2508H37.6118C37.8617 33.241 38.1109 33.2861 38.3443 33.3833C38.5777 33.4805 38.7904 33.6278 38.9696 33.8164Z" fill="current"/>
<path id="path305" d="M28.6871 42.0945H34.6417C34.8951 42.0841 35.1479 42.1289 35.385 42.226C35.6221 42.3232 35.8388 42.4707 36.0222 42.66C36.2023 42.8525 36.3432 43.0835 36.4357 43.3384C36.5283 43.5932 36.5705 43.8661 36.5597 44.1396C36.5713 44.4151 36.5297 44.6902 36.4374 44.9474C36.3452 45.2046 36.2043 45.4381 36.0239 45.6332C35.8434 45.8282 35.6273 45.9804 35.3893 46.0801C35.1513 46.1798 34.8967 46.2248 34.6417 46.2122H28.5938" fill="current"/>
<path id="path307" d="M183.329 36.9007V52.3414C183.339 52.6152 183.297 52.8884 183.204 53.1436C183.112 53.3988 182.971 53.6305 182.792 53.824C182.608 54.0133 182.391 54.1609 182.153 54.2581C181.915 54.3552 181.662 54.3999 181.408 54.3895C181.156 54.4046 180.904 54.3619 180.668 54.2643C180.432 54.1666 180.217 54.0162 180.039 53.8228C179.861 53.6294 179.722 53.3974 179.632 53.1422C179.543 52.8869 179.504 52.614 179.519 52.3414V36.9007C179.504 36.6281 179.543 36.3552 179.632 36.0999C179.722 35.8446 179.861 35.6127 180.039 35.4193C180.217 35.2259 180.432 35.0755 180.668 34.9778C180.904 34.8802 181.156 34.8375 181.408 34.8526C181.662 34.8422 181.915 34.8869 182.153 34.984C182.391 35.0811 182.608 35.2288 182.792 35.4181C182.971 35.6116 183.112 35.8433 183.204 36.0985C183.297 36.3537 183.339 36.6269 183.329 36.9007Z" fill="current"/>
<path id="path309" d="M181.411 35.5987C180.568 35.5987 179.743 35.3283 179.041 34.8217C178.34 34.3152 177.793 33.5952 177.47 32.7529C177.147 31.9106 177.063 30.9836 177.227 30.0894C177.392 29.1952 177.798 28.3738 178.395 27.7291C178.991 27.0844 179.752 26.6454 180.579 26.4675C181.406 26.2896 182.264 26.3809 183.044 26.7298C183.823 27.0787 184.489 27.6696 184.958 28.4277C185.427 29.1858 185.677 30.077 185.677 30.9888C185.676 32.2109 185.226 33.3825 184.426 34.2467C183.626 35.1108 182.542 35.597 181.411 35.5987ZM181.411 29.2066C181.085 29.2066 180.766 29.3111 180.495 29.5069C180.224 29.7028 180.012 29.9811 179.888 30.3068C179.763 30.6324 179.73 30.9907 179.794 31.3365C179.857 31.6822 180.014 31.9997 180.245 32.249C180.476 32.4982 180.77 32.668 181.089 32.7367C181.409 32.8055 181.741 32.7702 182.042 32.6353C182.344 32.5004 182.601 32.272 182.782 31.9789C182.964 31.6858 183.06 31.3413 183.06 30.9888C183.06 30.5164 182.886 30.0635 182.577 29.7295C182.267 29.3954 181.848 29.2074 181.411 29.2066Z" fill="current"/>
<path id="path311" d="M183.329 35.2409V52.9711C183.329 53.0354 183.329 53.127 183.329 53.1668C183.312 53.6555 183.117 54.117 182.786 54.4507C182.602 54.6401 182.385 54.7877 182.147 54.8848C181.91 54.9819 181.657 55.0266 181.403 55.0162C181.151 55.0277 180.9 54.9835 180.664 54.8862C180.429 54.789 180.214 54.6408 180.034 54.4507C179.721 54.1075 179.537 53.651 179.519 53.1698C179.519 53.1056 179.519 53.0384 179.519 52.9711V35.2409C179.504 34.9684 179.543 34.6956 179.632 34.4405C179.722 34.1853 179.861 33.9535 180.039 33.7604C180.218 33.5673 180.432 33.4171 180.668 33.3198C180.904 33.2225 181.156 33.1802 181.408 33.1958C181.662 33.1854 181.915 33.2301 182.153 33.3272C182.391 33.4243 182.608 33.5719 182.792 33.7613C182.971 33.9542 183.112 34.1854 183.204 34.4401C183.297 34.6948 183.339 34.9675 183.329 35.2409Z" fill="current"/>
</g>
</svg>
