<svg width="62" height="62" viewBox="0 0 62 62" fill="none" xmlns="http://www.w3.org/2000/svg">
<path fill-rule="evenodd" clip-rule="evenodd" d="M27.0921 20.2078C28.6758 18.0736 29.2437 15.8243 27.4526 13.8389C23.4331 8.21455 20.7299 4.73649 19.0344 3.06154C15.8109 -0.122749 10.5081 0.307976 7.71637 3.05882C6.21687 4.53633 5.70923 5.04371 4.16957 6.60756C-4.40652 15.1883 0.823624 33.3276 14.7273 47.2449C28.6278 61.159 46.7653 66.392 55.3594 57.7931C56.7802 56.4235 57.9831 55.2199 58.9318 54.2172C61.6677 51.3255 62.083 46.2566 58.9138 42.9637C57.289 41.2754 53.9723 38.7027 48.1114 34.5103C46.3164 32.9052 44.188 33.2531 42.2367 34.5333C41.2981 35.1491 40.615 35.772 39.3252 37.0631L36.983 39.4066C36.6745 39.7152 32.4856 37.6174 28.4193 33.5472C24.3508 29.4747 22.2545 25.2855 22.5615 24.9785C23.1947 24.3454 23.976 23.5637 24.9053 22.6334C25.3146 22.2238 25.5102 22.0255 25.7611 21.7618C26.2838 21.2124 26.7166 20.7138 27.0921 20.2078ZM41.3035 43.7295L43.6462 41.3856C44.356 40.675 44.8161 40.2381 45.1903 39.9369C50.3246 43.6239 53.298 45.9423 54.5126 47.2043C55.2418 47.962 55.1285 49.3445 54.4946 50.0145C53.6173 50.9417 52.4776 52.0821 51.0789 53.4311C45.5217 58.9907 30.8806 54.7666 19.0487 42.9231C7.2131 31.0759 2.99096 16.4325 8.50625 10.9142C10.0397 9.3568 10.5255 8.8712 12.0036 7.41479C12.5578 6.86872 14.0674 6.7461 14.7416 7.41207C16.047 8.70162 18.4686 11.8022 22.0308 16.7643C21.8464 16.9933 21.616 17.252 21.3357 17.5466C21.13 17.7628 20.9586 17.9365 20.5839 18.3116C19.6553 19.2412 18.8747 20.0221 18.2424 20.6544C14.2591 24.6374 17.6514 31.4164 24.0979 37.8692C30.54 44.3176 37.3215 47.7138 41.3035 43.7295Z" fill="#025300"/>
</svg>
