<?xml version="1.0" encoding="UTF-8" standalone="no"?>
<svg
   width="239.47737"
   height="80.780724"
   viewBox="0 0 239.47737 80.780724"
   fill="none"
   version="1.1"
   id="svg10"
   xmlns="http://www.w3.org/2000/svg"
   xmlns:svg="http://www.w3.org/2000/svg">
  <defs
     id="defs14" />
  <path
     d="M 239.47737,37.02318 82.475959,37.14686 c 0,0 -6.000493,-10.515941 -11.227128,-13.574614 -5.226634,-3.058674 -11.36659,-4.170447 -17.333903,-3.138805 -5.967314,1.031642 -11.377569,4.140267 -15.274028,8.776179 -3.896423,4.63578 -6.027925,10.50027 -6.017606,16.55608 0.01032,6.05581 2.161772,11.91291 6.073948,16.53551 3.912177,4.62259 9.332974,7.71274 15.303857,8.72406 5.970796,1.01136 12.106885,-0.12134 17.323096,-3.19783 5.216174,-3.07634 9.176472,-7.89825 11.180518,-13.61292 L 239.43587,54.09194 Z M 58.654005,54.20816 c -1.691569,0.006 -3.34682,-0.48991 -4.756452,-1.42511 -1.409583,-0.93511 -2.510053,-2.26738 -3.162184,-3.82819 -0.652131,-1.56081 -0.826677,-3.27997 -0.501336,-4.93993 0.32529,-1.66004 1.13572,-3.18622 2.328683,-4.38545 1.192963,-1.19923 2.714921,-2.0177 4.373165,-2.35158 1.658279,-0.33402 3.378352,-0.16858 4.942603,0.47541 1.564115,0.64397 2.902197,1.73749 3.844668,3.14215 0.942471,1.40466 1.44708,3.05734 1.449975,4.74897 -0.0044,2.26219 -0.901914,4.43112 -2.497355,6.03492 -1.595442,1.60381 -3.759678,2.51266 -6.021767,2.52881 z"
     fill="current"
     id="path1133" />
  <path
     d="m 149.25795,72.32516 c -3.2123,4.39667 -9.17452,9.39324 -12.16134,8.30422 -1.07925,-0.40429 -2.06907,-3.38824 -1.75701,-12.92216 -0.11946,-1.33279 0.10387,-2.6724 0.65043,-3.89306 0.83004,-1.87621 2.35103,-3.36 4.24597,-4.1428 1.8963,-0.78244 4.02141,-0.8052 5.93306,-0.0616 1.91164,0.74362 3.46286,2.19548 4.33077,4.0538 0.86928,1.85867 0.98814,3.98009 0.33204,5.92308 l 0.0784,-3.6e-4 -0.23397,0.57945 c -0.0109,-0.003 -0.023,-0.002 -0.0345,3.4e-4 -0.011,0.003 -0.0214,0.009 -0.0308,0.0167 -0.009,0.007 -0.016,0.0162 -0.0212,0.0273 -0.004,0.0106 -0.007,0.0224 -0.007,0.034 -0.31704,0.76515 -0.76507,1.46983 -1.32505,2.08106 z"
     fill="current"
     id="path1130" />
  <path
     d="m 26.104098,12.079494 c 4.672134,-9.8076908 7.309306,-12.29733376 8.575679,-12.06495476 3.626811,0.415814 7.016671,8.59992796 7.949317,14.75638676 0.188071,0.919917 0.268332,1.858632 0.239218,2.797288 0.01544,0.01706 0.02398,0.03938 0.02398,0.0625 3e-5,0.02298 -0.0084,0.04533 -0.02374,0.06254 3.08e-4,0.203133 8.09e-4,0.500125 0.0012,0.718936 -0.340056,2.249757 -1.515086,4.28894 -3.291101,5.711227 -1.776016,1.422287 -4.022664,2.123342 -6.292385,1.96361 -2.402952,-0.172432 -4.641274,-1.284626 -6.229987,-3.095713 -1.588712,-1.811086 -2.399855,-4.175276 -2.2577,-6.580213 0.09215,-1.524449 0.573925,-2.999871 1.399421,-4.284891 z"
     fill="current"
     id="path1127" />
  <path
     d="m 12.793004,24.355718 c 1.346079,-0.712716 2.851636,-1.070328 4.374433,-1.039054 2.331247,0.04952 4.554448,0.992247 6.21061,2.633744 1.656025,1.641462 2.618578,3.856282 2.688789,6.186902 0.07012,2.33068 -0.757467,4.59937 -2.311819,6.33748 -1.554353,1.73811 -3.716811,2.81294 -6.040918,3.00248 l 1.93e-4,0.0939 c -0.218811,3.8e-4 -0.515716,8.3e-4 -0.734527,10e-4 -0.0172,0.0154 -0.03952,0.0239 -0.0625,0.024 -0.02307,8e-5 -0.04532,-0.008 -0.06259,-0.0238 -0.937208,-0.0477 -1.865716,-0.20353 -2.767222,-0.46408 C 8.0363851,39.68065 0.15225307,35.64606 0.00531027,31.98898 -0.13750373,30.70764 2.5623353,28.32731 12.714923,24.418318 Z"
     fill="current"
     id="path1124" />
</svg>
