<?xml version="1.0" encoding="UTF-8"?>
<svg fill="current" overflow="hidden" version="1.1" viewBox="0 0 1024 1024" xmlns="http://www.w3.org/2000/svg">
<path d="m438.28 874.89h-248.22v-48.131h200.09v-77.44l-92.539-65.993a31.874 31.874 0 0 1-13.325-25.547c-0.106-10.13 4.676-19.788 12.785-25.828l93.079-69.424v-104.7l74.595-5.924-160.95-298.05 42.35-22.89 196.06 363.1-103.92 8.225v68.413c0 9.989-4.77 19.506-12.762 25.476l-81.716 60.964 81.151 57.862c8.367 5.993 13.326 15.652 13.326 25.875v134.01zm-264.72-592.51a43.988 43.988 0 1 0 87.976 0 43.988 43.988 0 1 0-87.976 0zm381.18 448.77c-10.54 0-20.21-6.98-23.172-17.626-3.56-12.809 3.936-26.064 16.733-29.636 12.15-3.36 20.635-14.524 20.635-27.144 0-12.503-8.015-23.338-19.941-26.957-12.726-3.878-19.894-17.32-16.04-30.035 3.877-12.738 17.38-19.86 30.023-16.028 32.35 9.847 54.089 39.177 54.089 73.02 0 34.147-22.973 64.37-55.863 73.536-2.163 0.589-4.337 0.87-6.464 0.87z"/>
<path d="m625.64 820.53c-8.66 0-17.015-4.676-21.328-12.878-6.18-11.751-1.656-26.298 10.107-32.48 44.3-23.29 71.821-68.813 71.821-118.8 0-49.19-26.886-94.36-70.152-117.88-11.68-6.345-16.005-20.963-9.648-32.643 6.345-11.68 20.94-15.981 32.632-9.66 58.778 31.963 95.3 93.35 95.3 160.19 0 67.919-37.38 129.78-97.556 161.39a23.945 23.945 0 0 1-11.176 2.773z"/>
<path d="m697.73 893.03c-8.66 0-17.016-4.676-21.328-12.88-6.18-11.75-1.656-26.298 10.106-32.479 71.435-37.555 115.8-110.98 115.8-191.58 0-79.342-43.35-152.17-113.11-190.11-11.68-6.37-16.005-20.964-9.648-32.644 6.345-11.703 20.963-15.98 32.632-9.659 85.288 46.37 138.26 135.42 138.26 232.41 0 98.567-54.23 188.3-141.54 234.17a23.94 23.94 0 0 1-11.174 2.773z"/>
</svg>
