<?xml version="1.0" encoding="utf-8"?>
<svg version="1.1"
	 id="svg10" xmlns:dc="http://purl.org/dc/elements/1.1/" xmlns:cc="http://creativecommons.org/ns#" xmlns:rdf="http://www.w3.org/1999/02/22-rdf-syntax-ns#" xmlns:svg="http://www.w3.org/2000/svg" xmlns:inkscape="http://www.inkscape.org/namespaces/inkscape" xmlns:sodipodi="http://sodipodi.sourceforge.net/DTD/sodipodi-0.dtd"
	 xmlns="http://www.w3.org/2000/svg" xmlns:xlink="http://www.w3.org/1999/xlink" x="0px" y="0px" viewBox="0 0 1181 1181"
	 style="enable-background:new 0 0 1181 1181;" xml:space="preserve">
<sodipodi:namedview  bordercolor="current" borderopacity="1" gridtolerance="10" guidetolerance="10" id="namedview12">
	</sodipodi:namedview>
<path id="path20" d="M196.4,1071.6c-11.6-0.8-25.4-3-34.1-5.9c-8-1.9-22.2-10.1-25.9-12.9
	l-1.9-1.9l5.1-7.3c3-4.6,5.9-7.3,5.9-7.3c0.2,0,5.1,1.9,9.1,4.6c17.3,9.1,35.5,13,55.2,13c29.5,0,47.1-9.1,45.9-23.2
	c-0.2-5.1-1.9-9.1-7.3-11.9c-5.1-3-13.7-5.1-42.4-7.3c-36.9-3-48.8-5.1-57.8-11.9c-9-7.3-12.5-20.5-8-33.3
	c3.6-10.6,15.9-19.6,32.8-24.3c7.3-1.9,10.2-1.9,28.9-1.9c17.3-0.1,22.7,0.2,29.3,1.9c14.4,3,29.1,9.1,36.8,14.3l3,1.9l-3,4.6
	c-1.9,1.9-4.6,5.1-5.9,7.3l-3,4.6l-5.1-1.9c-14.1-7.3-30.6-11.2-49-11.9c-25.4-0.8-40.8,4.6-43.9,14.1c-0.8,3-0.8,4.6,0.8,7.3
	c4.6,8,14.7,10.6,50.4,12.8c39.2,3,56.2,9.1,63.4,23.2c3,5.1,3,7.3,3,14.4c0,11.6-1.9,17.8-9.1,24.9c-5.9,5.8-15.9,11.3-25.6,13.6
	c-12.6,3-31.6,4.6-47.1,3L196.4,1071.6z M428.6,1069.7c-11.7-0.8-26.2-7.3-33.1-11.7c-1.9-0.8-1.9-1.9,1.9-7.3l4.6-5.1l5.9,3
	c10.6,5.9,17.4,7.3,33.2,7.3c12.4,0.1,14.6-0.2,19.5-1.9c5.9-1.9,9.1-5.9,9.1-9c0-7.3-5.1-10.1-21.8-10.9c-34.9-3-37.4-3-44.6-8
	c-9.1-5.8-9.1-21.3,0.2-28.6c8-7.3,17.9-9.1,35.6-9.1c15.4,0,25,1.9,35.5,7.3l8,4.6l-5.1,5.1l-5.1,5.1l-4.6-1.9
	c-7.3-4.6-17.8-5.9-29.6-5.9c-17.3-0.1-25.9,3-25.9,9.1c0,5.9,3,7.3,27,9.1c36.1,3,45.2,8,46,23.4c0.8,13.1-7.3,21.3-23.2,25.6
	c-7.3,1.9-25.1,3-34.3,0.8L428.6,1069.7z M874.4,1069.8c-5.9-0.8-13.6-4.6-18.2-5.9c-5.9-3-14.9-12.1-18.3-18.9c-3-5.9-3-7.3-3-16.1
	c0-9.1,0.2-10.1,3-16c10.1-19.5,35.8-29.8,62.3-24.3c9.1,1.9,12.8,3,20.8,9.1c5.9,4.6,13.3,10.6,12.3,11.4c-0.2,0.2-3,0.8-7.3,1.9
	l-5.9,1.9l-5.9-4.6c-7.3-5.1-13.1-7.3-22.2-8c-7.3-0.8-18,0.8-24,3c-5.9,1.9-13,9.1-15.2,14.3c-1.9,5.9-1.9,15.7,0,20.8
	c7.3,16,35.5,22.5,55.4,13c3-0.8,7.3-4.6,9.1-5.1l3-3l5.9,3c3,1.9,5.9,4.6,5.9,4.6c0,0.2-1.9,3-4.6,5.1
	c-10.4,9.1-22.5,13.6-38.3,14.1c-5.9,0.2-12.7,0-15.1-0.2L874.4,1069.8z M326.6,1053.2l0-15.6l-21.9-23.5l-21.9-23.5l9-0.2l9.1-0.2
	l8,8c17.9,18.8,22.2,23.4,24,25.7l1.9,1.9l9.1-9.1c5.1-5.1,12.3-13.1,16.8-17.9l8-9.1l9-0.1l9.1-0.1l-11.9,12.7
	c-7.3,7.3-16.5,17.6-22.2,23.7l-10.4,11.1v15.7v15.7h-8h-8l0-15.6L326.6,1053.2z M506.4,1030.4c0-21.3-0.1-38.8-0.2-39.2
	c-0.1-0.2,3-0.8,7.3-0.8c5.9-0.2,7.3,0,7.3,0.8c0,0.8,0,9,0,18.9c-0.1,15.8,0,17.6,0.8,17.1c0.8-0.2,13-9.1,27-18.9l25.6-18.3
	l11.1,0.2l11.1,0.2l-20.3,14.4c-11.2,8-20.3,14.6-20.3,15.2c0,0.2,10.1,11.3,22.2,24.1c12.2,12.9,22.2,23.7,22.2,24
	c0,0.2-4.6,0.8-9.1,0.8h-9l-18.6-19.7c-10.1-10.9-18.9-19.7-19.5-19.7c-0.2,0-5.9,3-11.9,8l-10.9,8l0.2,11.7l0.2,11.7l-7.3,0.2
	l-7.3,0.2L506.4,1030.4z M615.1,1029.6v-39.4l37.3,0.2c36.1,0.2,37.3,0.2,41.1,1.9c5.1,3,10.6,9.1,11.9,13.5
	c0.8,5.1,0.8,13.1-0.2,17.9c-1.9,5.1-8,11.3-13.3,13c-1.9,0.8-4.6,0.8-5.1,1.9c-0.2,0.2,9.1,13.5,17.8,25.7l3,5.1l-9.1-0.1l-9,0
	l-10.1-14.4l-10.1-14.4l-18.7,0c-10.2,0-19.3,0-20,0c-0.8,0.1-0.8,4.6-0.8,14.5v14.4h-8h-8v-39.4L615.1,1029.6z M686.3,1023.7
	c4.6-3,5.1-7.3,4.6-12.2c-1.9-7.3-3-7.3-33.1-8l-26.7-0.2v11.1v11h26.2c25.8,0,26.4,0,29.6-1.9L686.3,1023.7z M719.2,1068
	c0.2-0.8,10.1-18.3,21.2-39.2l20.7-37.9l10.1-0.2l10.1-0.2l5.9,11.7c4.6,5.9,12.8,23.2,20.3,37.3c8,14,14.4,26.5,15,27.7l0.8,1.9h-8
	h-8l-5.1-9.1l-5.1-9.1l-26.6,0.2l-26.6,0.2l-4.6,8l-3.6,8l-8,0.2c-5.9,0.2-8,0-8-0.8L719.2,1068z M789.1,1037.3
	c0-1.9-17.6-33.6-18.4-32.9c-0.8,0.8-18.2,32.8-18.2,33.5c0,0.2,8,0.2,18.3,0.2C783.6,1038.2,789.1,1038,789.1,1037.3L789.1,1037.3z
	 M945.8,1005.7v-63.5h10.6H967V975v32.8l5.1-3c5.1-3,29.9-22,59.2-43.8c8-5.8,17.5-12.8,20.3-14.9l5.1-4.6l14.6,0.2l14.7,0.2
	l-31.9,23.5c-17.5,13-31.9,23.8-31.9,24.2c0,0.2,13.6,15.7,47.5,52.8c8,9,16.5,18.1,19.1,20.8l5.1,5.1l-13.8-0.1l-13.8-0.1l-5.1-5.8
	c-15.3-17.6-54.9-60.2-56-60c-0.8,0.1-9,5.9-19.5,13.5l-18.3,13.4l-0.1,19.5l-0.1,19.5h-10.6h-10.6L945.8,1005.7z M497.5,964.4
	c-7.3-1.9-13.6-7.3-20.6-13.8c-8-8-10.9-14.4-11.6-23.2c-0.8-12.8,4.6-22.2,22.2-44c14.3-16.9,24.5-30.3,29.8-38.6
	c3-4.6,8-12.9,12.4-19.2c9.1-14.5,14.6-25.1,17.8-36.9c1.9-8,1.9-11.3,1.9-23.7c0-13.1-0.2-15.8-3-29.9c-1.9-8-4.6-20.5-4.6-26.5
	c-1.9-26.1-8-42.7-22.2-63.8c-5.9-8-11.5-15.1-28.8-32.6c-11.9-12.1-27.5-26.9-34.6-32.8c-16.1-13.4-39-36.6-51.2-51.9
	c-18.2-22.7-33.7-49.7-40.5-70.2c-1.9-5.1-5.1-12.3-7.3-15.6c-10.7-17.8-16-38.1-16-62.7c0-12.3,3-47.9,3.6-53.8
	c0.2-1.9,3-9.1,5.9-14.4c3-5.9,5.9-14.7,8-20.2c17.4-61.9,50.5-115.8,92.2-150.3c33.3-27.6,76.4-46.8,118.9-53
	c21.4-3,35.5-4.6,51.3-3c47.5,4.6,88.9,17.9,127,43.4c41.8,27.9,71,66,90.3,117.7c3,7.3,10.1,25.8,16.5,40.8l11.4,27.4l-0.2,35.1
	c-0.2,38.7-0.8,40.8-7.3,63.9c-9.1,31.6-20.3,61.9-31.8,84.6c-15.3,30.2-30.6,51.2-68.3,93.8c-8,9.1-18.1,20.6-22,25.2
	c-7.3,9.1-9,10.1-11.2,9.1c-3-0.8-3-5.1,0.2-9.1c1.9-1.9,3-5.1,3-5.1c0-0.2-1.9,0.8-5.1,1.9l-5.1,3l-3-1.9c-5.1-4.6-3-7.3,8-15.7
	c10.9-8,22.3-19.5,42.4-42.6c26.6-30.6,31.2-37.3,41.5-58.7c5.9-13.7,10.4-24.1,18.2-49.7c5.9-21.1,7.3-23.4,4.6-29.4
	c-0.8-3-3-3-3-0.8c0,0.8-0.8,3-1.9,3.6c-0.8,1.9-0.8,3-0.2,3c0.8,0.8,0.1,5.1-1.9,7.3c-0.8,0.8-1.9,0.8-1.9-0.2
	c-0.8-1.9-0.2-5.8,0.8-5.8c0.2,0,0.8-0.8,0.2-1.9c-0.2-0.8-0.2-1.9,0.2-1.9c0.8,0,1.9-3,0.8-5.1c-0.8-0.8-0.8-1.9-16.5,24.5
	c-19.1,31.7-45.3,74.6-50.6,83c-3,4.6-5.1,8-5.1,8c0.8,0.8,9.1-5.9,11.5-10.1c1.9-1.9,5.1-5.1,7.3-5.9c1.9-0.8,5.1-4.6,5.9-5.1
	c3-3,5.1-3,5.1-0.8c0,1.9-4.6,5.1-9.1,8c-3,1.9-9.1,8-8,8c0.2,0.1,4.6-0.8,9.1-1.9c10.4-3,18-3,17.3-0.8c-0.2,0.8-1.9,0.8-4.6,0.8
	c-1.9,0-7.3,0.8-12.6,1.9c-5.1,0.8-10.1,1.9-10.9,1.9c-0.8-0.1-4.6,0.8-5.9,3c-3,1.9-5.9,4.6-7.3,5.1c-0.8,0.8-3,1.9-3.6,4.6
	c-0.8,0.8-5.1,5.8-10.1,9.1c-5.1,4.6-9,8-10.1,9.1c-0.8,1.9-1.9,1.9-5.1,0.8c-3-0.2-5.1,0.2-34.4,22.2c-16.8,12.5-31.3,23-31.9,23.3
	c-0.8,0.2-0.8,1.9,0,5.1c0.8,3,0.8,3.6-0.2,5.8c-0.8,0.8-1.9,0.8-7.3,0.2c-3-0.8-5.9-0.8-5.9-0.2c-0.2,0.2-1.9,3-3,5.1
	c-0.8,3.6-1.9,5.1-5.9,7.3c-3,0.8-5.9,1.9-10.1,1.9c-5.1,0.2-5.1,0.2-5.9,3c-0.2,1.9,0.2,4.6,3,7.3c3,3,4.6,5.1,4.6,10.1
	c0.8,9.1,0.8,10.9-0.8,10.2c-5.1-0.8,0.2,7.3,5.9,10.2c3,0.8,8,3,11.7,5.1c8,3,22,3,31.4,0.8c5.9-0.8,5.9-0.8,5.9-5.1
	c0.2-1.9,3-8,5.9-13.9c3-5.9,5.9-10.4,5.9-10.6c0-0.2-0.8-0.2-1.9,0.1c-4.6,0.8-3-1.9,0.8-3c1.9-0.8,5.9-4.6,10.1-7.3
	c7.3-5.8,14.9-11.7,15.9-10.6c0.2,0.2,0.8,0.1,1.9-0.2c3-1.9,0.2,7.3-5.1,17.4c-13.1,27-22.3,57.9-26.2,88.3
	c-1.9,15.8-3,43.7-0.8,55.7c1.9,16.5,5.9,24.6,37.3,70.6c12.3,18,14.9,22.5,14.4,24.5c-0.2,1.9-0.2,1.9,0.8,1.9
	c4.6,0,17.3,16.5,21.5,27.8c4.6,9.1,3,21.5,0,29.2c-5.1,10.4-15.7,18.7-28.5,21.5c-10.1,1.9-16.8,0.8-24.3-1.9
	c-5.1-1.9-8-3-15.7-4.6c-9.1-0.8-10.1-0.8-24.5-8c-8-4.6-22.7-11.6-32.3-16.8c-9.1-5.1-18.5-10.1-20-10.1c-5.1-0.8-9.1,0.2-23.4,9
	c-19.1,10.9-60.6,31.7-66.9,33.6c-7.3,1.9-19.2,1.9-26.1-0.2L497.5,964.4z M520.2,944.5c-1.9-0.8,0-5.1,5.1-9l5.1-4.6l-5.1-0.2
	c-7.3-0.8-5.9-1.9,0.8-3c5.1-0.2,7.3-0.8,10.1-1.9c8-5.9,30.3-23.4,29.5-23.7c-0.8-0.2-12.2,3-20,5.8c-7.3,3-8,3-8,0.8
	c0-1.9,21.6-10.1,31.9-11.7c3-0.2,8-4.6,22.2-15.9c11.4-9.1,18.9-16.1,19.3-17.3c0.2-0.8,0.8-5.1,0.8-9.1c0-5.9,0.2-7.3,0.8-7.3
	c0.8,0,0.8,0.8,0.8,7.3c0,7.3,0,7.3,1.9,7.3c3-0.2,5.1,0.8,5.1,4.6c0,0.8,0.2,3,0.8,4.6l0.8,3l0.8-4.6c1.9-5.1,0.8-10.1-3-19.3
	c-1.9-4.6-4.6-10.6-5.1-14.3c-1.9-5.9-1.9-7.3-7.3-10.1c-10.7-7.3-30.9-11.4-44.2-10.6c-10.1,0.2-13.6,3-19.5,10.4
	c-3,3-11.3,14.1-19.2,23.8c-8,10.1-16.8,20.9-19.2,25c-3,4.6-8,11.6-11,16.8c-10.1,14.9-12.6,19.1-14.1,24.6
	c-4.6,13.1,3,22.4,21,27.1c5.9,1.9,20,3,16.6,0.8L520.2,944.5z M498.5,931.2c-1.9-1.9-3-4.6-3-7.3c0-5.8,0.8-8,1.9-8
	c0.8,0,0.8,0.8,0.8,5.1c-0.8,5.1-0.2,5.8,1.9,9c3,4.6,4.6,5.1,0.8,5.1c-0.8,0-3-0.8-4.6-3L498.5,931.2z M522.7,920.7
	c0-1.9,10.4-10.1,11.6-9.1c0.8,0.8,0.2,1.9-5.1,5.9c-5.1,4.6-7.3,4.6-7.3,1.9L522.7,920.7z M596.8,862.1c0-1.9,11.5-21.3,12.8-21.3
	c1.9,0,0.8,1.9-5.1,12.3c-5.1,9.1-8,12.6-8,9.1L596.8,862.1z M678,936.3c-3-1.9-8-5.8-11.3-9c-3-3-9.1-7.3-12.8-9.1
	c-8-5.1-21.8-10.1-25.4-9c-1.9,0.2-1.9,0.2,1.9,4.6c4.6,3,49.8,27.5,52.1,27.6c0.2,0-1.9-1.9-5.1-4.6L678,936.3z M722.1,931.2
	c5.1-4.6,8-7.3,8-9c0.2-1.9,0.8-1.9,3-1.9c4.6-0.1,5.9-1.9,5.1-7.3c-0.8-5.1-19.7-36.1-41.1-67.4c-1.9-1.9-5.9-8-9.1-13.5
	c-10.7-15.8-16-20-26.1-20.9c-4.6-0.2-5.9-0.8-7.3-1.9c-0.8-0.8-0.8-1.9-1.9-0.2c-0.8,1.9-31,24.7-32.2,24.7c-0.8,0,0,5.1,4.6,14.9
	c5.1,10.6,5.1,16.2,3,24c-1.9,5.8-1.9,8,4.6,14.5c3,3,4.6,3,7.3,3c8,0,19.1,5.8,19.6,10.1c0.2,3,5.9,7.3,22.9,17.6
	c10.1,5.9,13.9,8,16.3,8c9.1,0,13.9,3,7.3,4.6l-3,0.2l5.9,4.6c3,1.9,5.9,4.6,5.9,4.6c0.2-0.1,4.6-3,9-7.3L722.1,931.2z M700.2,890.8
	c-4.6-5.8-10.1-19.1-11.9-29c-0.8-5.8-1.9-10.1-0.8-10.4c0.8-0.8,1.9-0.8,4.6,9.1c1.9,11,5.9,19.3,10.6,26.7c3,5.1,4.6,7.3,1.9,7.3
	c-0.2,0-1.9-0.8-3-3L700.2,890.8z M587.6,912.9c0.8-0.8,1.9-1.9,0.8-1.9c-0.2-0.8-0.8-0.2-3,0.8c-1.9,3-1.9,3,0.8,0.8L587.6,912.9z
	 M596.7,908.4c0.2,0,0.8-0.2,0.8-0.8c0-0.2-0.8-0.8-1.9-0.8c-1.9,0-1.9,0.2-1.9,0.8c0,0.8,0.2,0.8,0.8,0.8c0.8-0.2,1.9-0.8,1.9-0.8
	L596.7,908.4z M735,894.1c-0.8-1.9-0.8-5.1-0.2-5.9c0.2-3,0.2-3-0.8-3c-0.8,0.2-1.9-0.2-13.3-12.3c-3-4.6-1.9-1.9,3,7.3
	c1.9,4.6,5.9,9.1,8,12.8c4.6,5.8,5.1,7.3,3,1.9L735,894.1z M648,894.3c-1.9-0.8-4.6-0.8-4.6-0.8c-0.8,0-0.1,0.8,0.8,0.8
	c1.9,0.8,4.6,0.8,4.6,0.8C649.6,895,648.9,894.3,648,894.3z M625.4,807c3-0.8,9.1-1.9,11.6-4.6c5.1-1.9,9.1-1.9,14.6-0.2
	c1.9,0.8,5.9-0.8,12.3-7.3c5.9-5.1,5.9-5.1,0.2-12.1c-4.6-5.1-4.6-5.8,1.9-12.5c1.9-3,3-5.1,3-9.1c0.1-3,0.2-5.9,0.8-7.3
	c0.8-0.8,5.1-31.5,5.1-35.2c0-1.9-0.2-1.9-1.9-0.8c-1.9,0.8-3,0.8-3,0.1c-0.8-0.8,0-1.9,3-3c1.9-0.8,4.6-3,4.6-4.6
	c0-0.8,0.2-3,0.8-5.1c0.8-3,0.8-3-0.8-1.9c-0.8,0.2-3,0.8-4.6,0.8c-0.8,0.1-3,0.8-3,1.9c-0.8,0.8-1.9,0.8-8,0.8c-9-0.8-10.1-3-0.8-3
	c3-0.2,8-0.8,11.9-3c5.9-1.9,5.9-1.9,7.3-5.9c0.8-5.1,0.1-5.9-3-4.6c-0.8,0.8-7.3,0.8-12.2,0.8c-8,0.1-10.1-0.2-10.1-0.8
	c0-0.8,0.8-0.8,5.1-0.8c3,0.2,8-0.2,11.7-0.8c7.3-0.8,9.1-1.9,9.1-8c0-3-0.2-3-0.8-3c-4.6,1.9-15.3,3-23,1.9
	c-11.6-0.8-25.6-5.1-30.9-10.4l-1.9-1.9l-3,1.9c-5.1,4.6-13.4,7.3-18.2,7.3c-5.9-0.1-15.9-1.9-16.3-4.6c-0.2-0.8,1.9-0.8,10.1,0
	c5.9,0.8,7.3,0.8,11.8-0.2c3-0.8,7.3-3,9-4.6c4.6-1.9,4.6-3,3-5.9c-0.2-1.9,0-5.1,0.8-7.3c1.9-5.1,0.8-9.1-3-13.2c-3-3-3-4.6-3-8
	v-5.1l-10.4-5.1c-5.9-3-12.1-5.1-14.1-5.9c-5.1-0.8-5.9-1.9-5.9-7.3V605l-7.3-0.2l-7.3-0.2l-3-7.3c-9.1-22.9-28.7-37.3-56.3-41.9
	l-7.3-0.8l-5.9-8c-7.3-10.1-10.7-12.9-20.8-19.6l-8-5.1l-4.6,1.9c-1.9,0.8-5.1,0.8-5.9,0.8c-1.9-0.2-46.9-48-57-60.7
	c-19.7-24.5-31.7-48.8-36-72.8l-0.8-7.3l-0.8,5.1c-0.2,3-0.2,5.9-0.2,8c0.8,5.1,14.4,35,30.7,67.8c15.4,31.2,23.4,45,25.9,45.6
	c0.8,0.2,3,0.8,4.6,3c0.8,0.8,3,3,3,4.6c0.8,0.8,3,4.6,4.6,8c3,5.8,10.1,16.3,10.7,16.3c0.2,0-0.2-1.9-1.9-4.6
	c-1.9-4.6-1.9-5.9,0.2-4.6c1.9,1.9,7.3,10.7,5.9,12.3c-0.8,1.9,5.1,9.1,14,16.8c5.1,4.6,11.2,9.1,14.2,12.1c3,3,9.1,7.3,12.8,9
	c28.5,18.5,37.3,24.5,37.8,25.9c0.8,1.9-0.2,4.6-3,5.9l-3,0.8l4.6,1.9c1.9,0.8,5.1,3,5.9,5.1c0.8,0.8,5.1,3,10.4,5.1
	c5.1,1.9,8,3,8,4.6c0,1.9-1.9,0.8-8-0.8c-3-0.8-5.1-0.8-5.1-0.8c0.2,0.8,3,3,5.1,5.1c3,3,5.1,4.6,4.6,5.1c-0.8,0.8-1.9,0.2-4.6-0.8
	c-4.6-3-4.6-3-0.8,3c1.9,4.6,3,5.1,5.1,5.1c3,0,4.6,0.8,1.9,1.9c-0.8,0.2,3,4.6,9.1,10.2l10.1,10.1l5.1-0.8c5.1-0.2,5.1-0.2,5.1,0.8
	c0,0.8-0.2,0.8-0.8,0.8c-0.8,0-0.8,0.2,0.2,0.8c0.8,0.2,3,0.8,5.1,0.8c3,0,4.6,0.2,4.6,0.8c0,3-12.6,0.8-14.4-0.8
	c-0.2-0.2-1.9-0.8-5.1-0.8c-4.6-0.8-4.6-0.2-5.9,3l-1.9,3l5.1,1.9c5.9,3,17.3,3,17.9,0.8c0.2-0.8,0.8-0.8,4.6,0
	c4.6,0.8,5.9,3,5.1,3.6c-0.2,0.2-1.9,0.1-4.6-0.2c-1.9-0.8-4.6-0.8-4.6-0.2c-0.2,0.2-4.6,0.8-7.3,0.8c-5.1,0-8-0.2-12.6-1.9
	c-4.6-1.9-5.9-1.9-5.9-0.8c-0.8,0.8-0.1,7.3,0.8,8c0.2,0.2,5.9,0.8,12.3,0.8c9,0.2,12,0.8,12,1.9c0,0.8-0.8,0.8-4.6,0.8
	c-3,0-4.6,0.2-4.6,0.8c0,1.9-0.8,1.9-5.1,0.1c-0.8-0.8-4.6-0.8-7.3-1.9l-4.6-0.2l0.8,4.6c0.2,1.9,0.8,4.6,0.8,4.6
	c0.2,0.2,4.6,0.8,9,0.8c11.9,0.8,15.5,1.9,16,4.6c0.2,0.8-0.2,0.8-5.1,0.8c-12.6-1.9-20.1-1.9-20.1-0.8c0,0.8,0.2,3,0.8,5.1
	c0.2,1.9,3,13.3,5.1,24.5c3,15.3,4.6,21.6,5.9,25.4c0.8,3,3,5.1,3,5.8c0.2,0.2,0.2,0.8,0.2,1.9c-0.2,1.9,0.8,1.9,9,5.1
	c11.6,4.6,12.1,4.6,12,8c-0.2,7.3-3,8-14.6,5.1c-12.3-3-15.4-0.8-5.1,1.9c4.6,0.8,5.9,3,5.9,4.6c0,0.8-0.8,0.8-0.8,0.8
	c-1.9,0-13.3-5.1-14.9-5.8c-1.9-0.8-0.8,0.2,0.2,4.6c1.9,3,5.9,5.1,14.7,5.1c3,0.1,5.9,0.8,8,0.8c5.9,3,26.7,5.1,37.6,1.9L625.4,807
	z M510.6,599.7c-4.6-5.1-5.9-8-3-8c1.9,0.1,10.1,10.4,9.1,11.6c-0.8,0.8-1.9-0.8-5.1-4.6L510.6,599.7z M628.8,590.6
	c8-4.6,15.9-12.3,19.8-20.8c7.3-15,4.6-36.2-7.3-47.5c-5.9-5.8-13.3-10.1-23.2-10.1c-13.1-0.8-22.5,3-30.6,11.4
	c-7.3,7.3-10.6,17.3-10.6,29.1c0,16.9,8,30.7,20.5,37.1c11.1,5.1,20.9,5.9,31,0.8L628.8,590.6z M610.3,563.9
	c-13.1-3-21-16.5-17.3-29c7.3-25.3,44-21.7,45.7,4.6c0.2,3-0.2,8-0.8,10.1c-0.8,4.6-7.3,10.6-11.6,13c-4.6,1.9-11.7,3-16,1.9
	L610.3,563.9z M624.9,559.3c1.9-0.8,4.6-1.9,4.6-3c0-0.2-0.8-3-3-7.3l-3-5.8h-8h-8l-3,5.8c-0.8,3-3,5.9-3,7.3c0,0.8,1.9,1.9,4.6,3
	c5.1,1.9,13.1,1.9,18.4-0.1L624.9,559.3z M597.8,544.2c-3-0.2-3-0.1-1.9,4.6l0.8,3l1.9-3l1.9-3L597.8,544.2z M635.9,547.2
	c0.8-3,0.8-3-1.9-3c-3,0-3,0-1.9,3c0.8,3,1.9,3,4.6-0.2L635.9,547.2z M607.3,529c1.9-4.6,3-8,3-8c-1.9-0.8-10.1,5.1-12.4,10.1
	c-4.6,7.3-4.6,8,1.9,7.3l4.6-0.2L607.3,529z M620.5,537c-0.2-0.2-0.8-3-1.9-5.1c-0.8-1.9-1.9-5.1-1.9-5.1c-0.8,0-5.1,9.1-5.1,10.1
	c0,0.2,1.9,0.2,5.1,0.2c3,0,5.1-0.2,5.1-0.8L620.5,537z M636,535.1c-1.9-5.9-8-12.2-13.2-13.8c-0.8-0.2-1.9-0.2-1.9,0.1
	c0,0.2,1.9,3.6,4.6,9l4.6,8l4.6,0l4.6,0l-0.8-3L636,535.1z M684.4,557.3c10.1-5.8,19.7-11.7,21.3-13.1c4.6-4.6,28.3-34.3,68.4-86.2
	c12.6-16.4,28.6-36.9,35.5-45.7c15.1-19.1,14.4-17.9,12.8-20c-0.8-0.8-0.8-0.8,0.2-0.2c0.8,0.8,1.9,0.8,3,0c0.8-1.9,0-7.3-1.9-9.1
	c-5.1-3.6-5.9-3.6-5.1-7.3c0.2-1.9,1.9-3,5.1-4.6c9.1-4.6,11.7-7.3,7.3-10.6c-3-1.9-3-5.9,0.8-12c3-3.6,3-5.1,1.9-5.8
	c-0.8-0.8-0.8-4.6-0.8-5.8c0-3-0.2-5.9-0.2-8c-0.2-0.8-0.8-4.6-0.8-5.8c-0.2-1.9-0.8-4.6-0.8-4.6c-0.8,0-3,0.8-3,3
	c-3,10.2-5.1,15.4-9.1,20c-0.8,1.9-1.9,4.6-1.9,5.9c0,1.9-0.8,5.8-1.9,9c-0.8,4.6-0.8,5.9-0.8,7.3c1.9,1.9,0.8,13.5-0.8,14.6
	c-1.9,0.8-3,0.8-4.6-3c-0.2-1.9-1.9-3-1.9-4.6c-1.9-0.2-1.9-4.6-4.6-16.8c-0.2-3.6-0.8-10.1-1.9-12.5c-0.2-1.9-0.8-7.3-0.8-11.1
	c-0.1-5.9-0.8-13.8-1.9-10.4c-0.1,1.9-4.6,0.8-5.9-0.2c-0.8-0.8-0.8-1.9-0.2-1.9c0.2-0.8,0-0.8-0.8-1.9c-0.8-0.2-0.8-0.8-0.8-1.9
	c0-0.8-0.2-1.9-0.8-1.9c-0.2,0-0.8-0.8-1.9-3c-0.2-0.8-1.9-4.6-3-5.1c-1.9-1.9-1.9-1.9-5.1-0.8c-1.9,0.2-5.1,0.2-7.3,0
	c-1.9-0.2-5.1-0.8-5.1-0.2c-0.2,0.2-0.8,0-0.8-0.2c-1.9-0.8-5.9-1.9-5.9-0.8c0,0.2,0.8,0.8,1.9,0.8c0.8,0.2,3,3,5.1,5.1
	c1.9,1.9,3,5.1,4.6,5.8c0.8,0.8,0.8,1.9-0.1,1.9c-1.9,0.8-3,5.1-3,7.3c0,0.8-0.2,1.9-0.8,1.9c-0.8-0.1-0.8,0.8-0.8,1.9
	c-0.2,0.8-0.8,3-1.9,3c-0.8,0.8-0.8,1.9-0.8,3c0,0.8-0.8,1.9-1.9,1.9c-0.8,0-1.9,0.8-3,1.9c-0.8,1.9-0.8,1.9-5.1,1.9
	c-1.9,0-4.6,0.8-4.6,0.8c0,0.8-7.3,5.9-10.1,5.9c-0.8,0-3,0.8-5.1,3c-3,3-3,3-5.9,1.9c-1.9-0.8-1.9-0.8-4.6,0.8
	c-0.8,0.8-3,1.9-4.6,1.9c-1.9-0.8-4.6,0.8-1.9,3c0.8,3,10.1,3,15.8,0c5.1-1.9,7.3-1.9,7.3,1.9c0,1.9-0.2,1.9-0.8,0.8
	c-0.8-0.8-3-0.8-5.9,0c-7.3,0.8-16.2,0.8-17.1-0.8c-0.2-0.8-0.8-1.9-1.9-4.6c-0.8-0.8-0.8-3-0.8-3c0-0.8-1.9-3-5.1-5.1
	c-9-7.3-15.1-16.2-14-21.6c0.8-3-3-10.1-12.8-29.2c-1.9-4.6-4.6-8-4.6-9.1c0-0.8-0.8-3-1.9-5.1c-1.9-4.6-5.9-5.9-8-4.6
	c-1.9,0.8-5.9,0.8-10.1-0.8c-1.9-0.8-5.1-1.9-5.9-1.9c-1.9-0.2-5.9-0.8-9.1-1.9c-9.1-1.9-9.1-1.9-10.1,3c-0.2,4.6-0.2,4.6-3,4.6
	c-0.8,0.2-4.6-0.2-5.1-0.8c-0.8-0.8-4.6-1.9-7.3-1.9c-3-0.2-5.1-0.8-7.3-3c-0.8-0.8-3-1.9-5.1-1.9c-5.1,0-5.9-1.9-9.1-10.1
	c-1.9-7.3-1.9-7.3-0.8-8c0.8-0.8,0.8-0.8-1.9-0.8c-1.9,0-5.9,0.8-9.1,1.9c-4.6,0.8-5.1,0.8-5.9,0.2c-0.2-0.8-1.9-0.8-3-1.9
	c-1.9-0.8-3-0.8-5.1,0.2c-0.8,0.8-4.6,0.8-5.9,0.8c-1.9,0-5.1,0.8-8,1.9c-5.1,1.9-7.3,3-13.5,0.8c-1.9-0.2-1.9-0.2-3,1.9
	c-0.2,1.9-0.8,3-3,3c-1.9,0.2-3,0.8-3,3c0,1.9-0.2,3-3,3c-3,0-4.6,0.2-5.1,8c-0.8,5.1-0.8,5.9-3,5.9c-0.8,0.2-3,0.8-4.6,1.9
	c-0.8,0.8-3,1.9-4.6,3c-1.9,0.8-4.6,1.9-7.3,9c-1.9,5.1-5.1,8-5.9,8c-0.8,0-1.9,0.8-3,4.6c-0.8,1.9-1.9,5.1-1.9,5.1
	c-1.9,0.8-1.9,1.9,0.2,1.9c3,0,4.6,1.9,3,11.6c-0.2,5.1-0.8,10.1-1.9,11.4c-0.8,0.8-0.8,4.6-0.8,5.8c0.2,3,1.9,5.1,5.9,9.1
	c4.6,3,5.9,5.9,5.9,7.3c0,1.9,4.6,5.9,7.3,5.9c0.8,0,1.9,0.8,1.9,1.9c0,0.8,0.8,3,1.9,5.1c3,3,9.1,4.6,10.1,3
	c0.2-0.8,13.3-0.8,14.1-0.1c0.8,1.9,8,0.8,9-0.2c0.8-0.8,8-3,15.5-4.6c3-0.2,3,0.2,4.6,3c0.8,4.6,3,5.1,11.4,5.1
	c5.1,0.1,5.9,0.2,5.9,1.9c0,3-3,18.1-4.6,19.2c-0.8,0.8-0.1,1.9,0.8,3c0.8,0.8,3,3,4.6,4.6c4.6,7.3,4.6,9.1,7.3,14
	c0.8,3,1.9,7.3,1.9,8c0,0.8,0.2,3,0.8,3c0.8,0.8,0.8,7.3-0.8,9.1c-0.8,0.8-1.9,3-1.9,4.6c-0.1,0.8-0.8,4.6-1.9,5.1
	c-1.9,4.6-1.9,8-0.1,10.1c0.8,0.8,0.8,1.9,0.8,3c0,0.8,0.8,1.9,0.8,1.9c1.9,0.8,4.6,7.3,4.6,10.4c-0.1,1.9,0.8,5.9,1.9,9.1l1.9,5.8
	l8,0.2c9.1,0.8,13.3,1.9,20.3,5.1l5.1,1.9l5.1-4.6c3-1.9,5.1-5.1,5.9-7.3c0.8-4.6,3-5.1,8-8l3.6-1.9l-0.2-5.1
	c-0.2-4.6,0.1-5.8,0.8-7.3c0.8-0.8,5.1-4.6,10.1-5.9c8-5.1,10.1-7.3,12.2-13c0.2-0.8,0.8-8,0.8-14.5c0.2-13.4,0.8-17,5.9-22
	c5.9-5.8,12.4-13,13.6-13c0.8,0,1.9-0.8,1.9-1.9c0.8-1.9,11.4-10.1,12.3-9.1c0.2,0.2,0.1,0.8-0.2,0.8c-0.8,0-3.6,3-8,5.9
	c-4.6,4.6-8,7.3-9,8c-4.6,3-12.3,13.5-13.5,16.3c-0.8,0.8-0.8,3-0.8,5.1c-0.2,23.3-0.2,25.3-3,29.4c-3,4.6-5.1,5.8-15.6,12.7l-5.1,3
	v5.9l0,5.8l-5.1,1.9c-5.1,1.9-5.1,1.9-5.9,5.9c-0.8,3-1.9,5.1-5.9,8l-5.1,4.6l5.1,5.9c11,11.7,15.5,24.2,16.3,45
	c0.2,7.3,0.8,13.1,0.8,13.1c0.2,0,9-5.1,18.9-10.6L684.4,557.3z M688.9,488.7c-0.2-0.2-1.9-0.8-3-0.8c-1.9-0.2-1.9-0.2-0.8-5.1
	c0.8-5.9,4.6-10.4,5.9-11.4c0.8-0.2,1.9-1.9,1.9-5.1c0.2-1.9,0.8-4.6,1.9-5.1c0.8-0.8,0.8-1.9,0.8-3c0-0.8,1.9-1.9,5.9-1.9
	c3,0,4.6-0.8,8-5.9c5.1-5.9,7.3-7.3,9-4.6c1.9,1.9,0.2,9-1.9,9c-0.8,0-1.9-0.2-0.8-1.9c1.9-5.1,0.8-5.1-3-0.8
	c-1.9,1.9-3.6,5.1-3.6,5.1c0,0.8-3,3-5.9,1.9c-1.9-0.2-3,0.2-5.1,3c-0.8,1.9-1.9,5.1-1.9,5.8c0,0.8-0.8,3-1.9,4.6
	c-5.1,4.6-7.3,11.4-4.6,12.6c3,0.8,5.1-0.8,7.3-4.6c1.9-4.6,5.9-8,10.1-11.7c1.9-1.9,3-3.6,3-5.1c0-0.8,0.8-1.9,0.8-1.9
	c0.8-0.2,0.8-0.8,0.8-1.9c0-0.8,0.2-1.9,0.8-1.9c0.8-0.8,0,4.6-0.8,5.1c-0.8,0.8-0.8,1.9-0.8,3c0,0.8-0.8,1.9-3,3
	c-1.9,0.8-3,1.9-3,3c0,0.8-0.8,3-1.9,4.6c-0.8,0.8-3,4.6-3,5.1c-0.2,0.8-0.8,3-1.9,4.6c-1.9,0.8-5.9,3-8,1.9L688.9,488.7z
	 M727,382.7c0.8-1.9,1.9-3,3-3c0.2,0.2-0.8,1.9-1.9,3l-3,3L727,382.7z M563.5,561.2c0-0.2-0.2-0.8-0.8-0.8c-0.2,0-0.8,0.2-0.8,0.8
	c0,0.2,0.2,0.8,0.8,0.8C562.9,562,563.5,561.8,563.5,561.2z M561.6,556.7c0.8,0,1.9-0.8,3-8c0.8-10.4,5.9-24,10.1-31
	c5.9-10.4,18.2-19.8,27.5-21.8c5.1-0.8,5.1-0.8,3-5.1c-0.8-1.9-1.9-7.3-3-11.3c-0.8-5.9-0.8-8-3-10.1c-0.8-0.8-1.9-3-1.9-3
	c0-0.2-0.8-1.9-0.8-1.9c-1.9-1.9-1.9-9,0.8-13.6c3-7.3,5.1-11.4,4.6-12.7c-0.8-0.8-0.8-1.9-0.8-3.6c0-1.9-1.9-7.3-7.3-18
	c-0.8-1.9-3.6-5.8-5.9-7.3l-4.6-3l1.9-3c0.8-1.9,4.6-11.6,4.6-15.8c0-0.2-3-0.8-7.3-0.8c-8-0.8-10.1-0.8-10.6-5.9
	c-0.2-1.9-0.8-3-3-1.9c-0.8,0.2-4.6,0.8-7.3,0.8c-3,0.2-5.1,0.8-7.3,1.9c-1.9,1.9-1.9,1.9-16.8,0.1c-3-0.2-4.6-0.2-5.1,0.8
	c-0.8,1.9-3,1.9-8-0.2c-5.1-1.9-9.1-5.9-9.1-8c0.2-0.8-0.2-1.9-3-3c-3-0.8-7.3-5.1-7.3-7.3c0-0.8-1.9-3-5.1-5.9
	c-4.6-4.6-5.1-5.1-5.9-11.9c-0.8-5.9-0.8-7.3-0.1-8c0.8-0.8,0.8-4.6,1.9-9c0.2-7.3,0.2-8-1.9-9.1c-3-0.8-3-7.3-0.2-7.3
	c0.8-0.2,1.9-1.9,3-5.1c0.2-3,0.8-5.1,1.9-5.1c1.9-0.2,4.6-3,8-10.6c0.8-1.9,3-4.6,5.1-5.1c1.9-0.8,4.6-3,4.6-4.6
	c0.2-0.8,0.8-1.9,1.9-3c0.8-0.2,1.9-1.9,3-5.9c0.8-5.1,1.9-5.8,5.1-7.3c3-0.8,3-0.8,3-4.6c0-1.9,0.2-3,3-3c1.9,0,3-0.2,3-1.9
	c0-0.8,0.8-3,0.8-4.6c0.8-1.9,0.8-1.9-1.9-3c-1.9-0.2-4.6-0.8-5.1-0.8c-0.8-0.2-1.9-0.2-1.9-0.2c-0.8-0.1,0.2-9.1,1.9-12.2
	c0.8-1.9,0.8-5.9,1.9-9.1c0.2-3,0.2-5.8,0.2-5.8c0.2-1.9,12.6-3,16.2-0.2c4.6,3,7.3,1.9,8-1.9c0.8-3,0.8-3.6,0.2-5.1
	c-0.2-0.8-0.8-3-0.8-4.6c0-0.8-0.8-3-3-4.6c-1.9-0.8-3-3-3-3c0-1.9,4.6-4.6,7.3-3c3,0.2,3,0.2,3-1.9c0-1.9,0.2-1.9,3-1.9
	c1.9,0.1,3-0.2,3-0.8c0-0.8-5.1-0.8-10.9,0.2c-3,0.8-5.1,0.8-5.9,0.1c-0.8-0.8-0.8-0.8-0.2-0.8c1.9,0,3.6-3,3.6-5.9
	c-0.1-0.8,0.2-1.9,0.8-1.9c0.8,0,0.8-0.2,0.2-0.8c-0.2-0.2,0-0.8,0.8-0.8c0.8,0,0.8-0.2-0.1-0.8c-1.9-0.8-0.2-3,1.9-3
	c3,0,1.9-1.9-0.8-1.9c-1.9-0.2-3-0.8-3-1.9c0-3-7.3,1.9-8,5.1c-0.8,3-0.1,4.6,1.9,4.6c0.8,0,1.9-0.8,3-3c1.9-5.1,3-4.6,0.8,0.8
	c-0.8,3-1.9,4.6-3,4.6c-0.8-0.2-1.9,0.2-3.6,0.8c-5.9,3-10.2,0.8-8-3c0.8-0.8,1.9-4.6,1.9-5.8c0.8-3,0.8-4.6,3-4.6
	c0.8,0.1,1.9-0.2,3-0.8c0.8-0.8,1.9-1.9,3.6-0.8c1.9,0.2,1.9,0,1.9-0.8c0-0.8,0.2-1.9,0.8-1.9c0.8-0.2,0.8-0.8,0-1.9
	c-0.8-0.8-0.8-1.9-0.8-3c0-1.9,4.6-5.1,5.9-4.6c0.2,0.2,0.8,0.2,0.8-0.2c0.2-0.2,1.9-0.2,4.6-0.2c1.9,0.2,3,0.8,3,3
	c0.2,0.8,0.8,1.9,0.8,1.9c0.8,0,0.8,4.6-0.2,5.9c-0.8,0.8-0.8,1.9,1.9,5.8c1.9,3,4.6,5.1,5.1,5.9c0.8,0.2,1.9,0.8,0.8,1.9
	c-0.2,0.8,0,1.9,0.8,1.9c0.8,0.2,0.2,0.2-0.8,0.2c-0.8,0-1.9-0.8-1.9-1.9c0-0.8-0.2-0.8-0.8-0.2c-1.9,1.9-3,0.8-3-0.8
	c0-0.8-0.8-1.9-0.8-1.9c-0.8,0-0.8,0.2-0.8,0.8c0,0.2-1.9,0.8-4.6,0.8c-1.9,0.2-4.6,0.8-5.1,0.8c-1.9,0.8-1.9,0.8,0.8,0.8
	c1.9,0.1,3,0.2,1.9,3c-0.2,1.9-0.2,1.9,0.8,1.9c0.8-0.2,3-0.1,4.6,0.2c1.9,0.8,5.1-0.2,5.9-3c0.2-0.8,0.8-0.8,0.8,0.2
	c0,0.8,0.2,0.8,0.8,0.8c0.8-0.2,1.9-0.8,3-0.8c0.8-0.2,1.9-1.9,1.9-3c0-1.9,0.2-1.9,1.9-1.9c0.8,0,3-0.8,5.1-1.9
	c1.9-0.8,4.6-1.9,5.1-1.9c1.9,0,1.9-0.8,1.9-7.3c-0.2-4.6,5.1-9,8-8c0.8,0.1,0.8-0.8,0.8-1.9c0-3,1.9-1.9,4.6,1.9
	c0.8,1.9,1.9,4.6,3,4.6c0.2,0,0.8,0.8,0.8,0.8c0,0.8,0.2,0.8,3,0.1c1.9-0.8,3-1.9,4.6-4.6c0.2-1.9,0.8-4.6,1.9-4.6
	c0.8-0.8,0.8-0.8,0.8-0.8c-0.2,0-0.2-0.2,0.8-0.8c1.9-0.8,1.9-3,0.8-3c-3,0-5.1-8-3-10.6c5.9-5.1,8-8,9-10.1c0.2-0.8,0.8-3,1.9-3
	c1.9-0.8,7.3,0.8,8,4.6c0.8,1.9,0.2,3-1.9,5.1c-1.9,1.9-3.6,3-3.6,3c-0.8,0-1.9,4.6-0.8,7.3c0.8,3,5.1,4.6,9.1,3
	c5.1-1.9,9.1-1.9,11.7-0.1c3,0.8,3,0.8,0.8,3c-0.8,0.8-1.9,1.9-3,1.9c-1.9,0.8-10.1,0.2-16.2-1.9c-5.1-1.9-5.1-1.9-5.1-7.3
	c-0.2-3-0.2-5.1,0.8-5.8c1.9-3,0.2-1.9-3.6,0.8c-4.6,4.6-5.1,7.3-0.8,9c0.8,0.8,1.9,1.9,1.9,3c0,1.9-3,5.1-4.6,5.1
	c-1.9,0-3,4.6-0.8,5.1c0.8,0.8,0.8,0.8,0.2,1.9c-0.8,0.2-1.9,0.8-3,1.9c-0.8,0.8-1.9,1.9-3,1.9c-0.8,0-1.9,0.8-3,1.9
	c-1.9,1.9-1.9,1.9-0.1,1.9c0.8,0,3-0.8,5.1-1.9c1.9-0.8,5.1-1.9,7.3-0.8l3,0.2l0.8-5.1c0.2-3,0.8-5.8,0.8-7.3
	c-0.1-0.8,0.8-1.9,1.9-3c3-0.8,4.6-0.2,3,1.9c-0.8,0.8-0.8,0.8,0.8,0.8c3-0.8,5.9,3,3.6,5.1c-1.9,1.9-5.1,3-5.9,0.1
	c-0.8-3-3-0.8-3,5.1c-0.1,4.6-0.2,5.1-3,4.6c-1.9-0.2-1.9,0.1-1.9,0.8c0.8,1.9-1.9,1.9-4.6,0.2c-0.8-0.8-3-0.8-5.1,0.2
	c-4.6,1.9-7.3,1.9-7.3,0.8c0-0.8-3-0.8-5.1,0.2c-1.9,0.8-1.9,0.8-4.6-0.2c-1.9-0.8-1.9-1.9-1.9-3c0.2-0.8,0.8-1.9,0.8-1.9
	c0.8,0,0.8-5.1-0.2-5.8c-1.9-0.8-4.6,3-4.6,7.3c0.1,7.3,0.2,7.3-4.6,7.3c-4.6,0-10.1,3-10.1,5.8c0,0.8-1.9,1.9-4.6,3
	c-3,0.8-4.6,1.9-4.6,4.6c0,0.8-0.8,1.9-1.9,1.9c-0.8,0-1.9,0.2-1.9,0.8c-0.2,0.2-0.8,0.8-1.9,0.2c-1.9-0.8-3.6,0.2-3.6,3
	c0,1.9-0.2,1.9-3,0.8c-3-0.8-3-0.2-0.8,0.8c0.8,0.8,0.8,3,0.8,3c0,0.8,0.8,1.9,0.8,3c0.8,0.8,0.8,1.9,0,5.1
	c-0.8,1.9-0.8,4.6-0.8,4.6c0,1.9-4.6,5.1-5.9,5.1c-0.8,0-3-0.8-5.1-0.8c-3-0.8-10.9-1.9-12.8-0.8c-0.8,0.2-0.8,3-1.9,5.9
	c-0.2,3-0.8,5.9-0.8,8c-0.2,0.8-0.8,4.6-0.8,5.1c-0.2,3-0.2,3,3,3c1.9,0,3.6,0.8,5.1,0.8c1.9,0.8,1.9,0.8,7.3-0.8c3-1.9,7.3-3,8-3
	c3-0.2,3-0.8,3-3c0.1-5.1,1.9-5.9,7.3-8c4.6-0.8,5.1-1.9,5.1-4.6c0-3,3-5.1,5.1-5.1c5.1,1.9,7.3,1.9,7.3,0.1c0.2-0.8,1.9-1.9,3-1.9
	c0.8,0,3-0.2,4.6-0.8c1.9-0.8,1.9-0.8,5.1,1.9c5.9,7.3,7.3,8,12.8,12.1c3,1.9,5.9,5.1,7.3,5.9c0.8,3,1.9,3,3,1.9
	c0.2-0.2-0.1-0.8-0.8-1.9c-1.9-0.8-0.8-0.8,0.2-3l1.9-0.8l-3-3c-1.9-0.8-4.6-3-5.1-3c-0.8-0.2-3-1.9-4.6-4.6c-0.8-1.9-3-4.6-4.6-4.6
	c-0.8-0.2-0.8-0.8-0.8-3c0-5.1,5.1-8,5.9-4.6c0.2,0.8,1.9,1.9,3,3c0.8,0.2,3,1.9,4.6,3c0.8,0.8,4.6,4.6,7.3,5.8
	c5.1,3,5.1,4.6,5.9,7.3c0,3.6,0.8,5.9,3,5.9c0.8,0,1.9,0.8,1.9,3c0.2,0.8,0.8,3,1.9,4.6c0.8,0.8,1.9,1.9,0.8,3
	c-0.2,0.8,0.1,0.8,0.8,0.8c0.8,0,0.8-0.8,0.8-0.8c0-1.9,1.9-3,4.6-0.8c1.9,0.8,1.9,0.8-0.2,0.8c-0.8,0-1.9,0.8-1.9,0.8
	c0,1.9-1.9,3-5.1,3c-0.8-0.2-1.9-0.8-1.9-0.8c0.8-0.8-0.8-1.9-4.6-4.6c-3-0.8-4.6-5.1-0.8-5.1c0.8,0,0.8-0.2-0.2-0.8
	c-0.8-0.2-1.9-1.9-1.9-3c-0.2-0.8-0.8-1.9-0.8-1.9c-0.8,0.2-0.8,0.8-0.8,4.6c-0.1,0.8-0.2,0.8-0.8,0.8c-0.8-0.8-9,8-9,9.1
	c0,0.8-0.8,0.8-4.6,0.8c-5.1-0.2-9.1-3-9.1-5.9c0-1.9,4.6-3,8-3c4.6,0,3-1.9-4.6-8c-9.1-7.3-10.1-8-10.1-9.1c0-3-7.3-4.6-9-0.8
	c-0.8,0.8-1.9,0.8-4.6,0.8c-7.3-0.8-7.3-0.8-8,1.9c-0.2,3-0.8,3-5.1,5.1c-5.1,1.9-7.3,4.6-7.3,7.3c0.2,1.9-3,5.1-5.1,5.1
	c-1.9,0-13.4,5.9-13.4,7.3c0,1.9,5.9,0.8,10.4-1.9c3-0.8,5.1-1.9,7.3-1.9c0.8,0.2,4.6-0.2,5.1-0.8c4.6-1.9,7.3-1.9,10.1-0.2
	c0.8,0.8,3,0.8,5.9,0.2c9.1-1.9,16.8-0.8,16.8,1.9c0,0.8-0.8,1.9-0.8,1.9c-1.9,0.8-1.9,0.8,0.8,7.3c1.9,5.1,1.9,5.1,5.1,5.1
	c3,0,7.3,1.9,10.1,5.1c0.8,0.8,3,1.9,5.1,1.9c1.9,0,4.6,0.8,5.1,0.8c0.8,0.8,1.9,0.8,3,0.8c0.8,0,1.9-0.8,1.9-3
	c0-5.1,0.8-5.9,5.1-5.9c4.6,0,18.2,4.6,22.7,5.9c0.8,0.8,4.6,0.8,5.9,0.8c1.9-0.1,7.3-0.2,10.9-0.2c5.9-0.1,7.3-0.2,7.3-1.9
	c0.8-1.9,3-3,3-0.8c-0.1,1.9-1.9,4.6-5.1,5.1c-3,0.8-4.6,1.9-1.9,5.9c1.9,4.6,4.6,5.1,5.9,4.6c0.8-0.8,5.9,3,5.9,5.1
	c0,0.8,0.2,0.8,0.8,0.8c0.8,0,4.6,5.9,3,8c-0.2,1.9,0,1.9,0.8,1.9c1.9,0,7.3,5.9,7.3,8c0.2,0.8,0.2,3,0,4.6c-0.2,0.8,0.2,1.9,0.8,3
	c5.9,5.1,11.6,17.1,12.2,25.2c0.2,5.1,0.8,5.9,3,5.9c0.8,0,3-0.8,4.6-1.9c0.8-0.8,3-1.9,4.6-1.9c0.8,0,4.6-0.8,5.1-1.9
	c0.8-0.8,3-1.9,3-0.8c0.8,0.8,10.9-5.1,13.3-7.3c0.8-0.8,1.9-0.8,3-0.8c0.8,0.2,3-0.8,5.1-3l3-3l-0.2-11.7c-0.2-12-0.8-15.1-3-15.1
	c-0.2,0-0.8,0.8-0.2,0.8c0.8,1.9-0.8,3-7.3,3c-5.1,0.2-5.1,0.1-5.9-1.9c-0.2-0.8-0.8-1.9-0.2-3c0.2-0.2-0.8-0.8-1.9-0.8
	c-0.8-0.2-1.9-0.8-1.9-3c0-1.9-0.8-3-3-4.6c-3-1.9-5.1-5.1-5.1-10.4c-0.1-3,0.2-3,1.9-3c1.9-0.2,8,4.6,8,5.8c0,0.8,0.8,1.9,3,4.6
	c4.6,3,3,4.6-0.8,0.8c-1.9-0.8-3-3-3-4.6c0-1.9-5.1-7.3-7.3-5.9c-3,1.9,0.8,10.6,4.6,11.4c1.9,0.2,1.9,0.8,1.9,3c0,1.9,0.8,1.9,3,3
	c3,0.8,4.6,0.8,5.9,0.8c0.8,0.1,0.8,0.8,0.8,1.9c0,0.8,0.2,0.8,0.2,0.8c0.2,0,0.8,0.2,1.9,0.8c0.8,0.2,0.8,0,0.8-1.9
	c-0.2-3,0.8-5.9,3-5.1c0.8,0.2,1.9-0.1,1.9-0.8c0.8-0.8,0.8-0.8,1.9,0.2c0.2,0.8,1.9,1.9,3,1.9c0.8,0,3,0.2,3,0.8
	c0.8,0.8,4.6,0.8,9.1,0.8c7.3,0.1,8,0.2,10.6,1.9c0.8,0.8,3,3,3,4.6c0.2,0.8,1.9,1.9,3.6,3c1.9,0.8,3,1.9,0.8,1.9
	c-1.9,0.2-1.9,0.8,0.1,4.6l1.9,1.9l0.8-1.9c0.8-0.8,0.8-1.9,1.9-1.9c0.8,0,3,5.1,4.6,11.1c0.2,9.1,0.8,17,1.9,20.2
	c0.2,1.9,0.8,5.9,0.8,10.9c0.2,4.6,0.8,8,0.8,8c0.8,0,4.6-9,5.1-17.3c0.8-5.9,0.8-9.1,3-10.1c3-1.9,5.1-5.9,5.9-11.3
	c0.8-3,1.9-5.1,3-5.9c0.8-0.8,0.8-1.9,0.8-3c0-0.8,0.8-1.9,0.8-3c0.8-0.2,1.9-1.9,3-3c0.8-0.8,1.9-3,1.9-3c0.8,0,4.6,9.1,5.1,17.8
	c0.2,3,0.2,4.6-0.2,5.1c-0.8,1.9,0.8,1.9,3,0.2c4.6-4.6,3-25.2-1.9-44c-7.3-28-13.1-43.8-20.6-54.9c-1.9-3-8-10.1-12.9-15.3
	c-14.7-15.6-19.3-22.7-21.9-33.9c-3-11.1-5.9-16-19.5-25.3c-3-1.9-9.1-7.3-13-10.6c-8-8-16.5-14-24.6-18.9c-8-5.1-11.4-7.3-10.1-5.1
	c0.8,0.8,0.8,1.9,0.8,3c-0.2,0.8-0.2,0.8,0.2,0.1c0.8-0.8,0.8-0.8,3,0.2c0.8,0.8,3,4.6,3,5.8c0.8,3,0.8,3.6,0,3
	c-0.8-0.2-1.9-0.8-1.9-0.8c-0.2,0-0.2-0.8,0.2-1.9c0.8-1.9,0.8-1.9-0.8-3c-1.9-0.8-1.9-0.8-4.6-0.8c-0.2-0.1-0.8-0.8-0.8-1.9
	c0-0.8-0.8-0.8-1.9-0.8c-0.8,0-1.9,0.2-0.8,0.8c0.8,1.9-4.6,0.8-9.1-0.8c-5.1-1.9-8-3-7.3-0.8c0.2,0.2-0.1,0.8-0.8,0.8
	c-0.8,0.2-0.8,0.1-0.8-0.8c0.2-0.8,0-0.8-0.8-0.8c-0.8,0-3-0.2-4.6-0.8c-0.8-0.8-3-0.8-5.1-0.8c-3,0.2-13-4.6-13-5.9
	c0-0.8-0.8-1.9-1.9-3c-0.8-0.8-1.9-1.9-0.8-3c0.2-0.8-0.2-1.9-0.8-3c-0.8-1.9-4.6-3-13.1-5.1c-5.9-0.8-14.9-3-19.2-4.6
	c-8-0.8-8-0.8-9.1,0.2c-0.8,1.9-3,1.9-5.1,0.2c-0.8-0.8-0.8-0.8-0.8-0.2c0,0.8-0.2,1.9-0.8,3c-0.8,1.9-3.6,0.1-8-3
	c-1.9-1.9-1.9-1.9-11.6-1.9c-14,0.8-18.3,1.9-20.7,4.6c-1.9,1.9-5.1,3-3,0.8c1.9-1.9,0.8-3-0.8-1.9c-16.1,3-22.7,5.1-30.1,8
	c-20.2,8-34.7,14.6-20.1,9.1c4.6-0.8,7.3-1.9,7.3-1.9c0.2,0.2-4.6,1.9-9.1,4.6c-5.1,1.9-9.1,4.6-9.1,5.1c0.2,0.2,5.1-1.9,10.7-4.6
	c5.9-1.9,10.7-4.6,11.2-4.6c0.2,0.2-3,1.9-8,5.1c-9.1,4.6-11,5.9-5.9,5.1c3-0.2,1.9-0.1-3,3c-3,1.9-5.9,4.6-7.3,5.1
	c-0.8,0.8-0.8,0.8-0.8,0.1c-0.8-0.8-4.6,0.2-17.1,8c-4.6,1.9-7.3,4.6-7.3,5.1c0,0.8-0.2,0.8-3.6,1.9c-0.8,0.1-0.8,0.8-1.9,1.9
	c-0.2,1.9,0.1,1.9,0.8,1.9c0.8-0.2,0.8-0.2-0.1,0.8c-1.9,0.8-1.9,0.8-3-1.9c-1.9-4.6-0.8-7.3,5.1-14.5l4.6-5.1l-5.1,4.6
	c-11.9,10.1-37.1,36.5-38.1,40.5c-0.2,1.9-0.8,3-0.8,3c-0.2,0-0.8,0.8-0.8,1.9c-0.2,0.8-0.8,1.9-1.9,1.9c-0.8,0-0.8,0.8-0.8,1.9
	c0,0.8-0.8,3-0.8,3.6c-0.8,0.8-0.8,4.6-0.8,5.1c0,3-1.9,3-3,0.2c-0.8-1.9-0.8-1.9-4.6,0.2c-3,1.9-3,1.9-0.8,4.6
	c1.9,0.8,1.9,0.8,4.6-0.1c1.9-1.9,1.9-0.8,0,3c-1.9,3-4.6,4.6-4.6,0.8c0-0.8-0.8-0.8-3-0.8c-1.9,0-4.6,0.8-5.9,4.6
	c-1.9,1.9-4.6,4.6-5.1,4.6c-4.6,0-23.4,39.2-32.6,66.8c-4.6,12.3-7.3,24.7-7.3,29c0,4.6,3,7.3,5.9,5.9c1.9-0.2,1.9,0.8,0.8,5.1
	c-0.2,1.9-0.8,1.9-3,1.9c-1.9-0.2-3-0.2-3,0.2c0,0.2-0.8,0.8-0.8,0.8c-0.8,0-0.8,1.9-0.8,9c0,7.3,0.2,9.1,0.8,9.1
	c0.8,0,1.9,1.9,3,4.6c1.9,3,1.9,4.6,5.1,4.6c3,0,4.6,0.2,5.1,3c0.8,1.9,1.9,4.6,1.9,5.1c0.8,4.6,5.9,10.4,9.1,11.5
	c3,0.8,10.1,9.1,10.1,11.2c0,0.8,0.8,3,1.9,4.6c0.8,0.8,1.9,3,1.9,5.1c0.2,0.8,1.9,3,3,5.1c5.1,4.6,12.8,9.1,14.1,9.1
	c0.8,0,1.9,0.2,1.9,0.8c0.2,0.2,1.9,0.8,4.6,0.8c3,0,4.6,0.2,7.3,3.6c1.9,1.9,3,4.6,4.6,3c1.9-0.8,8,5.8,8,10.1c0,3-1.9,0.8-4.6-3
	c-0.8-3-3-4.6-4.6-4.6c-0.8,0-3-1.9-5.1-4.6c-3-3-3.6-4.6-8-4.6c-1.9-0.2-4.6,0-4.6,0.8c0,0.2-0.8,0.8-1.9,0.2
	c-0.8-0.2-1.9-0.8-1.9-3c-0.2-0.8-1.9-3-3-4.6c-4.6-1.9-5.1-1.9-4.6-0.2c0.2,0.8-0.1,0.8-0.8,0.8c-1.9,0-1.9-0.8-1.9-3
	c0-4.6-0.8-4.6-3-1.9c-1.9,1.9-3,0-3-4.6c0.2-1.9,0.1-4.6-0.2-4.6c-0.8-0.8-0.8-3-1.9-4.6c-0.8-4.6-7.3-10.6-9-10.7
	c-3,0-13.6-14.4-13.6-18.1c0-0.8-0.2-0.8-0.8,0.1c-0.8,1.9-1.9,1.9-1.9,0.2c0-0.8-0.8-1.9-0.8-1.9c-0.8-0.8-0.8,0-1.9,5.1
	c-0.2,5.1-0.2,7.3,3,16.2c1.9,5.8,5.1,17.9,7.3,28.1c3.6,19.3,5.9,24.6,12.2,32.7c11.8,15.1,54.3,60.3,55.5,59.2
	c0.2-0.2-0.8-3-3-5.9c-3-5.1-4.6-13.1-1.9-13.1c0.2,0,0.8-0.8,0.8-1.9c0-0.8,0.8-0.8,3-0.8l3,0.2l-0.2-5.9c-0.2-3-0.8-9.1-1.9-11.7
	c-1.9-5.8-1.9-8,0.2-3c1.9,4.6,3,10.7,4.6,17.1c0.2,4.6,0.2,5.1-1.9,5.1c-3,0-5.1,1.9-5.1,5.9c0,0.8,1.9,5.1,3.6,8
	c1.9,3,4.6,7.3,4.6,8c0.2,0.8,5.1,7.3,11,12.8c10.1,10.1,11,10.6,20.6,15c12.8,5.8,17.5,9.1,23.8,16.3c4.6,5.1,5.1,5.8,7.3,5.1
	c1.9-0.2,1.9-0.2,1.9,0.8c0,1.9,0.8,1.9,5.1,3c5.1,0.8,20.5,7.3,28.5,11.1c3,0.8,3,1.9,4.6,0.2c0.2-0.8,0.8-0.8,1.9-0.8L561.6,556.7
	z M447.9,442.5c-0.2-0.8-0.2-0.8,0.2-0.2c0.8,0.8,0.8,0.8,0.8,1.9c-0.2,0.2-0.8-0.2-0.8-0.8L447.9,442.5z M655.5,259.6
	c-0.2-0.8-0.2-1.9,0-3c0.2-0.2,0-1.9-0.8-3c-0.8-0.8-1.9-3-1.9-5.1c-0.2-0.8-0.8-3-1.9-4.6c-0.8-0.8-0.8-1.9-0.8-1.9
	c0.2-0.2,0.1-1.9-0.8-1.9c-0.8-0.8-0.8-0.8,0.2-0.8c0.8,0,4.6,3,3,5.1c-0.8,3,4.6,11.8,5.1,11.3c0.8-0.2,1.9,0.8,3,0.8
	c3,3,5.1,3,5.1-0.8l0.2-3l3,3c3,3,8,3,7.3,0.8c-0.2-0.8,0.8-0.8,1.9-0.8c0.8,0,1.9,0.2,0.8,0.8c-0.8,0.2-1.9,0.8-1.9,1.9
	c-0.8,1.9-7.3,1.9-8-0.1c-1.9-1.9-3-1.9-3,0.8c-0.2,1.9-0.8,1.9-3,0.8c-0.8-0.2-3-0.8-3-1.9c-0.2-0.8-0.8-0.8-1.9-0.8
	c-0.2,0-0.8,0.2-0.2,0.8c0.8,0.8-0.2,4.6-0.8,4.6c-0.2,0-0.8-0.8-0.8-1.9L655.5,259.6z M683.3,257.7c-0.2-0.2-0.1-0.8,0.2-0.8
	c0.2,0,0.8,0.2,0.8,0.8c0,0.2-0.2,0.8-0.2,0.8C683.9,258.5,683.3,258.3,683.3,257.7z M642.7,248.6c-0.8-0.8-1.9-1.9-1.9-3
	c0-0.8-0.8-1.9-1.9-1.9c-0.8-0.2-1.9-0.8-1.9-3c0-1.9,0.2-1.9,1.9-0.8c0.8,0.2,3,0,4.6-0.8c1.9-0.8,5.1-0.8,5.1,0.8
	c0,0.2-0.2,0.8-0.8,0.2c-0.8-0.2-1.9,0-1.9,0.8c-0.8,0.8-0.8,1.9-1.9,1.9c-0.8,0.2-0.8,0.8-0.2,3c0.8,1.9,0.8,1.9,1.9,0.8
	c0.8-0.8,4.6-0.2,4.6,0.8c0,0.2-0.8,0.8-0.8,0.2c-0.8-0.2-0.8-0.2-0.8,0.8c0.8,1.9,0.8,1.9-1.9,0L642.7,248.6z M587.2,164.9
	c-0.8-3-0.8-4.6-0.2-4.6c0.8-0.8,0.8-0.8,0.1-0.8c-0.8-0.2-0.8-0.8,0.2-3c0.8-0.8,0.8-3,0.8-4.6c0-0.8,0.8-1.9,1.9-1.9
	c0.8-0.2,1.9-0.8,1.9-0.8c0-0.2,1.9-1.9,5.1-3c4.6-1.9,5.1-3,5.1-4.6c0-0.8,0.8-1.9,1.9-1.9c0.8-0.2,3-1.9,3-3
	c0.8-0.8,0.8-1.9,1.9-1.9c0.2,0,0.8-0.8,0.8-0.8c0.2-0.8,0.2-0.8-0.8-0.8c-0.8,0.2-3-1.9-1.9-3c0.2-0.2,0.8-0.8,1.9-0.8
	c0.8,0,1.9-0.2,1.9-0.8c0.2-0.2,0.8-0.8,1.9-0.8c0.2,0,0.8-0.8,1.9-1.9c0.8-0.8,0.8-1.9,0.8-1.9c0.1-0.2,0.8-0.2,1.9-0.2
	c0.8-0.1,3-0.8,4.6-0.8c4.6-1.9,14.8-1.9,17.9,0.8c0.8,0.8,7.3,4.6,12.9,5.8c9.1,3,10.9,4.6,12.5,5.9c3,4.6,4.6,4.6,0.8-0.2
	c-0.8-1.9-1.9-4.6-0.8-4.6c0.8-0.8,5.1-0.8,5.1,0.1c0,0.2,0.8,0.8,0.8,0.8c0.8,0,0.8-0.2,0.8-0.8c0-0.2,0.2-0.8,0.8-0.8
	c1.9,0.2,1.9-0.2,0.8-1.9c-0.8-0.8-0.8-0.8,0.2-0.8c0.8,0.2,1.9,0.8,1.9,1.9c0,1.9,3,3,3.6,0.8c0.2-0.8,7.3,0,7.3,1.9
	c0,1.9-3,3-4.6,1.9c-0.8-0.8-5.1-0.2-5.9,1.9c-0.8,3-5.1,7.3-7.3,5.8c-0.8-0.8-5.1-0.2-5.1,0.8c0,0.2,0.8,0.8,0.8,1.9
	c1.9,1.9,0.8,3-0.8,3c-0.8,0-0.8,0.8-0.8,0.8c0,1.9-4.6,1.9-7.3-0.1c-0.8-0.8-3-1.9-4.6-1.9c-0.8,0-0.8-0.2-0.8-0.8
	c0-0.8-1.9-3-4.6-5.1c-3-3-3.6-4.6-3-5.1c0.8-0.8,1.9-0.8,5.9,0.8c5.1,1.9,11.7,3,11.2,0.8c-0.2-0.8-11.4-5.8-15-5.8
	c-1.9,0-3-0.2-3-0.8c0-0.8-8-5.8-9-5.1c-0.8,0.8-5.1,0.8-5.9,0.2c-0.8-0.8-4.6-0.8-4.6,0c0,0.2-0.8,0.8-1.9,0.8
	c-0.8,0.2-1.9,0.8-0.8,1.9c0.2,0.8,0.1,0.8-0.2,0.8c-0.2,0-0.8-0.8-0.8-1.9c-0.8-3-3-1.9-3,0.8c0,0.8-0.8,3-3,3
	c-1.9,0.8-3,1.9-4.6,3c-0.2,0.8-0.8,1.9-1.9,1.9c-0.8,0.2-0.8,0.8-0.8,1.9c0,1.9-7.3,8-9.1,8c-0.8,0-0.8,0.2-0.8,0.8
	c0,0.8-0.8,0.8-1.9,1.9c-5.1,1.9-10.1,7.3-7.3,9.1c0.8,0.2,0.8,0.8,0,1.9c-1.9,1.9-0.8,3,3,3c3,0,5.1,0.2,5.9,0.8
	c1.9,0.8-4.6,5.1-7.3,5.1c-1.9,0-3-0.8-4.6-3L587.2,164.9z M662.1,139.5c-0.2-0.2-1.9-0.8-3-0.8c-1.9,0-1.9,0.1-0.8,0.8
	c1.9,0.8,5.1,0.8,4.6-0.2L662.1,139.5z M665.1,140.3c0-0.2-0.2-0.8-0.8-0.8c-0.2,0-0.8,0.2-0.2,0.8c0.2,0.2,0.8,0.8,0.8,0.8
	c0.2,0,0.8-0.8,0.8-0.8H665.1z M678.7,129.7c0-0.2-0.8-0.8-0.8-0.8c-0.8,0-0.8,0.2-0.8,0.8c0.2,0.2,0.8,0.8,0.8,0.8
	C678.1,130.5,678.7,130.3,678.7,129.7z M534.9,144.2c-0.2-0.2-1.9-0.8-4.6-0.8c-5.9-0.8-3-9.1,4.6-11.4c3-0.8,4.6-0.8,5.1,0.8
	c0.8,0.8,1.9,0.8,4.6,0.8c10.1-1.9,10.1-1.9,9,0.2c-0.8,0.8-0.8,1.9-0.8,3c0.8,0.8-0.8,4.6-1.9,4.6c-0.2,0-0.8-0.8-0.2-0.8
	c0.8-3-0.8-3-9.1-1.9c-4.6,0.8-8,0.8-8,0.8c-0.8,0.1,0.2,1.9,0.8,1.9c0.2,0,1.9,0.8,1.9,0.8c0.8,0.8,1.9,0.8,5.9-0.8
	c3-0.8,4.6-1.9,5.1-0.8c0.8,0.8-0.1,0.8-1.9,1.9c-1.9,0.2-4.6,0.8-4.6,1.9c-0.8,1.9-4.6,1.9-5.1,0.2L534.9,144.2z M512.4,134.1
	c0-0.2,4.6-3,8-5.8c5.1-3,10.1-5.9,11.6-8c4.6-4.6,18-10.7,20-10.1c0.8,0.2,0.8,0.2,0.8-0.2c-0.2-0.2,0.2-0.8,1.9-1.9
	c1.9-0.8,1.9-0.8,0.8,0.2c-3,1.9,0.2,1.9,3-0.2c1.9-0.8,3-1.9,3-1.9c0.8,0.8-16.2,11.4-18.1,11.4c-0.8,0-3,1.9-3,3
	c0,1.9-8,5.1-11.7,5.9c-5.1,0.2-5.9,0.8-12.6,5.1c-3,1.9-5.1,3-5.1,1.9L512.4,134.1z M550.5,112.3c0.8-0.8,0.8-0.8,0.8-0.8
	c-0.2,0-1.9,0.8-3,0.8c-0.8,0.8-0.8,0.8-0.8,0.8C547.6,113.1,549.4,112.3,550.5,112.3L550.5,112.3z M543.1,120.3
	c-0.8-0.8-0.8-0.8,0.2-0.2c0.8,0.2,1.9,0,3-0.8c0.8-0.8,0.8-0.8,0.8,0c0,0.8-1.9,1.9-4.6,0.8L543.1,120.3z M709.5,345.8
	c0-5.1-5.1-16.1-11.3-22.5c-0.8-1.9-1.9-3-1.9-5.1c0.2-3-3-9-5.9-10.2c-0.8-0.8-1.9-1.9-1.9-3c0-5.1-5.1-13.3-7.3-12.3
	c-1.9,0.8-1.9,5.9,0.2,8c0.8,0.8,4.6,5.9,7.3,11.6c5.1,9,5.1,10.2,5.1,15.9v5.8l7.3,7.3c4.6,4.6,8,7.3,8,7.3c0.2,0,0.8-0.8,0.8-3
	L709.5,345.8z M763.1,321.7c0.2-0.8,0.8-3,1.9-3c0.8-0.2,0.2-0.8-0.2-3c-3-5.1-4.6-4.6-4.6,3c-0.2,5.1,0,5.9,0.8,5.9
	c0.8,0,1.9-0.8,1.9-3L763.1,321.7z M744.9,305.3c0.2-0.8-0.2-0.8-0.8-0.8c-0.8,0-0.8,0.8-0.8,0.8c0,1.9,1.9,0.8,3-0.2L744.9,305.3z
	 M612.9,249.8l1.9-1.9l-3.6,0.8c-5.1,0.8-5.1,0.8-4.6,3c1.9,1.9,4.6,1.9,5.9-0.8L612.9,249.8z M625.4,236.3c0.8-1.9-1.9-4.6-7.3-7.3
	c-1.9-0.8-4.6-3-5.9-4.6c-0.8-0.8-4.6-3-5.1-4.6c-1.9-0.8-3-0.8-3,0c0,0.8,0.2,0.8,0.8,0.8c0.2,0,1.9,1.9,4.6,4.6
	c1.9,1.9,4.6,5.1,5.9,5.1c0.8,0.2,4.6,1.9,5.1,3c3,3,4.6,3,5.1,0.8L625.4,236.3z M420.3,200.4c0-0.2-0.2-0.8-0.2-0.8
	c-0.2,0-0.8,0.2-0.8,0.8c-0.2,0.2-0.1,0.8,0.8,0.8c0.2,0,0.8-0.2,0.8-0.8H420.3z M570.2,195.8c0-0.2-0.2-0.8-0.2-0.8
	c-0.2,0-0.8,0.2-0.8,0.8c-0.2,0.2-0.2,0.8,0.2,0.8C569.7,196.6,570.2,196.4,570.2,195.8z M542.8,187.8c0.2-0.2-0.1-0.8-0.8-0.8
	c-0.8,0-0.8,0.2-0.8,0.8c0.2,0.2,0.8,0.8,0.8,0.8C542.2,188.6,542.8,188.4,542.8,187.8z M436.6,180.4c0-0.8-3,0.8-4.6,4.6
	c-0.8,1.9-0.8,1.9,0.8-0.2c0.8-0.8,3-3,3-3L436.6,180.4z M561.6,185c0-0.8-0.8-0.8-3,0c-0.8,0.8-0.8,0.8,0.8,0.8
	c0.8,0,1.9-0.2,1.9-0.8H561.6z M566.2,182c0.8-0.8,0.8-0.8-0.2-4.6c-0.8-1.9-3-3-3-3c-1.9,0-1.9-0.8,0.8-3l1.9-1.9l-1.9-0.8
	c-1.9-0.8-3-0.8-4.6,0.8c-1.9,1.9-3,5.1-0.8,5.1c0.8,0.2,1.9,1.9,3,5.1c0.8,4.6,1.9,5.1,5.1,3L566.2,182z M605.3,176.9
	c0-0.8-0.2-0.8-0.8-0.8c-0.8,0.2-0.8,0.8-0.8,0.8c0.8,0.8,1.9,0.8,1.9-0.2L605.3,176.9z M638,168.9c0-0.2-0.2-0.8-0.8-0.8
	c-0.2,0-0.8,0.2-0.8,0.8c0,0.2,0.2,0.8,0.8,0.8C638,169.6,638,169.4,638,168.9z M648.1,159.8c0.8-1.9,0.8-1.9-1.9-0.8
	c-4.6,0.2-5.1,0.8-3,1.9c1.9,0.8,4.6,0.8,5.1-0.8L648.1,159.8z M633.7,140.3c0-0.8-0.2-1.9-0.8-1.9c-0.2,0-0.8,0.2-0.8,0.8
	c0,0.2-0.2,1.9-0.8,1.9c-0.2,0.8-0.2,0.8,0.8,0.8c0.8-0.2,0.8-0.8,0.8-1.9L633.7,140.3z M514,125.7c5.1-3,0.8-1.9-5.9,1.9
	c-4.6,1.9-7.3,4.6-7.3,4.6c0,0.2,8-3,13-5.1L514,125.7z M708.7,125.5c0-0.8-4.6-4.6-7.3-5.1c-1.9-0.8-1.9-0.8,0.2,1.9
	c1.9,1.9,4.6,3,5.9,4.6c0.1,0,0.2-0.2,0.2-0.8L708.7,125.5z M702.8,124.8c0-0.2-0.8-0.8-3-1.9c-1.9-0.8-4.6-3-5.1-5.1
	c-0.8-0.8-3-3-3.6-4.6c-1.9-0.2-3-0.8-3-1.9c-0.8-0.8-12.8-5.1-13.1-4.6c-0.2,0.2,0.2,0.8,0.8,1.9c0.8,0.8,0.8,1.9,0.8,1.9
	c0,0.2,1.9,1.9,5.1,3c3,0.8,5.1,3,5.1,3c0,0.2,0.2,0.8,0.8,0.2c0.8-0.2,3,0.1,10.6,4.6c3,1.9,5.1,1.9,5.1,0.8L702.8,124.8z
	 M651.2,670c-0.8-1.9,0.8-1.9,10.1-3c8-0.2,11.3,0.2,9.1,1.9c-0.8,0.8-18.7,1.9-19.3,0.8L651.2,670z M696,583.4
	c0-1.9,19-14.1,22.5-14.1c3,0,0.8,1.9-3,4.6c-3,0.8-7.3,4.6-10.9,7.3c-5.9,5.1-8,5.1-8,3L696,583.4z M718.2,566.1
	c0-0.8,1.9-1.9,4.6-1.9c0.8,0,0.8,3-0.8,3c-1.9,0.8-3,0.8-3-0.8L718.2,566.1z M728.8,561c0-0.8,3-4.6,5.9-5.9c3-3,7.3-7.3,9.1-8
	c3-3,5.9-4.6,5.1-0.8c-0.2,0.8-17.8,16.8-19.1,16.8c-0.2,0-0.8-0.8-0.8-0.8L728.8,561z M751.8,543.9c0-0.8,11.6-13.6,13.1-14.1
	c3-0.8,0.8,1.9-5.1,8c-5.9,5.8-8,8-8,5.8V543.9z"/>
</svg>
