<svg width="30" height="30" viewBox="0 0 30 30" fill="none" xmlns="http://www.w3.org/2000/svg">
<path d="M18.5611 14.9997L29.7035 3.85796C30.0991 3.4623 30.0991 2.82203 29.7035 2.4265L27.5741 0.29624C27.3844 0.106712 27.127 0 26.8584 0C26.5897 0 26.3323 0.106712 26.1427 0.29624L15.0003 11.4388L3.85786 0.29624C3.6682 0.106712 3.41083 0 3.14213 0C2.8735 0 2.61606 0.106712 2.42647 0.29624L0.296989 2.4265C-0.0986708 2.82203 -0.0986708 3.4623 0.296989 3.85796L11.4394 14.9997L0.298096 26.1401C-0.0973686 26.5358 -0.0973686 27.176 0.298096 27.5716L2.4277 29.7018C2.61723 29.8913 2.87467 29.9981 3.14337 29.9981C3.41207 29.9981 3.66944 29.8913 3.85916 29.7018L15.0002 18.5606L26.1413 29.7018C26.331 29.8913 26.5883 29.9981 26.857 29.9981C27.1258 29.9981 27.3832 29.8913 27.5727 29.7018L29.7023 27.5716C30.0978 27.176 30.0978 26.5358 29.7023 26.1401L18.5611 14.9997Z" fill="current"/>
</svg>
